let amos_teen_L_notes ={ 
    
            "notes": [
              {
                "duration": 1.9947916666666665,
                "durationTicks": 766,
                "midi": 82,
                "name": "A#5",
                "ticks": 1243,
                "time": 3.2369791666666665,
                "velocity": 0.8661417322834646
              },
              {
                "duration": 0.6666666666666661,
                "durationTicks": 256,
                "midi": 80,
                "name": "G#5",
                "ticks": 2011,
                "time": 5.236979166666667,
                "velocity": 0.8661417322834646
              },
              {
                "duration": 0.6666666666666661,
                "durationTicks": 256,
                "midi": 79,
                "name": "G5",
                "ticks": 2299,
                "time": 5.986979166666667,
                "velocity": 0.8661417322834646
              },
              {
                "duration": 0.9947916666666661,
                "durationTicks": 382,
                "midi": 77,
                "name": "F5",
                "ticks": 2587,
                "time": 6.736979166666667,
                "velocity": 0.8661417322834646
              },
              {
                "duration": 1.619791666666667,
                "durationTicks": 622,
                "midi": 75,
                "name": "D#5",
                "ticks": 2971,
                "time": 7.736979166666667,
                "velocity": 0.8661417322834646
              },
              {
                "duration": 0.24479166666666785,
                "durationTicks": 94,
                "midi": 72,
                "name": "C5",
                "ticks": 3739,
                "time": 9.736979166666666,
                "velocity": 0.8661417322834646
              },
              {
                "duration": 0.24479166666666785,
                "durationTicks": 94,
                "midi": 67,
                "name": "G4",
                "ticks": 3835,
                "time": 9.986979166666666,
                "velocity": 0.8661417322834646
              },
              {
                "duration": 0.49479166666666785,
                "durationTicks": 190,
                "midi": 68,
                "name": "G#4",
                "ticks": 3931,
                "time": 10.236979166666666,
                "velocity": 0.8661417322834646
              },
              {
                "duration": 0.24479166666666785,
                "durationTicks": 94,
                "midi": 75,
                "name": "D#5",
                "ticks": 4123,
                "time": 10.736979166666666,
                "velocity": 0.8661417322834646
              },
              {
                "duration": 0.24479166666666785,
                "durationTicks": 94,
                "midi": 68,
                "name": "G#4",
                "ticks": 4219,
                "time": 10.986979166666666,
                "velocity": 0.8661417322834646
              },
              {
                "duration": 0.49479166666666785,
                "durationTicks": 190,
                "midi": 75,
                "name": "D#5",
                "ticks": 4315,
                "time": 11.236979166666666,
                "velocity": 0.8661417322834646
              },
              {
                "duration": 0.24479166666666785,
                "durationTicks": 94,
                "midi": 67,
                "name": "G4",
                "ticks": 4507,
                "time": 11.736979166666666,
                "velocity": 0.8661417322834646
              },
              {
                "duration": 0.41666666666666785,
                "durationTicks": 160,
                "midi": 68,
                "name": "G#4",
                "ticks": 4603,
                "time": 11.986979166666666,
                "velocity": 0.8661417322834646
              },
              {
                "duration": 0.24479166666666785,
                "durationTicks": 94,
                "midi": 73,
                "name": "C#5",
                "ticks": 4795,
                "time": 12.486979166666666,
                "velocity": 0.8661417322834646
              },
              {
                "duration": 0.24479166666666785,
                "durationTicks": 94,
                "midi": 82,
                "name": "A#5",
                "ticks": 4795,
                "time": 12.486979166666666,
                "velocity": 0.8661417322834646
              },
              {
                "duration": 0.6666666666666679,
                "durationTicks": 256,
                "midi": 72,
                "name": "C5",
                "ticks": 4891,
                "time": 12.736979166666666,
                "velocity": 0.8661417322834646
              },
              {
                "duration": 0.6666666666666679,
                "durationTicks": 256,
                "midi": 80,
                "name": "G#5",
                "ticks": 4891,
                "time": 12.736979166666666,
                "velocity": 0.8661417322834646
              },
              {
                "duration": 0.24479166666666785,
                "durationTicks": 94,
                "midi": 67,
                "name": "G4",
                "ticks": 5275,
                "time": 13.736979166666666,
                "velocity": 0.8661417322834646
              },
              {
                "duration": 0.24479166666666785,
                "durationTicks": 94,
                "midi": 68,
                "name": "G#4",
                "ticks": 5371,
                "time": 13.986979166666666,
                "velocity": 0.8661417322834646
              },
              {
                "duration": 0.24479166666666785,
                "durationTicks": 94,
                "midi": 73,
                "name": "C#5",
                "ticks": 5371,
                "time": 13.986979166666666,
                "velocity": 0.8661417322834646
              },
              {
                "duration": 0.49479166666666785,
                "durationTicks": 190,
                "midi": 72,
                "name": "C5",
                "ticks": 5467,
                "time": 14.236979166666666,
                "velocity": 0.8661417322834646
              },
              {
                "duration": 0.49479166666666785,
                "durationTicks": 190,
                "midi": 75,
                "name": "D#5",
                "ticks": 5467,
                "time": 14.236979166666666,
                "velocity": 0.8661417322834646
              },
              {
                "duration": 0.24479166666666785,
                "durationTicks": 94,
                "midi": 70,
                "name": "A#4",
                "ticks": 5659,
                "time": 14.736979166666666,
                "velocity": 0.8661417322834646
              },
              {
                "duration": 0.9166666666666679,
                "durationTicks": 352,
                "midi": 68,
                "name": "G#4",
                "ticks": 5755,
                "time": 14.986979166666666,
                "velocity": 0.8661417322834646
              },
              {
                "duration": 0.9166666666666679,
                "durationTicks": 352,
                "midi": 75,
                "name": "D#5",
                "ticks": 5755,
                "time": 14.986979166666666,
                "velocity": 0.8661417322834646
              },
              {
                "duration": 0.4166666666666661,
                "durationTicks": 160,
                "midi": 67,
                "name": "G4",
                "ticks": 6139,
                "time": 15.986979166666666,
                "velocity": 0.8661417322834646
              },
              {
                "duration": 0.4166666666666643,
                "durationTicks": 160,
                "midi": 72,
                "name": "C5",
                "ticks": 6331,
                "time": 16.486979166666668,
                "velocity": 0.8661417322834646
              },
              {
                "duration": 0.4166666666666643,
                "durationTicks": 160,
                "midi": 80,
                "name": "G#5",
                "ticks": 6331,
                "time": 16.486979166666668,
                "velocity": 0.8661417322834646
              },
              {
                "duration": 0.4166666666666643,
                "durationTicks": 160,
                "midi": 73,
                "name": "C#5",
                "ticks": 6523,
                "time": 16.986979166666668,
                "velocity": 0.8661417322834646
              },
              {
                "duration": 0.4166666666666643,
                "durationTicks": 160,
                "midi": 82,
                "name": "A#5",
                "ticks": 6523,
                "time": 16.986979166666668,
                "velocity": 0.8661417322834646
              },
              {
                "duration": 0.2447916666666643,
                "durationTicks": 94,
                "midi": 72,
                "name": "C5",
                "ticks": 6715,
                "time": 17.486979166666668,
                "velocity": 0.8661417322834646
              },
              {
                "duration": 0.2447916666666643,
                "durationTicks": 94,
                "midi": 84,
                "name": "C6",
                "ticks": 6715,
                "time": 17.486979166666668,
                "velocity": 0.8661417322834646
              },
              {
                "duration": 0.2447916666666643,
                "durationTicks": 94,
                "midi": 67,
                "name": "G4",
                "ticks": 6811,
                "time": 17.736979166666668,
                "velocity": 0.8661417322834646
              },
              {
                "duration": 0.6666666666666643,
                "durationTicks": 256,
                "midi": 68,
                "name": "G#4",
                "ticks": 6907,
                "time": 17.986979166666668,
                "velocity": 0.8661417322834646
              },
              {
                "duration": 0.2447916666666643,
                "durationTicks": 94,
                "midi": 72,
                "name": "C5",
                "ticks": 7195,
                "time": 18.736979166666668,
                "velocity": 0.8661417322834646
              },
              {
                "duration": 0.7447916666666643,
                "durationTicks": 286,
                "midi": 75,
                "name": "D#5",
                "ticks": 7291,
                "time": 18.986979166666668,
                "velocity": 0.8661417322834646
              },
              {
                "duration": 0.7447916666666643,
                "durationTicks": 286,
                "midi": 80,
                "name": "G#5",
                "ticks": 7291,
                "time": 18.986979166666668,
                "velocity": 0.8661417322834646
              },
              {
                "duration": 0.2447916666666643,
                "durationTicks": 94,
                "midi": 68,
                "name": "G#4",
                "ticks": 7579,
                "time": 19.736979166666668,
                "velocity": 0.8661417322834646
              },
              {
                "duration": 0.4166666666666643,
                "durationTicks": 160,
                "midi": 72,
                "name": "C5",
                "ticks": 7675,
                "time": 19.986979166666668,
                "velocity": 0.8661417322834646
              },
              {
                "duration": 0.4166666666666643,
                "durationTicks": 160,
                "midi": 73,
                "name": "C#5",
                "ticks": 7867,
                "time": 20.486979166666668,
                "velocity": 0.8661417322834646
              },
              {
                "duration": 0.4166666666666643,
                "durationTicks": 160,
                "midi": 82,
                "name": "A#5",
                "ticks": 7867,
                "time": 20.486979166666668,
                "velocity": 0.8661417322834646
              },
              {
                "duration": 0.4166666666666643,
                "durationTicks": 160,
                "midi": 72,
                "name": "C5",
                "ticks": 8059,
                "time": 20.986979166666668,
                "velocity": 0.8661417322834646
              },
              {
                "duration": 0.4166666666666643,
                "durationTicks": 160,
                "midi": 80,
                "name": "G#5",
                "ticks": 8059,
                "time": 20.986979166666668,
                "velocity": 0.8661417322834646
              },
              {
                "duration": 0.2447916666666643,
                "durationTicks": 94,
                "midi": 72,
                "name": "C5",
                "ticks": 8251,
                "time": 21.486979166666668,
                "velocity": 0.8661417322834646
              },
              {
                "duration": 0.2447916666666643,
                "durationTicks": 94,
                "midi": 79,
                "name": "G5",
                "ticks": 8251,
                "time": 21.486979166666668,
                "velocity": 0.8661417322834646
              },
              {
                "duration": 0.2447916666666643,
                "durationTicks": 94,
                "midi": 67,
                "name": "G4",
                "ticks": 8347,
                "time": 21.736979166666668,
                "velocity": 0.8661417322834646
              },
              {
                "duration": 0.2447916666666643,
                "durationTicks": 94,
                "midi": 68,
                "name": "G#4",
                "ticks": 8443,
                "time": 21.986979166666668,
                "velocity": 0.8661417322834646
              },
              {
                "duration": 0.2447916666666643,
                "durationTicks": 94,
                "midi": 73,
                "name": "C#5",
                "ticks": 8443,
                "time": 21.986979166666668,
                "velocity": 0.8661417322834646
              },
              {
                "duration": 0.4947916666666643,
                "durationTicks": 190,
                "midi": 68,
                "name": "G#4",
                "ticks": 8539,
                "time": 22.236979166666668,
                "velocity": 0.8661417322834646
              },
              {
                "duration": 0.4947916666666643,
                "durationTicks": 190,
                "midi": 72,
                "name": "C5",
                "ticks": 8539,
                "time": 22.236979166666668,
                "velocity": 0.8661417322834646
              },
              {
                "duration": 0.2447916666666643,
                "durationTicks": 94,
                "midi": 70,
                "name": "A#4",
                "ticks": 8731,
                "time": 22.736979166666668,
                "velocity": 0.8661417322834646
              },
              {
                "duration": 0.2447916666666643,
                "durationTicks": 94,
                "midi": 75,
                "name": "D#5",
                "ticks": 8731,
                "time": 22.736979166666668,
                "velocity": 0.8661417322834646
              },
              {
                "duration": 0.2447916666666643,
                "durationTicks": 94,
                "midi": 68,
                "name": "G#4",
                "ticks": 8827,
                "time": 22.986979166666668,
                "velocity": 0.8661417322834646
              },
              {
                "duration": 0.4947916666666643,
                "durationTicks": 190,
                "midi": 70,
                "name": "A#4",
                "ticks": 8923,
                "time": 23.236979166666668,
                "velocity": 0.8661417322834646
              },
              {
                "duration": 0.4947916666666643,
                "durationTicks": 190,
                "midi": 75,
                "name": "D#5",
                "ticks": 8923,
                "time": 23.236979166666668,
                "velocity": 0.8661417322834646
              },
              {
                "duration": 0.2447916666666643,
                "durationTicks": 94,
                "midi": 63,
                "name": "D#4",
                "ticks": 9115,
                "time": 23.736979166666668,
                "velocity": 0.8661417322834646
              },
              {
                "duration": 0.4166666666666643,
                "durationTicks": 160,
                "midi": 68,
                "name": "G#4",
                "ticks": 9211,
                "time": 23.986979166666668,
                "velocity": 0.8661417322834646
              },
              {
                "duration": 0.2447916666666643,
                "durationTicks": 94,
                "midi": 72,
                "name": "C5",
                "ticks": 9403,
                "time": 24.486979166666668,
                "velocity": 0.8661417322834646
              },
              {
                "duration": 0.2447916666666643,
                "durationTicks": 94,
                "midi": 65,
                "name": "F4",
                "ticks": 9499,
                "time": 24.736979166666668,
                "velocity": 0.8661417322834646
              },
              {
                "duration": 0.7447916666666643,
                "durationTicks": 286,
                "midi": 67,
                "name": "G4",
                "ticks": 9595,
                "time": 24.986979166666668,
                "velocity": 0.8661417322834646
              },
              {
                "duration": 0.2447916666666643,
                "durationTicks": 94,
                "midi": 60,
                "name": "C4",
                "ticks": 9883,
                "time": 25.736979166666668,
                "velocity": 0.8661417322834646
              },
              {
                "duration": 0.2447916666666643,
                "durationTicks": 94,
                "midi": 68,
                "name": "G#4",
                "ticks": 9979,
                "time": 25.986979166666668,
                "velocity": 0.8661417322834646
              },
              {
                "duration": 0.4947916666666643,
                "durationTicks": 190,
                "midi": 67,
                "name": "G4",
                "ticks": 10075,
                "time": 26.236979166666668,
                "velocity": 0.8661417322834646
              },
              {
                "duration": 0.2447916666666643,
                "durationTicks": 94,
                "midi": 60,
                "name": "C4",
                "ticks": 10267,
                "time": 26.736979166666668,
                "velocity": 0.8661417322834646
              },
              {
                "duration": 0.2447916666666643,
                "durationTicks": 94,
                "midi": 68,
                "name": "G#4",
                "ticks": 10363,
                "time": 26.986979166666668,
                "velocity": 0.8661417322834646
              },
              {
                "duration": 0.4947916666666643,
                "durationTicks": 190,
                "midi": 67,
                "name": "G4",
                "ticks": 10459,
                "time": 27.236979166666668,
                "velocity": 0.8661417322834646
              },
              {
                "duration": 0.2447916666666643,
                "durationTicks": 94,
                "midi": 60,
                "name": "C4",
                "ticks": 10651,
                "time": 27.736979166666668,
                "velocity": 0.8661417322834646
              },
              {
                "duration": 0.2447916666666643,
                "durationTicks": 94,
                "midi": 68,
                "name": "G#4",
                "ticks": 10747,
                "time": 27.986979166666668,
                "velocity": 0.8661417322834646
              },
              {
                "duration": 0.4947916666666643,
                "durationTicks": 190,
                "midi": 67,
                "name": "G4",
                "ticks": 10843,
                "time": 28.236979166666668,
                "velocity": 0.8661417322834646
              },
              {
                "duration": 0.2447916666666643,
                "durationTicks": 94,
                "midi": 60,
                "name": "C4",
                "ticks": 11035,
                "time": 28.736979166666668,
                "velocity": 0.8661417322834646
              },
              {
                "duration": 0.2447916666666643,
                "durationTicks": 94,
                "midi": 68,
                "name": "G#4",
                "ticks": 11131,
                "time": 28.986979166666668,
                "velocity": 0.8661417322834646
              },
              {
                "duration": 0.4947916666666643,
                "durationTicks": 190,
                "midi": 65,
                "name": "F4",
                "ticks": 11227,
                "time": 29.236979166666668,
                "velocity": 0.8661417322834646
              },
              {
                "duration": 0.2447916666666643,
                "durationTicks": 94,
                "midi": 60,
                "name": "C4",
                "ticks": 11419,
                "time": 29.736979166666668,
                "velocity": 0.8661417322834646
              },
              {
                "duration": 0.2447916666666643,
                "durationTicks": 94,
                "midi": 68,
                "name": "G#4",
                "ticks": 11515,
                "time": 29.986979166666668,
                "velocity": 0.8661417322834646
              },
              {
                "duration": 0.2447916666666643,
                "durationTicks": 94,
                "midi": 72,
                "name": "C5",
                "ticks": 11515,
                "time": 29.986979166666668,
                "velocity": 0.8661417322834646
              },
              {
                "duration": 0.4947916666666643,
                "durationTicks": 190,
                "midi": 67,
                "name": "G4",
                "ticks": 11611,
                "time": 30.236979166666668,
                "velocity": 0.8661417322834646
              },
              {
                "duration": 0.4947916666666643,
                "durationTicks": 190,
                "midi": 72,
                "name": "C5",
                "ticks": 11611,
                "time": 30.236979166666668,
                "velocity": 0.8661417322834646
              },
              {
                "duration": 0.2447916666666643,
                "durationTicks": 94,
                "midi": 60,
                "name": "C4",
                "ticks": 11803,
                "time": 30.736979166666668,
                "velocity": 0.8661417322834646
              },
              {
                "duration": 0.2447916666666643,
                "durationTicks": 94,
                "midi": 68,
                "name": "G#4",
                "ticks": 11899,
                "time": 30.986979166666668,
                "velocity": 0.8661417322834646
              },
              {
                "duration": 0.2447916666666643,
                "durationTicks": 94,
                "midi": 72,
                "name": "C5",
                "ticks": 11899,
                "time": 30.986979166666668,
                "velocity": 0.8661417322834646
              },
              {
                "duration": 0.4947916666666643,
                "durationTicks": 190,
                "midi": 67,
                "name": "G4",
                "ticks": 11995,
                "time": 31.236979166666668,
                "velocity": 0.8661417322834646
              },
              {
                "duration": 0.4947916666666643,
                "durationTicks": 190,
                "midi": 72,
                "name": "C5",
                "ticks": 11995,
                "time": 31.236979166666668,
                "velocity": 0.8661417322834646
              },
              {
                "duration": 0.2447916666666643,
                "durationTicks": 94,
                "midi": 60,
                "name": "C4",
                "ticks": 12187,
                "time": 31.736979166666668,
                "velocity": 0.8661417322834646
              },
              {
                "duration": 0.6666666666666679,
                "durationTicks": 256,
                "midi": 68,
                "name": "G#4",
                "ticks": 12283,
                "time": 31.986979166666668,
                "velocity": 0.8661417322834646
              },
              {
                "duration": 0.6666666666666679,
                "durationTicks": 256,
                "midi": 72,
                "name": "C5",
                "ticks": 12283,
                "time": 31.986979166666668,
                "velocity": 0.8661417322834646
              },
              {
                "duration": 0.9947916666666714,
                "durationTicks": 382,
                "midi": 67,
                "name": "G4",
                "ticks": 12571,
                "time": 32.736979166666664,
                "velocity": 0.8661417322834646
              },
              {
                "duration": 0.2447916666666714,
                "durationTicks": 94,
                "midi": 67,
                "name": "G4",
                "ticks": 12955,
                "time": 33.736979166666664,
                "velocity": 0.8661417322834646
              },
              {
                "duration": 0.2447916666666714,
                "durationTicks": 94,
                "midi": 72,
                "name": "C5",
                "ticks": 13051,
                "time": 33.986979166666664,
                "velocity": 0.8661417322834646
              },
              {
                "duration": 0.4947916666666714,
                "durationTicks": 190,
                "midi": 65,
                "name": "F4",
                "ticks": 13147,
                "time": 34.236979166666664,
                "velocity": 0.8661417322834646
              },
              {
                "duration": 0.2447916666666714,
                "durationTicks": 94,
                "midi": 61,
                "name": "C#4",
                "ticks": 13339,
                "time": 34.736979166666664,
                "velocity": 0.8661417322834646
              },
              {
                "duration": 0.9166666666666714,
                "durationTicks": 352,
                "midi": 70,
                "name": "A#4",
                "ticks": 13435,
                "time": 34.986979166666664,
                "velocity": 0.8661417322834646
              },
              {
                "duration": 0.4166666666666714,
                "durationTicks": 160,
                "midi": 68,
                "name": "G#4",
                "ticks": 13819,
                "time": 35.986979166666664,
                "velocity": 0.8661417322834646
              },
              {
                "duration": 0.2447916666666714,
                "durationTicks": 94,
                "midi": 61,
                "name": "C#4",
                "ticks": 14011,
                "time": 36.486979166666664,
                "velocity": 0.8661417322834646
              },
              {
                "duration": 0.4947916666666714,
                "durationTicks": 190,
                "midi": 73,
                "name": "C#5",
                "ticks": 14107,
                "time": 36.736979166666664,
                "velocity": 0.8661417322834646
              },
              {
                "duration": 0.6666666666666714,
                "durationTicks": 256,
                "midi": 60,
                "name": "C4",
                "ticks": 14299,
                "time": 37.236979166666664,
                "velocity": 0.8661417322834646
              },
              {
                "duration": 0.6666666666666714,
                "durationTicks": 256,
                "midi": 72,
                "name": "C5",
                "ticks": 14299,
                "time": 37.236979166666664,
                "velocity": 0.8661417322834646
              },
              {
                "duration": 0.8697916666666714,
                "durationTicks": 334,
                "midi": 65,
                "name": "F4",
                "ticks": 14587,
                "time": 37.986979166666664,
                "velocity": 0.8661417322834646
              },
              {
                "duration": 0.8697916666666714,
                "durationTicks": 334,
                "midi": 77,
                "name": "F5",
                "ticks": 14587,
                "time": 37.986979166666664,
                "velocity": 0.8661417322834646
              },
              {
                "duration": 1.1666666666666714,
                "durationTicks": 448,
                "midi": 70,
                "name": "A#4",
                "ticks": 14971,
                "time": 38.986979166666664,
                "velocity": 0.8661417322834646
              },
              {
                "duration": 1.1666666666666714,
                "durationTicks": 448,
                "midi": 82,
                "name": "A#5",
                "ticks": 14971,
                "time": 38.986979166666664,
                "velocity": 0.8661417322834646
              },
              {
                "duration": 0.4947916666666714,
                "durationTicks": 190,
                "midi": 80,
                "name": "G#5",
                "ticks": 15451,
                "time": 40.236979166666664,
                "velocity": 0.8661417322834646
              },
              {
                "duration": 0.4947916666666714,
                "durationTicks": 190,
                "midi": 79,
                "name": "G5",
                "ticks": 15643,
                "time": 40.736979166666664,
                "velocity": 0.8661417322834646
              },
              {
                "duration": 0.2447916666666714,
                "durationTicks": 94,
                "midi": 75,
                "name": "D#5",
                "ticks": 15835,
                "time": 41.236979166666664,
                "velocity": 0.8661417322834646
              },
              {
                "duration": 0.2447916666666714,
                "durationTicks": 94,
                "midi": 67,
                "name": "G4",
                "ticks": 15931,
                "time": 41.486979166666664,
                "velocity": 0.8661417322834646
              },
              {
                "duration": 0.2447916666666714,
                "durationTicks": 94,
                "midi": 72,
                "name": "C5",
                "ticks": 15931,
                "time": 41.486979166666664,
                "velocity": 0.8661417322834646
              },
              {
                "duration": 0.2447916666666714,
                "durationTicks": 94,
                "midi": 67,
                "name": "G4",
                "ticks": 16027,
                "time": 41.736979166666664,
                "velocity": 0.8661417322834646
              },
              {
                "duration": 0.2447916666666714,
                "durationTicks": 94,
                "midi": 68,
                "name": "G#4",
                "ticks": 16123,
                "time": 41.986979166666664,
                "velocity": 0.8661417322834646
              },
              {
                "duration": 0.2447916666666714,
                "durationTicks": 94,
                "midi": 72,
                "name": "C5",
                "ticks": 16123,
                "time": 41.986979166666664,
                "velocity": 0.8661417322834646
              },
              {
                "duration": 0.4947916666666714,
                "durationTicks": 190,
                "midi": 72,
                "name": "C5",
                "ticks": 16219,
                "time": 42.236979166666664,
                "velocity": 0.8661417322834646
              },
              {
                "duration": 0.4947916666666714,
                "durationTicks": 190,
                "midi": 80,
                "name": "G#5",
                "ticks": 16219,
                "time": 42.236979166666664,
                "velocity": 0.8661417322834646
              },
              {
                "duration": 0.2447916666666714,
                "durationTicks": 94,
                "midi": 68,
                "name": "G#4",
                "ticks": 16411,
                "time": 42.736979166666664,
                "velocity": 0.8661417322834646
              },
              {
                "duration": 0.2447916666666714,
                "durationTicks": 94,
                "midi": 73,
                "name": "C#5",
                "ticks": 16507,
                "time": 42.986979166666664,
                "velocity": 0.8661417322834646
              },
              {
                "duration": 0.2447916666666714,
                "durationTicks": 94,
                "midi": 82,
                "name": "A#5",
                "ticks": 16507,
                "time": 42.986979166666664,
                "velocity": 0.8661417322834646
              },
              {
                "duration": 0.4947916666666714,
                "durationTicks": 190,
                "midi": 72,
                "name": "C5",
                "ticks": 16603,
                "time": 43.236979166666664,
                "velocity": 0.8661417322834646
              },
              {
                "duration": 0.4947916666666714,
                "durationTicks": 190,
                "midi": 80,
                "name": "G#5",
                "ticks": 16603,
                "time": 43.236979166666664,
                "velocity": 0.8661417322834646
              },
              {
                "duration": 0.2447916666666714,
                "durationTicks": 94,
                "midi": 73,
                "name": "C#5",
                "ticks": 16795,
                "time": 43.736979166666664,
                "velocity": 0.8661417322834646
              },
              {
                "duration": 0.2447916666666714,
                "durationTicks": 94,
                "midi": 80,
                "name": "G#5",
                "ticks": 16795,
                "time": 43.736979166666664,
                "velocity": 0.8661417322834646
              },
              {
                "duration": 0.4166666666666714,
                "durationTicks": 160,
                "midi": 72,
                "name": "C5",
                "ticks": 16891,
                "time": 43.986979166666664,
                "velocity": 0.8661417322834646
              },
              {
                "duration": 0.4166666666666714,
                "durationTicks": 160,
                "midi": 80,
                "name": "G#5",
                "ticks": 16891,
                "time": 43.986979166666664,
                "velocity": 0.8661417322834646
              },
              {
                "duration": 0.2447916666666714,
                "durationTicks": 94,
                "midi": 73,
                "name": "C#5",
                "ticks": 17083,
                "time": 44.486979166666664,
                "velocity": 0.8661417322834646
              },
              {
                "duration": 0.2447916666666714,
                "durationTicks": 94,
                "midi": 82,
                "name": "A#5",
                "ticks": 17083,
                "time": 44.486979166666664,
                "velocity": 0.8661417322834646
              },
              {
                "duration": 0.2447916666666714,
                "durationTicks": 94,
                "midi": 72,
                "name": "C5",
                "ticks": 17179,
                "time": 44.736979166666664,
                "velocity": 0.8661417322834646
              },
              {
                "duration": 0.2447916666666714,
                "durationTicks": 94,
                "midi": 80,
                "name": "G#5",
                "ticks": 17179,
                "time": 44.736979166666664,
                "velocity": 0.8661417322834646
              },
              {
                "duration": 0.4166666666666714,
                "durationTicks": 160,
                "midi": 70,
                "name": "A#4",
                "ticks": 17275,
                "time": 44.986979166666664,
                "velocity": 0.8661417322834646
              },
              {
                "duration": 0.4166666666666714,
                "durationTicks": 160,
                "midi": 79,
                "name": "G5",
                "ticks": 17275,
                "time": 44.986979166666664,
                "velocity": 0.8661417322834646
              },
              {
                "duration": 0.2447916666666714,
                "durationTicks": 94,
                "midi": 68,
                "name": "G#4",
                "ticks": 17467,
                "time": 45.486979166666664,
                "velocity": 0.8661417322834646
              },
              {
                "duration": 0.2447916666666714,
                "durationTicks": 94,
                "midi": 72,
                "name": "C5",
                "ticks": 17467,
                "time": 45.486979166666664,
                "velocity": 0.8661417322834646
              },
              {
                "duration": 0.2447916666666714,
                "durationTicks": 94,
                "midi": 67,
                "name": "G4",
                "ticks": 17563,
                "time": 45.736979166666664,
                "velocity": 0.8661417322834646
              },
              {
                "duration": 0.4166666666666714,
                "durationTicks": 160,
                "midi": 70,
                "name": "A#4",
                "ticks": 17659,
                "time": 45.986979166666664,
                "velocity": 0.8661417322834646
              },
              {
                "duration": 0.4166666666666714,
                "durationTicks": 160,
                "midi": 73,
                "name": "C#5",
                "ticks": 17659,
                "time": 45.986979166666664,
                "velocity": 0.8661417322834646
              },
              {
                "duration": 0.2447916666666714,
                "durationTicks": 94,
                "midi": 70,
                "name": "A#4",
                "ticks": 17851,
                "time": 46.486979166666664,
                "velocity": 0.8661417322834646
              },
              {
                "duration": 0.2447916666666714,
                "durationTicks": 94,
                "midi": 73,
                "name": "C#5",
                "ticks": 17851,
                "time": 46.486979166666664,
                "velocity": 0.8661417322834646
              },
              {
                "duration": 0.2447916666666714,
                "durationTicks": 94,
                "midi": 68,
                "name": "G#4",
                "ticks": 17947,
                "time": 46.736979166666664,
                "velocity": 0.8661417322834646
              },
              {
                "duration": 0.9166666666666714,
                "durationTicks": 352,
                "midi": 75,
                "name": "D#5",
                "ticks": 18043,
                "time": 46.986979166666664,
                "velocity": 0.8661417322834646
              },
              {
                "duration": 0.4166666666666714,
                "durationTicks": 160,
                "midi": 68,
                "name": "G#4",
                "ticks": 18427,
                "time": 47.986979166666664,
                "velocity": 0.8661417322834646
              },
              {
                "duration": 0.4166666666666714,
                "durationTicks": 160,
                "midi": 75,
                "name": "D#5",
                "ticks": 18427,
                "time": 47.986979166666664,
                "velocity": 0.8661417322834646
              },
              {
                "duration": 0.4166666666666714,
                "durationTicks": 160,
                "midi": 72,
                "name": "C5",
                "ticks": 18619,
                "time": 48.486979166666664,
                "velocity": 0.8661417322834646
              },
              {
                "duration": 0.4166666666666714,
                "durationTicks": 160,
                "midi": 80,
                "name": "G#5",
                "ticks": 18619,
                "time": 48.486979166666664,
                "velocity": 0.8661417322834646
              },
              {
                "duration": 0.4166666666666714,
                "durationTicks": 160,
                "midi": 70,
                "name": "A#4",
                "ticks": 18811,
                "time": 48.986979166666664,
                "velocity": 0.8661417322834646
              },
              {
                "duration": 0.4166666666666714,
                "durationTicks": 160,
                "midi": 79,
                "name": "G5",
                "ticks": 18811,
                "time": 48.986979166666664,
                "velocity": 0.8661417322834646
              },
              {
                "duration": 0.2447916666666714,
                "durationTicks": 94,
                "midi": 72,
                "name": "C5",
                "ticks": 19003,
                "time": 49.486979166666664,
                "velocity": 0.8661417322834646
              },
              {
                "duration": 0.2447916666666714,
                "durationTicks": 94,
                "midi": 67,
                "name": "G4",
                "ticks": 19099,
                "time": 49.736979166666664,
                "velocity": 0.8661417322834646
              },
              {
                "duration": 0.2447916666666714,
                "durationTicks": 94,
                "midi": 68,
                "name": "G#4",
                "ticks": 19195,
                "time": 49.986979166666664,
                "velocity": 0.8661417322834646
              },
              {
                "duration": 0.4947916666666714,
                "durationTicks": 190,
                "midi": 72,
                "name": "C5",
                "ticks": 19291,
                "time": 50.236979166666664,
                "velocity": 0.8661417322834646
              },
              {
                "duration": 0.4947916666666714,
                "durationTicks": 190,
                "midi": 75,
                "name": "D#5",
                "ticks": 19291,
                "time": 50.236979166666664,
                "velocity": 0.8661417322834646
              },
              {
                "duration": 0.2447916666666714,
                "durationTicks": 94,
                "midi": 73,
                "name": "C#5",
                "ticks": 19483,
                "time": 50.736979166666664,
                "velocity": 0.8661417322834646
              },
              {
                "duration": 0.2447916666666714,
                "durationTicks": 94,
                "midi": 82,
                "name": "A#5",
                "ticks": 19483,
                "time": 50.736979166666664,
                "velocity": 0.8661417322834646
              },
              {
                "duration": 0.2447916666666714,
                "durationTicks": 94,
                "midi": 72,
                "name": "C5",
                "ticks": 19579,
                "time": 50.986979166666664,
                "velocity": 0.8661417322834646
              },
              {
                "duration": 0.4947916666666714,
                "durationTicks": 190,
                "midi": 72,
                "name": "C5",
                "ticks": 19675,
                "time": 51.236979166666664,
                "velocity": 0.8661417322834646
              },
              {
                "duration": 0.4947916666666714,
                "durationTicks": 190,
                "midi": 80,
                "name": "G#5",
                "ticks": 19675,
                "time": 51.236979166666664,
                "velocity": 0.8661417322834646
              },
              {
                "duration": 0.2447916666666714,
                "durationTicks": 94,
                "midi": 73,
                "name": "C#5",
                "ticks": 19867,
                "time": 51.736979166666664,
                "velocity": 0.8661417322834646
              },
              {
                "duration": 0.2447916666666714,
                "durationTicks": 94,
                "midi": 80,
                "name": "G#5",
                "ticks": 19867,
                "time": 51.736979166666664,
                "velocity": 0.8661417322834646
              },
              {
                "duration": 0.4166666666666714,
                "durationTicks": 160,
                "midi": 72,
                "name": "C5",
                "ticks": 19963,
                "time": 51.986979166666664,
                "velocity": 0.8661417322834646
              },
              {
                "duration": 0.4166666666666714,
                "durationTicks": 160,
                "midi": 80,
                "name": "G#5",
                "ticks": 19963,
                "time": 51.986979166666664,
                "velocity": 0.8661417322834646
              },
              {
                "duration": 0.4166666666666714,
                "durationTicks": 160,
                "midi": 73,
                "name": "C#5",
                "ticks": 20155,
                "time": 52.486979166666664,
                "velocity": 0.8661417322834646
              },
              {
                "duration": 0.4166666666666714,
                "durationTicks": 160,
                "midi": 82,
                "name": "A#5",
                "ticks": 20155,
                "time": 52.486979166666664,
                "velocity": 0.8661417322834646
              },
              {
                "duration": 0.4166666666666714,
                "durationTicks": 160,
                "midi": 72,
                "name": "C5",
                "ticks": 20347,
                "time": 52.986979166666664,
                "velocity": 0.8661417322834646
              },
              {
                "duration": 0.4166666666666714,
                "durationTicks": 160,
                "midi": 80,
                "name": "G#5",
                "ticks": 20347,
                "time": 52.986979166666664,
                "velocity": 0.8661417322834646
              },
              {
                "duration": 0.2447916666666714,
                "durationTicks": 94,
                "midi": 68,
                "name": "G#4",
                "ticks": 20539,
                "time": 53.486979166666664,
                "velocity": 0.8661417322834646
              },
              {
                "duration": 0.2447916666666714,
                "durationTicks": 94,
                "midi": 72,
                "name": "C5",
                "ticks": 20539,
                "time": 53.486979166666664,
                "velocity": 0.8661417322834646
              },
              {
                "duration": 0.2447916666666714,
                "durationTicks": 94,
                "midi": 67,
                "name": "G4",
                "ticks": 20635,
                "time": 53.736979166666664,
                "velocity": 0.8661417322834646
              },
              {
                "duration": 0.2447916666666714,
                "durationTicks": 94,
                "midi": 70,
                "name": "A#4",
                "ticks": 20731,
                "time": 53.986979166666664,
                "velocity": 0.8661417322834646
              },
              {
                "duration": 0.2447916666666714,
                "durationTicks": 94,
                "midi": 73,
                "name": "C#5",
                "ticks": 20731,
                "time": 53.986979166666664,
                "velocity": 0.8661417322834646
              },
              {
                "duration": 0.4947916666666714,
                "durationTicks": 190,
                "midi": 68,
                "name": "G#4",
                "ticks": 20827,
                "time": 54.236979166666664,
                "velocity": 0.8661417322834646
              },
              {
                "duration": 0.4947916666666714,
                "durationTicks": 190,
                "midi": 72,
                "name": "C5",
                "ticks": 20827,
                "time": 54.236979166666664,
                "velocity": 0.8661417322834646
              },
              {
                "duration": 0.2447916666666714,
                "durationTicks": 94,
                "midi": 68,
                "name": "G#4",
                "ticks": 21019,
                "time": 54.736979166666664,
                "velocity": 0.8661417322834646
              },
              {
                "duration": 0.2447916666666714,
                "durationTicks": 94,
                "midi": 75,
                "name": "D#5",
                "ticks": 21019,
                "time": 54.736979166666664,
                "velocity": 0.8661417322834646
              },
              {
                "duration": 0.2447916666666714,
                "durationTicks": 94,
                "midi": 63,
                "name": "D#4",
                "ticks": 21115,
                "time": 54.986979166666664,
                "velocity": 0.8661417322834646
              },
              {
                "duration": 0.4947916666666714,
                "durationTicks": 190,
                "midi": 68,
                "name": "G#4",
                "ticks": 21211,
                "time": 55.236979166666664,
                "velocity": 0.8661417322834646
              },
              {
                "duration": 0.4947916666666714,
                "durationTicks": 190,
                "midi": 75,
                "name": "D#5",
                "ticks": 21211,
                "time": 55.236979166666664,
                "velocity": 0.8661417322834646
              },
              {
                "duration": 0.2447916666666714,
                "durationTicks": 94,
                "midi": 70,
                "name": "A#4",
                "ticks": 21403,
                "time": 55.736979166666664,
                "velocity": 0.8661417322834646
              },
              {
                "duration": 0.2447916666666714,
                "durationTicks": 94,
                "midi": 75,
                "name": "D#5",
                "ticks": 21403,
                "time": 55.736979166666664,
                "velocity": 0.8661417322834646
              },
              {
                "duration": 0.4166666666666714,
                "durationTicks": 160,
                "midi": 63,
                "name": "D#4",
                "ticks": 21499,
                "time": 55.986979166666664,
                "velocity": 0.8661417322834646
              },
              {
                "duration": 0.4166666666666714,
                "durationTicks": 160,
                "midi": 68,
                "name": "G#4",
                "ticks": 21691,
                "time": 56.486979166666664,
                "velocity": 0.8661417322834646
              },
              {
                "duration": 0.4166666666666714,
                "durationTicks": 160,
                "midi": 72,
                "name": "C5",
                "ticks": 21691,
                "time": 56.486979166666664,
                "velocity": 0.8661417322834646
              },
              {
                "duration": 0.4166666666666714,
                "durationTicks": 160,
                "midi": 67,
                "name": "G4",
                "ticks": 21883,
                "time": 56.986979166666664,
                "velocity": 0.8661417322834646
              },
              {
                "duration": 0.4166666666666714,
                "durationTicks": 160,
                "midi": 72,
                "name": "C5",
                "ticks": 21883,
                "time": 56.986979166666664,
                "velocity": 0.8661417322834646
              },
              {
                "duration": 0.2447916666666714,
                "durationTicks": 94,
                "midi": 67,
                "name": "G4",
                "ticks": 22075,
                "time": 57.486979166666664,
                "velocity": 0.8661417322834646
              },
              {
                "duration": 0.2447916666666714,
                "durationTicks": 94,
                "midi": 72,
                "name": "C5",
                "ticks": 22075,
                "time": 57.486979166666664,
                "velocity": 0.8661417322834646
              },
              {
                "duration": 0.2447916666666714,
                "durationTicks": 94,
                "midi": 65,
                "name": "F4",
                "ticks": 22171,
                "time": 57.736979166666664,
                "velocity": 0.8661417322834646
              },
              {
                "duration": 0.2447916666666714,
                "durationTicks": 94,
                "midi": 68,
                "name": "G#4",
                "ticks": 22267,
                "time": 57.986979166666664,
                "velocity": 0.8661417322834646
              },
              {
                "duration": 0.2447916666666714,
                "durationTicks": 94,
                "midi": 72,
                "name": "C5",
                "ticks": 22267,
                "time": 57.986979166666664,
                "velocity": 0.8661417322834646
              },
              {
                "duration": 0.4947916666666714,
                "durationTicks": 190,
                "midi": 67,
                "name": "G4",
                "ticks": 22363,
                "time": 58.236979166666664,
                "velocity": 0.8661417322834646
              },
              {
                "duration": 0.4947916666666714,
                "durationTicks": 190,
                "midi": 72,
                "name": "C5",
                "ticks": 22363,
                "time": 58.236979166666664,
                "velocity": 0.8661417322834646
              },
              {
                "duration": 0.2447916666666714,
                "durationTicks": 94,
                "midi": 65,
                "name": "F4",
                "ticks": 22555,
                "time": 58.736979166666664,
                "velocity": 0.8661417322834646
              },
              {
                "duration": 0.2447916666666714,
                "durationTicks": 94,
                "midi": 68,
                "name": "G#4",
                "ticks": 22651,
                "time": 58.986979166666664,
                "velocity": 0.8661417322834646
              },
              {
                "duration": 0.2447916666666714,
                "durationTicks": 94,
                "midi": 72,
                "name": "C5",
                "ticks": 22651,
                "time": 58.986979166666664,
                "velocity": 0.8661417322834646
              },
              {
                "duration": 0.4947916666666714,
                "durationTicks": 190,
                "midi": 67,
                "name": "G4",
                "ticks": 22747,
                "time": 59.236979166666664,
                "velocity": 0.8661417322834646
              },
              {
                "duration": 0.4947916666666714,
                "durationTicks": 190,
                "midi": 72,
                "name": "C5",
                "ticks": 22747,
                "time": 59.236979166666664,
                "velocity": 0.8661417322834646
              },
              {
                "duration": 0.2447916666666714,
                "durationTicks": 94,
                "midi": 65,
                "name": "F4",
                "ticks": 22939,
                "time": 59.736979166666664,
                "velocity": 0.8661417322834646
              },
              {
                "duration": 0.2447916666666714,
                "durationTicks": 94,
                "midi": 68,
                "name": "G#4",
                "ticks": 23035,
                "time": 59.986979166666664,
                "velocity": 0.8661417322834646
              },
              {
                "duration": 0.2447916666666714,
                "durationTicks": 94,
                "midi": 72,
                "name": "C5",
                "ticks": 23035,
                "time": 59.986979166666664,
                "velocity": 0.8661417322834646
              },
              {
                "duration": 0.4947916666666714,
                "durationTicks": 190,
                "midi": 67,
                "name": "G4",
                "ticks": 23131,
                "time": 60.236979166666664,
                "velocity": 0.8661417322834646
              },
              {
                "duration": 0.4947916666666714,
                "durationTicks": 190,
                "midi": 72,
                "name": "C5",
                "ticks": 23131,
                "time": 60.236979166666664,
                "velocity": 0.8661417322834646
              },
              {
                "duration": 0.4947916666666714,
                "durationTicks": 190,
                "midi": 68,
                "name": "G#4",
                "ticks": 23323,
                "time": 60.736979166666664,
                "velocity": 0.8661417322834646
              },
              {
                "duration": 0.4947916666666714,
                "durationTicks": 190,
                "midi": 72,
                "name": "C5",
                "ticks": 23323,
                "time": 60.736979166666664,
                "velocity": 0.8661417322834646
              },
              {
                "duration": 0.4947916666666714,
                "durationTicks": 190,
                "midi": 65,
                "name": "F4",
                "ticks": 23515,
                "time": 61.236979166666664,
                "velocity": 0.8661417322834646
              },
              {
                "duration": 0.4947916666666714,
                "durationTicks": 190,
                "midi": 72,
                "name": "C5",
                "ticks": 23515,
                "time": 61.236979166666664,
                "velocity": 0.8661417322834646
              },
              {
                "duration": 0.2447916666666714,
                "durationTicks": 94,
                "midi": 65,
                "name": "F4",
                "ticks": 23707,
                "time": 61.736979166666664,
                "velocity": 0.8661417322834646
              },
              {
                "duration": 0.2447916666666714,
                "durationTicks": 94,
                "midi": 68,
                "name": "G#4",
                "ticks": 23803,
                "time": 61.986979166666664,
                "velocity": 0.8661417322834646
              },
              {
                "duration": 0.2447916666666714,
                "durationTicks": 94,
                "midi": 72,
                "name": "C5",
                "ticks": 23803,
                "time": 61.986979166666664,
                "velocity": 0.8661417322834646
              },
              {
                "duration": 0.4947916666666714,
                "durationTicks": 190,
                "midi": 67,
                "name": "G4",
                "ticks": 23899,
                "time": 62.236979166666664,
                "velocity": 0.8661417322834646
              },
              {
                "duration": 0.4947916666666714,
                "durationTicks": 190,
                "midi": 72,
                "name": "C5",
                "ticks": 23899,
                "time": 62.236979166666664,
                "velocity": 0.8661417322834646
              },
              {
                "duration": 0.2447916666666714,
                "durationTicks": 94,
                "midi": 65,
                "name": "F4",
                "ticks": 24091,
                "time": 62.736979166666664,
                "velocity": 0.8661417322834646
              },
              {
                "duration": 0.2447916666666714,
                "durationTicks": 94,
                "midi": 68,
                "name": "G#4",
                "ticks": 24187,
                "time": 62.986979166666664,
                "velocity": 0.8661417322834646
              },
              {
                "duration": 0.2447916666666714,
                "durationTicks": 94,
                "midi": 72,
                "name": "C5",
                "ticks": 24187,
                "time": 62.986979166666664,
                "velocity": 0.8661417322834646
              },
              {
                "duration": 0.4947916666666714,
                "durationTicks": 190,
                "midi": 67,
                "name": "G4",
                "ticks": 24283,
                "time": 63.236979166666664,
                "velocity": 0.8661417322834646
              },
              {
                "duration": 0.4947916666666714,
                "durationTicks": 190,
                "midi": 72,
                "name": "C5",
                "ticks": 24283,
                "time": 63.236979166666664,
                "velocity": 0.8661417322834646
              },
              {
                "duration": 0.2447916666666714,
                "durationTicks": 94,
                "midi": 65,
                "name": "F4",
                "ticks": 24475,
                "time": 63.736979166666664,
                "velocity": 0.8661417322834646
              },
              {
                "duration": 0.6666666666666643,
                "durationTicks": 256,
                "midi": 68,
                "name": "G#4",
                "ticks": 24571,
                "time": 63.986979166666664,
                "velocity": 0.8661417322834646
              },
              {
                "duration": 0.6666666666666643,
                "durationTicks": 256,
                "midi": 72,
                "name": "C5",
                "ticks": 24571,
                "time": 63.986979166666664,
                "velocity": 0.8661417322834646
              }
            ]
          
    


}


let amos_teen_R_notes = {
 
            "notes": [
              {
                "duration": 0.24479166666666652,
                "durationTicks": 94,
                "midi": 65,
                "name": "F4",
                "ticks": 571,
                "time": 1.4869791666666667,
                "velocity": 0.8661417322834646
              },
              {
                "duration": 0.24479166666666652,
                "durationTicks": 94,
                "midi": 72,
                "name": "C5",
                "ticks": 667,
                "time": 1.7369791666666667,
                "velocity": 0.8661417322834646
              },
              {
                "duration": 0.24479166666666674,
                "durationTicks": 94,
                "midi": 73,
                "name": "C#5",
                "ticks": 763,
                "time": 1.9869791666666667,
                "velocity": 0.8661417322834646
              },
              {
                "duration": 0.24479166666666696,
                "durationTicks": 94,
                "midi": 65,
                "name": "F4",
                "ticks": 859,
                "time": 2.2369791666666665,
                "velocity": 0.8661417322834646
              },
              {
                "duration": 0.24479166666666696,
                "durationTicks": 94,
                "midi": 72,
                "name": "C5",
                "ticks": 955,
                "time": 2.4869791666666665,
                "velocity": 0.8661417322834646
              },
              {
                "duration": 0.24479166666666696,
                "durationTicks": 94,
                "midi": 73,
                "name": "C#5",
                "ticks": 1051,
                "time": 2.7369791666666665,
                "velocity": 0.8661417322834646
              },
              {
                "duration": 0.41666666666666696,
                "durationTicks": 160,
                "midi": 65,
                "name": "F4",
                "ticks": 1147,
                "time": 2.9869791666666665,
                "velocity": 0.8661417322834646
              },
              {
                "duration": 0.24479166666666696,
                "durationTicks": 94,
                "midi": 65,
                "name": "F4",
                "ticks": 1339,
                "time": 3.4869791666666665,
                "velocity": 0.8661417322834646
              },
              {
                "duration": 0.4947916666666665,
                "durationTicks": 190,
                "midi": 73,
                "name": "C#5",
                "ticks": 1435,
                "time": 3.7369791666666665,
                "velocity": 0.8661417322834646
              },
              {
                "duration": 0.24479166666666607,
                "durationTicks": 94,
                "midi": 65,
                "name": "F4",
                "ticks": 1627,
                "time": 4.236979166666667,
                "velocity": 0.8661417322834646
              },
              {
                "duration": 0.24479166666666607,
                "durationTicks": 94,
                "midi": 70,
                "name": "A#4",
                "ticks": 1723,
                "time": 4.486979166666667,
                "velocity": 0.8661417322834646
              },
              {
                "duration": 0.24479166666666607,
                "durationTicks": 94,
                "midi": 72,
                "name": "C5",
                "ticks": 1819,
                "time": 4.736979166666667,
                "velocity": 0.8661417322834646
              },
              {
                "duration": 0.4166666666666661,
                "durationTicks": 160,
                "midi": 65,
                "name": "F4",
                "ticks": 1915,
                "time": 4.986979166666667,
                "velocity": 0.8661417322834646
              },
              {
                "duration": 0.24479166666666607,
                "durationTicks": 94,
                "midi": 65,
                "name": "F4",
                "ticks": 2107,
                "time": 5.486979166666667,
                "velocity": 0.8661417322834646
              },
              {
                "duration": 0.4947916666666661,
                "durationTicks": 190,
                "midi": 70,
                "name": "A#4",
                "ticks": 2203,
                "time": 5.736979166666667,
                "velocity": 0.8661417322834646
              },
              {
                "duration": 0.24479166666666607,
                "durationTicks": 94,
                "midi": 65,
                "name": "F4",
                "ticks": 2395,
                "time": 6.236979166666667,
                "velocity": 0.8661417322834646
              },
              {
                "duration": 0.4166666666666661,
                "durationTicks": 160,
                "midi": 70,
                "name": "A#4",
                "ticks": 2491,
                "time": 6.486979166666667,
                "velocity": 0.8661417322834646
              },
              {
                "duration": 0.24479166666666607,
                "durationTicks": 94,
                "midi": 65,
                "name": "F4",
                "ticks": 2683,
                "time": 6.986979166666667,
                "velocity": 0.8661417322834646
              },
              {
                "duration": 0.916666666666667,
                "durationTicks": 352,
                "midi": 70,
                "name": "A#4",
                "ticks": 2779,
                "time": 7.236979166666667,
                "velocity": 0.8661417322834646
              },
              {
                "duration": 0.9166666666666679,
                "durationTicks": 352,
                "midi": 68,
                "name": "G#4",
                "ticks": 3163,
                "time": 8.236979166666666,
                "velocity": 0.8661417322834646
              },
              {
                "duration": 0.24479166666666785,
                "durationTicks": 94,
                "midi": 60,
                "name": "C4",
                "ticks": 3547,
                "time": 9.236979166666666,
                "velocity": 0.8661417322834646
              },
              {
                "duration": 0.8697916666666679,
                "durationTicks": 334,
                "midi": 53,
                "name": "F3",
                "ticks": 3643,
                "time": 9.486979166666666,
                "velocity": 0.8661417322834646
              },
              {
                "duration": 0.6666666666666679,
                "durationTicks": 256,
                "midi": 61,
                "name": "C#4",
                "ticks": 4027,
                "time": 10.486979166666666,
                "velocity": 0.8661417322834646
              },
              {
                "duration": 0.24479166666666785,
                "durationTicks": 94,
                "midi": 61,
                "name": "C#4",
                "ticks": 4315,
                "time": 11.236979166666666,
                "velocity": 0.8661417322834646
              },
              {
                "duration": 0.6666666666666679,
                "durationTicks": 256,
                "midi": 56,
                "name": "G#3",
                "ticks": 4411,
                "time": 11.486979166666666,
                "velocity": 0.8661417322834646
              },
              {
                "duration": 0.49479166666666785,
                "durationTicks": 190,
                "midi": 63,
                "name": "D#4",
                "ticks": 4699,
                "time": 12.236979166666666,
                "velocity": 0.8661417322834646
              },
              {
                "duration": 0.24479166666666785,
                "durationTicks": 94,
                "midi": 58,
                "name": "A#3",
                "ticks": 4891,
                "time": 12.736979166666666,
                "velocity": 0.8661417322834646
              },
              {
                "duration": 0.24479166666666785,
                "durationTicks": 94,
                "midi": 60,
                "name": "C4",
                "ticks": 4987,
                "time": 12.986979166666666,
                "velocity": 0.8661417322834646
              },
              {
                "duration": 0.11979166666666785,
                "durationTicks": 46,
                "midi": 63,
                "name": "D#4",
                "ticks": 5083,
                "time": 13.236979166666666,
                "velocity": 0.8661417322834646
              },
              {
                "duration": 0.11979166666666785,
                "durationTicks": 46,
                "midi": 65,
                "name": "F4",
                "ticks": 5131,
                "time": 13.361979166666666,
                "velocity": 0.8661417322834646
              },
              {
                "duration": 0.6666666666666679,
                "durationTicks": 256,
                "midi": 53,
                "name": "F3",
                "ticks": 5179,
                "time": 13.486979166666666,
                "velocity": 0.8661417322834646
              },
              {
                "duration": 0.6666666666666679,
                "durationTicks": 256,
                "midi": 60,
                "name": "C4",
                "ticks": 5179,
                "time": 13.486979166666666,
                "velocity": 0.8661417322834646
              },
              {
                "duration": 0.24479166666666785,
                "durationTicks": 94,
                "midi": 60,
                "name": "C4",
                "ticks": 5467,
                "time": 14.236979166666666,
                "velocity": 0.8661417322834646
              },
              {
                "duration": 0.6666666666666679,
                "durationTicks": 256,
                "midi": 61,
                "name": "C#4",
                "ticks": 5563,
                "time": 14.486979166666666,
                "velocity": 0.8661417322834646
              },
              {
                "duration": 0.49479166666666785,
                "durationTicks": 190,
                "midi": 61,
                "name": "C#4",
                "ticks": 5851,
                "time": 15.236979166666666,
                "velocity": 0.8661417322834646
              },
              {
                "duration": 0.4947916666666661,
                "durationTicks": 190,
                "midi": 56,
                "name": "G#3",
                "ticks": 6043,
                "time": 15.736979166666666,
                "velocity": 0.8661417322834646
              },
              {
                "duration": 0.4947916666666661,
                "durationTicks": 190,
                "midi": 63,
                "name": "D#4",
                "ticks": 6043,
                "time": 15.736979166666666,
                "velocity": 0.8661417322834646
              },
              {
                "duration": 0.4947916666666643,
                "durationTicks": 190,
                "midi": 63,
                "name": "D#4",
                "ticks": 6235,
                "time": 16.236979166666668,
                "velocity": 0.8661417322834646
              },
              {
                "duration": 0.2447916666666643,
                "durationTicks": 94,
                "midi": 58,
                "name": "A#3",
                "ticks": 6427,
                "time": 16.736979166666668,
                "velocity": 0.8661417322834646
              },
              {
                "duration": 0.2447916666666643,
                "durationTicks": 94,
                "midi": 60,
                "name": "C4",
                "ticks": 6523,
                "time": 16.986979166666668,
                "velocity": 0.8661417322834646
              },
              {
                "duration": 0.1197916666666643,
                "durationTicks": 46,
                "midi": 63,
                "name": "D#4",
                "ticks": 6619,
                "time": 17.236979166666668,
                "velocity": 0.8661417322834646
              },
              {
                "duration": 0.1197916666666643,
                "durationTicks": 46,
                "midi": 65,
                "name": "F4",
                "ticks": 6667,
                "time": 17.361979166666668,
                "velocity": 0.8661417322834646
              },
              {
                "duration": 0.6666666666666643,
                "durationTicks": 256,
                "midi": 53,
                "name": "F3",
                "ticks": 6715,
                "time": 17.486979166666668,
                "velocity": 0.8661417322834646
              },
              {
                "duration": 0.6666666666666643,
                "durationTicks": 256,
                "midi": 60,
                "name": "C4",
                "ticks": 6715,
                "time": 17.486979166666668,
                "velocity": 0.8661417322834646
              },
              {
                "duration": 0.2447916666666643,
                "durationTicks": 94,
                "midi": 60,
                "name": "C4",
                "ticks": 7003,
                "time": 18.236979166666668,
                "velocity": 0.8661417322834646
              },
              {
                "duration": 0.6666666666666643,
                "durationTicks": 256,
                "midi": 61,
                "name": "C#4",
                "ticks": 7099,
                "time": 18.486979166666668,
                "velocity": 0.8661417322834646
              },
              {
                "duration": 0.2447916666666643,
                "durationTicks": 94,
                "midi": 61,
                "name": "C#4",
                "ticks": 7387,
                "time": 19.236979166666668,
                "velocity": 0.8661417322834646
              },
              {
                "duration": 0.8697916666666643,
                "durationTicks": 334,
                "midi": 56,
                "name": "G#3",
                "ticks": 7483,
                "time": 19.486979166666668,
                "velocity": 0.8661417322834646
              },
              {
                "duration": 0.8697916666666643,
                "durationTicks": 334,
                "midi": 63,
                "name": "D#4",
                "ticks": 7483,
                "time": 19.486979166666668,
                "velocity": 0.8661417322834646
              },
              {
                "duration": 0.2447916666666643,
                "durationTicks": 94,
                "midi": 56,
                "name": "G#3",
                "ticks": 7867,
                "time": 20.486979166666668,
                "velocity": 0.8661417322834646
              },
              {
                "duration": 0.2447916666666643,
                "durationTicks": 94,
                "midi": 58,
                "name": "A#3",
                "ticks": 7963,
                "time": 20.736979166666668,
                "velocity": 0.8661417322834646
              },
              {
                "duration": 0.2447916666666643,
                "durationTicks": 94,
                "midi": 60,
                "name": "C4",
                "ticks": 8059,
                "time": 20.986979166666668,
                "velocity": 0.8661417322834646
              },
              {
                "duration": 0.2447916666666643,
                "durationTicks": 94,
                "midi": 65,
                "name": "F4",
                "ticks": 8155,
                "time": 21.236979166666668,
                "velocity": 0.8661417322834646
              },
              {
                "duration": 0.8697916666666643,
                "durationTicks": 334,
                "midi": 53,
                "name": "F3",
                "ticks": 8251,
                "time": 21.486979166666668,
                "velocity": 0.8661417322834646
              },
              {
                "duration": 0.8697916666666643,
                "durationTicks": 334,
                "midi": 60,
                "name": "C4",
                "ticks": 8251,
                "time": 21.486979166666668,
                "velocity": 0.8661417322834646
              },
              {
                "duration": 0.8697916666666643,
                "durationTicks": 334,
                "midi": 61,
                "name": "C#4",
                "ticks": 8635,
                "time": 22.486979166666668,
                "velocity": 0.8661417322834646
              },
              {
                "duration": 0.6666666666666643,
                "durationTicks": 256,
                "midi": 51,
                "name": "D#3",
                "ticks": 9019,
                "time": 23.486979166666668,
                "velocity": 0.8661417322834646
              },
              {
                "duration": 0.6666666666666643,
                "durationTicks": 256,
                "midi": 56,
                "name": "G#3",
                "ticks": 9019,
                "time": 23.486979166666668,
                "velocity": 0.8661417322834646
              },
              {
                "duration": 0.4947916666666643,
                "durationTicks": 190,
                "midi": 56,
                "name": "G#3",
                "ticks": 9307,
                "time": 24.236979166666668,
                "velocity": 0.8661417322834646
              },
              {
                "duration": 0.2447916666666643,
                "durationTicks": 94,
                "midi": 58,
                "name": "A#3",
                "ticks": 9499,
                "time": 24.736979166666668,
                "velocity": 0.8661417322834646
              },
              {
                "duration": 0.2447916666666643,
                "durationTicks": 94,
                "midi": 48,
                "name": "C3",
                "ticks": 9595,
                "time": 24.986979166666668,
                "velocity": 0.8661417322834646
              },
              {
                "duration": 0.2447916666666643,
                "durationTicks": 94,
                "midi": 60,
                "name": "C4",
                "ticks": 9595,
                "time": 24.986979166666668,
                "velocity": 0.8661417322834646
              },
              {
                "duration": 0.1197916666666643,
                "durationTicks": 46,
                "midi": 51,
                "name": "D#3",
                "ticks": 9691,
                "time": 25.236979166666668,
                "velocity": 0.8661417322834646
              },
              {
                "duration": 0.1197916666666643,
                "durationTicks": 46,
                "midi": 53,
                "name": "F3",
                "ticks": 9739,
                "time": 25.361979166666668,
                "velocity": 0.8661417322834646
              },
              {
                "duration": 0.8697916666666643,
                "durationTicks": 334,
                "midi": 41,
                "name": "F2",
                "ticks": 9787,
                "time": 25.486979166666668,
                "velocity": 0.8661417322834646
              },
              {
                "duration": 0.8697916666666643,
                "durationTicks": 334,
                "midi": 48,
                "name": "C3",
                "ticks": 9787,
                "time": 25.486979166666668,
                "velocity": 0.8661417322834646
              },
              {
                "duration": 0.6666666666666643,
                "durationTicks": 256,
                "midi": 49,
                "name": "C#3",
                "ticks": 10171,
                "time": 26.486979166666668,
                "velocity": 0.8661417322834646
              },
              {
                "duration": 0.6666666666666643,
                "durationTicks": 256,
                "midi": 56,
                "name": "G#3",
                "ticks": 10171,
                "time": 26.486979166666668,
                "velocity": 0.8661417322834646
              },
              {
                "duration": 0.2447916666666643,
                "durationTicks": 94,
                "midi": 49,
                "name": "C#3",
                "ticks": 10459,
                "time": 27.236979166666668,
                "velocity": 0.8661417322834646
              },
              {
                "duration": 0.2447916666666643,
                "durationTicks": 94,
                "midi": 56,
                "name": "G#3",
                "ticks": 10459,
                "time": 27.236979166666668,
                "velocity": 0.8661417322834646
              },
              {
                "duration": 0.6666666666666643,
                "durationTicks": 256,
                "midi": 44,
                "name": "G#2",
                "ticks": 10555,
                "time": 27.486979166666668,
                "velocity": 0.8661417322834646
              },
              {
                "duration": 0.6666666666666643,
                "durationTicks": 256,
                "midi": 51,
                "name": "D#3",
                "ticks": 10555,
                "time": 27.486979166666668,
                "velocity": 0.8661417322834646
              },
              {
                "duration": 0.2447916666666643,
                "durationTicks": 94,
                "midi": 44,
                "name": "G#2",
                "ticks": 10843,
                "time": 28.236979166666668,
                "velocity": 0.8661417322834646
              },
              {
                "duration": 0.2447916666666643,
                "durationTicks": 94,
                "midi": 51,
                "name": "D#3",
                "ticks": 10843,
                "time": 28.236979166666668,
                "velocity": 0.8661417322834646
              },
              {
                "duration": 0.4166666666666643,
                "durationTicks": 160,
                "midi": 46,
                "name": "A#2",
                "ticks": 10939,
                "time": 28.486979166666668,
                "velocity": 0.8661417322834646
              },
              {
                "duration": 0.4166666666666643,
                "durationTicks": 160,
                "midi": 51,
                "name": "D#3",
                "ticks": 10939,
                "time": 28.486979166666668,
                "velocity": 0.8661417322834646
              },
              {
                "duration": 0.4166666666666643,
                "durationTicks": 160,
                "midi": 48,
                "name": "C3",
                "ticks": 11131,
                "time": 28.986979166666668,
                "velocity": 0.8661417322834646
              },
              {
                "duration": 0.8697916666666643,
                "durationTicks": 334,
                "midi": 41,
                "name": "F2",
                "ticks": 11323,
                "time": 29.486979166666668,
                "velocity": 0.8661417322834646
              },
              {
                "duration": 0.8697916666666643,
                "durationTicks": 334,
                "midi": 48,
                "name": "C3",
                "ticks": 11323,
                "time": 29.486979166666668,
                "velocity": 0.8661417322834646
              },
              {
                "duration": 0.6666666666666643,
                "durationTicks": 256,
                "midi": 49,
                "name": "C#3",
                "ticks": 11707,
                "time": 30.486979166666668,
                "velocity": 0.8661417322834646
              },
              {
                "duration": 0.6666666666666643,
                "durationTicks": 256,
                "midi": 56,
                "name": "G#3",
                "ticks": 11707,
                "time": 30.486979166666668,
                "velocity": 0.8661417322834646
              },
              {
                "duration": 0.2447916666666643,
                "durationTicks": 94,
                "midi": 51,
                "name": "D#3",
                "ticks": 11995,
                "time": 31.236979166666668,
                "velocity": 0.8661417322834646
              },
              {
                "duration": 0.2447916666666643,
                "durationTicks": 94,
                "midi": 58,
                "name": "A#3",
                "ticks": 11995,
                "time": 31.236979166666668,
                "velocity": 0.8661417322834646
              },
              {
                "duration": 0.6666666666666679,
                "durationTicks": 256,
                "midi": 44,
                "name": "G#2",
                "ticks": 12091,
                "time": 31.486979166666668,
                "velocity": 0.8661417322834646
              },
              {
                "duration": 0.6666666666666679,
                "durationTicks": 256,
                "midi": 51,
                "name": "D#3",
                "ticks": 12091,
                "time": 31.486979166666668,
                "velocity": 0.8661417322834646
              },
              {
                "duration": 0.2447916666666714,
                "durationTicks": 94,
                "midi": 56,
                "name": "G#3",
                "ticks": 12379,
                "time": 32.236979166666664,
                "velocity": 0.8661417322834646
              },
              {
                "duration": 0.4166666666666714,
                "durationTicks": 160,
                "midi": 58,
                "name": "A#3",
                "ticks": 12475,
                "time": 32.486979166666664,
                "velocity": 0.8661417322834646
              },
              {
                "duration": 0.2447916666666714,
                "durationTicks": 94,
                "midi": 60,
                "name": "C4",
                "ticks": 12667,
                "time": 32.986979166666664,
                "velocity": 0.8661417322834646
              },
              {
                "duration": 0.2447916666666714,
                "durationTicks": 94,
                "midi": 63,
                "name": "D#4",
                "ticks": 12763,
                "time": 33.236979166666664,
                "velocity": 0.8661417322834646
              },
              {
                "duration": 0.8697916666666714,
                "durationTicks": 334,
                "midi": 53,
                "name": "F3",
                "ticks": 12859,
                "time": 33.486979166666664,
                "velocity": 0.8661417322834646
              },
              {
                "duration": 0.6666666666666714,
                "durationTicks": 256,
                "midi": 58,
                "name": "A#3",
                "ticks": 13243,
                "time": 34.486979166666664,
                "velocity": 0.8661417322834646
              },
              {
                "duration": 0.2447916666666714,
                "durationTicks": 94,
                "midi": 58,
                "name": "A#3",
                "ticks": 13531,
                "time": 35.236979166666664,
                "velocity": 0.8661417322834646
              },
              {
                "duration": 0.2447916666666714,
                "durationTicks": 94,
                "midi": 60,
                "name": "C4",
                "ticks": 13627,
                "time": 35.486979166666664,
                "velocity": 0.8661417322834646
              },
              {
                "duration": 0.4947916666666714,
                "durationTicks": 190,
                "midi": 56,
                "name": "G#3",
                "ticks": 13723,
                "time": 35.736979166666664,
                "velocity": 0.8661417322834646
              },
              {
                "duration": 0.2447916666666714,
                "durationTicks": 94,
                "midi": 60,
                "name": "C4",
                "ticks": 13915,
                "time": 36.236979166666664,
                "velocity": 0.8661417322834646
              },
              {
                "duration": 0.4166666666666714,
                "durationTicks": 160,
                "midi": 48,
                "name": "C3",
                "ticks": 14203,
                "time": 36.986979166666664,
                "velocity": 0.8661417322834646
              },
              {
                "duration": 0.2447916666666714,
                "durationTicks": 94,
                "midi": 41,
                "name": "F2",
                "ticks": 14395,
                "time": 37.486979166666664,
                "velocity": 0.8661417322834646
              },
              {
                "duration": 0.2447916666666714,
                "durationTicks": 94,
                "midi": 53,
                "name": "F3",
                "ticks": 14395,
                "time": 37.486979166666664,
                "velocity": 0.8661417322834646
              },
              {
                "duration": 0.4947916666666714,
                "durationTicks": 190,
                "midi": 41,
                "name": "F2",
                "ticks": 14491,
                "time": 37.736979166666664,
                "velocity": 0.8661417322834646
              },
              {
                "duration": 0.4947916666666714,
                "durationTicks": 190,
                "midi": 53,
                "name": "F3",
                "ticks": 14491,
                "time": 37.736979166666664,
                "velocity": 0.8661417322834646
              },
              {
                "duration": 0.2447916666666714,
                "durationTicks": 94,
                "midi": 41,
                "name": "F2",
                "ticks": 14683,
                "time": 38.236979166666664,
                "velocity": 0.8661417322834646
              },
              {
                "duration": 0.2447916666666714,
                "durationTicks": 94,
                "midi": 46,
                "name": "A#2",
                "ticks": 14779,
                "time": 38.486979166666664,
                "velocity": 0.8661417322834646
              },
              {
                "duration": 0.4947916666666714,
                "durationTicks": 190,
                "midi": 58,
                "name": "A#3",
                "ticks": 14875,
                "time": 38.736979166666664,
                "velocity": 0.8661417322834646
              },
              {
                "duration": 0.4947916666666714,
                "durationTicks": 190,
                "midi": 58,
                "name": "A#3",
                "ticks": 15067,
                "time": 39.236979166666664,
                "velocity": 0.8661417322834646
              },
              {
                "duration": 0.2447916666666714,
                "durationTicks": 94,
                "midi": 60,
                "name": "C4",
                "ticks": 15259,
                "time": 39.736979166666664,
                "velocity": 0.8661417322834646
              },
              {
                "duration": 0.4166666666666714,
                "durationTicks": 160,
                "midi": 68,
                "name": "G#4",
                "ticks": 15355,
                "time": 39.986979166666664,
                "velocity": 0.8661417322834646
              },
              {
                "duration": 0.4166666666666714,
                "durationTicks": 160,
                "midi": 58,
                "name": "A#3",
                "ticks": 15547,
                "time": 40.486979166666664,
                "velocity": 0.8661417322834646
              },
              {
                "duration": 0.4166666666666714,
                "durationTicks": 160,
                "midi": 70,
                "name": "A#4",
                "ticks": 15547,
                "time": 40.486979166666664,
                "velocity": 0.8661417322834646
              },
              {
                "duration": 0.2447916666666714,
                "durationTicks": 94,
                "midi": 60,
                "name": "C4",
                "ticks": 15739,
                "time": 40.986979166666664,
                "velocity": 0.8661417322834646
              },
              {
                "duration": 0.2447916666666714,
                "durationTicks": 94,
                "midi": 68,
                "name": "G#4",
                "ticks": 15739,
                "time": 40.986979166666664,
                "velocity": 0.8661417322834646
              },
              {
                "duration": 0.2447916666666714,
                "durationTicks": 94,
                "midi": 67,
                "name": "G4",
                "ticks": 15835,
                "time": 41.236979166666664,
                "velocity": 0.8661417322834646
              },
              {
                "duration": 0.6666666666666714,
                "durationTicks": 256,
                "midi": 53,
                "name": "F3",
                "ticks": 15931,
                "time": 41.486979166666664,
                "velocity": 0.8661417322834646
              },
              {
                "duration": 0.6666666666666714,
                "durationTicks": 256,
                "midi": 60,
                "name": "C4",
                "ticks": 15931,
                "time": 41.486979166666664,
                "velocity": 0.8661417322834646
              },
              {
                "duration": 0.2447916666666714,
                "durationTicks": 94,
                "midi": 53,
                "name": "F3",
                "ticks": 16219,
                "time": 42.236979166666664,
                "velocity": 0.8661417322834646
              },
              {
                "duration": 0.2447916666666714,
                "durationTicks": 94,
                "midi": 60,
                "name": "C4",
                "ticks": 16219,
                "time": 42.236979166666664,
                "velocity": 0.8661417322834646
              },
              {
                "duration": 0.6666666666666714,
                "durationTicks": 256,
                "midi": 49,
                "name": "C#3",
                "ticks": 16315,
                "time": 42.486979166666664,
                "velocity": 0.8661417322834646
              },
              {
                "duration": 0.6666666666666714,
                "durationTicks": 256,
                "midi": 56,
                "name": "G#3",
                "ticks": 16315,
                "time": 42.486979166666664,
                "velocity": 0.8661417322834646
              },
              {
                "duration": 0.2447916666666714,
                "durationTicks": 94,
                "midi": 56,
                "name": "G#3",
                "ticks": 16603,
                "time": 43.236979166666664,
                "velocity": 0.8661417322834646
              },
              {
                "duration": 0.6666666666666714,
                "durationTicks": 256,
                "midi": 44,
                "name": "G#2",
                "ticks": 16699,
                "time": 43.486979166666664,
                "velocity": 0.8661417322834646
              },
              {
                "duration": 0.6666666666666714,
                "durationTicks": 256,
                "midi": 51,
                "name": "D#3",
                "ticks": 16699,
                "time": 43.486979166666664,
                "velocity": 0.8661417322834646
              },
              {
                "duration": 0.4947916666666714,
                "durationTicks": 190,
                "midi": 56,
                "name": "G#3",
                "ticks": 16987,
                "time": 44.236979166666664,
                "velocity": 0.8661417322834646
              },
              {
                "duration": 0.2447916666666714,
                "durationTicks": 94,
                "midi": 58,
                "name": "A#3",
                "ticks": 17179,
                "time": 44.736979166666664,
                "velocity": 0.8661417322834646
              },
              {
                "duration": 0.2447916666666714,
                "durationTicks": 94,
                "midi": 60,
                "name": "C4",
                "ticks": 17275,
                "time": 44.986979166666664,
                "velocity": 0.8661417322834646
              },
              {
                "duration": 0.2447916666666714,
                "durationTicks": 94,
                "midi": 63,
                "name": "D#4",
                "ticks": 17371,
                "time": 45.236979166666664,
                "velocity": 0.8661417322834646
              },
              {
                "duration": 0.6666666666666714,
                "durationTicks": 256,
                "midi": 53,
                "name": "F3",
                "ticks": 17467,
                "time": 45.486979166666664,
                "velocity": 0.8661417322834646
              },
              {
                "duration": 0.6666666666666714,
                "durationTicks": 256,
                "midi": 60,
                "name": "C4",
                "ticks": 17467,
                "time": 45.486979166666664,
                "velocity": 0.8661417322834646
              },
              {
                "duration": 0.2447916666666714,
                "durationTicks": 94,
                "midi": 53,
                "name": "F3",
                "ticks": 17755,
                "time": 46.236979166666664,
                "velocity": 0.8661417322834646
              },
              {
                "duration": 0.2447916666666714,
                "durationTicks": 94,
                "midi": 60,
                "name": "C4",
                "ticks": 17755,
                "time": 46.236979166666664,
                "velocity": 0.8661417322834646
              },
              {
                "duration": 0.6666666666666714,
                "durationTicks": 256,
                "midi": 61,
                "name": "C#4",
                "ticks": 17851,
                "time": 46.486979166666664,
                "velocity": 0.8661417322834646
              },
              {
                "duration": 0.4947916666666714,
                "durationTicks": 190,
                "midi": 61,
                "name": "C#4",
                "ticks": 18139,
                "time": 47.236979166666664,
                "velocity": 0.8661417322834646
              },
              {
                "duration": 0.6666666666666714,
                "durationTicks": 256,
                "midi": 56,
                "name": "G#3",
                "ticks": 18331,
                "time": 47.736979166666664,
                "velocity": 0.8661417322834646
              },
              {
                "duration": 0.6666666666666714,
                "durationTicks": 256,
                "midi": 63,
                "name": "D#4",
                "ticks": 18331,
                "time": 47.736979166666664,
                "velocity": 0.8661417322834646
              },
              {
                "duration": 0.2447916666666714,
                "durationTicks": 94,
                "midi": 58,
                "name": "A#3",
                "ticks": 18715,
                "time": 48.736979166666664,
                "velocity": 0.8661417322834646
              },
              {
                "duration": 0.2447916666666714,
                "durationTicks": 94,
                "midi": 60,
                "name": "C4",
                "ticks": 18811,
                "time": 48.986979166666664,
                "velocity": 0.8661417322834646
              },
              {
                "duration": 0.2447916666666714,
                "durationTicks": 94,
                "midi": 63,
                "name": "D#4",
                "ticks": 18907,
                "time": 49.236979166666664,
                "velocity": 0.8661417322834646
              },
              {
                "duration": 0.6666666666666714,
                "durationTicks": 256,
                "midi": 53,
                "name": "F3",
                "ticks": 19003,
                "time": 49.486979166666664,
                "velocity": 0.8661417322834646
              },
              {
                "duration": 0.6666666666666714,
                "durationTicks": 256,
                "midi": 60,
                "name": "C4",
                "ticks": 19003,
                "time": 49.486979166666664,
                "velocity": 0.8661417322834646
              },
              {
                "duration": 0.2447916666666714,
                "durationTicks": 94,
                "midi": 53,
                "name": "F3",
                "ticks": 19291,
                "time": 50.236979166666664,
                "velocity": 0.8661417322834646
              },
              {
                "duration": 0.2447916666666714,
                "durationTicks": 94,
                "midi": 60,
                "name": "C4",
                "ticks": 19291,
                "time": 50.236979166666664,
                "velocity": 0.8661417322834646
              },
              {
                "duration": 0.6666666666666714,
                "durationTicks": 256,
                "midi": 49,
                "name": "C#3",
                "ticks": 19387,
                "time": 50.486979166666664,
                "velocity": 0.8661417322834646
              },
              {
                "duration": 0.6666666666666714,
                "durationTicks": 256,
                "midi": 56,
                "name": "G#3",
                "ticks": 19387,
                "time": 50.486979166666664,
                "velocity": 0.8661417322834646
              },
              {
                "duration": 0.2447916666666714,
                "durationTicks": 94,
                "midi": 56,
                "name": "G#3",
                "ticks": 19675,
                "time": 51.236979166666664,
                "velocity": 0.8661417322834646
              },
              {
                "duration": 0.8697916666666714,
                "durationTicks": 334,
                "midi": 44,
                "name": "G#2",
                "ticks": 19771,
                "time": 51.486979166666664,
                "velocity": 0.8661417322834646
              },
              {
                "duration": 0.8697916666666714,
                "durationTicks": 334,
                "midi": 51,
                "name": "D#3",
                "ticks": 19771,
                "time": 51.486979166666664,
                "velocity": 0.8661417322834646
              },
              {
                "duration": 0.2447916666666714,
                "durationTicks": 94,
                "midi": 46,
                "name": "A#2",
                "ticks": 20251,
                "time": 52.736979166666664,
                "velocity": 0.8661417322834646
              },
              {
                "duration": 0.2447916666666714,
                "durationTicks": 94,
                "midi": 48,
                "name": "C3",
                "ticks": 20347,
                "time": 52.986979166666664,
                "velocity": 0.8661417322834646
              },
              {
                "duration": 0.2447916666666714,
                "durationTicks": 94,
                "midi": 51,
                "name": "D#3",
                "ticks": 20443,
                "time": 53.236979166666664,
                "velocity": 0.8661417322834646
              },
              {
                "duration": 0.8697916666666714,
                "durationTicks": 334,
                "midi": 41,
                "name": "F2",
                "ticks": 20539,
                "time": 53.486979166666664,
                "velocity": 0.8661417322834646
              },
              {
                "duration": 0.8697916666666714,
                "durationTicks": 334,
                "midi": 48,
                "name": "C3",
                "ticks": 20539,
                "time": 53.486979166666664,
                "velocity": 0.8661417322834646
              },
              {
                "duration": 0.6666666666666714,
                "durationTicks": 256,
                "midi": 49,
                "name": "C#3",
                "ticks": 20923,
                "time": 54.486979166666664,
                "velocity": 0.8661417322834646
              },
              {
                "duration": 0.6666666666666714,
                "durationTicks": 256,
                "midi": 56,
                "name": "G#3",
                "ticks": 20923,
                "time": 54.486979166666664,
                "velocity": 0.8661417322834646
              },
              {
                "duration": 0.2447916666666714,
                "durationTicks": 94,
                "midi": 56,
                "name": "G#3",
                "ticks": 21211,
                "time": 55.236979166666664,
                "velocity": 0.8661417322834646
              },
              {
                "duration": 0.6666666666666714,
                "durationTicks": 256,
                "midi": 44,
                "name": "G#2",
                "ticks": 21307,
                "time": 55.486979166666664,
                "velocity": 0.8661417322834646
              },
              {
                "duration": 0.6666666666666714,
                "durationTicks": 256,
                "midi": 51,
                "name": "D#3",
                "ticks": 21307,
                "time": 55.486979166666664,
                "velocity": 0.8661417322834646
              },
              {
                "duration": 0.2447916666666714,
                "durationTicks": 94,
                "midi": 56,
                "name": "G#3",
                "ticks": 21595,
                "time": 56.236979166666664,
                "velocity": 0.8661417322834646
              },
              {
                "duration": 0.2447916666666714,
                "durationTicks": 94,
                "midi": 58,
                "name": "A#3",
                "ticks": 21691,
                "time": 56.486979166666664,
                "velocity": 0.8661417322834646
              },
              {
                "duration": 0.2447916666666714,
                "durationTicks": 94,
                "midi": 48,
                "name": "C3",
                "ticks": 21787,
                "time": 56.736979166666664,
                "velocity": 0.8661417322834646
              },
              {
                "duration": 0.2447916666666714,
                "durationTicks": 94,
                "midi": 49,
                "name": "C#3",
                "ticks": 21883,
                "time": 56.986979166666664,
                "velocity": 0.8661417322834646
              },
              {
                "duration": 0.9166666666666714,
                "durationTicks": 352,
                "midi": 53,
                "name": "F3",
                "ticks": 21979,
                "time": 57.236979166666664,
                "velocity": 0.8661417322834646
              },
              {
                "duration": 0.2447916666666714,
                "durationTicks": 94,
                "midi": 53,
                "name": "F3",
                "ticks": 22363,
                "time": 58.236979166666664,
                "velocity": 0.8661417322834646
              },
              {
                "duration": 0.6666666666666714,
                "durationTicks": 256,
                "midi": 49,
                "name": "C#3",
                "ticks": 22459,
                "time": 58.486979166666664,
                "velocity": 0.8661417322834646
              },
              {
                "duration": 0.6666666666666714,
                "durationTicks": 256,
                "midi": 56,
                "name": "G#3",
                "ticks": 22459,
                "time": 58.486979166666664,
                "velocity": 0.8661417322834646
              },
              {
                "duration": 0.2447916666666714,
                "durationTicks": 94,
                "midi": 49,
                "name": "C#3",
                "ticks": 22747,
                "time": 59.236979166666664,
                "velocity": 0.8661417322834646
              },
              {
                "duration": 0.2447916666666714,
                "durationTicks": 94,
                "midi": 56,
                "name": "G#3",
                "ticks": 22747,
                "time": 59.236979166666664,
                "velocity": 0.8661417322834646
              },
              {
                "duration": 0.6666666666666714,
                "durationTicks": 256,
                "midi": 44,
                "name": "G#2",
                "ticks": 22843,
                "time": 59.486979166666664,
                "velocity": 0.8661417322834646
              },
              {
                "duration": 0.6666666666666714,
                "durationTicks": 256,
                "midi": 51,
                "name": "D#3",
                "ticks": 22843,
                "time": 59.486979166666664,
                "velocity": 0.8661417322834646
              },
              {
                "duration": 0.2447916666666714,
                "durationTicks": 94,
                "midi": 44,
                "name": "G#2",
                "ticks": 23131,
                "time": 60.236979166666664,
                "velocity": 0.8661417322834646
              },
              {
                "duration": 0.2447916666666714,
                "durationTicks": 94,
                "midi": 51,
                "name": "D#3",
                "ticks": 23131,
                "time": 60.236979166666664,
                "velocity": 0.8661417322834646
              },
              {
                "duration": 0.4166666666666714,
                "durationTicks": 160,
                "midi": 46,
                "name": "A#2",
                "ticks": 23227,
                "time": 60.486979166666664,
                "velocity": 0.8661417322834646
              },
              {
                "duration": 0.4166666666666714,
                "durationTicks": 160,
                "midi": 53,
                "name": "F3",
                "ticks": 23227,
                "time": 60.486979166666664,
                "velocity": 0.8661417322834646
              }
            ]
           
}