var barrysIdea_ToneJS_MIDI_toJSON = 
[
    {
    "header": {
      "keySignatures": [],
      "meta": [],
      "name": "Acoustic Guitar",
      "ppq": 256,
      "tempos": [
        {
          "bpm": 100,
          "ticks": 0
        }
      ],
      "timeSignatures": [
        {
          "ticks": 0,
          "timeSignature": [
            3,
            4
          ],
          "measures": 0
        }
      ]
    },
    "tracks": [
      {
        "channel": 2,
        "controlChanges": {
          "7": [
            {
              "number": 7,
              "ticks": 0,
              "time": 0,
              "value": 0.6299212598425197
            }
          ],
          "10": [
            {
              "number": 10,
              "ticks": 0,
              "time": 0,
              "value": 0.5039370078740157
            }
          ],
          "64": [
            {
              "number": 64,
              "ticks": 0,
              "time": 0,
              "value": 0
            }
          ],
          "91": [
            {
              "number": 91,
              "ticks": 0,
              "time": 0,
              "value": 0.3779527559055118
            }
          ],
          "121": [
            {
              "number": 121,
              "ticks": 0,
              "time": 0,
              "value": 0
            }
          ]
        },
        "pitchBends": [],
        "instrument": {
          "family": "guitar",
          "name": "acoustic guitar (steel)",
          "number": 25
        },
        "name": "Acoustic Guitar",
        "notes": [
          {
            "duration": 0.6,
            "durationTicks": 256,
            "midi": 57,
            "name": "A3",
            "ticks": 0,
            "time": 0,
            "velocity": 0.5039370078740157
          },
          {
            "duration": 0.6,
            "durationTicks": 256,
            "midi": 60,
            "name": "C4",
            "ticks": 256,
            "time": 0.6,
            "velocity": 0.6377952755905512
          },
          {
            "duration": 0.5999999999999999,
            "durationTicks": 256,
            "midi": 64,
            "name": "E4",
            "ticks": 512,
            "time": 1.2,
            "velocity": 0.7007874015748031
          },
          {
            "duration": 0.6000000000000001,
            "durationTicks": 256,
            "midi": 62,
            "name": "D4",
            "ticks": 768,
            "time": 1.7999999999999998,
            "velocity": 0.5826771653543307
          },
          {
            "duration": 0.6000000000000001,
            "durationTicks": 256,
            "midi": 66,
            "name": "F#4",
            "ticks": 1024,
            "time": 2.4,
            "velocity": 0.6692913385826772
          },
          {
            "duration": 0.5999999999999996,
            "durationTicks": 256,
            "midi": 69,
            "name": "A4",
            "ticks": 1280,
            "time": 3,
            "velocity": 0.6614173228346457
          },
          {
            "duration": 0.6000000000000005,
            "durationTicks": 256,
            "midi": 52,
            "name": "E3",
            "ticks": 1536,
            "time": 3.5999999999999996,
            "velocity": 0.5433070866141733
          },
          {
            "duration": 0.5999999999999996,
            "durationTicks": 256,
            "midi": 55,
            "name": "G3",
            "ticks": 1792,
            "time": 4.2,
            "velocity": 0.6299212598425197
          },
          {
            "duration": 0.5999999999999996,
            "durationTicks": 256,
            "midi": 59,
            "name": "B3",
            "ticks": 2048,
            "time": 4.8,
            "velocity": 0.6299212598425197
          },
          {
            "duration": 0.6000000000000005,
            "durationTicks": 256,
            "midi": 57,
            "name": "A3",
            "ticks": 2304,
            "time": 5.3999999999999995,
            "velocity": 0.6141732283464567
          },
          {
            "duration": 0.5999999999999996,
            "durationTicks": 256,
            "midi": 60,
            "name": "C4",
            "ticks": 2560,
            "time": 6,
            "velocity": 0.6456692913385826
          },
          {
            "duration": 0.5999999999999996,
            "durationTicks": 256,
            "midi": 64,
            "name": "E4",
            "ticks": 2816,
            "time": 6.6,
            "velocity": 0.6614173228346457
          },
          {
            "duration": 0.6000000000000005,
            "durationTicks": 256,
            "midi": 55,
            "name": "G3",
            "ticks": 3072,
            "time": 7.199999999999999,
            "velocity": 0.5275590551181102
          },
          {
            "duration": 0.6000000000000005,
            "durationTicks": 256,
            "midi": 59,
            "name": "B3",
            "ticks": 3328,
            "time": 7.8,
            "velocity": 0.5826771653543307
          },
          {
            "duration": 0.5999999999999996,
            "durationTicks": 256,
            "midi": 62,
            "name": "D4",
            "ticks": 3584,
            "time": 8.4,
            "velocity": 0.6377952755905512
          },
          {
            "duration": 0.5999999999999996,
            "durationTicks": 256,
            "midi": 60,
            "name": "C4",
            "ticks": 3840,
            "time": 9,
            "velocity": 0.5669291338582677
          },
          {
            "duration": 0.5999999999999996,
            "durationTicks": 256,
            "midi": 64,
            "name": "E4",
            "ticks": 4096,
            "time": 9.6,
            "velocity": 0.6456692913385826
          },
          {
            "duration": 0.5999999999999996,
            "durationTicks": 256,
            "midi": 67,
            "name": "G4",
            "ticks": 4352,
            "time": 10.2,
            "velocity": 0.6771653543307087
          },
          {
            "duration": 0.6000000000000014,
            "durationTicks": 256,
            "midi": 62,
            "name": "D4",
            "ticks": 4608,
            "time": 10.799999999999999,
            "velocity": 0.49606299212598426
          },
          {
            "duration": 0.5999999999999996,
            "durationTicks": 256,
            "midi": 66,
            "name": "F#4",
            "ticks": 4864,
            "time": 11.4,
            "velocity": 0.6692913385826772
          },
          {
            "duration": 0.5999999999999996,
            "durationTicks": 256,
            "midi": 69,
            "name": "A4",
            "ticks": 5120,
            "time": 12,
            "velocity": 0.6771653543307087
          },
          {
            "duration": 0.5999999999999996,
            "durationTicks": 256,
            "midi": 57,
            "name": "A3",
            "ticks": 5376,
            "time": 12.6,
            "velocity": 0.5590551181102362
          },
          {
            "duration": 0.5999999999999996,
            "durationTicks": 256,
            "midi": 60,
            "name": "C4",
            "ticks": 5632,
            "time": 13.2,
            "velocity": 0.6614173228346457
          },
          {
            "duration": 0.5999999999999996,
            "durationTicks": 256,
            "midi": 64,
            "name": "E4",
            "ticks": 5888,
            "time": 13.799999999999999,
            "velocity": 0.6535433070866141
          },
          {
            "duration": 0.6000000000000014,
            "durationTicks": 256,
            "midi": 62,
            "name": "D4",
            "ticks": 6144,
            "time": 14.399999999999999,
            "velocity": 0.5669291338582677
          },
          {
            "duration": 0.5999999999999996,
            "durationTicks": 256,
            "midi": 66,
            "name": "F#4",
            "ticks": 6400,
            "time": 15,
            "velocity": 0.6535433070866141
          },
          {
            "duration": 0.5999999999999996,
            "durationTicks": 256,
            "midi": 69,
            "name": "A4",
            "ticks": 6656,
            "time": 15.6,
            "velocity": 0.6456692913385826
          },
          {
            "duration": 0.6000000000000014,
            "durationTicks": 256,
            "midi": 52,
            "name": "E3",
            "ticks": 6912,
            "time": 16.2,
            "velocity": 0.5118110236220472
          },
          {
            "duration": 0.5999999999999979,
            "durationTicks": 256,
            "midi": 55,
            "name": "G3",
            "ticks": 7168,
            "time": 16.8,
            "velocity": 0.5984251968503937
          },
          {
            "duration": 0.6000000000000014,
            "durationTicks": 256,
            "midi": 59,
            "name": "B3",
            "ticks": 7424,
            "time": 17.4,
            "velocity": 0.6220472440944882
          },
          {
            "duration": 0.5999999999999979,
            "durationTicks": 256,
            "midi": 57,
            "name": "A3",
            "ticks": 7680,
            "time": 18,
            "velocity": 0.6062992125984252
          },
          {
            "duration": 0.6000000000000014,
            "durationTicks": 256,
            "midi": 60,
            "name": "C4",
            "ticks": 7936,
            "time": 18.599999999999998,
            "velocity": 0.6614173228346457
          },
          {
            "duration": 0.6000000000000014,
            "durationTicks": 256,
            "midi": 64,
            "name": "E4",
            "ticks": 8192,
            "time": 19.2,
            "velocity": 0.6377952755905512
          },
          {
            "duration": 0.5999999999999979,
            "durationTicks": 256,
            "midi": 55,
            "name": "G3",
            "ticks": 8448,
            "time": 19.8,
            "velocity": 0.5590551181102362
          },
          {
            "duration": 0.6000000000000014,
            "durationTicks": 256,
            "midi": 59,
            "name": "B3",
            "ticks": 8704,
            "time": 20.4,
            "velocity": 0.6299212598425197
          },
          {
            "duration": 0.5999999999999979,
            "durationTicks": 256,
            "midi": 62,
            "name": "D4",
            "ticks": 8960,
            "time": 21,
            "velocity": 0.6456692913385826
          },
          {
            "duration": 0.6000000000000014,
            "durationTicks": 256,
            "midi": 60,
            "name": "C4",
            "ticks": 9216,
            "time": 21.599999999999998,
            "velocity": 0.5826771653543307
          },
          {
            "duration": 0.6000000000000014,
            "durationTicks": 256,
            "midi": 64,
            "name": "E4",
            "ticks": 9472,
            "time": 22.2,
            "velocity": 0.6692913385826772
          },
          {
            "duration": 0.5999999999999979,
            "durationTicks": 256,
            "midi": 67,
            "name": "G4",
            "ticks": 9728,
            "time": 22.8,
            "velocity": 0.6535433070866141
          },
          {
            "duration": 0.6000000000000014,
            "durationTicks": 256,
            "midi": 62,
            "name": "D4",
            "ticks": 9984,
            "time": 23.4,
            "velocity": 0.5511811023622047
          },
          {
            "duration": 0.5999999999999979,
            "durationTicks": 256,
            "midi": 66,
            "name": "F#4",
            "ticks": 10240,
            "time": 24,
            "velocity": 0.6535433070866141
          },
          {
            "duration": 0.6000000000000014,
            "durationTicks": 256,
            "midi": 69,
            "name": "A4",
            "ticks": 10496,
            "time": 24.599999999999998,
            "velocity": 0.6614173228346457
          },
          {
            "duration": 0.6000000000000014,
            "durationTicks": 256,
            "midi": 57,
            "name": "A3",
            "ticks": 10752,
            "time": 25.2,
            "velocity": 0.5354330708661418
          },
          {
            "duration": 0.5999999999999979,
            "durationTicks": 256,
            "midi": 60,
            "name": "C4",
            "ticks": 11008,
            "time": 25.8,
            "velocity": 0.5984251968503937
          },
          {
            "duration": 0.6000000000000014,
            "durationTicks": 256,
            "midi": 64,
            "name": "E4",
            "ticks": 11264,
            "time": 26.4,
            "velocity": 0.6535433070866141
          },
          {
            "duration": 0.5999999999999979,
            "durationTicks": 256,
            "midi": 62,
            "name": "D4",
            "ticks": 11520,
            "time": 27,
            "velocity": 0.5748031496062992
          },
          {
            "duration": 0.6000000000000014,
            "durationTicks": 256,
            "midi": 66,
            "name": "F#4",
            "ticks": 11776,
            "time": 27.599999999999998,
            "velocity": 0.6456692913385826
          },
          {
            "duration": 0.5999999999999979,
            "durationTicks": 256,
            "midi": 69,
            "name": "A4",
            "ticks": 12032,
            "time": 28.2,
            "velocity": 0.6771653543307087
          },
          {
            "duration": 0.6000000000000014,
            "durationTicks": 256,
            "midi": 52,
            "name": "E3",
            "ticks": 12288,
            "time": 28.799999999999997,
            "velocity": 0.5748031496062992
          },
          {
            "duration": 0.6000000000000014,
            "durationTicks": 256,
            "midi": 55,
            "name": "G3",
            "ticks": 12544,
            "time": 29.4,
            "velocity": 0.6377952755905512
          },
          {
            "duration": 0.5999999999999979,
            "durationTicks": 256,
            "midi": 59,
            "name": "B3",
            "ticks": 12800,
            "time": 30,
            "velocity": 0.6535433070866141
          },
          {
            "duration": 0.6000000000000014,
            "durationTicks": 256,
            "midi": 57,
            "name": "A3",
            "ticks": 13056,
            "time": 30.599999999999998,
            "velocity": 0.5984251968503937
          },
          {
            "duration": 0.5999999999999979,
            "durationTicks": 256,
            "midi": 60,
            "name": "C4",
            "ticks": 13312,
            "time": 31.2,
            "velocity": 0.6377952755905512
          },
          {
            "duration": 0.6000000000000014,
            "durationTicks": 256,
            "midi": 64,
            "name": "E4",
            "ticks": 13568,
            "time": 31.799999999999997,
            "velocity": 0.6456692913385826
          },
          {
            "duration": 0.6000000000000014,
            "durationTicks": 256,
            "midi": 55,
            "name": "G3",
            "ticks": 13824,
            "time": 32.4,
            "velocity": 0.5354330708661418
          },
          {
            "duration": 0.6000000000000014,
            "durationTicks": 256,
            "midi": 59,
            "name": "B3",
            "ticks": 14080,
            "time": 33,
            "velocity": 0.6220472440944882
          },
          {
            "duration": 0.5999999999999943,
            "durationTicks": 256,
            "midi": 62,
            "name": "D4",
            "ticks": 14336,
            "time": 33.6,
            "velocity": 0.6692913385826772
          },
          {
            "duration": 0.6000000000000014,
            "durationTicks": 256,
            "midi": 60,
            "name": "C4",
            "ticks": 14592,
            "time": 34.199999999999996,
            "velocity": 0.6062992125984252
          },
          {
            "duration": 0.6000000000000014,
            "durationTicks": 256,
            "midi": 64,
            "name": "E4",
            "ticks": 14848,
            "time": 34.8,
            "velocity": 0.6929133858267716
          },
          {
            "duration": 0.6000000000000014,
            "durationTicks": 256,
            "midi": 67,
            "name": "G4",
            "ticks": 15104,
            "time": 35.4,
            "velocity": 0.6692913385826772
          },
          {
            "duration": 0.6000000000000014,
            "durationTicks": 256,
            "midi": 62,
            "name": "D4",
            "ticks": 15360,
            "time": 36,
            "velocity": 0.5275590551181102
          },
          {
            "duration": 0.5999999999999943,
            "durationTicks": 256,
            "midi": 66,
            "name": "F#4",
            "ticks": 15616,
            "time": 36.6,
            "velocity": 0.6614173228346457
          },
          {
            "duration": 0.6000000000000014,
            "durationTicks": 256,
            "midi": 69,
            "name": "A4",
            "ticks": 15872,
            "time": 37.199999999999996,
            "velocity": 0.6692913385826772
          },
          {
            "duration": 0.6000000000000014,
            "durationTicks": 256,
            "midi": 57,
            "name": "A3",
            "ticks": 16128,
            "time": 37.8,
            "velocity": 0.5511811023622047
          },
          {
            "duration": 0.6000000000000014,
            "durationTicks": 256,
            "midi": 60,
            "name": "C4",
            "ticks": 16384,
            "time": 38.4,
            "velocity": 0.6456692913385826
          },
          {
            "duration": 0.6000000000000014,
            "durationTicks": 256,
            "midi": 64,
            "name": "E4",
            "ticks": 16640,
            "time": 39,
            "velocity": 0.6929133858267716
          },
          {
            "duration": 0.5999999999999943,
            "durationTicks": 256,
            "midi": 62,
            "name": "D4",
            "ticks": 16896,
            "time": 39.6,
            "velocity": 0.6062992125984252
          },
          {
            "duration": 0.6000000000000014,
            "durationTicks": 256,
            "midi": 66,
            "name": "F#4",
            "ticks": 17152,
            "time": 40.199999999999996,
            "velocity": 0.6692913385826772
          },
          {
            "duration": 0.6000000000000014,
            "durationTicks": 256,
            "midi": 69,
            "name": "A4",
            "ticks": 17408,
            "time": 40.8,
            "velocity": 0.6377952755905512
          },
          {
            "duration": 0.6000000000000014,
            "durationTicks": 256,
            "midi": 52,
            "name": "E3",
            "ticks": 17664,
            "time": 41.4,
            "velocity": 0.5118110236220472
          },
          {
            "duration": 0.6000000000000014,
            "durationTicks": 256,
            "midi": 55,
            "name": "G3",
            "ticks": 17920,
            "time": 42,
            "velocity": 0.6377952755905512
          },
          {
            "duration": 0.5999999999999943,
            "durationTicks": 256,
            "midi": 59,
            "name": "B3",
            "ticks": 18176,
            "time": 42.6,
            "velocity": 0.6220472440944882
          },
          {
            "duration": 0.6000000000000014,
            "durationTicks": 256,
            "midi": 57,
            "name": "A3",
            "ticks": 18432,
            "time": 43.199999999999996,
            "velocity": 0.5748031496062992
          },
          {
            "duration": 0.6000000000000014,
            "durationTicks": 256,
            "midi": 60,
            "name": "C4",
            "ticks": 18688,
            "time": 43.8,
            "velocity": 0.6456692913385826
          },
          {
            "duration": 0.6000000000000014,
            "durationTicks": 256,
            "midi": 64,
            "name": "E4",
            "ticks": 18944,
            "time": 44.4,
            "velocity": 0.6614173228346457
          },
          {
            "duration": 0.6000000000000014,
            "durationTicks": 256,
            "midi": 55,
            "name": "G3",
            "ticks": 19200,
            "time": 45,
            "velocity": 0.5984251968503937
          },
          {
            "duration": 0.5999999999999943,
            "durationTicks": 256,
            "midi": 59,
            "name": "B3",
            "ticks": 19456,
            "time": 45.6,
            "velocity": 0.6377952755905512
          },
          {
            "duration": 0.6000000000000014,
            "durationTicks": 256,
            "midi": 62,
            "name": "D4",
            "ticks": 19712,
            "time": 46.199999999999996,
            "velocity": 0.6614173228346457
          },
          {
            "duration": 0.6000000000000014,
            "durationTicks": 256,
            "midi": 60,
            "name": "C4",
            "ticks": 19968,
            "time": 46.8,
            "velocity": 0.5748031496062992
          },
          {
            "duration": 0.6000000000000014,
            "durationTicks": 256,
            "midi": 64,
            "name": "E4",
            "ticks": 20224,
            "time": 47.4,
            "velocity": 0.6614173228346457
          },
          {
            "duration": 0.6000000000000014,
            "durationTicks": 256,
            "midi": 67,
            "name": "G4",
            "ticks": 20480,
            "time": 48,
            "velocity": 0.6929133858267716
          },
          {
            "duration": 0.5999999999999943,
            "durationTicks": 256,
            "midi": 62,
            "name": "D4",
            "ticks": 20736,
            "time": 48.6,
            "velocity": 0.5433070866141733
          },
          {
            "duration": 0.6000000000000014,
            "durationTicks": 256,
            "midi": 66,
            "name": "F#4",
            "ticks": 20992,
            "time": 49.199999999999996,
            "velocity": 0.6614173228346457
          },
          {
            "duration": 0.6000000000000014,
            "durationTicks": 256,
            "midi": 69,
            "name": "A4",
            "ticks": 21248,
            "time": 49.8,
            "velocity": 0.6456692913385826
          }
        ]
      },
      {
        "channel": 4,
        "controlChanges": {
          "7": [
            {
              "number": 7,
              "ticks": 0,
              "time": 0,
              "value": 0.8818897637795275
            }
          ],
          "10": [
            {
              "number": 10,
              "ticks": 0,
              "time": 0,
              "value": 0.5039370078740157
            }
          ],
          "64": [
            {
              "number": 64,
              "ticks": 0,
              "time": 0,
              "value": 0
            }
          ],
          "91": [
            {
              "number": 91,
              "ticks": 0,
              "time": 0,
              "value": 0.14960629921259844
            }
          ],
          "121": [
            {
              "number": 121,
              "ticks": 0,
              "time": 0,
              "value": 0
            }
          ]
        },
        "pitchBends": [],
        "instrument": {
          "family": "bass",
          "name": "electric bass (finger)",
          "number": 33
        },
        "name": "4-string Bass Guitar",
        "notes": [
          {
            "duration": 2.4,
            "durationTicks": 1024,
            "midi": 28,
            "name": "E1",
            "ticks": 0,
            "time": 0,
            "velocity": 0.5354330708661418
          },
          {
            "duration": 2.4,
            "durationTicks": 1024,
            "midi": 28,
            "name": "E1",
            "ticks": 1024,
            "time": 2.4,
            "velocity": 0.5905511811023622
          },
          {
            "duration": 2.3999999999999995,
            "durationTicks": 1024,
            "midi": 28,
            "name": "E1",
            "ticks": 2048,
            "time": 4.8,
            "velocity": 0.6456692913385826
          },
          {
            "duration": 2.4000000000000004,
            "durationTicks": 1024,
            "midi": 28,
            "name": "E1",
            "ticks": 4096,
            "time": 9.6,
            "velocity": 0.5511811023622047
          },
          {
            "duration": 1.799999999999999,
            "durationTicks": 768,
            "midi": 45,
            "name": "A2",
            "ticks": 5376,
            "time": 12.6,
            "velocity": 0.5433070866141733
          },
          {
            "duration": 1.8000000000000007,
            "durationTicks": 768,
            "midi": 42,
            "name": "F#2",
            "ticks": 6144,
            "time": 14.399999999999999,
            "velocity": 0.5354330708661418
          },
          {
            "duration": 1.8000000000000007,
            "durationTicks": 768,
            "midi": 38,
            "name": "D2",
            "ticks": 6912,
            "time": 16.2,
            "velocity": 0.5905511811023622
          },
          {
            "duration": 1.8000000000000007,
            "durationTicks": 768,
            "midi": 43,
            "name": "G2",
            "ticks": 7680,
            "time": 18,
            "velocity": 0.6377952755905512
          },
          {
            "duration": 1.7999999999999972,
            "durationTicks": 768,
            "midi": 40,
            "name": "E2",
            "ticks": 8448,
            "time": 19.8,
            "velocity": 0.5826771653543307
          },
          {
            "duration": 1.8000000000000007,
            "durationTicks": 768,
            "midi": 36,
            "name": "C2",
            "ticks": 9216,
            "time": 21.599999999999998,
            "velocity": 0.5354330708661418
          },
          {
            "duration": 1.8000000000000007,
            "durationTicks": 768,
            "midi": 38,
            "name": "D2",
            "ticks": 9984,
            "time": 23.4,
            "velocity": 0.6377952755905512
          },
          {
            "duration": 1.8000000000000007,
            "durationTicks": 768,
            "midi": 35,
            "name": "B1",
            "ticks": 10752,
            "time": 25.2,
            "velocity": 0.5275590551181102
          },
          {
            "duration": 1.7999999999999972,
            "durationTicks": 768,
            "midi": 31,
            "name": "G1",
            "ticks": 11520,
            "time": 27,
            "velocity": 0.5590551181102362
          },
          {
            "duration": 1.8000000000000007,
            "durationTicks": 768,
            "midi": 40,
            "name": "E2",
            "ticks": 12288,
            "time": 28.799999999999997,
            "velocity": 0.7244094488188977
          },
          {
            "duration": 1.8000000000000007,
            "durationTicks": 768,
            "midi": 36,
            "name": "C2",
            "ticks": 13056,
            "time": 30.599999999999998,
            "velocity": 0.5354330708661418
          },
          {
            "duration": 1.7999999999999972,
            "durationTicks": 768,
            "midi": 33,
            "name": "A1",
            "ticks": 13824,
            "time": 32.4,
            "velocity": 0.5669291338582677
          },
          {
            "duration": 1.8000000000000043,
            "durationTicks": 768,
            "midi": 35,
            "name": "B1",
            "ticks": 14592,
            "time": 34.199999999999996,
            "velocity": 0.6062992125984252
          },
          {
            "duration": 1.7999999999999972,
            "durationTicks": 768,
            "midi": 31,
            "name": "G1",
            "ticks": 15360,
            "time": 36,
            "velocity": 0.5826771653543307
          },
          {
            "duration": 1.8000000000000043,
            "durationTicks": 768,
            "midi": 28,
            "name": "E1",
            "ticks": 16128,
            "time": 37.8,
            "velocity": 0.6141732283464567
          },
          {
            "duration": 1.7999999999999972,
            "durationTicks": 768,
            "midi": 45,
            "name": "A2",
            "ticks": 16896,
            "time": 39.6,
            "velocity": 0.7165354330708661
          },
          {
            "duration": 1.7999999999999972,
            "durationTicks": 768,
            "midi": 42,
            "name": "F#2",
            "ticks": 17664,
            "time": 41.4,
            "velocity": 0.5905511811023622
          },
          {
            "duration": 1.8000000000000043,
            "durationTicks": 768,
            "midi": 38,
            "name": "D2",
            "ticks": 18432,
            "time": 43.199999999999996,
            "velocity": 0.5748031496062992
          },
          {
            "duration": 1.7999999999999972,
            "durationTicks": 768,
            "midi": 40,
            "name": "E2",
            "ticks": 19200,
            "time": 45,
            "velocity": 0.6299212598425197
          },
          {
            "duration": 1.8000000000000043,
            "durationTicks": 768,
            "midi": 36,
            "name": "C2",
            "ticks": 19968,
            "time": 46.8,
            "velocity": 0.5826771653543307
          },
          {
            "duration": 1.7999999999999972,
            "durationTicks": 768,
            "midi": 33,
            "name": "A1",
            "ticks": 20736,
            "time": 48.6,
            "velocity": 0.5826771653543307
          }
        ]
      }
    ]
  }
]

var barrysIdea_01_L_guitar = {
  "notes": [
    {
      "duration": 0.6,
      "durationTicks": 256,
      "midi": 57,
      "name": "A3",
      "ticks": 0,
      "time": 0,
      "velocity": 0.5039370078740157
    },
    {
      "duration": 0.6,
      "durationTicks": 256,
      "midi": 60,
      "name": "C4",
      "ticks": 256,
      "time": 0.6,
      "velocity": 0.6377952755905512
    },
    {
      "duration": 0.5999999999999999,
      "durationTicks": 256,
      "midi": 64,
      "name": "E4",
      "ticks": 512,
      "time": 1.2,
      "velocity": 0.7007874015748031
    },
    {
      "duration": 0.6000000000000001,
      "durationTicks": 256,
      "midi": 62,
      "name": "D4",
      "ticks": 768,
      "time": 1.7999999999999998,
      "velocity": 0.5826771653543307
    },
    {
      "duration": 0.6000000000000001,
      "durationTicks": 256,
      "midi": 66,
      "name": "F#4",
      "ticks": 1024,
      "time": 2.4,
      "velocity": 0.6692913385826772
    },
    {
      "duration": 0.5999999999999996,
      "durationTicks": 256,
      "midi": 69,
      "name": "A4",
      "ticks": 1280,
      "time": 3,
      "velocity": 0.6614173228346457
    },
    {
      "duration": 0.6000000000000005,
      "durationTicks": 256,
      "midi": 52,
      "name": "E3",
      "ticks": 1536,
      "time": 3.5999999999999996,
      "velocity": 0.5433070866141733
    },
    {
      "duration": 0.5999999999999996,
      "durationTicks": 256,
      "midi": 55,
      "name": "G3",
      "ticks": 1792,
      "time": 4.2,
      "velocity": 0.6299212598425197
    },
    {
      "duration": 0.5999999999999996,
      "durationTicks": 256,
      "midi": 59,
      "name": "B3",
      "ticks": 2048,
      "time": 4.8,
      "velocity": 0.6299212598425197
    },
    {
      "duration": 0.6000000000000005,
      "durationTicks": 256,
      "midi": 57,
      "name": "A3",
      "ticks": 2304,
      "time": 5.3999999999999995,
      "velocity": 0.6141732283464567
    },
    {
      "duration": 0.5999999999999996,
      "durationTicks": 256,
      "midi": 60,
      "name": "C4",
      "ticks": 2560,
      "time": 6,
      "velocity": 0.6456692913385826
    },
    {
      "duration": 0.5999999999999996,
      "durationTicks": 256,
      "midi": 64,
      "name": "E4",
      "ticks": 2816,
      "time": 6.6,
      "velocity": 0.6614173228346457
    },
    {
      "duration": 0.6000000000000005,
      "durationTicks": 256,
      "midi": 55,
      "name": "G3",
      "ticks": 3072,
      "time": 7.199999999999999,
      "velocity": 0.5275590551181102
    },
    {
      "duration": 0.6000000000000005,
      "durationTicks": 256,
      "midi": 59,
      "name": "B3",
      "ticks": 3328,
      "time": 7.8,
      "velocity": 0.5826771653543307
    },
    {
      "duration": 0.5999999999999996,
      "durationTicks": 256,
      "midi": 62,
      "name": "D4",
      "ticks": 3584,
      "time": 8.4,
      "velocity": 0.6377952755905512
    },
    {
      "duration": 0.5999999999999996,
      "durationTicks": 256,
      "midi": 60,
      "name": "C4",
      "ticks": 3840,
      "time": 9,
      "velocity": 0.5669291338582677
    },
    {
      "duration": 0.5999999999999996,
      "durationTicks": 256,
      "midi": 64,
      "name": "E4",
      "ticks": 4096,
      "time": 9.6,
      "velocity": 0.6456692913385826
    },
    {
      "duration": 0.5999999999999996,
      "durationTicks": 256,
      "midi": 67,
      "name": "G4",
      "ticks": 4352,
      "time": 10.2,
      "velocity": 0.6771653543307087
    },
    {
      "duration": 0.6000000000000014,
      "durationTicks": 256,
      "midi": 62,
      "name": "D4",
      "ticks": 4608,
      "time": 10.799999999999999,
      "velocity": 0.49606299212598426
    },
    {
      "duration": 0.5999999999999996,
      "durationTicks": 256,
      "midi": 66,
      "name": "F#4",
      "ticks": 4864,
      "time": 11.4,
      "velocity": 0.6692913385826772
    },
    {
      "duration": 0.5999999999999996,
      "durationTicks": 256,
      "midi": 69,
      "name": "A4",
      "ticks": 5120,
      "time": 12,
      "velocity": 0.6771653543307087
    },
    {
      "duration": 0.5999999999999996,
      "durationTicks": 256,
      "midi": 57,
      "name": "A3",
      "ticks": 5376,
      "time": 12.6,
      "velocity": 0.5590551181102362
    },
    {
      "duration": 0.5999999999999996,
      "durationTicks": 256,
      "midi": 60,
      "name": "C4",
      "ticks": 5632,
      "time": 13.2,
      "velocity": 0.6614173228346457
    },
    {
      "duration": 0.5999999999999996,
      "durationTicks": 256,
      "midi": 64,
      "name": "E4",
      "ticks": 5888,
      "time": 13.799999999999999,
      "velocity": 0.6535433070866141
    },
    {
      "duration": 0.6000000000000014,
      "durationTicks": 256,
      "midi": 62,
      "name": "D4",
      "ticks": 6144,
      "time": 14.399999999999999,
      "velocity": 0.5669291338582677
    },
    {
      "duration": 0.5999999999999996,
      "durationTicks": 256,
      "midi": 66,
      "name": "F#4",
      "ticks": 6400,
      "time": 15,
      "velocity": 0.6535433070866141
    },
    {
      "duration": 0.5999999999999996,
      "durationTicks": 256,
      "midi": 69,
      "name": "A4",
      "ticks": 6656,
      "time": 15.6,
      "velocity": 0.6456692913385826
    },
    {
      "duration": 0.6000000000000014,
      "durationTicks": 256,
      "midi": 52,
      "name": "E3",
      "ticks": 6912,
      "time": 16.2,
      "velocity": 0.5118110236220472
    },
    {
      "duration": 0.5999999999999979,
      "durationTicks": 256,
      "midi": 55,
      "name": "G3",
      "ticks": 7168,
      "time": 16.8,
      "velocity": 0.5984251968503937
    },
    {
      "duration": 0.6000000000000014,
      "durationTicks": 256,
      "midi": 59,
      "name": "B3",
      "ticks": 7424,
      "time": 17.4,
      "velocity": 0.6220472440944882
    },
    {
      "duration": 0.5999999999999979,
      "durationTicks": 256,
      "midi": 57,
      "name": "A3",
      "ticks": 7680,
      "time": 18,
      "velocity": 0.6062992125984252
    },
    {
      "duration": 0.6000000000000014,
      "durationTicks": 256,
      "midi": 60,
      "name": "C4",
      "ticks": 7936,
      "time": 18.599999999999998,
      "velocity": 0.6614173228346457
    },
    {
      "duration": 0.6000000000000014,
      "durationTicks": 256,
      "midi": 64,
      "name": "E4",
      "ticks": 8192,
      "time": 19.2,
      "velocity": 0.6377952755905512
    },
    {
      "duration": 0.5999999999999979,
      "durationTicks": 256,
      "midi": 55,
      "name": "G3",
      "ticks": 8448,
      "time": 19.8,
      "velocity": 0.5590551181102362
    },
    {
      "duration": 0.6000000000000014,
      "durationTicks": 256,
      "midi": 59,
      "name": "B3",
      "ticks": 8704,
      "time": 20.4,
      "velocity": 0.6299212598425197
    },
    {
      "duration": 0.5999999999999979,
      "durationTicks": 256,
      "midi": 62,
      "name": "D4",
      "ticks": 8960,
      "time": 21,
      "velocity": 0.6456692913385826
    },
    {
      "duration": 0.6000000000000014,
      "durationTicks": 256,
      "midi": 60,
      "name": "C4",
      "ticks": 9216,
      "time": 21.599999999999998,
      "velocity": 0.5826771653543307
    },
    {
      "duration": 0.6000000000000014,
      "durationTicks": 256,
      "midi": 64,
      "name": "E4",
      "ticks": 9472,
      "time": 22.2,
      "velocity": 0.6692913385826772
    },
    {
      "duration": 0.5999999999999979,
      "durationTicks": 256,
      "midi": 67,
      "name": "G4",
      "ticks": 9728,
      "time": 22.8,
      "velocity": 0.6535433070866141
    },
    {
      "duration": 0.6000000000000014,
      "durationTicks": 256,
      "midi": 62,
      "name": "D4",
      "ticks": 9984,
      "time": 23.4,
      "velocity": 0.5511811023622047
    },
    {
      "duration": 0.5999999999999979,
      "durationTicks": 256,
      "midi": 66,
      "name": "F#4",
      "ticks": 10240,
      "time": 24,
      "velocity": 0.6535433070866141
    },
    {
      "duration": 0.6000000000000014,
      "durationTicks": 256,
      "midi": 69,
      "name": "A4",
      "ticks": 10496,
      "time": 24.599999999999998,
      "velocity": 0.6614173228346457
    },
    {
      "duration": 0.6000000000000014,
      "durationTicks": 256,
      "midi": 57,
      "name": "A3",
      "ticks": 10752,
      "time": 25.2,
      "velocity": 0.5354330708661418
    },
    {
      "duration": 0.5999999999999979,
      "durationTicks": 256,
      "midi": 60,
      "name": "C4",
      "ticks": 11008,
      "time": 25.8,
      "velocity": 0.5984251968503937
    },
    {
      "duration": 0.6000000000000014,
      "durationTicks": 256,
      "midi": 64,
      "name": "E4",
      "ticks": 11264,
      "time": 26.4,
      "velocity": 0.6535433070866141
    },
    {
      "duration": 0.5999999999999979,
      "durationTicks": 256,
      "midi": 62,
      "name": "D4",
      "ticks": 11520,
      "time": 27,
      "velocity": 0.5748031496062992
    },
    {
      "duration": 0.6000000000000014,
      "durationTicks": 256,
      "midi": 66,
      "name": "F#4",
      "ticks": 11776,
      "time": 27.599999999999998,
      "velocity": 0.6456692913385826
    },
    {
      "duration": 0.5999999999999979,
      "durationTicks": 256,
      "midi": 69,
      "name": "A4",
      "ticks": 12032,
      "time": 28.2,
      "velocity": 0.6771653543307087
    },
    {
      "duration": 0.6000000000000014,
      "durationTicks": 256,
      "midi": 52,
      "name": "E3",
      "ticks": 12288,
      "time": 28.799999999999997,
      "velocity": 0.5748031496062992
    },
    {
      "duration": 0.6000000000000014,
      "durationTicks": 256,
      "midi": 55,
      "name": "G3",
      "ticks": 12544,
      "time": 29.4,
      "velocity": 0.6377952755905512
    },
    {
      "duration": 0.5999999999999979,
      "durationTicks": 256,
      "midi": 59,
      "name": "B3",
      "ticks": 12800,
      "time": 30,
      "velocity": 0.6535433070866141
    },
    {
      "duration": 0.6000000000000014,
      "durationTicks": 256,
      "midi": 57,
      "name": "A3",
      "ticks": 13056,
      "time": 30.599999999999998,
      "velocity": 0.5984251968503937
    },
    {
      "duration": 0.5999999999999979,
      "durationTicks": 256,
      "midi": 60,
      "name": "C4",
      "ticks": 13312,
      "time": 31.2,
      "velocity": 0.6377952755905512
    },
    {
      "duration": 0.6000000000000014,
      "durationTicks": 256,
      "midi": 64,
      "name": "E4",
      "ticks": 13568,
      "time": 31.799999999999997,
      "velocity": 0.6456692913385826
    },
    {
      "duration": 0.6000000000000014,
      "durationTicks": 256,
      "midi": 55,
      "name": "G3",
      "ticks": 13824,
      "time": 32.4,
      "velocity": 0.5354330708661418
    },
    {
      "duration": 0.6000000000000014,
      "durationTicks": 256,
      "midi": 59,
      "name": "B3",
      "ticks": 14080,
      "time": 33,
      "velocity": 0.6220472440944882
    },
    {
      "duration": 0.5999999999999943,
      "durationTicks": 256,
      "midi": 62,
      "name": "D4",
      "ticks": 14336,
      "time": 33.6,
      "velocity": 0.6692913385826772
    },
    {
      "duration": 0.6000000000000014,
      "durationTicks": 256,
      "midi": 60,
      "name": "C4",
      "ticks": 14592,
      "time": 34.199999999999996,
      "velocity": 0.6062992125984252
    },
    {
      "duration": 0.6000000000000014,
      "durationTicks": 256,
      "midi": 64,
      "name": "E4",
      "ticks": 14848,
      "time": 34.8,
      "velocity": 0.6929133858267716
    },
    {
      "duration": 0.6000000000000014,
      "durationTicks": 256,
      "midi": 67,
      "name": "G4",
      "ticks": 15104,
      "time": 35.4,
      "velocity": 0.6692913385826772
    },
    {
      "duration": 0.6000000000000014,
      "durationTicks": 256,
      "midi": 62,
      "name": "D4",
      "ticks": 15360,
      "time": 36,
      "velocity": 0.5275590551181102
    },
    {
      "duration": 0.5999999999999943,
      "durationTicks": 256,
      "midi": 66,
      "name": "F#4",
      "ticks": 15616,
      "time": 36.6,
      "velocity": 0.6614173228346457
    },
    {
      "duration": 0.6000000000000014,
      "durationTicks": 256,
      "midi": 69,
      "name": "A4",
      "ticks": 15872,
      "time": 37.199999999999996,
      "velocity": 0.6692913385826772
    },
    {
      "duration": 0.6000000000000014,
      "durationTicks": 256,
      "midi": 57,
      "name": "A3",
      "ticks": 16128,
      "time": 37.8,
      "velocity": 0.5511811023622047
    },
    {
      "duration": 0.6000000000000014,
      "durationTicks": 256,
      "midi": 60,
      "name": "C4",
      "ticks": 16384,
      "time": 38.4,
      "velocity": 0.6456692913385826
    },
    {
      "duration": 0.6000000000000014,
      "durationTicks": 256,
      "midi": 64,
      "name": "E4",
      "ticks": 16640,
      "time": 39,
      "velocity": 0.6929133858267716
    },
    {
      "duration": 0.5999999999999943,
      "durationTicks": 256,
      "midi": 62,
      "name": "D4",
      "ticks": 16896,
      "time": 39.6,
      "velocity": 0.6062992125984252
    },
    {
      "duration": 0.6000000000000014,
      "durationTicks": 256,
      "midi": 66,
      "name": "F#4",
      "ticks": 17152,
      "time": 40.199999999999996,
      "velocity": 0.6692913385826772
    },
    {
      "duration": 0.6000000000000014,
      "durationTicks": 256,
      "midi": 69,
      "name": "A4",
      "ticks": 17408,
      "time": 40.8,
      "velocity": 0.6377952755905512
    },
    {
      "duration": 0.6000000000000014,
      "durationTicks": 256,
      "midi": 52,
      "name": "E3",
      "ticks": 17664,
      "time": 41.4,
      "velocity": 0.5118110236220472
    },
    {
      "duration": 0.6000000000000014,
      "durationTicks": 256,
      "midi": 55,
      "name": "G3",
      "ticks": 17920,
      "time": 42,
      "velocity": 0.6377952755905512
    },
    {
      "duration": 0.5999999999999943,
      "durationTicks": 256,
      "midi": 59,
      "name": "B3",
      "ticks": 18176,
      "time": 42.6,
      "velocity": 0.6220472440944882
    },
    {
      "duration": 0.6000000000000014,
      "durationTicks": 256,
      "midi": 57,
      "name": "A3",
      "ticks": 18432,
      "time": 43.199999999999996,
      "velocity": 0.5748031496062992
    },
    {
      "duration": 0.6000000000000014,
      "durationTicks": 256,
      "midi": 60,
      "name": "C4",
      "ticks": 18688,
      "time": 43.8,
      "velocity": 0.6456692913385826
    },
    {
      "duration": 0.6000000000000014,
      "durationTicks": 256,
      "midi": 64,
      "name": "E4",
      "ticks": 18944,
      "time": 44.4,
      "velocity": 0.6614173228346457
    },
    {
      "duration": 0.6000000000000014,
      "durationTicks": 256,
      "midi": 55,
      "name": "G3",
      "ticks": 19200,
      "time": 45,
      "velocity": 0.5984251968503937
    },
    {
      "duration": 0.5999999999999943,
      "durationTicks": 256,
      "midi": 59,
      "name": "B3",
      "ticks": 19456,
      "time": 45.6,
      "velocity": 0.6377952755905512
    },
    {
      "duration": 0.6000000000000014,
      "durationTicks": 256,
      "midi": 62,
      "name": "D4",
      "ticks": 19712,
      "time": 46.199999999999996,
      "velocity": 0.6614173228346457
    },
    {
      "duration": 0.6000000000000014,
      "durationTicks": 256,
      "midi": 60,
      "name": "C4",
      "ticks": 19968,
      "time": 46.8,
      "velocity": 0.5748031496062992
    },
    {
      "duration": 0.6000000000000014,
      "durationTicks": 256,
      "midi": 64,
      "name": "E4",
      "ticks": 20224,
      "time": 47.4,
      "velocity": 0.6614173228346457
    },
    {
      "duration": 0.6000000000000014,
      "durationTicks": 256,
      "midi": 67,
      "name": "G4",
      "ticks": 20480,
      "time": 48,
      "velocity": 0.6929133858267716
    },
    {
      "duration": 0.5999999999999943,
      "durationTicks": 256,
      "midi": 62,
      "name": "D4",
      "ticks": 20736,
      "time": 48.6,
      "velocity": 0.5433070866141733
    },
    {
      "duration": 0.6000000000000014,
      "durationTicks": 256,
      "midi": 66,
      "name": "F#4",
      "ticks": 20992,
      "time": 49.199999999999996,
      "velocity": 0.6614173228346457
    },
    {
      "duration": 0.6000000000000014,
      "durationTicks": 256,
      "midi": 69,
      "name": "A4",
      "ticks": 21248,
      "time": 49.8,
      "velocity": 0.6456692913385826
    }
  ]
}

var barrysIdea_01_R_bass = {
      
        "notes": [
          {
            "duration": 2.4,
            "durationTicks": 1024,
            "midi": 28,
            "name": "E1",
            "ticks": 0,
            "time": 0,
            "velocity": 0.5354330708661418
          },
          {
            "duration": 2.4,
            "durationTicks": 1024,
            "midi": 28,
            "name": "E1",
            "ticks": 1024,
            "time": 2.4,
            "velocity": 0.5905511811023622
          },
          {
            "duration": 2.3999999999999995,
            "durationTicks": 1024,
            "midi": 28,
            "name": "E1",
            "ticks": 2048,
            "time": 4.8,
            "velocity": 0.6456692913385826
          },
          {
            "duration": 2.4000000000000004,
            "durationTicks": 1024,
            "midi": 28,
            "name": "E1",
            "ticks": 4096,
            "time": 9.6,
            "velocity": 0.5511811023622047
          },
          {
            "duration": 1.799999999999999,
            "durationTicks": 768,
            "midi": 45,
            "name": "A2",
            "ticks": 5376,
            "time": 12.6,
            "velocity": 0.5433070866141733
          },
          {
            "duration": 1.8000000000000007,
            "durationTicks": 768,
            "midi": 42,
            "name": "F#2",
            "ticks": 6144,
            "time": 14.399999999999999,
            "velocity": 0.5354330708661418
          },
          {
            "duration": 1.8000000000000007,
            "durationTicks": 768,
            "midi": 38,
            "name": "D2",
            "ticks": 6912,
            "time": 16.2,
            "velocity": 0.5905511811023622
          },
          {
            "duration": 1.8000000000000007,
            "durationTicks": 768,
            "midi": 43,
            "name": "G2",
            "ticks": 7680,
            "time": 18,
            "velocity": 0.6377952755905512
          },
          {
            "duration": 1.7999999999999972,
            "durationTicks": 768,
            "midi": 40,
            "name": "E2",
            "ticks": 8448,
            "time": 19.8,
            "velocity": 0.5826771653543307
          },
          {
            "duration": 1.8000000000000007,
            "durationTicks": 768,
            "midi": 36,
            "name": "C2",
            "ticks": 9216,
            "time": 21.599999999999998,
            "velocity": 0.5354330708661418
          },
          {
            "duration": 1.8000000000000007,
            "durationTicks": 768,
            "midi": 38,
            "name": "D2",
            "ticks": 9984,
            "time": 23.4,
            "velocity": 0.6377952755905512
          },
          {
            "duration": 1.8000000000000007,
            "durationTicks": 768,
            "midi": 35,
            "name": "B1",
            "ticks": 10752,
            "time": 25.2,
            "velocity": 0.5275590551181102
          },
          {
            "duration": 1.7999999999999972,
            "durationTicks": 768,
            "midi": 31,
            "name": "G1",
            "ticks": 11520,
            "time": 27,
            "velocity": 0.5590551181102362
          },
          {
            "duration": 1.8000000000000007,
            "durationTicks": 768,
            "midi": 40,
            "name": "E2",
            "ticks": 12288,
            "time": 28.799999999999997,
            "velocity": 0.7244094488188977
          },
          {
            "duration": 1.8000000000000007,
            "durationTicks": 768,
            "midi": 36,
            "name": "C2",
            "ticks": 13056,
            "time": 30.599999999999998,
            "velocity": 0.5354330708661418
          },
          {
            "duration": 1.7999999999999972,
            "durationTicks": 768,
            "midi": 33,
            "name": "A1",
            "ticks": 13824,
            "time": 32.4,
            "velocity": 0.5669291338582677
          },
          {
            "duration": 1.8000000000000043,
            "durationTicks": 768,
            "midi": 35,
            "name": "B1",
            "ticks": 14592,
            "time": 34.199999999999996,
            "velocity": 0.6062992125984252
          },
          {
            "duration": 1.7999999999999972,
            "durationTicks": 768,
            "midi": 31,
            "name": "G1",
            "ticks": 15360,
            "time": 36,
            "velocity": 0.5826771653543307
          },
          {
            "duration": 1.8000000000000043,
            "durationTicks": 768,
            "midi": 28,
            "name": "E1",
            "ticks": 16128,
            "time": 37.8,
            "velocity": 0.6141732283464567
          },
          {
            "duration": 1.7999999999999972,
            "durationTicks": 768,
            "midi": 45,
            "name": "A2",
            "ticks": 16896,
            "time": 39.6,
            "velocity": 0.7165354330708661
          },
          {
            "duration": 1.7999999999999972,
            "durationTicks": 768,
            "midi": 42,
            "name": "F#2",
            "ticks": 17664,
            "time": 41.4,
            "velocity": 0.5905511811023622
          },
          {
            "duration": 1.8000000000000043,
            "durationTicks": 768,
            "midi": 38,
            "name": "D2",
            "ticks": 18432,
            "time": 43.199999999999996,
            "velocity": 0.5748031496062992
          },
          {
            "duration": 1.7999999999999972,
            "durationTicks": 768,
            "midi": 40,
            "name": "E2",
            "ticks": 19200,
            "time": 45,
            "velocity": 0.6299212598425197
          },
          {
            "duration": 1.8000000000000043,
            "durationTicks": 768,
            "midi": 36,
            "name": "C2",
            "ticks": 19968,
            "time": 46.8,
            "velocity": 0.5826771653543307
          },
          {
            "duration": 1.7999999999999972,
            "durationTicks": 768,
            "midi": 33,
            "name": "A1",
            "ticks": 20736,
            "time": 48.6,
            "velocity": 0.5826771653543307
          }
        ]
      }