let marvin_grapevine_L_notes = {
    
    
            "notes": [
              {
                "duration": 0.2489583333333334,
                "durationTicks": 239,
                "midi": 65,
                "name": "F4",
                "ticks": 4704,
                "time": 4.9,
                "velocity": 0.7874015748031497
              },
              {
                "duration": 0.2489583333333334,
                "durationTicks": 239,
                "midi": 62,
                "name": "D4",
                "ticks": 4944,
                "time": 5.15,
                "velocity": 0.7874015748031497
              },
              {
                "duration": 0.2489583333333334,
                "durationTicks": 239,
                "midi": 62,
                "name": "D4",
                "ticks": 5184,
                "time": 5.4,
                "velocity": 0.7874015748031497
              },
              {
                "duration": 0.2489583333333334,
                "durationTicks": 239,
                "midi": 62,
                "name": "D4",
                "ticks": 5424,
                "time": 5.65,
                "velocity": 0.7874015748031497
              },
              {
                "duration": 0.2489583333333334,
                "durationTicks": 239,
                "midi": 65,
                "name": "F4",
                "ticks": 5664,
                "time": 5.9,
                "velocity": 0.7874015748031497
              },
              {
                "duration": 0.2489583333333334,
                "durationTicks": 239,
                "midi": 62,
                "name": "D4",
                "ticks": 5904,
                "time": 6.15,
                "velocity": 0.7874015748031497
              },
              {
                "duration": 0.5,
                "durationTicks": 480,
                "midi": 62,
                "name": "D4",
                "ticks": 6144,
                "time": 6.4,
                "velocity": 0.7874015748031497
              },
              {
                "duration": 0.2489583333333325,
                "durationTicks": 239,
                "midi": 62,
                "name": "D4",
                "ticks": 7584,
                "time": 7.9,
                "velocity": 0.7874015748031497
              },
              {
                "duration": 0.2489583333333325,
                "durationTicks": 239,
                "midi": 62,
                "name": "D4",
                "ticks": 7824,
                "time": 8.15,
                "velocity": 0.7874015748031497
              },
              {
                "duration": 0.2489583333333325,
                "durationTicks": 239,
                "midi": 64,
                "name": "E4",
                "ticks": 8304,
                "time": 8.65,
                "velocity": 0.7874015748031497
              },
              {
                "duration": 0.2489583333333325,
                "durationTicks": 239,
                "midi": 64,
                "name": "E4",
                "ticks": 9264,
                "time": 9.65,
                "velocity": 0.7874015748031497
              },
              {
                "duration": 0.2489583333333325,
                "durationTicks": 239,
                "midi": 64,
                "name": "E4",
                "ticks": 9504,
                "time": 9.9,
                "velocity": 0.7874015748031497
              },
              {
                "duration": 0.2489583333333325,
                "durationTicks": 239,
                "midi": 59,
                "name": "B3",
                "ticks": 9744,
                "time": 10.15,
                "velocity": 0.7874015748031497
              },
              {
                "duration": 0.2489583333333325,
                "durationTicks": 239,
                "midi": 62,
                "name": "D4",
                "ticks": 9984,
                "time": 10.4,
                "velocity": 0.7874015748031497
              },
              {
                "duration": 0.2489583333333325,
                "durationTicks": 239,
                "midi": 62,
                "name": "D4",
                "ticks": 11184,
                "time": 11.65,
                "velocity": 0.7874015748031497
              },
              {
                "duration": 0.2489583333333325,
                "durationTicks": 239,
                "midi": 62,
                "name": "D4",
                "ticks": 11424,
                "time": 11.9,
                "velocity": 0.7874015748031497
              },
              {
                "duration": 0.2489583333333325,
                "durationTicks": 239,
                "midi": 62,
                "name": "D4",
                "ticks": 11664,
                "time": 12.15,
                "velocity": 0.7874015748031497
              },
              {
                "duration": 0.2489583333333325,
                "durationTicks": 239,
                "midi": 62,
                "name": "D4",
                "ticks": 11904,
                "time": 12.4,
                "velocity": 0.7874015748031497
              },
              {
                "duration": 0.75,
                "durationTicks": 720,
                "midi": 74,
                "name": "D5",
                "ticks": 12144,
                "time": 12.65,
                "velocity": 0.7874015748031497
              },
              {
                "duration": 0.2489583333333325,
                "durationTicks": 239,
                "midi": 62,
                "name": "D4",
                "ticks": 12864,
                "time": 13.4,
                "velocity": 0.7874015748031497
              },
              {
                "duration": 0.2489583333333325,
                "durationTicks": 239,
                "midi": 62,
                "name": "D4",
                "ticks": 13104,
                "time": 13.65,
                "velocity": 0.7874015748031497
              },
              {
                "duration": 0.2489583333333325,
                "durationTicks": 239,
                "midi": 65,
                "name": "F4",
                "ticks": 13344,
                "time": 13.9,
                "velocity": 0.7874015748031497
              },
              {
                "duration": 0.2489583333333325,
                "durationTicks": 239,
                "midi": 62,
                "name": "D4",
                "ticks": 13584,
                "time": 14.15,
                "velocity": 0.7874015748031497
              },
              {
                "duration": 0.5,
                "durationTicks": 480,
                "midi": 65,
                "name": "F4",
                "ticks": 13824,
                "time": 14.4,
                "velocity": 0.7874015748031497
              },
              {
                "duration": 0.2489583333333325,
                "durationTicks": 239,
                "midi": 62,
                "name": "D4",
                "ticks": 14544,
                "time": 15.15,
                "velocity": 0.7874015748031497
              },
              {
                "duration": 0.2489583333333325,
                "durationTicks": 239,
                "midi": 62,
                "name": "D4",
                "ticks": 14784,
                "time": 15.4,
                "velocity": 0.7874015748031497
              },
              {
                "duration": 0.2489583333333325,
                "durationTicks": 239,
                "midi": 62,
                "name": "D4",
                "ticks": 15024,
                "time": 15.65,
                "velocity": 0.7874015748031497
              },
              {
                "duration": 0.2489583333333325,
                "durationTicks": 239,
                "midi": 62,
                "name": "D4",
                "ticks": 15264,
                "time": 15.9,
                "velocity": 0.7874015748031497
              },
              {
                "duration": 0.24895833333333428,
                "durationTicks": 239,
                "midi": 62,
                "name": "D4",
                "ticks": 15504,
                "time": 16.15,
                "velocity": 0.7874015748031497
              },
              {
                "duration": 0.24895833333333428,
                "durationTicks": 239,
                "midi": 62,
                "name": "D4",
                "ticks": 15744,
                "time": 16.4,
                "velocity": 0.7874015748031497
              },
              {
                "duration": 0.24895833333333428,
                "durationTicks": 239,
                "midi": 64,
                "name": "E4",
                "ticks": 15984,
                "time": 16.65,
                "velocity": 0.7874015748031497
              },
              {
                "duration": 0.24895833333333428,
                "durationTicks": 239,
                "midi": 64,
                "name": "E4",
                "ticks": 16464,
                "time": 17.15,
                "velocity": 0.7874015748031497
              },
              {
                "duration": 0.24895833333333428,
                "durationTicks": 239,
                "midi": 64,
                "name": "E4",
                "ticks": 16704,
                "time": 17.4,
                "velocity": 0.7874015748031497
              },
              {
                "duration": 0.24895833333333428,
                "durationTicks": 239,
                "midi": 64,
                "name": "E4",
                "ticks": 16944,
                "time": 17.65,
                "velocity": 0.7874015748031497
              },
              {
                "duration": 0.24895833333333428,
                "durationTicks": 239,
                "midi": 64,
                "name": "E4",
                "ticks": 17184,
                "time": 17.9,
                "velocity": 0.7874015748031497
              },
              {
                "duration": 0.24895833333333428,
                "durationTicks": 239,
                "midi": 59,
                "name": "B3",
                "ticks": 17424,
                "time": 18.15,
                "velocity": 0.7874015748031497
              },
              {
                "duration": 0.24895833333333428,
                "durationTicks": 239,
                "midi": 62,
                "name": "D4",
                "ticks": 17664,
                "time": 18.4,
                "velocity": 0.7874015748031497
              },
              {
                "duration": 0.24895833333333428,
                "durationTicks": 239,
                "midi": 62,
                "name": "D4",
                "ticks": 18864,
                "time": 19.65,
                "velocity": 0.7874015748031497
              },
              {
                "duration": 0.24895833333333428,
                "durationTicks": 239,
                "midi": 62,
                "name": "D4",
                "ticks": 19104,
                "time": 19.9,
                "velocity": 0.7874015748031497
              },
              {
                "duration": 0.24895833333333428,
                "durationTicks": 239,
                "midi": 62,
                "name": "D4",
                "ticks": 19344,
                "time": 20.15,
                "velocity": 0.7874015748031497
              },
              {
                "duration": 0.24895833333333428,
                "durationTicks": 239,
                "midi": 62,
                "name": "D4",
                "ticks": 19584,
                "time": 20.4,
                "velocity": 0.7874015748031497
              },
              {
                "duration": 0.24895833333333428,
                "durationTicks": 239,
                "midi": 62,
                "name": "D4",
                "ticks": 19824,
                "time": 20.65,
                "velocity": 0.7874015748031497
              },
              {
                "duration": 0.5,
                "durationTicks": 480,
                "midi": 71,
                "name": "B4",
                "ticks": 20064,
                "time": 20.9,
                "velocity": 0.7874015748031497
              },
              {
                "duration": 0.5,
                "durationTicks": 480,
                "midi": 69,
                "name": "A4",
                "ticks": 20544,
                "time": 21.4,
                "velocity": 0.7874015748031497
              },
              {
                "duration": 0.24895833333333428,
                "durationTicks": 239,
                "midi": 65,
                "name": "F4",
                "ticks": 21024,
                "time": 21.9,
                "velocity": 0.7874015748031497
              },
              {
                "duration": 0.5,
                "durationTicks": 480,
                "midi": 64,
                "name": "E4",
                "ticks": 21260,
                "time": 22.145833333333332,
                "velocity": 0.7874015748031497
              },
              {
                "duration": 0.24895833333333428,
                "durationTicks": 239,
                "midi": 62,
                "name": "D4",
                "ticks": 21744,
                "time": 22.65,
                "velocity": 0.7874015748031497
              },
              {
                "duration": 0.24895833333333428,
                "durationTicks": 239,
                "midi": 62,
                "name": "D4",
                "ticks": 22944,
                "time": 23.9,
                "velocity": 0.7874015748031497
              },
              {
                "duration": 0.24895833333333428,
                "durationTicks": 239,
                "midi": 62,
                "name": "D4",
                "ticks": 23184,
                "time": 24.15,
                "velocity": 0.7874015748031497
              },
              {
                "duration": 0.24895833333333428,
                "durationTicks": 239,
                "midi": 62,
                "name": "D4",
                "ticks": 23424,
                "time": 24.4,
                "velocity": 0.7874015748031497
              },
              {
                "duration": 0.75,
                "durationTicks": 720,
                "midi": 71,
                "name": "B4",
                "ticks": 23664,
                "time": 24.65,
                "velocity": 0.7874015748031497
              },
              {
                "duration": 0.5,
                "durationTicks": 480,
                "midi": 69,
                "name": "A4",
                "ticks": 24384,
                "time": 25.4,
                "velocity": 0.7874015748031497
              },
              {
                "duration": 0.24895833333333428,
                "durationTicks": 239,
                "midi": 65,
                "name": "F4",
                "ticks": 24864,
                "time": 25.9,
                "velocity": 0.7874015748031497
              },
              {
                "duration": 0.24895833333333428,
                "durationTicks": 239,
                "midi": 64,
                "name": "E4",
                "ticks": 25104,
                "time": 26.15,
                "velocity": 0.7874015748031497
              },
              {
                "duration": 0.24895833333333428,
                "durationTicks": 239,
                "midi": 62,
                "name": "D4",
                "ticks": 25584,
                "time": 26.65,
                "velocity": 0.7874015748031497
              },
              {
                "duration": 0.24895833333333428,
                "durationTicks": 239,
                "midi": 67,
                "name": "G4",
                "ticks": 27024,
                "time": 28.15,
                "velocity": 0.7874015748031497
              },
              {
                "duration": 0.24895833333333428,
                "durationTicks": 239,
                "midi": 67,
                "name": "G4",
                "ticks": 27264,
                "time": 28.4,
                "velocity": 0.7874015748031497
              },
              {
                "duration": 0.24895833333333428,
                "durationTicks": 239,
                "midi": 65,
                "name": "F4",
                "ticks": 27504,
                "time": 28.65,
                "velocity": 0.7874015748031497
              },
              {
                "duration": 0.24895833333333428,
                "durationTicks": 239,
                "midi": 62,
                "name": "D4",
                "ticks": 27984,
                "time": 29.15,
                "velocity": 0.7874015748031497
              },
              {
                "duration": 0.24895833333333428,
                "durationTicks": 239,
                "midi": 65,
                "name": "F4",
                "ticks": 28224,
                "time": 29.4,
                "velocity": 0.7874015748031497
              },
              {
                "duration": 0.24895833333333428,
                "durationTicks": 239,
                "midi": 62,
                "name": "D4",
                "ticks": 28464,
                "time": 29.65,
                "velocity": 0.7874015748031497
              },
              {
                "duration": 0.24895833333333428,
                "durationTicks": 239,
                "midi": 65,
                "name": "F4",
                "ticks": 28704,
                "time": 29.9,
                "velocity": 0.7874015748031497
              },
              {
                "duration": 0.24895833333333428,
                "durationTicks": 239,
                "midi": 62,
                "name": "D4",
                "ticks": 29184,
                "time": 30.4,
                "velocity": 0.7874015748031497
              },
              {
                "duration": 0.24895833333333428,
                "durationTicks": 239,
                "midi": 65,
                "name": "F4",
                "ticks": 30624,
                "time": 31.9,
                "velocity": 0.7874015748031497
              },
              {
                "duration": 0.24895833333333428,
                "durationTicks": 239,
                "midi": 65,
                "name": "F4",
                "ticks": 30864,
                "time": 32.15,
                "velocity": 0.7874015748031497
              },
              {
                "duration": 0.24895833333333428,
                "durationTicks": 239,
                "midi": 67,
                "name": "G4",
                "ticks": 31344,
                "time": 32.65,
                "velocity": 0.7874015748031497
              },
              {
                "duration": 0.24895833333333428,
                "durationTicks": 239,
                "midi": 67,
                "name": "G4",
                "ticks": 31824,
                "time": 33.15,
                "velocity": 0.7874015748031497
              },
              {
                "duration": 0.24895833333333428,
                "durationTicks": 239,
                "midi": 67,
                "name": "G4",
                "ticks": 32064,
                "time": 33.4,
                "velocity": 0.7874015748031497
              },
              {
                "duration": 0.24895833333333428,
                "durationTicks": 239,
                "midi": 65,
                "name": "F4",
                "ticks": 32304,
                "time": 33.65,
                "velocity": 0.7874015748031497
              },
              {
                "duration": 0.24895833333333428,
                "durationTicks": 239,
                "midi": 67,
                "name": "G4",
                "ticks": 32544,
                "time": 33.9,
                "velocity": 0.7874015748031497
              },
              {
                "duration": 0.24895833333333428,
                "durationTicks": 239,
                "midi": 62,
                "name": "D4",
                "ticks": 33024,
                "time": 34.4,
                "velocity": 0.7874015748031497
              },
              {
                "duration": 0.24895833333333428,
                "durationTicks": 239,
                "midi": 67,
                "name": "G4",
                "ticks": 34464,
                "time": 35.9,
                "velocity": 0.7874015748031497
              },
              {
                "duration": 0.24895833333333428,
                "durationTicks": 239,
                "midi": 67,
                "name": "G4",
                "ticks": 34704,
                "time": 36.15,
                "velocity": 0.7874015748031497
              },
              {
                "duration": 0.24895833333333428,
                "durationTicks": 239,
                "midi": 65,
                "name": "F4",
                "ticks": 35184,
                "time": 36.65,
                "velocity": 0.7874015748031497
              },
              {
                "duration": 0.24895833333333428,
                "durationTicks": 239,
                "midi": 62,
                "name": "D4",
                "ticks": 35664,
                "time": 37.15,
                "velocity": 0.7874015748031497
              },
              {
                "duration": 0.24895833333333428,
                "durationTicks": 239,
                "midi": 65,
                "name": "F4",
                "ticks": 35904,
                "time": 37.4,
                "velocity": 0.7874015748031497
              },
              {
                "duration": 0.24895833333333428,
                "durationTicks": 239,
                "midi": 62,
                "name": "D4",
                "ticks": 36144,
                "time": 37.65,
                "velocity": 0.7874015748031497
              },
              {
                "duration": 0.24895833333333428,
                "durationTicks": 239,
                "midi": 65,
                "name": "F4",
                "ticks": 36384,
                "time": 37.9,
                "velocity": 0.7874015748031497
              },
              {
                "duration": 0.24895833333333428,
                "durationTicks": 239,
                "midi": 62,
                "name": "D4",
                "ticks": 36864,
                "time": 38.4,
                "velocity": 0.7874015748031497
              },
              {
                "duration": 0.24895833333333428,
                "durationTicks": 239,
                "midi": 65,
                "name": "F4",
                "ticks": 38064,
                "time": 39.65,
                "velocity": 0.7874015748031497
              },
              {
                "duration": 0.24895833333333428,
                "durationTicks": 239,
                "midi": 65,
                "name": "F4",
                "ticks": 38304,
                "time": 39.9,
                "velocity": 0.7874015748031497
              },
              {
                "duration": 0.24895833333333428,
                "durationTicks": 239,
                "midi": 65,
                "name": "F4",
                "ticks": 38544,
                "time": 40.15,
                "velocity": 0.7874015748031497
              },
              {
                "duration": 0.24895833333333428,
                "durationTicks": 239,
                "midi": 65,
                "name": "F4",
                "ticks": 38784,
                "time": 40.4,
                "velocity": 0.7874015748031497
              },
              {
                "duration": 0.24895833333333428,
                "durationTicks": 239,
                "midi": 67,
                "name": "G4",
                "ticks": 39024,
                "time": 40.65,
                "velocity": 0.7874015748031497
              },
              {
                "duration": 0.24895833333333428,
                "durationTicks": 239,
                "midi": 67,
                "name": "G4",
                "ticks": 39984,
                "time": 41.65,
                "velocity": 0.7874015748031497
              },
              {
                "duration": 0.24895833333333428,
                "durationTicks": 239,
                "midi": 67,
                "name": "G4",
                "ticks": 40224,
                "time": 41.9,
                "velocity": 0.7874015748031497
              },
              {
                "duration": 0.24895833333333428,
                "durationTicks": 239,
                "midi": 62,
                "name": "D4",
                "ticks": 40464,
                "time": 42.15,
                "velocity": 0.7874015748031497
              },
              {
                "duration": 0.5,
                "durationTicks": 480,
                "midi": 65,
                "name": "F4",
                "ticks": 40704,
                "time": 42.4,
                "velocity": 0.7874015748031497
              },
              {
                "duration": 0.24895833333333428,
                "durationTicks": 239,
                "midi": 62,
                "name": "D4",
                "ticks": 41664,
                "time": 43.4,
                "velocity": 0.7874015748031497
              },
              {
                "duration": 0.24895833333333428,
                "durationTicks": 239,
                "midi": 62,
                "name": "D4",
                "ticks": 41904,
                "time": 43.65,
                "velocity": 0.7874015748031497
              },
              {
                "duration": 0.24895833333333428,
                "durationTicks": 239,
                "midi": 65,
                "name": "F4",
                "ticks": 42144,
                "time": 43.9,
                "velocity": 0.7874015748031497
              },
              {
                "duration": 0.24895833333333428,
                "durationTicks": 239,
                "midi": 62,
                "name": "D4",
                "ticks": 42384,
                "time": 44.15,
                "velocity": 0.7874015748031497
              },
              {
                "duration": 0.75,
                "durationTicks": 720,
                "midi": 62,
                "name": "D4",
                "ticks": 42864,
                "time": 44.65,
                "velocity": 0.7874015748031497
              }
            ] 
}

let marvin_grapevine_R_notes = {  
           
            "notes": [
              {
                "duration": 0.20104166666666679,
                "durationTicks": 193,
                "midi": 50,
                "name": "D3",
                "ticks": 1584,
                "time": 1.65,
                "velocity": 0.5511811023622047
              },
              {
                "duration": 0.10312500000000013,
                "durationTicks": 99,
                "midi": 53,
                "name": "F3",
                "ticks": 1584,
                "time": 1.65,
                "velocity": 0.5669291338582677
              },
              {
                "duration": 0.2875000000000001,
                "durationTicks": 276,
                "midi": 57,
                "name": "A3",
                "ticks": 1584,
                "time": 1.65,
                "velocity": 0.6062992125984252
              },
              {
                "duration": 0.13541666666666696,
                "durationTicks": 130,
                "midi": 53,
                "name": "F3",
                "ticks": 1824,
                "time": 1.9,
                "velocity": 0.6299212598425197
              },
              {
                "duration": 0.12187500000000018,
                "durationTicks": 117,
                "midi": 57,
                "name": "A3",
                "ticks": 1824,
                "time": 1.9,
                "velocity": 0.5354330708661418
              },
              {
                "duration": 0.15208333333333357,
                "durationTicks": 146,
                "midi": 60,
                "name": "C4",
                "ticks": 1824,
                "time": 1.9,
                "velocity": 0.6692913385826772
              },
              {
                "duration": 0.8583333333333334,
                "durationTicks": 824,
                "midi": 53,
                "name": "F3",
                "ticks": 2304,
                "time": 2.4,
                "velocity": 0.7322834645669292
              },
              {
                "duration": 0.8895833333333334,
                "durationTicks": 854,
                "midi": 57,
                "name": "A3",
                "ticks": 2304,
                "time": 2.4,
                "velocity": 0.6692913385826772
              },
              {
                "duration": 0.8583333333333334,
                "durationTicks": 824,
                "midi": 50,
                "name": "D3",
                "ticks": 2304,
                "time": 2.4,
                "velocity": 0.7322834645669292
              },
              {
                "duration": 0.09479166666666661,
                "durationTicks": 91,
                "midi": 50,
                "name": "D3",
                "ticks": 3264,
                "time": 3.4,
                "velocity": 0.5196850393700787
              },
              {
                "duration": 0.09479166666666661,
                "durationTicks": 91,
                "midi": 53,
                "name": "F3",
                "ticks": 3264,
                "time": 3.4,
                "velocity": 0.5196850393700787
              },
              {
                "duration": 0.12187500000000018,
                "durationTicks": 117,
                "midi": 57,
                "name": "A3",
                "ticks": 3264,
                "time": 3.4,
                "velocity": 0.5354330708661418
              },
              {
                "duration": 0.16770833333333357,
                "durationTicks": 161,
                "midi": 50,
                "name": "D3",
                "ticks": 3504,
                "time": 3.65,
                "velocity": 0.5118110236220472
              },
              {
                "duration": 0.16770833333333357,
                "durationTicks": 161,
                "midi": 53,
                "name": "F3",
                "ticks": 3504,
                "time": 3.65,
                "velocity": 0.5118110236220472
              },
              {
                "duration": 0.3020833333333335,
                "durationTicks": 290,
                "midi": 57,
                "name": "A3",
                "ticks": 3504,
                "time": 3.65,
                "velocity": 0.5433070866141733
              },
              {
                "duration": 0.10312499999999991,
                "durationTicks": 99,
                "midi": 53,
                "name": "F3",
                "ticks": 3744,
                "time": 3.9,
                "velocity": 0.5669291338582677
              },
              {
                "duration": 0.10312499999999991,
                "durationTicks": 99,
                "midi": 57,
                "name": "A3",
                "ticks": 3744,
                "time": 3.9,
                "velocity": 0.5669291338582677
              },
              {
                "duration": 0.12604166666666705,
                "durationTicks": 121,
                "midi": 60,
                "name": "C4",
                "ticks": 3744,
                "time": 3.9,
                "velocity": 0.6141732283464567
              },
              {
                "duration": 0.3249999999999993,
                "durationTicks": 312,
                "midi": 50,
                "name": "D3",
                "ticks": 3984,
                "time": 4.15,
                "velocity": 0.7007874015748031
              },
              {
                "duration": 0.36562499999999964,
                "durationTicks": 351,
                "midi": 55,
                "name": "G3",
                "ticks": 3984,
                "time": 4.15,
                "velocity": 0.7716535433070866
              },
              {
                "duration": 0.34791666666666643,
                "durationTicks": 334,
                "midi": 59,
                "name": "B3",
                "ticks": 3984,
                "time": 4.15,
                "velocity": 0.8110236220472441
              },
              {
                "duration": 0.8312499999999998,
                "durationTicks": 798,
                "midi": 50,
                "name": "D3",
                "ticks": 4464,
                "time": 4.65,
                "velocity": 0.7007874015748031
              },
              {
                "duration": 0.8510416666666663,
                "durationTicks": 817,
                "midi": 53,
                "name": "F3",
                "ticks": 4464,
                "time": 4.65,
                "velocity": 0.6062992125984252
              },
              {
                "duration": 0.8468749999999998,
                "durationTicks": 813,
                "midi": 57,
                "name": "A3",
                "ticks": 4464,
                "time": 4.65,
                "velocity": 0.6456692913385826
              },
              {
                "duration": 0.21666666666666679,
                "durationTicks": 208,
                "midi": 57,
                "name": "A3",
                "ticks": 5418,
                "time": 5.64375,
                "velocity": 0.6299212598425197
              },
              {
                "duration": 0.1885416666666666,
                "durationTicks": 181,
                "midi": 53,
                "name": "F3",
                "ticks": 5421,
                "time": 5.646875,
                "velocity": 0.6456692913385826
              },
              {
                "duration": 0.17395833333333321,
                "durationTicks": 167,
                "midi": 50,
                "name": "D3",
                "ticks": 5427,
                "time": 5.653125,
                "velocity": 0.6692913385826772
              },
              {
                "duration": 0.1427083333333341,
                "durationTicks": 137,
                "midi": 60,
                "name": "C4",
                "ticks": 5662,
                "time": 5.897916666666666,
                "velocity": 0.7007874015748031
              },
              {
                "duration": 0.15937499999999982,
                "durationTicks": 153,
                "midi": 53,
                "name": "F3",
                "ticks": 5666,
                "time": 5.902083333333334,
                "velocity": 0.7322834645669292
              },
              {
                "duration": 0.1572916666666666,
                "durationTicks": 151,
                "midi": 57,
                "name": "A3",
                "ticks": 5669,
                "time": 5.905208333333333,
                "velocity": 0.7007874015748031
              },
              {
                "duration": 2.0947916666666666,
                "durationTicks": 2011,
                "midi": 53,
                "name": "F3",
                "ticks": 6121,
                "time": 6.376041666666667,
                "velocity": 0.6692913385826772
              },
              {
                "duration": 2.0812500000000007,
                "durationTicks": 1998,
                "midi": 57,
                "name": "A3",
                "ticks": 6122,
                "time": 6.377083333333333,
                "velocity": 0.5905511811023622
              },
              {
                "duration": 2.0822916666666655,
                "durationTicks": 1999,
                "midi": 50,
                "name": "D3",
                "ticks": 6130,
                "time": 6.385416666666667,
                "velocity": 0.6692913385826772
              },
              {
                "duration": 0.8854166666666661,
                "durationTicks": 850,
                "midi": 52,
                "name": "E3",
                "ticks": 8315,
                "time": 8.661458333333334,
                "velocity": 0.6535433070866141
              },
              {
                "duration": 0.8645833333333321,
                "durationTicks": 830,
                "midi": 49,
                "name": "C#3",
                "ticks": 8317,
                "time": 8.663541666666667,
                "velocity": 0.5905511811023622
              },
              {
                "duration": 0.8760416666666657,
                "durationTicks": 841,
                "midi": 57,
                "name": "A3",
                "ticks": 8317,
                "time": 8.663541666666667,
                "velocity": 0.6535433070866141
              },
              {
                "duration": 0.09166666666666679,
                "durationTicks": 88,
                "midi": 52,
                "name": "E3",
                "ticks": 9265,
                "time": 9.651041666666666,
                "velocity": 0.5118110236220472
              },
              {
                "duration": 0.0666666666666682,
                "durationTicks": 64,
                "midi": 49,
                "name": "C#3",
                "ticks": 9269,
                "time": 9.655208333333333,
                "velocity": 0.5511811023622047
              },
              {
                "duration": 0.08020833333333321,
                "durationTicks": 77,
                "midi": 57,
                "name": "A3",
                "ticks": 9276,
                "time": 9.6625,
                "velocity": 0.4251968503937008
              },
              {
                "duration": 0.15833333333333321,
                "durationTicks": 152,
                "midi": 52,
                "name": "E3",
                "ticks": 9496,
                "time": 9.891666666666667,
                "velocity": 0.8110236220472441
              },
              {
                "duration": 0.1531249999999993,
                "durationTicks": 147,
                "midi": 49,
                "name": "C#3",
                "ticks": 9497,
                "time": 9.892708333333333,
                "velocity": 0.8188976377952756
              },
              {
                "duration": 0.140625,
                "durationTicks": 135,
                "midi": 57,
                "name": "A3",
                "ticks": 9501,
                "time": 9.896875,
                "velocity": 0.7716535433070866
              },
              {
                "duration": 1.9749999999999996,
                "durationTicks": 1896,
                "midi": 55,
                "name": "G3",
                "ticks": 9967,
                "time": 10.382291666666667,
                "velocity": 0.7716535433070866
              },
              {
                "duration": 2.03125,
                "durationTicks": 1950,
                "midi": 47,
                "name": "B2",
                "ticks": 9973,
                "time": 10.388541666666667,
                "velocity": 0.6692913385826772
              },
              {
                "duration": 2.076041666666667,
                "durationTicks": 1993,
                "midi": 50,
                "name": "D3",
                "ticks": 9974,
                "time": 10.389583333333333,
                "velocity": 0.889763779527559
              },
              {
                "duration": 0.9541666666666657,
                "durationTicks": 916,
                "midi": 57,
                "name": "A3",
                "ticks": 12161,
                "time": 12.667708333333334,
                "velocity": 0.7559055118110236
              },
              {
                "duration": 0.9510416666666668,
                "durationTicks": 913,
                "midi": 50,
                "name": "D3",
                "ticks": 12168,
                "time": 12.675,
                "velocity": 0.7716535433070866
              },
              {
                "duration": 0.9510416666666668,
                "durationTicks": 913,
                "midi": 53,
                "name": "F3",
                "ticks": 12168,
                "time": 12.675,
                "velocity": 0.7716535433070866
              },
              {
                "duration": 0.08749999999999858,
                "durationTicks": 84,
                "midi": 53,
                "name": "F3",
                "ticks": 13145,
                "time": 13.692708333333334,
                "velocity": 0.4409448818897638
              },
              {
                "duration": 0.10729166666666679,
                "durationTicks": 103,
                "midi": 57,
                "name": "A3",
                "ticks": 13145,
                "time": 13.692708333333334,
                "velocity": 0.4881889763779528
              },
              {
                "duration": 0.07083333333333286,
                "durationTicks": 68,
                "midi": 50,
                "name": "D3",
                "ticks": 13147,
                "time": 13.694791666666667,
                "velocity": 0.41732283464566927
              },
              {
                "duration": 0.14895833333333464,
                "durationTicks": 143,
                "midi": 60,
                "name": "C4",
                "ticks": 13330,
                "time": 13.885416666666666,
                "velocity": 0.6771653543307087
              },
              {
                "duration": 0.17812499999999964,
                "durationTicks": 171,
                "midi": 53,
                "name": "F3",
                "ticks": 13333,
                "time": 13.888541666666667,
                "velocity": 0.6535433070866141
              },
              {
                "duration": 0.16249999999999964,
                "durationTicks": 156,
                "midi": 57,
                "name": "A3",
                "ticks": 13335,
                "time": 13.890625,
                "velocity": 0.6141732283464567
              },
              {
                "duration": 2.0374999999999996,
                "durationTicks": 1956,
                "midi": 53,
                "name": "F3",
                "ticks": 13825,
                "time": 14.401041666666666,
                "velocity": 0.7322834645669292
              },
              {
                "duration": 2.0374999999999996,
                "durationTicks": 1956,
                "midi": 57,
                "name": "A3",
                "ticks": 13829,
                "time": 14.405208333333333,
                "velocity": 0.7322834645669292
              },
              {
                "duration": 2.005208333333332,
                "durationTicks": 1925,
                "midi": 50,
                "name": "D3",
                "ticks": 13830,
                "time": 14.40625,
                "velocity": 0.7322834645669292
              },
              {
                "duration": 0.9166666666666643,
                "durationTicks": 880,
                "midi": 57,
                "name": "A3",
                "ticks": 15992,
                "time": 16.658333333333335,
                "velocity": 0.7007874015748031
              },
              {
                "duration": 0.9020833333333336,
                "durationTicks": 866,
                "midi": 49,
                "name": "C#3",
                "ticks": 16001,
                "time": 16.667708333333334,
                "velocity": 0.5984251968503937
              },
              {
                "duration": 0.9072916666666657,
                "durationTicks": 871,
                "midi": 52,
                "name": "E3",
                "ticks": 16001,
                "time": 16.667708333333334,
                "velocity": 0.7716535433070866
              },
              {
                "duration": 0.09479166666666572,
                "durationTicks": 91,
                "midi": 57,
                "name": "A3",
                "ticks": 16942,
                "time": 17.647916666666667,
                "velocity": 0.3779527559055118
              },
              {
                "duration": 0.09270833333333428,
                "durationTicks": 89,
                "midi": 52,
                "name": "E3",
                "ticks": 16944,
                "time": 17.65,
                "velocity": 0.48031496062992124
              },
              {
                "duration": 0.06562500000000071,
                "durationTicks": 63,
                "midi": 49,
                "name": "C#3",
                "ticks": 16947,
                "time": 17.653125,
                "velocity": 0.4409448818897638
              },
              {
                "duration": 0.16249999999999787,
                "durationTicks": 156,
                "midi": 49,
                "name": "C#3",
                "ticks": 17170,
                "time": 17.885416666666668,
                "velocity": 0.6141732283464567
              },
              {
                "duration": 0.15208333333333357,
                "durationTicks": 146,
                "midi": 52,
                "name": "E3",
                "ticks": 17171,
                "time": 17.886458333333334,
                "velocity": 0.7007874015748031
              },
              {
                "duration": 0.13958333333333428,
                "durationTicks": 134,
                "midi": 57,
                "name": "A3",
                "ticks": 17173,
                "time": 17.888541666666665,
                "velocity": 0.7322834645669292
              },
              {
                "duration": 2.5427083333333336,
                "durationTicks": 2441,
                "midi": 55,
                "name": "G3",
                "ticks": 17647,
                "time": 18.382291666666667,
                "velocity": 0.7559055118110236
              },
              {
                "duration": 2.304166666666667,
                "durationTicks": 2212,
                "midi": 47,
                "name": "B2",
                "ticks": 17649,
                "time": 18.384375,
                "velocity": 0.6299212598425197
              },
              {
                "duration": 2.2781249999999993,
                "durationTicks": 2187,
                "midi": 50,
                "name": "D3",
                "ticks": 17650,
                "time": 18.385416666666668,
                "velocity": 0.8503937007874016
              },
              {
                "duration": 0.4010416666666643,
                "durationTicks": 385,
                "midi": 54,
                "name": "F#3",
                "ticks": 20058,
                "time": 20.89375,
                "velocity": 0.6220472440944882
              },
              {
                "duration": 0.40625,
                "durationTicks": 390,
                "midi": 50,
                "name": "D3",
                "ticks": 20065,
                "time": 20.901041666666668,
                "velocity": 0.7716535433070866
              },
              {
                "duration": 0.38541666666666785,
                "durationTicks": 370,
                "midi": 45,
                "name": "A2",
                "ticks": 20067,
                "time": 20.903125,
                "velocity": 0.7559055118110236
              },
              {
                "duration": 0.12604166666666927,
                "durationTicks": 121,
                "midi": 54,
                "name": "F#3",
                "ticks": 20544,
                "time": 21.4,
                "velocity": 0.6141732283464567
              },
              {
                "duration": 0.13437499999999858,
                "durationTicks": 129,
                "midi": 50,
                "name": "D3",
                "ticks": 20545,
                "time": 21.401041666666668,
                "velocity": 0.7007874015748031
              },
              {
                "duration": 0.13125000000000142,
                "durationTicks": 126,
                "midi": 45,
                "name": "A2",
                "ticks": 20547,
                "time": 21.403125,
                "velocity": 0.5118110236220472
              },
              {
                "duration": 0.07499999999999929,
                "durationTicks": 72,
                "midi": 50,
                "name": "D3",
                "ticks": 20785,
                "time": 21.651041666666668,
                "velocity": 0.6141732283464567
              },
              {
                "duration": 0.06875000000000142,
                "durationTicks": 66,
                "midi": 54,
                "name": "F#3",
                "ticks": 20787,
                "time": 21.653125,
                "velocity": 0.5354330708661418
              },
              {
                "duration": 0.05833333333333357,
                "durationTicks": 56,
                "midi": 45,
                "name": "A2",
                "ticks": 20793,
                "time": 21.659375,
                "velocity": 0.4251968503937008
              },
              {
                "duration": 0.08854166666666785,
                "durationTicks": 85,
                "midi": 50,
                "name": "D3",
                "ticks": 21009,
                "time": 21.884375,
                "velocity": 0.7322834645669292
              },
              {
                "duration": 0.0833333333333357,
                "durationTicks": 80,
                "midi": 54,
                "name": "F#3",
                "ticks": 21012,
                "time": 21.8875,
                "velocity": 0.7007874015748031
              },
              {
                "duration": 0.07500000000000284,
                "durationTicks": 72,
                "midi": 45,
                "name": "A2",
                "ticks": 21013,
                "time": 21.888541666666665,
                "velocity": 0.5511811023622047
              },
              {
                "duration": 0.0885416666666643,
                "durationTicks": 85,
                "midi": 54,
                "name": "F#3",
                "ticks": 21254,
                "time": 22.139583333333334,
                "velocity": 0.6220472440944882
              },
              {
                "duration": 0.08437500000000142,
                "durationTicks": 81,
                "midi": 50,
                "name": "D3",
                "ticks": 21256,
                "time": 22.141666666666666,
                "velocity": 0.7007874015748031
              },
              {
                "duration": 0.08541666666666714,
                "durationTicks": 82,
                "midi": 45,
                "name": "A2",
                "ticks": 21258,
                "time": 22.14375,
                "velocity": 0.5590551181102362
              },
              {
                "duration": 0.11562499999999787,
                "durationTicks": 111,
                "midi": 47,
                "name": "B2",
                "ticks": 21962,
                "time": 22.877083333333335,
                "velocity": 0.7165354330708661
              },
              {
                "duration": 0.11874999999999858,
                "durationTicks": 114,
                "midi": 50,
                "name": "D3",
                "ticks": 21963,
                "time": 22.878125,
                "velocity": 0.8740157480314961
              },
              {
                "duration": 0.12187499999999929,
                "durationTicks": 117,
                "midi": 55,
                "name": "G3",
                "ticks": 21963,
                "time": 22.878125,
                "velocity": 0.7716535433070866
              },
              {
                "duration": 0.25937500000000213,
                "durationTicks": 249,
                "midi": 47,
                "name": "B2",
                "ticks": 22213,
                "time": 23.138541666666665,
                "velocity": 0.6771653543307087
              },
              {
                "duration": 0.2531250000000007,
                "durationTicks": 243,
                "midi": 55,
                "name": "G3",
                "ticks": 22214,
                "time": 23.139583333333334,
                "velocity": 0.7559055118110236
              },
              {
                "duration": 0.26145833333333357,
                "durationTicks": 251,
                "midi": 50,
                "name": "D3",
                "ticks": 22215,
                "time": 23.140625,
                "velocity": 0.8110236220472441
              },
              {
                "duration": 1.0197916666666664,
                "durationTicks": 979,
                "midi": 47,
                "name": "B2",
                "ticks": 22677,
                "time": 23.621875,
                "velocity": 0.6771653543307087
              },
              {
                "duration": 0.9916666666666671,
                "durationTicks": 952,
                "midi": 50,
                "name": "D3",
                "ticks": 22677,
                "time": 23.621875,
                "velocity": 0.7874015748031497
              },
              {
                "duration": 1.294791666666665,
                "durationTicks": 1243,
                "midi": 55,
                "name": "G3",
                "ticks": 22680,
                "time": 23.625,
                "velocity": 0.7007874015748031
              },
              {
                "duration": 0.45208333333333073,
                "durationTicks": 434,
                "midi": 54,
                "name": "F#3",
                "ticks": 23886,
                "time": 24.88125,
                "velocity": 0.6614173228346457
              },
              {
                "duration": 0.45000000000000284,
                "durationTicks": 432,
                "midi": 50,
                "name": "D3",
                "ticks": 23893,
                "time": 24.888541666666665,
                "velocity": 0.7559055118110236
              },
              {
                "duration": 0.4312499999999986,
                "durationTicks": 414,
                "midi": 45,
                "name": "A2",
                "ticks": 23895,
                "time": 24.890625,
                "velocity": 0.7165354330708661
              },
              {
                "duration": 0.16041666666666643,
                "durationTicks": 154,
                "midi": 50,
                "name": "D3",
                "ticks": 24372,
                "time": 25.3875,
                "velocity": 0.7322834645669292
              },
              {
                "duration": 0.15312500000000284,
                "durationTicks": 147,
                "midi": 54,
                "name": "F#3",
                "ticks": 24373,
                "time": 25.388541666666665,
                "velocity": 0.7874015748031497
              },
              {
                "duration": 0.15000000000000213,
                "durationTicks": 144,
                "midi": 45,
                "name": "A2",
                "ticks": 24376,
                "time": 25.391666666666666,
                "velocity": 0.5669291338582677
              },
              {
                "duration": 0.09166666666666501,
                "durationTicks": 88,
                "midi": 50,
                "name": "D3",
                "ticks": 24617,
                "time": 25.642708333333335,
                "velocity": 0.6771653543307087
              },
              {
                "duration": 0.09270833333333073,
                "durationTicks": 89,
                "midi": 54,
                "name": "F#3",
                "ticks": 24617,
                "time": 25.642708333333335,
                "velocity": 0.5354330708661418
              },
              {
                "duration": 0.06979166666666714,
                "durationTicks": 67,
                "midi": 45,
                "name": "A2",
                "ticks": 24624,
                "time": 25.65,
                "velocity": 0.47244094488188976
              },
              {
                "duration": 0.09062499999999929,
                "durationTicks": 87,
                "midi": 45,
                "name": "A2",
                "ticks": 24837,
                "time": 25.871875,
                "velocity": 0.5905511811023622
              },
              {
                "duration": 0.10312500000000213,
                "durationTicks": 99,
                "midi": 50,
                "name": "D3",
                "ticks": 24837,
                "time": 25.871875,
                "velocity": 0.7559055118110236
              },
              {
                "duration": 0.10312500000000213,
                "durationTicks": 99,
                "midi": 54,
                "name": "F#3",
                "ticks": 24837,
                "time": 25.871875,
                "velocity": 0.7244094488188977
              },
              {
                "duration": 0.6218750000000028,
                "durationTicks": 597,
                "midi": 54,
                "name": "F#3",
                "ticks": 25100,
                "time": 26.145833333333332,
                "velocity": 0.7401574803149606
              },
              {
                "duration": 0.5625,
                "durationTicks": 540,
                "midi": 50,
                "name": "D3",
                "ticks": 25104,
                "time": 26.15,
                "velocity": 0.7559055118110236
              },
              {
                "duration": 0.5656249999999972,
                "durationTicks": 543,
                "midi": 45,
                "name": "A2",
                "ticks": 25105,
                "time": 26.151041666666668,
                "velocity": 0.6141732283464567
              },
              {
                "duration": 0.10624999999999929,
                "durationTicks": 102,
                "midi": 50,
                "name": "D3",
                "ticks": 25797,
                "time": 26.871875,
                "velocity": 0.5669291338582677
              },
              {
                "duration": 0.12083333333333357,
                "durationTicks": 116,
                "midi": 55,
                "name": "G3",
                "ticks": 25797,
                "time": 26.871875,
                "velocity": 0.6771653543307087
              },
              {
                "duration": 0.10520833333333357,
                "durationTicks": 101,
                "midi": 47,
                "name": "B2",
                "ticks": 25801,
                "time": 26.876041666666666,
                "velocity": 0.5275590551181102
              },
              {
                "duration": 0.35208333333333286,
                "durationTicks": 338,
                "midi": 50,
                "name": "D3",
                "ticks": 26059,
                "time": 27.144791666666666,
                "velocity": 0.7322834645669292
              },
              {
                "duration": 0.35104166666666714,
                "durationTicks": 337,
                "midi": 55,
                "name": "G3",
                "ticks": 26059,
                "time": 27.144791666666666,
                "velocity": 0.7165354330708661
              },
              {
                "duration": 0.3385416666666643,
                "durationTicks": 325,
                "midi": 47,
                "name": "B2",
                "ticks": 26061,
                "time": 27.146875,
                "velocity": 0.4566929133858268
              },
              {
                "duration": 0.06562499999999716,
                "durationTicks": 63,
                "midi": 47,
                "name": "B2",
                "ticks": 26522,
                "time": 27.627083333333335,
                "velocity": 0.3543307086614173
              },
              {
                "duration": 0.17291666666666572,
                "durationTicks": 166,
                "midi": 47,
                "name": "B2",
                "ticks": 26767,
                "time": 27.882291666666667,
                "velocity": 0.6692913385826772
              },
              {
                "duration": 0.33854166666666785,
                "durationTicks": 325,
                "midi": 50,
                "name": "D3",
                "ticks": 26769,
                "time": 27.884375,
                "velocity": 0.8346456692913385
              },
              {
                "duration": 0.42604166666666643,
                "durationTicks": 409,
                "midi": 55,
                "name": "G3",
                "ticks": 26769,
                "time": 27.884375,
                "velocity": 0.7874015748031497
              },
              {
                "duration": 0.10208333333333286,
                "durationTicks": 98,
                "midi": 47,
                "name": "B2",
                "ticks": 27022,
                "time": 28.147916666666667,
                "velocity": 0.3464566929133858
              },
              {
                "duration": 0.11458333333333215,
                "durationTicks": 110,
                "midi": 50,
                "name": "D3",
                "ticks": 27251,
                "time": 28.386458333333334,
                "velocity": 0.7007874015748031
              },
              {
                "duration": 0.08750000000000213,
                "durationTicks": 84,
                "midi": 47,
                "name": "B2",
                "ticks": 27253,
                "time": 28.388541666666665,
                "velocity": 0.5669291338582677
              },
              {
                "duration": 0.127083333333335,
                "durationTicks": 122,
                "midi": 55,
                "name": "G3",
                "ticks": 27255,
                "time": 28.390625,
                "velocity": 0.7007874015748031
              },
              {
                "duration": 0.8375000000000021,
                "durationTicks": 804,
                "midi": 50,
                "name": "D3",
                "ticks": 27508,
                "time": 28.654166666666665,
                "velocity": 0.7165354330708661
              },
              {
                "duration": 0.8645833333333357,
                "durationTicks": 830,
                "midi": 53,
                "name": "F3",
                "ticks": 27508,
                "time": 28.654166666666665,
                "velocity": 0.7716535433070866
              },
              {
                "duration": 0.8614583333333314,
                "durationTicks": 827,
                "midi": 57,
                "name": "A3",
                "ticks": 27512,
                "time": 28.658333333333335,
                "velocity": 0.7716535433070866
              },
              {
                "duration": 0.12604166666666572,
                "durationTicks": 121,
                "midi": 57,
                "name": "A3",
                "ticks": 28484,
                "time": 29.670833333333334,
                "velocity": 0.47244094488188976
              },
              {
                "duration": 0.08854166666666785,
                "durationTicks": 85,
                "midi": 53,
                "name": "F3",
                "ticks": 28490,
                "time": 29.677083333333332,
                "velocity": 0.3858267716535433
              },
              {
                "duration": 0.07708333333333428,
                "durationTicks": 74,
                "midi": 50,
                "name": "D3",
                "ticks": 28493,
                "time": 29.680208333333333,
                "velocity": 0.4881889763779528
              },
              {
                "duration": 0.1374999999999993,
                "durationTicks": 132,
                "midi": 60,
                "name": "C4",
                "ticks": 28710,
                "time": 29.90625,
                "velocity": 0.7007874015748031
              },
              {
                "duration": 0.1666666666666643,
                "durationTicks": 160,
                "midi": 53,
                "name": "F3",
                "ticks": 28713,
                "time": 29.909375,
                "velocity": 0.6299212598425197
              },
              {
                "duration": 0.15208333333333357,
                "durationTicks": 146,
                "midi": 57,
                "name": "A3",
                "ticks": 28720,
                "time": 29.916666666666668,
                "velocity": 0.7165354330708661
              },
              {
                "duration": 1.3968750000000014,
                "durationTicks": 1341,
                "midi": 53,
                "name": "F3",
                "ticks": 29179,
                "time": 30.394791666666666,
                "velocity": 0.7322834645669292
              },
              {
                "duration": 1.3843749999999986,
                "durationTicks": 1329,
                "midi": 57,
                "name": "A3",
                "ticks": 29182,
                "time": 30.397916666666667,
                "velocity": 0.7007874015748031
              },
              {
                "duration": 1.3916666666666657,
                "durationTicks": 1336,
                "midi": 50,
                "name": "D3",
                "ticks": 29185,
                "time": 30.401041666666668,
                "velocity": 0.7874015748031497
              },
              {
                "duration": 0.09687500000000071,
                "durationTicks": 93,
                "midi": 50,
                "name": "D3",
                "ticks": 30605,
                "time": 31.880208333333332,
                "velocity": 0.5590551181102362
              },
              {
                "duration": 0.10312499999999858,
                "durationTicks": 99,
                "midi": 53,
                "name": "F3",
                "ticks": 30606,
                "time": 31.88125,
                "velocity": 0.6062992125984252
              },
              {
                "duration": 0.10000000000000142,
                "durationTicks": 96,
                "midi": 57,
                "name": "A3",
                "ticks": 30613,
                "time": 31.888541666666665,
                "velocity": 0.5196850393700787
              },
              {
                "duration": 0.359375,
                "durationTicks": 345,
                "midi": 50,
                "name": "D3",
                "ticks": 30873,
                "time": 32.159375,
                "velocity": 0.8110236220472441
              },
              {
                "duration": 0.36770833333333286,
                "durationTicks": 353,
                "midi": 53,
                "name": "F3",
                "ticks": 30874,
                "time": 32.16041666666667,
                "velocity": 0.8503937007874016
              },
              {
                "duration": 0.34687499999999716,
                "durationTicks": 333,
                "midi": 57,
                "name": "A3",
                "ticks": 30875,
                "time": 32.161458333333336,
                "velocity": 0.7165354330708661
              },
              {
                "duration": 0.83229166666667,
                "durationTicks": 799,
                "midi": 47,
                "name": "B2",
                "ticks": 31344,
                "time": 32.65,
                "velocity": 0.7874015748031497
              },
              {
                "duration": 0.8520833333333329,
                "durationTicks": 818,
                "midi": 50,
                "name": "D3",
                "ticks": 31345,
                "time": 32.651041666666664,
                "velocity": 0.889763779527559
              },
              {
                "duration": 0.8489583333333357,
                "durationTicks": 815,
                "midi": 55,
                "name": "G3",
                "ticks": 31346,
                "time": 32.65208333333333,
                "velocity": 0.7007874015748031
              },
              {
                "duration": 0.06666666666666288,
                "durationTicks": 64,
                "midi": 55,
                "name": "G3",
                "ticks": 32317,
                "time": 33.66354166666667,
                "velocity": 0.5196850393700787
              },
              {
                "duration": 0.06354166666666572,
                "durationTicks": 61,
                "midi": 50,
                "name": "D3",
                "ticks": 32318,
                "time": 33.66458333333333,
                "velocity": 0.6771653543307087
              },
              {
                "duration": 0.0625,
                "durationTicks": 60,
                "midi": 47,
                "name": "B2",
                "ticks": 32320,
                "time": 33.666666666666664,
                "velocity": 0.5275590551181102
              },
              {
                "duration": 0.17500000000000426,
                "durationTicks": 168,
                "midi": 47,
                "name": "B2",
                "ticks": 32553,
                "time": 33.909375,
                "velocity": 0.5590551181102362
              },
              {
                "duration": 0.17395833333333854,
                "durationTicks": 167,
                "midi": 50,
                "name": "D3",
                "ticks": 32553,
                "time": 33.909375,
                "velocity": 0.7559055118110236
              },
              {
                "duration": 0.17291666666666572,
                "durationTicks": 166,
                "midi": 55,
                "name": "G3",
                "ticks": 32555,
                "time": 33.911458333333336,
                "velocity": 0.6692913385826772
              },
              {
                "duration": 1.16770833333333,
                "durationTicks": 1121,
                "midi": 50,
                "name": "D3",
                "ticks": 33028,
                "time": 34.40416666666667,
                "velocity": 0.7874015748031497
              },
              {
                "duration": 1.1291666666666629,
                "durationTicks": 1084,
                "midi": 47,
                "name": "B2",
                "ticks": 33029,
                "time": 34.405208333333334,
                "velocity": 0.6299212598425197
              },
              {
                "duration": 1.19166666666667,
                "durationTicks": 1144,
                "midi": 55,
                "name": "G3",
                "ticks": 33030,
                "time": 34.40625,
                "velocity": 0.6535433070866141
              },
              {
                "duration": 0.09270833333333428,
                "durationTicks": 89,
                "midi": 55,
                "name": "G3",
                "ticks": 34207,
                "time": 35.63229166666667,
                "velocity": 0.1968503937007874
              },
              {
                "duration": 0.08124999999999716,
                "durationTicks": 78,
                "midi": 50,
                "name": "D3",
                "ticks": 34219,
                "time": 35.64479166666667,
                "velocity": 0.3779527559055118
              },
              {
                "duration": 0.06145833333333428,
                "durationTicks": 59,
                "midi": 47,
                "name": "B2",
                "ticks": 34230,
                "time": 35.65625,
                "velocity": 0.1732283464566929
              },
              {
                "duration": 0.08437500000000142,
                "durationTicks": 81,
                "midi": 50,
                "name": "D3",
                "ticks": 34465,
                "time": 35.901041666666664,
                "velocity": 0.7322834645669292
              },
              {
                "duration": 0.07395833333333712,
                "durationTicks": 71,
                "midi": 47,
                "name": "B2",
                "ticks": 34466,
                "time": 35.90208333333333,
                "velocity": 0.5354330708661418
              },
              {
                "duration": 0.0885416666666643,
                "durationTicks": 85,
                "midi": 55,
                "name": "G3",
                "ticks": 34467,
                "time": 35.903125,
                "velocity": 0.5905511811023622
              },
              {
                "duration": 0.3010416666666629,
                "durationTicks": 289,
                "midi": 50,
                "name": "D3",
                "ticks": 34692,
                "time": 36.1375,
                "velocity": 0.6535433070866141
              },
              {
                "duration": 0.2708333333333286,
                "durationTicks": 260,
                "midi": 47,
                "name": "B2",
                "ticks": 34693,
                "time": 36.13854166666667,
                "velocity": 0.5039370078740157
              },
              {
                "duration": 0.3229166666666643,
                "durationTicks": 310,
                "midi": 55,
                "name": "G3",
                "ticks": 34693,
                "time": 36.13854166666667,
                "velocity": 0.5669291338582677
              },
              {
                "duration": 0.859375,
                "durationTicks": 825,
                "midi": 50,
                "name": "D3",
                "ticks": 35180,
                "time": 36.645833333333336,
                "velocity": 0.8110236220472441
              },
              {
                "duration": 0.8885416666666686,
                "durationTicks": 853,
                "midi": 57,
                "name": "A3",
                "ticks": 35181,
                "time": 36.646875,
                "velocity": 0.7322834645669292
              },
              {
                "duration": 0.8718750000000028,
                "durationTicks": 837,
                "midi": 53,
                "name": "F3",
                "ticks": 35184,
                "time": 36.65,
                "velocity": 0.8110236220472441
              },
              {
                "duration": 0.10624999999999574,
                "durationTicks": 102,
                "midi": 53,
                "name": "F3",
                "ticks": 36149,
                "time": 37.655208333333334,
                "velocity": 0.4881889763779528
              },
              {
                "duration": 0.11041666666666572,
                "durationTicks": 106,
                "midi": 57,
                "name": "A3",
                "ticks": 36149,
                "time": 37.655208333333334,
                "velocity": 0.5354330708661418
              },
              {
                "duration": 0.0885416666666714,
                "durationTicks": 85,
                "midi": 50,
                "name": "D3",
                "ticks": 36153,
                "time": 37.659375,
                "velocity": 0.47244094488188976
              },
              {
                "duration": 0.14895833333333997,
                "durationTicks": 143,
                "midi": 53,
                "name": "F3",
                "ticks": 36386,
                "time": 37.90208333333333,
                "velocity": 0.5748031496062992
              },
              {
                "duration": 0.14895833333333286,
                "durationTicks": 143,
                "midi": 57,
                "name": "A3",
                "ticks": 36389,
                "time": 37.905208333333334,
                "velocity": 0.6692913385826772
              },
              {
                "duration": 0.13333333333333286,
                "durationTicks": 128,
                "midi": 60,
                "name": "C4",
                "ticks": 36389,
                "time": 37.905208333333334,
                "velocity": 0.6771653543307087
              },
              {
                "duration": 1.37916666666667,
                "durationTicks": 1324,
                "midi": 53,
                "name": "F3",
                "ticks": 36849,
                "time": 38.384375,
                "velocity": 0.7007874015748031
              },
              {
                "duration": 1.3822916666666671,
                "durationTicks": 1327,
                "midi": 50,
                "name": "D3",
                "ticks": 36851,
                "time": 38.38645833333333,
                "velocity": 0.7165354330708661
              },
              {
                "duration": 1.3656249999999943,
                "durationTicks": 1311,
                "midi": 57,
                "name": "A3",
                "ticks": 36852,
                "time": 38.3875,
                "velocity": 0.6535433070866141
              },
              {
                "duration": 0.09479166666667282,
                "durationTicks": 91,
                "midi": 53,
                "name": "F3",
                "ticks": 38306,
                "time": 39.90208333333333,
                "velocity": 0.6062992125984252
              },
              {
                "duration": 0.0885416666666643,
                "durationTicks": 85,
                "midi": 50,
                "name": "D3",
                "ticks": 38307,
                "time": 39.903125,
                "velocity": 0.5433070866141733
              },
              {
                "duration": 0.08958333333333002,
                "durationTicks": 86,
                "midi": 57,
                "name": "A3",
                "ticks": 38309,
                "time": 39.905208333333334,
                "velocity": 0.5433070866141733
              },
              {
                "duration": 0.2802083333333343,
                "durationTicks": 269,
                "midi": 53,
                "name": "F3",
                "ticks": 38549,
                "time": 40.155208333333334,
                "velocity": 0.7559055118110236
              },
              {
                "duration": 0.28854166666666714,
                "durationTicks": 277,
                "midi": 57,
                "name": "A3",
                "ticks": 38550,
                "time": 40.15625,
                "velocity": 0.6692913385826772
              },
              {
                "duration": 0.3062499999999986,
                "durationTicks": 294,
                "midi": 50,
                "name": "D3",
                "ticks": 38551,
                "time": 40.157291666666666,
                "velocity": 0.7007874015748031
              },
              {
                "duration": 0.8531249999999986,
                "durationTicks": 819,
                "midi": 47,
                "name": "B2",
                "ticks": 39035,
                "time": 40.661458333333336,
                "velocity": 0.6771653543307087
              },
              {
                "duration": 0.8479166666666629,
                "durationTicks": 814,
                "midi": 50,
                "name": "D3",
                "ticks": 39037,
                "time": 40.66354166666667,
                "velocity": 0.8346456692913385
              },
              {
                "duration": 0.84375,
                "durationTicks": 810,
                "midi": 55,
                "name": "G3",
                "ticks": 39040,
                "time": 40.666666666666664,
                "velocity": 0.7322834645669292
              },
              {
                "duration": 0.0833333333333286,
                "durationTicks": 80,
                "midi": 55,
                "name": "G3",
                "ticks": 39965,
                "time": 41.630208333333336,
                "velocity": 0.47244094488188976
              },
              {
                "duration": 0.07708333333333428,
                "durationTicks": 74,
                "midi": 50,
                "name": "D3",
                "ticks": 39971,
                "time": 41.63645833333333,
                "velocity": 0.5039370078740157
              },
              {
                "duration": 0.0572916666666643,
                "durationTicks": 55,
                "midi": 47,
                "name": "B2",
                "ticks": 39990,
                "time": 41.65625,
                "velocity": 0.2204724409448819
              },
              {
                "duration": 0.16354166666666003,
                "durationTicks": 157,
                "midi": 47,
                "name": "B2",
                "ticks": 40219,
                "time": 41.89479166666667,
                "velocity": 0.6299212598425197
              },
              {
                "duration": 0.16249999999999432,
                "durationTicks": 156,
                "midi": 50,
                "name": "D3",
                "ticks": 40219,
                "time": 41.89479166666667,
                "velocity": 0.7874015748031497
              },
              {
                "duration": 0.1614583333333357,
                "durationTicks": 155,
                "midi": 55,
                "name": "G3",
                "ticks": 40224,
                "time": 41.9,
                "velocity": 0.6771653543307087
              },
              {
                "duration": 0.89791666666666,
                "durationTicks": 862,
                "midi": 50,
                "name": "D3",
                "ticks": 40699,
                "time": 42.39479166666667,
                "velocity": 0.7007874015748031
              },
              {
                "duration": 0.8760416666666657,
                "durationTicks": 841,
                "midi": 47,
                "name": "B2",
                "ticks": 40704,
                "time": 42.4,
                "velocity": 0.5039370078740157
              },
              {
                "duration": 0.8760416666666728,
                "durationTicks": 841,
                "midi": 55,
                "name": "G3",
                "ticks": 40706,
                "time": 42.40208333333333,
                "velocity": 0.6141732283464567
              },
              {
                "duration": 0.08749999999999858,
                "durationTicks": 84,
                "midi": 50,
                "name": "D3",
                "ticks": 41693,
                "time": 43.43020833333333,
                "velocity": 0.6141732283464567
              },
              {
                "duration": 0.0885416666666714,
                "durationTicks": 85,
                "midi": 55,
                "name": "G3",
                "ticks": 41694,
                "time": 43.43125,
                "velocity": 0.5511811023622047
              },
              {
                "duration": 0.08541666666666714,
                "durationTicks": 82,
                "midi": 47,
                "name": "B2",
                "ticks": 41700,
                "time": 43.4375,
                "velocity": 0.41732283464566927
              },
              {
                "duration": 0.06145833333333428,
                "durationTicks": 59,
                "midi": 50,
                "name": "D3",
                "ticks": 41935,
                "time": 43.682291666666664,
                "velocity": 0.44881889763779526
              },
              {
                "duration": 0.06354166666666572,
                "durationTicks": 61,
                "midi": 55,
                "name": "G3",
                "ticks": 41939,
                "time": 43.686458333333334,
                "velocity": 0.3779527559055118
              },
              {
                "duration": 0.06145833333333428,
                "durationTicks": 59,
                "midi": 47,
                "name": "B2",
                "ticks": 41941,
                "time": 43.688541666666666,
                "velocity": 0.25196850393700787
              },
              {
                "duration": 0.10208333333333286,
                "durationTicks": 98,
                "midi": 50,
                "name": "D3",
                "ticks": 42179,
                "time": 43.936458333333334,
                "velocity": 0.7559055118110236
              },
              {
                "duration": 0.11041666666666572,
                "durationTicks": 106,
                "midi": 55,
                "name": "G3",
                "ticks": 42179,
                "time": 43.936458333333334,
                "velocity": 0.6062992125984252
              },
              {
                "duration": 0.10833333333333428,
                "durationTicks": 104,
                "midi": 47,
                "name": "B2",
                "ticks": 42181,
                "time": 43.938541666666666,
                "velocity": 0.5748031496062992
              },
              {
                "duration": 0.33229166666667,
                "durationTicks": 319,
                "midi": 50,
                "name": "D3",
                "ticks": 42401,
                "time": 44.16770833333333,
                "velocity": 0.7559055118110236
              },
              {
                "duration": 0.34583333333333854,
                "durationTicks": 332,
                "midi": 55,
                "name": "G3",
                "ticks": 42401,
                "time": 44.16770833333333,
                "velocity": 0.6299212598425197
              },
              {
                "duration": 0.3020833333333286,
                "durationTicks": 290,
                "midi": 47,
                "name": "B2",
                "ticks": 42402,
                "time": 44.16875,
                "velocity": 0.6062992125984252
              },
              {
                "duration": 0.8989583333333329,
                "durationTicks": 863,
                "midi": 57,
                "name": "A3",
                "ticks": 42883,
                "time": 44.66979166666667,
                "velocity": 0.7716535433070866
              },
              {
                "duration": 0.90625,
                "durationTicks": 870,
                "midi": 53,
                "name": "F3",
                "ticks": 42884,
                "time": 44.670833333333334,
                "velocity": 0.7559055118110236
              },
              {
                "duration": 0.8937499999999972,
                "durationTicks": 858,
                "midi": 50,
                "name": "D3",
                "ticks": 42885,
                "time": 44.671875,
                "velocity": 0.7322834645669292
              },
              {
                "duration": 0.11041666666667282,
                "durationTicks": 106,
                "midi": 53,
                "name": "F3",
                "ticks": 43848,
                "time": 45.675,
                "velocity": 0.5118110236220472
              },
              {
                "duration": 0.109375,
                "durationTicks": 105,
                "midi": 50,
                "name": "D3",
                "ticks": 43850,
                "time": 45.677083333333336,
                "velocity": 0.5511811023622047
              },
              {
                "duration": 0.11354166666666288,
                "durationTicks": 109,
                "midi": 57,
                "name": "A3",
                "ticks": 43851,
                "time": 45.678125,
                "velocity": 0.4881889763779528
              },
              {
                "duration": 0.15833333333333144,
                "durationTicks": 152,
                "midi": 53,
                "name": "F3",
                "ticks": 44076,
                "time": 45.9125,
                "velocity": 0.6299212598425197
              },
              {
                "duration": 0.14999999999999858,
                "durationTicks": 144,
                "midi": 57,
                "name": "A3",
                "ticks": 44077,
                "time": 45.91354166666667,
                "velocity": 0.6692913385826772
              },
              {
                "duration": 0.1354166666666643,
                "durationTicks": 130,
                "midi": 60,
                "name": "C4",
                "ticks": 44078,
                "time": 45.91458333333333,
                "velocity": 0.7559055118110236
              },
              {
                "duration": 0.8895833333333343,
                "durationTicks": 854,
                "midi": 53,
                "name": "F3",
                "ticks": 44546,
                "time": 46.40208333333333,
                "velocity": 0.7165354330708661
              },
              {
                "duration": 0.8687499999999986,
                "durationTicks": 834,
                "midi": 50,
                "name": "D3",
                "ticks": 44547,
                "time": 46.403125,
                "velocity": 0.6771653543307087
              },
              {
                "duration": 0.8791666666666629,
                "durationTicks": 844,
                "midi": 57,
                "name": "A3",
                "ticks": 44548,
                "time": 46.40416666666667,
                "velocity": 0.7007874015748031
              },
              {
                "duration": 0.08124999999999716,
                "durationTicks": 78,
                "midi": 53,
                "name": "F3",
                "ticks": 45516,
                "time": 47.4125,
                "velocity": 0.36220472440944884
              },
              {
                "duration": 0.078125,
                "durationTicks": 75,
                "midi": 57,
                "name": "A3",
                "ticks": 45519,
                "time": 47.415625,
                "velocity": 0.4645669291338583
              },
              {
                "duration": 0.06458333333333854,
                "durationTicks": 62,
                "midi": 50,
                "name": "D3",
                "ticks": 45528,
                "time": 47.425,
                "velocity": 0.36220472440944884
              },
              {
                "duration": 0.07708333333333428,
                "durationTicks": 74,
                "midi": 50,
                "name": "D3",
                "ticks": 45742,
                "time": 47.64791666666667,
                "velocity": 0.3779527559055118
              },
              {
                "duration": 0.08750000000000568,
                "durationTicks": 84,
                "midi": 53,
                "name": "F3",
                "ticks": 45745,
                "time": 47.651041666666664,
                "velocity": 0.33858267716535434
              },
              {
                "duration": 0.09270833333333428,
                "durationTicks": 89,
                "midi": 57,
                "name": "A3",
                "ticks": 45745,
                "time": 47.651041666666664,
                "velocity": 0.47244094488188976
              },
              {
                "duration": 0.12395833333333428,
                "durationTicks": 119,
                "midi": 57,
                "name": "A3",
                "ticks": 45969,
                "time": 47.884375,
                "velocity": 0.6456692913385826
              },
              {
                "duration": 0.1145833333333357,
                "durationTicks": 110,
                "midi": 53,
                "name": "F3",
                "ticks": 45970,
                "time": 47.885416666666664,
                "velocity": 0.6299212598425197
              },
              {
                "duration": 0.10729166666666856,
                "durationTicks": 103,
                "midi": 60,
                "name": "C4",
                "ticks": 45977,
                "time": 47.89270833333333,
                "velocity": 0.7165354330708661
              },
              {
                "duration": 0.3958333333333286,
                "durationTicks": 380,
                "midi": 50,
                "name": "D3",
                "ticks": 46235,
                "time": 48.161458333333336,
                "velocity": 0.7007874015748031
              },
              {
                "duration": 0.3895833333333343,
                "durationTicks": 374,
                "midi": 55,
                "name": "G3",
                "ticks": 46237,
                "time": 48.16354166666667,
                "velocity": 0.7716535433070866
              },
              {
                "duration": 0.4166666666666643,
                "durationTicks": 400,
                "midi": 59,
                "name": "B3",
                "ticks": 46237,
                "time": 48.16354166666667,
                "velocity": 0.7874015748031497
              },
              {
                "duration": 0.8312499999999972,
                "durationTicks": 798,
                "midi": 50,
                "name": "D3",
                "ticks": 46733,
                "time": 48.68020833333333,
                "velocity": 0.6299212598425197
              },
              {
                "duration": 0.8385416666666643,
                "durationTicks": 805,
                "midi": 57,
                "name": "A3",
                "ticks": 46737,
                "time": 48.684375,
                "velocity": 0.6535433070866141
              },
              {
                "duration": 0.828125,
                "durationTicks": 795,
                "midi": 53,
                "name": "F3",
                "ticks": 46742,
                "time": 48.68958333333333,
                "velocity": 0.7322834645669292
              },
              {
                "duration": 0.10729166666666856,
                "durationTicks": 103,
                "midi": 57,
                "name": "A3",
                "ticks": 47654,
                "time": 49.639583333333334,
                "velocity": 0.5669291338582677
              },
              {
                "duration": 0.08645833333333286,
                "durationTicks": 83,
                "midi": 53,
                "name": "F3",
                "ticks": 47658,
                "time": 49.64375,
                "velocity": 0.5118110236220472
              },
              {
                "duration": 0.07500000000000284,
                "durationTicks": 72,
                "midi": 50,
                "name": "D3",
                "ticks": 47664,
                "time": 49.65,
                "velocity": 0.48031496062992124
              },
              {
                "duration": 0.13645833333333712,
                "durationTicks": 131,
                "midi": 57,
                "name": "A3",
                "ticks": 47898,
                "time": 49.89375,
                "velocity": 0.6456692913385826
              },
              {
                "duration": 0.13229166666666714,
                "durationTicks": 127,
                "midi": 60,
                "name": "C4",
                "ticks": 47898,
                "time": 49.89375,
                "velocity": 0.7559055118110236
              },
              {
                "duration": 0.14166666666666572,
                "durationTicks": 136,
                "midi": 53,
                "name": "F3",
                "ticks": 47899,
                "time": 49.89479166666667,
                "velocity": 0.7322834645669292
              },
              {
                "duration": 0.9093750000000043,
                "durationTicks": 873,
                "midi": 53,
                "name": "F3",
                "ticks": 48399,
                "time": 50.415625,
                "velocity": 0.7716535433070866
              },
              {
                "duration": 0.8989583333333329,
                "durationTicks": 863,
                "midi": 57,
                "name": "A3",
                "ticks": 48400,
                "time": 50.416666666666664,
                "velocity": 0.7165354330708661
              },
              {
                "duration": 0.8822916666666671,
                "durationTicks": 847,
                "midi": 50,
                "name": "D3",
                "ticks": 48401,
                "time": 50.41770833333333,
                "velocity": 0.7007874015748031
              }
            ] 
}