

let hendrix_fire_75secs_L_notes = { 
        "notes": [
          {
            "duration": 0.19310878124999853,
            "durationTicks": 241,
            "midi": 53,
            "name": "F3",
            "ticks": 17040,
            "time": 13.6538325,
            "velocity": 0.7874015748031497
          },
          {
            "duration": 0.3838137187500017,
            "durationTicks": 479,
            "midi": 53,
            "name": "F3",
            "ticks": 17281,
            "time": 13.846941281249999,
            "velocity": 0.7874015748031497
          },
          {
            "duration": 0.19310878124999853,
            "durationTicks": 241,
            "midi": 53,
            "name": "F3",
            "ticks": 17760,
            "time": 14.230755,
            "velocity": 0.7874015748031497
          },
          {
            "duration": 0.19150621874999985,
            "durationTicks": 239,
            "midi": 53,
            "name": "F3",
            "ticks": 18001,
            "time": 14.423863781249999,
            "velocity": 0.7874015748031497
          },
          {
            "duration": 0.5769225000000002,
            "durationTicks": 720,
            "midi": 53,
            "name": "F3",
            "ticks": 18240,
            "time": 14.615369999999999,
            "velocity": 0.7874015748031497
          },
          {
            "duration": 0.19230750000000008,
            "durationTicks": 240,
            "midi": 50,
            "name": "D3",
            "ticks": 18960,
            "time": 15.192292499999999,
            "velocity": 0.7874015748031497
          },
          {
            "duration": 0.1931087812500003,
            "durationTicks": 241,
            "midi": 50,
            "name": "D3",
            "ticks": 19200,
            "time": 15.384599999999999,
            "velocity": 0.7874015748031497
          },
          {
            "duration": 0.19150621874999985,
            "durationTicks": 239,
            "midi": 48,
            "name": "C3",
            "ticks": 19441,
            "time": 15.57770878125,
            "velocity": 0.7874015748031497
          },
          {
            "duration": 0.09615375000000093,
            "durationTicks": 120,
            "midi": 50,
            "name": "D3",
            "ticks": 19680,
            "time": 15.769214999999999,
            "velocity": 0.7874015748031497
          },
          {
            "duration": 0.09615374999999915,
            "durationTicks": 120,
            "midi": 48,
            "name": "C3",
            "ticks": 19800,
            "time": 15.86536875,
            "velocity": 0.7874015748031497
          },
          {
            "duration": 0.3854162812500004,
            "durationTicks": 481,
            "midi": 50,
            "name": "D3",
            "ticks": 19920,
            "time": 15.9615225,
            "velocity": 0.7874015748031497
          },
          {
            "duration": 0.38381371874999815,
            "durationTicks": 479,
            "midi": 48,
            "name": "C3",
            "ticks": 20401,
            "time": 16.34693878125,
            "velocity": 0.7874015748031497
          },
          {
            "duration": 0.1931087812500003,
            "durationTicks": 241,
            "midi": 53,
            "name": "F3",
            "ticks": 21600,
            "time": 17.307675,
            "velocity": 0.7874015748031497
          },
          {
            "duration": 0.19150621874999985,
            "durationTicks": 239,
            "midi": 53,
            "name": "F3",
            "ticks": 21841,
            "time": 17.50078378125,
            "velocity": 0.7874015748031497
          },
          {
            "duration": 0.1923074999999983,
            "durationTicks": 240,
            "midi": 53,
            "name": "F3",
            "ticks": 22080,
            "time": 17.69229,
            "velocity": 0.7874015748031497
          },
          {
            "duration": 0.38461500000000015,
            "durationTicks": 480,
            "midi": 53,
            "name": "F3",
            "ticks": 22320,
            "time": 17.884597499999998,
            "velocity": 0.7874015748031497
          },
          {
            "duration": 0.38461500000000015,
            "durationTicks": 480,
            "midi": 50,
            "name": "D3",
            "ticks": 22800,
            "time": 18.2692125,
            "velocity": 0.7874015748031497
          },
          {
            "duration": 0.1931087812500003,
            "durationTicks": 241,
            "midi": 48,
            "name": "C3",
            "ticks": 23280,
            "time": 18.6538275,
            "velocity": 0.7874015748031497
          },
          {
            "duration": 0.0953524687500007,
            "durationTicks": 119,
            "midi": 50,
            "name": "D3",
            "ticks": 23521,
            "time": 18.84693628125,
            "velocity": 0.7874015748031497
          },
          {
            "duration": 0.09615374999999915,
            "durationTicks": 120,
            "midi": 48,
            "name": "C3",
            "ticks": 23640,
            "time": 18.94228875,
            "velocity": 0.7874015748031497
          },
          {
            "duration": 0.3854162812499986,
            "durationTicks": 481,
            "midi": 50,
            "name": "D3",
            "ticks": 23760,
            "time": 19.0384425,
            "velocity": 0.7874015748031497
          },
          {
            "duration": 0.3838137187500017,
            "durationTicks": 479,
            "midi": 48,
            "name": "C3",
            "ticks": 24241,
            "time": 19.423858781249997,
            "velocity": 0.7874015748031497
          },
          {
            "duration": 0.19150621874999985,
            "durationTicks": 239,
            "midi": 53,
            "name": "F3",
            "ticks": 25681,
            "time": 20.577703781249998,
            "velocity": 0.7874015748031497
          },
          {
            "duration": 0.19230750000000185,
            "durationTicks": 240,
            "midi": 53,
            "name": "F3",
            "ticks": 25920,
            "time": 20.769209999999998,
            "velocity": 0.7874015748031497
          },
          {
            "duration": 0.3854162812499986,
            "durationTicks": 481,
            "midi": 53,
            "name": "F3",
            "ticks": 26160,
            "time": 20.9615175,
            "velocity": 0.7874015748031497
          },
          {
            "duration": 0.19150621874999985,
            "durationTicks": 239,
            "midi": 48,
            "name": "C3",
            "ticks": 26641,
            "time": 21.346933781249998,
            "velocity": 0.7874015748031497
          },
          {
            "duration": 0.19230750000000185,
            "durationTicks": 240,
            "midi": 48,
            "name": "C3",
            "ticks": 26880,
            "time": 21.538439999999998,
            "velocity": 0.7874015748031497
          },
          {
            "duration": 0.1931087812500003,
            "durationTicks": 241,
            "midi": 48,
            "name": "C3",
            "ticks": 27120,
            "time": 21.7307475,
            "velocity": 0.7874015748031497
          },
          {
            "duration": 0.19150621874999985,
            "durationTicks": 239,
            "midi": 48,
            "name": "C3",
            "ticks": 27361,
            "time": 21.92385628125,
            "velocity": 0.7874015748031497
          },
          {
            "duration": 0.1923074999999983,
            "durationTicks": 240,
            "midi": 50,
            "name": "D3",
            "ticks": 27600,
            "time": 22.1153625,
            "velocity": 0.7874015748031497
          },
          {
            "duration": 0.1931087812500003,
            "durationTicks": 241,
            "midi": 50,
            "name": "D3",
            "ticks": 27840,
            "time": 22.307669999999998,
            "velocity": 0.7874015748031497
          },
          {
            "duration": 0.3838137187500017,
            "durationTicks": 479,
            "midi": 50,
            "name": "D3",
            "ticks": 28081,
            "time": 22.50077878125,
            "velocity": 0.7874015748031497
          },
          {
            "duration": 0.38461500000000015,
            "durationTicks": 480,
            "midi": 48,
            "name": "C3",
            "ticks": 28560,
            "time": 22.8845925,
            "velocity": 0.7874015748031497
          },
          {
            "duration": 0.19310878124999675,
            "durationTicks": 241,
            "midi": 48,
            "name": "C3",
            "ticks": 29520,
            "time": 23.6538225,
            "velocity": 0.7874015748031497
          },
          {
            "duration": 0.1915062187500034,
            "durationTicks": 239,
            "midi": 50,
            "name": "D3",
            "ticks": 29761,
            "time": 23.846931281249997,
            "velocity": 0.7874015748031497
          },
          {
            "duration": 0.3854162812499986,
            "durationTicks": 481,
            "midi": 50,
            "name": "D3",
            "ticks": 30000,
            "time": 24.0384375,
            "velocity": 0.7874015748031497
          },
          {
            "duration": 0.19150621874999985,
            "durationTicks": 239,
            "midi": 48,
            "name": "C3",
            "ticks": 30481,
            "time": 24.42385378125,
            "velocity": 0.7874015748031497
          },
          {
            "duration": 0.1923074999999983,
            "durationTicks": 240,
            "midi": 50,
            "name": "D3",
            "ticks": 30720,
            "time": 24.61536,
            "velocity": 0.7874015748031497
          },
          {
            "duration": 0.1931087812500003,
            "durationTicks": 241,
            "midi": 50,
            "name": "D3",
            "ticks": 30960,
            "time": 24.807667499999997,
            "velocity": 0.7874015748031497
          },
          {
            "duration": 0.19150621874999985,
            "durationTicks": 239,
            "midi": 50,
            "name": "D3",
            "ticks": 31201,
            "time": 25.000776281249998,
            "velocity": 0.7874015748031497
          },
          {
            "duration": 0.576922500000002,
            "durationTicks": 720,
            "midi": 48,
            "name": "C3",
            "ticks": 31440,
            "time": 25.192282499999997,
            "velocity": 0.7874015748031497
          },
          {
            "duration": 0.19150621874999985,
            "durationTicks": 239,
            "midi": 53,
            "name": "F3",
            "ticks": 36001,
            "time": 28.84692628125,
            "velocity": 0.7874015748031497
          },
          {
            "duration": 0.3854162812499986,
            "durationTicks": 481,
            "midi": 53,
            "name": "F3",
            "ticks": 36240,
            "time": 29.0384325,
            "velocity": 0.7874015748031497
          },
          {
            "duration": 0.3838137187500017,
            "durationTicks": 479,
            "midi": 53,
            "name": "F3",
            "ticks": 36721,
            "time": 29.423848781249998,
            "velocity": 0.7874015748031497
          },
          {
            "duration": 0.5769224999999985,
            "durationTicks": 720,
            "midi": 50,
            "name": "D3",
            "ticks": 37200,
            "time": 29.8076625,
            "velocity": 0.7874015748031497
          },
          {
            "duration": 0.1915062187500034,
            "durationTicks": 239,
            "midi": 53,
            "name": "F3",
            "ticks": 39841,
            "time": 31.923846281249997,
            "velocity": 0.7874015748031497
          },
          {
            "duration": 0.38541628124999505,
            "durationTicks": 481,
            "midi": 53,
            "name": "F3",
            "ticks": 40080,
            "time": 32.1153525,
            "velocity": 0.7874015748031497
          },
          {
            "duration": 0.38381371875000525,
            "durationTicks": 479,
            "midi": 53,
            "name": "F3",
            "ticks": 40561,
            "time": 32.500768781249995,
            "velocity": 0.7874015748031497
          },
          {
            "duration": 0.5769224999999949,
            "durationTicks": 720,
            "midi": 50,
            "name": "D3",
            "ticks": 41040,
            "time": 32.8845825,
            "velocity": 0.7874015748031497
          },
          {
            "duration": 0.19150621875000695,
            "durationTicks": 239,
            "midi": 53,
            "name": "F3",
            "ticks": 43681,
            "time": 35.000766281249994,
            "velocity": 0.7874015748031497
          },
          {
            "duration": 0.38541628124999505,
            "durationTicks": 481,
            "midi": 53,
            "name": "F3",
            "ticks": 43920,
            "time": 35.1922725,
            "velocity": 0.7874015748031497
          },
          {
            "duration": 0.38381371875000525,
            "durationTicks": 479,
            "midi": 53,
            "name": "F3",
            "ticks": 44401,
            "time": 35.57768878125,
            "velocity": 0.7874015748031497
          },
          {
            "duration": 0.5769224999999949,
            "durationTicks": 720,
            "midi": 50,
            "name": "D3",
            "ticks": 44880,
            "time": 35.9615025,
            "velocity": 0.7874015748031497
          },
          {
            "duration": 0.19150621874999985,
            "durationTicks": 239,
            "midi": 53,
            "name": "F3",
            "ticks": 55441,
            "time": 44.423833781249996,
            "velocity": 0.7874015748031497
          },
          {
            "duration": 0.1923075000000054,
            "durationTicks": 240,
            "midi": 53,
            "name": "F3",
            "ticks": 55680,
            "time": 44.615339999999996,
            "velocity": 0.7874015748031497
          },
          {
            "duration": 0.19310878124999675,
            "durationTicks": 241,
            "midi": 53,
            "name": "F3",
            "ticks": 55920,
            "time": 44.8076475,
            "velocity": 0.7874015748031497
          },
          {
            "duration": 0.19150621874999985,
            "durationTicks": 239,
            "midi": 53,
            "name": "F3",
            "ticks": 56161,
            "time": 45.00075628125,
            "velocity": 0.7874015748031497
          },
          {
            "duration": 0.1923074999999983,
            "durationTicks": 240,
            "midi": 53,
            "name": "F3",
            "ticks": 56400,
            "time": 45.1922625,
            "velocity": 0.7874015748031497
          },
          {
            "duration": 0.19310878125000386,
            "durationTicks": 241,
            "midi": 53,
            "name": "F3",
            "ticks": 56640,
            "time": 45.38457,
            "velocity": 0.7874015748031497
          },
          {
            "duration": 0.38381371874999815,
            "durationTicks": 479,
            "midi": 53,
            "name": "F3",
            "ticks": 56881,
            "time": 45.57767878125,
            "velocity": 0.7874015748031497
          },
          {
            "duration": 0.1923074999999983,
            "durationTicks": 240,
            "midi": 48,
            "name": "C3",
            "ticks": 57360,
            "time": 45.9614925,
            "velocity": 0.7874015748031497
          },
          {
            "duration": 0.3846150000000037,
            "durationTicks": 480,
            "midi": 50,
            "name": "D3",
            "ticks": 57600,
            "time": 46.1538,
            "velocity": 0.7874015748031497
          },
          {
            "duration": 0.1923074999999983,
            "durationTicks": 240,
            "midi": 53,
            "name": "F3",
            "ticks": 58080,
            "time": 46.538415,
            "velocity": 0.7874015748031497
          },
          {
            "duration": 0.19310878124999675,
            "durationTicks": 241,
            "midi": 50,
            "name": "D3",
            "ticks": 58320,
            "time": 46.7307225,
            "velocity": 0.7874015748031497
          },
          {
            "duration": 0.19150621874999985,
            "durationTicks": 239,
            "midi": 50,
            "name": "D3",
            "ticks": 58561,
            "time": 46.923831281249996,
            "velocity": 0.7874015748031497
          },
          {
            "duration": 0.19150621874999985,
            "durationTicks": 239,
            "midi": 53,
            "name": "F3",
            "ticks": 59281,
            "time": 47.50075378125,
            "velocity": 0.7874015748031497
          },
          {
            "duration": 0.38541628125000216,
            "durationTicks": 481,
            "midi": 53,
            "name": "F3",
            "ticks": 59520,
            "time": 47.69226,
            "velocity": 0.7874015748031497
          },
          {
            "duration": 0.19150621874999985,
            "durationTicks": 239,
            "midi": 53,
            "name": "F3",
            "ticks": 60001,
            "time": 48.07767628125,
            "velocity": 0.7874015748031497
          },
          {
            "duration": 0.1923074999999983,
            "durationTicks": 240,
            "midi": 53,
            "name": "F3",
            "ticks": 60240,
            "time": 48.2691825,
            "velocity": 0.7874015748031497
          },
          {
            "duration": 0.576922500000002,
            "durationTicks": 720,
            "midi": 53,
            "name": "F3",
            "ticks": 60480,
            "time": 48.46149,
            "velocity": 0.7874015748031497
          },
          {
            "duration": 0.1923074999999983,
            "durationTicks": 240,
            "midi": 48,
            "name": "C3",
            "ticks": 61200,
            "time": 49.0384125,
            "velocity": 0.7874015748031497
          },
          {
            "duration": 0.3846149999999966,
            "durationTicks": 480,
            "midi": 50,
            "name": "D3",
            "ticks": 61440,
            "time": 49.23072,
            "velocity": 0.7874015748031497
          },
          {
            "duration": 0.1923075000000054,
            "durationTicks": 240,
            "midi": 53,
            "name": "F3",
            "ticks": 61920,
            "time": 49.615334999999995,
            "velocity": 0.7874015748031497
          },
          {
            "duration": 0.19310878124999675,
            "durationTicks": 241,
            "midi": 50,
            "name": "D3",
            "ticks": 62160,
            "time": 49.8076425,
            "velocity": 0.7874015748031497
          },
          {
            "duration": 0.38381371874999815,
            "durationTicks": 479,
            "midi": 50,
            "name": "D3",
            "ticks": 62401,
            "time": 50.00075128125,
            "velocity": 0.7874015748031497
          },
          {
            "duration": 0.19150621874999985,
            "durationTicks": 239,
            "midi": 53,
            "name": "F3",
            "ticks": 64081,
            "time": 51.34690378125,
            "velocity": 0.7874015748031497
          },
          {
            "duration": 0.1923074999999983,
            "durationTicks": 240,
            "midi": 53,
            "name": "F3",
            "ticks": 64320,
            "time": 51.53841,
            "velocity": 0.7874015748031497
          },
          {
            "duration": 0.3846150000000037,
            "durationTicks": 480,
            "midi": 53,
            "name": "F3",
            "ticks": 64560,
            "time": 51.7307175,
            "velocity": 0.7874015748031497
          },
          {
            "duration": 0.1923074999999983,
            "durationTicks": 240,
            "midi": 48,
            "name": "C3",
            "ticks": 65040,
            "time": 52.1153325,
            "velocity": 0.7874015748031497
          },
          {
            "duration": 0.19310878124999675,
            "durationTicks": 241,
            "midi": 48,
            "name": "C3",
            "ticks": 65280,
            "time": 52.30764,
            "velocity": 0.7874015748031497
          },
          {
            "duration": 0.19150621874999985,
            "durationTicks": 239,
            "midi": 48,
            "name": "C3",
            "ticks": 65521,
            "time": 52.500748781249996,
            "velocity": 0.7874015748031497
          },
          {
            "duration": 0.1923075000000054,
            "durationTicks": 240,
            "midi": 48,
            "name": "C3",
            "ticks": 65760,
            "time": 52.692254999999996,
            "velocity": 0.7874015748031497
          },
          {
            "duration": 0.19310878124999675,
            "durationTicks": 241,
            "midi": 50,
            "name": "D3",
            "ticks": 66000,
            "time": 52.8845625,
            "velocity": 0.7874015748031497
          },
          {
            "duration": 0.19150621874999985,
            "durationTicks": 239,
            "midi": 50,
            "name": "D3",
            "ticks": 66241,
            "time": 53.07767128125,
            "velocity": 0.7874015748031497
          },
          {
            "duration": 0.3846149999999966,
            "durationTicks": 480,
            "midi": 50,
            "name": "D3",
            "ticks": 66480,
            "time": 53.2691775,
            "velocity": 0.7874015748031497
          },
          {
            "duration": 0.3846150000000037,
            "durationTicks": 480,
            "midi": 48,
            "name": "C3",
            "ticks": 66960,
            "time": 53.653792499999994,
            "velocity": 0.7874015748031497
          },
          {
            "duration": 0.19150621874999985,
            "durationTicks": 239,
            "midi": 48,
            "name": "C3",
            "ticks": 67921,
            "time": 54.42382378125,
            "velocity": 0.7874015748031497
          },
          {
            "duration": 0.1923074999999983,
            "durationTicks": 240,
            "midi": 50,
            "name": "D3",
            "ticks": 68160,
            "time": 54.61533,
            "velocity": 0.7874015748031497
          },
          {
            "duration": 0.3846149999999966,
            "durationTicks": 480,
            "midi": 50,
            "name": "D3",
            "ticks": 68400,
            "time": 54.8076375,
            "velocity": 0.7874015748031497
          },
          {
            "duration": 0.1923075000000054,
            "durationTicks": 240,
            "midi": 48,
            "name": "C3",
            "ticks": 68880,
            "time": 55.192252499999995,
            "velocity": 0.7874015748031497
          },
          {
            "duration": 0.19310878124999675,
            "durationTicks": 241,
            "midi": 50,
            "name": "D3",
            "ticks": 69120,
            "time": 55.38456,
            "velocity": 0.7874015748031497
          },
          {
            "duration": 0.19150621874999985,
            "durationTicks": 239,
            "midi": 50,
            "name": "D3",
            "ticks": 69361,
            "time": 55.57766878125,
            "velocity": 0.7874015748031497
          },
          {
            "duration": 0.1923074999999983,
            "durationTicks": 240,
            "midi": 50,
            "name": "D3",
            "ticks": 69600,
            "time": 55.769175,
            "velocity": 0.7874015748031497
          },
          {
            "duration": 0.576922500000002,
            "durationTicks": 720,
            "midi": 48,
            "name": "C3",
            "ticks": 69840,
            "time": 55.961482499999995,
            "velocity": 0.7874015748031497
          },
          {
            "duration": 0.1923074999999983,
            "durationTicks": 240,
            "midi": 53,
            "name": "F3",
            "ticks": 74400,
            "time": 59.615325,
            "velocity": 0.7874015748031497
          },
          {
            "duration": 0.3846150000000037,
            "durationTicks": 480,
            "midi": 53,
            "name": "F3",
            "ticks": 74640,
            "time": 59.8076325,
            "velocity": 0.7874015748031497
          },
          {
            "duration": 0.38541628124999505,
            "durationTicks": 481,
            "midi": 53,
            "name": "F3",
            "ticks": 75120,
            "time": 60.1922475,
            "velocity": 0.7874015748031497
          },
          {
            "duration": 0.5761212187500035,
            "durationTicks": 719,
            "midi": 50,
            "name": "D3",
            "ticks": 75601,
            "time": 60.577663781249996,
            "velocity": 0.7874015748031497
          },
          {
            "duration": 0.1923074999999983,
            "durationTicks": 240,
            "midi": 53,
            "name": "F3",
            "ticks": 78240,
            "time": 62.692245,
            "velocity": 0.7874015748031497
          },
          {
            "duration": 0.3846149999999966,
            "durationTicks": 480,
            "midi": 53,
            "name": "F3",
            "ticks": 78480,
            "time": 62.8845525,
            "velocity": 0.7874015748031497
          },
          {
            "duration": 0.3846150000000037,
            "durationTicks": 480,
            "midi": 53,
            "name": "F3",
            "ticks": 78960,
            "time": 63.269167499999995,
            "velocity": 0.7874015748031497
          },
          {
            "duration": 0.576922500000002,
            "durationTicks": 720,
            "midi": 50,
            "name": "D3",
            "ticks": 79440,
            "time": 63.6537825,
            "velocity": 0.7874015748031497
          },
          {
            "duration": 0.1923074999999983,
            "durationTicks": 240,
            "midi": 53,
            "name": "F3",
            "ticks": 82080,
            "time": 65.769165,
            "velocity": 0.7874015748031497
          },
          {
            "duration": 0.38541628125000216,
            "durationTicks": 481,
            "midi": 53,
            "name": "F3",
            "ticks": 82320,
            "time": 65.9614725,
            "velocity": 0.7874015748031497
          },
          {
            "duration": 0.38381371874999104,
            "durationTicks": 479,
            "midi": 53,
            "name": "F3",
            "ticks": 82801,
            "time": 66.34688878125,
            "velocity": 0.7874015748031497
          },
          {
            "duration": 0.5769225000000091,
            "durationTicks": 720,
            "midi": 50,
            "name": "D3",
            "ticks": 83280,
            "time": 66.73070249999999,
            "velocity": 0.7874015748031497
          }
        ] 
  }



  let hendrix_fire_75_R_notes = { 
    
            "notes": [
              {
                "duration": 0.19230750000000008,
                "durationTicks": 240,
                "midi": 44,
                "name": "G#2",
                "ticks": 1920,
                "time": 1.53846,
                "velocity": 0.7874015748031497
              },
              {
                "duration": 0.19150621875000007,
                "durationTicks": 239,
                "midi": 43,
                "name": "G2",
                "ticks": 2401,
                "time": 1.9238762812499999,
                "velocity": 0.7874015748031497
              },
              {
                "duration": 0.38381371875000037,
                "durationTicks": 479,
                "midi": 41,
                "name": "F2",
                "ticks": 3841,
                "time": 3.0777212812499997,
                "velocity": 0.7874015748031497
              },
              {
                "duration": 0.19230749999999963,
                "durationTicks": 240,
                "midi": 38,
                "name": "D2",
                "ticks": 4320,
                "time": 3.461535,
                "velocity": 0.7874015748031497
              },
              {
                "duration": 0.1931087812500003,
                "durationTicks": 241,
                "midi": 38,
                "name": "D2",
                "ticks": 4560,
                "time": 3.6538424999999997,
                "velocity": 0.7874015748031497
              },
              {
                "duration": 0.19230750000000008,
                "durationTicks": 240,
                "midi": 44,
                "name": "G#2",
                "ticks": 5760,
                "time": 4.61538,
                "velocity": 0.7874015748031497
              },
              {
                "duration": 0.19150621874999985,
                "durationTicks": 239,
                "midi": 43,
                "name": "G2",
                "ticks": 6241,
                "time": 5.0007962812499995,
                "velocity": 0.7874015748031497
              },
              {
                "duration": 0.38461500000000015,
                "durationTicks": 480,
                "midi": 41,
                "name": "F2",
                "ticks": 7680,
                "time": 6.15384,
                "velocity": 0.7874015748031497
              },
              {
                "duration": 0.19230750000000008,
                "durationTicks": 240,
                "midi": 38,
                "name": "D2",
                "ticks": 8160,
                "time": 6.538455,
                "velocity": 0.7874015748031497
              },
              {
                "duration": 0.1931087812500003,
                "durationTicks": 241,
                "midi": 38,
                "name": "D2",
                "ticks": 8400,
                "time": 6.7307625,
                "velocity": 0.7874015748031497
              },
              {
                "duration": 0.19150621874999896,
                "durationTicks": 239,
                "midi": 33,
                "name": "A1",
                "ticks": 9361,
                "time": 7.5007937812500005,
                "velocity": 0.7874015748031497
              },
              {
                "duration": 0.19230750000000008,
                "durationTicks": 240,
                "midi": 36,
                "name": "C2",
                "ticks": 9600,
                "time": 7.6922999999999995,
                "velocity": 0.7874015748031497
              },
              {
                "duration": 0.1931087812500003,
                "durationTicks": 241,
                "midi": 38,
                "name": "D2",
                "ticks": 9840,
                "time": 7.8846074999999995,
                "velocity": 0.7874015748031497
              },
              {
                "duration": 0.19150621874999985,
                "durationTicks": 239,
                "midi": 38,
                "name": "D2",
                "ticks": 10081,
                "time": 8.07771628125,
                "velocity": 0.7874015748031497
              },
              {
                "duration": 0.19150621874999807,
                "durationTicks": 239,
                "midi": 33,
                "name": "A1",
                "ticks": 13201,
                "time": 10.57771378125,
                "velocity": 0.7874015748031497
              },
              {
                "duration": 0.19230750000000008,
                "durationTicks": 240,
                "midi": 36,
                "name": "C2",
                "ticks": 13440,
                "time": 10.769219999999999,
                "velocity": 0.7874015748031497
              },
              {
                "duration": 0.19230750000000008,
                "durationTicks": 240,
                "midi": 38,
                "name": "D2",
                "ticks": 13680,
                "time": 10.961527499999999,
                "velocity": 0.7874015748031497
              },
              {
                "duration": 0.1931087812500003,
                "durationTicks": 241,
                "midi": 38,
                "name": "D2",
                "ticks": 13920,
                "time": 11.153834999999999,
                "velocity": 0.7874015748031497
              },
              {
                "duration": 0.19310878124999853,
                "durationTicks": 241,
                "midi": 33,
                "name": "A1",
                "ticks": 17040,
                "time": 13.6538325,
                "velocity": 0.7874015748031497
              },
              {
                "duration": 0.19150621875000162,
                "durationTicks": 239,
                "midi": 36,
                "name": "C2",
                "ticks": 17281,
                "time": 13.846941281249999,
                "velocity": 0.7874015748031497
              },
              {
                "duration": 0.19230750000000008,
                "durationTicks": 240,
                "midi": 38,
                "name": "D2",
                "ticks": 17520,
                "time": 14.0384475,
                "velocity": 0.7874015748031497
              },
              {
                "duration": 0.19310878124999853,
                "durationTicks": 241,
                "midi": 38,
                "name": "D2",
                "ticks": 17760,
                "time": 14.230755,
                "velocity": 0.7874015748031497
              },
              {
                "duration": 0.1931087812500003,
                "durationTicks": 241,
                "midi": 33,
                "name": "A1",
                "ticks": 20880,
                "time": 16.730752499999998,
                "velocity": 0.7874015748031497
              },
              {
                "duration": 0.19150621874999985,
                "durationTicks": 239,
                "midi": 36,
                "name": "C2",
                "ticks": 21121,
                "time": 16.923861281249998,
                "velocity": 0.7874015748031497
              },
              {
                "duration": 0.19230750000000185,
                "durationTicks": 240,
                "midi": 38,
                "name": "D2",
                "ticks": 21360,
                "time": 17.115367499999998,
                "velocity": 0.7874015748031497
              },
              {
                "duration": 0.1931087812500003,
                "durationTicks": 241,
                "midi": 38,
                "name": "D2",
                "ticks": 21600,
                "time": 17.307675,
                "velocity": 0.7874015748031497
              },
              {
                "duration": 0.1931087812500003,
                "durationTicks": 241,
                "midi": 33,
                "name": "A1",
                "ticks": 24720,
                "time": 19.8076725,
                "velocity": 0.7874015748031497
              },
              {
                "duration": 0.19150621874999985,
                "durationTicks": 239,
                "midi": 36,
                "name": "C2",
                "ticks": 24961,
                "time": 20.00078128125,
                "velocity": 0.7874015748031497
              },
              {
                "duration": 0.19230750000000185,
                "durationTicks": 240,
                "midi": 38,
                "name": "D2",
                "ticks": 25200,
                "time": 20.1922875,
                "velocity": 0.7874015748031497
              },
              {
                "duration": 0.19310878124999675,
                "durationTicks": 241,
                "midi": 38,
                "name": "D2",
                "ticks": 25440,
                "time": 20.384595,
                "velocity": 0.7874015748031497
              },
              {
                "duration": 0.19310878124999675,
                "durationTicks": 241,
                "midi": 33,
                "name": "A1",
                "ticks": 28560,
                "time": 22.8845925,
                "velocity": 0.7874015748031497
              },
              {
                "duration": 0.1915062187500034,
                "durationTicks": 239,
                "midi": 36,
                "name": "C2",
                "ticks": 28801,
                "time": 23.077701281249997,
                "velocity": 0.7874015748031497
              },
              {
                "duration": 0.1923074999999983,
                "durationTicks": 240,
                "midi": 38,
                "name": "D2",
                "ticks": 29040,
                "time": 23.2692075,
                "velocity": 0.7874015748031497
              },
              {
                "duration": 0.19230750000000185,
                "durationTicks": 240,
                "midi": 38,
                "name": "D2",
                "ticks": 29280,
                "time": 23.461515,
                "velocity": 0.7874015748031497
              },
              {
                "duration": 0.3854162812499986,
                "durationTicks": 481,
                "midi": 38,
                "name": "D2",
                "ticks": 33120,
                "time": 26.538435,
                "velocity": 0.7874015748031497
              },
              {
                "duration": 0.3838137187500017,
                "durationTicks": 479,
                "midi": 38,
                "name": "D2",
                "ticks": 33601,
                "time": 26.92385128125,
                "velocity": 0.7874015748031497
              },
              {
                "duration": 0.19310878124999675,
                "durationTicks": 241,
                "midi": 30,
                "name": "F#1",
                "ticks": 34080,
                "time": 27.307665,
                "velocity": 0.7874015748031497
              },
              {
                "duration": 0.1915062187500034,
                "durationTicks": 239,
                "midi": 31,
                "name": "G1",
                "ticks": 34321,
                "time": 27.500773781249997,
                "velocity": 0.7874015748031497
              },
              {
                "duration": 0.1923074999999983,
                "durationTicks": 240,
                "midi": 32,
                "name": "G#1",
                "ticks": 34560,
                "time": 27.69228,
                "velocity": 0.7874015748031497
              },
              {
                "duration": 0.38461500000000015,
                "durationTicks": 480,
                "midi": 33,
                "name": "A1",
                "ticks": 34800,
                "time": 27.8845875,
                "velocity": 0.7874015748031497
              },
              {
                "duration": 0.19230750000000185,
                "durationTicks": 240,
                "midi": 33,
                "name": "A1",
                "ticks": 35280,
                "time": 28.2692025,
                "velocity": 0.7874015748031497
              },
              {
                "duration": 0.1923074999999983,
                "durationTicks": 240,
                "midi": 35,
                "name": "B1",
                "ticks": 35520,
                "time": 28.46151,
                "velocity": 0.7874015748031497
              },
              {
                "duration": 0.1931087812500003,
                "durationTicks": 241,
                "midi": 35,
                "name": "B1",
                "ticks": 35760,
                "time": 28.6538175,
                "velocity": 0.7874015748031497
              },
              {
                "duration": 0.19150621874999985,
                "durationTicks": 239,
                "midi": 36,
                "name": "C2",
                "ticks": 36001,
                "time": 28.84692628125,
                "velocity": 0.7874015748031497
              },
              {
                "duration": 0.1923074999999983,
                "durationTicks": 240,
                "midi": 36,
                "name": "C2",
                "ticks": 36240,
                "time": 29.0384325,
                "velocity": 0.7874015748031497
              },
              {
                "duration": 0.1931087812500003,
                "durationTicks": 241,
                "midi": 37,
                "name": "C#2",
                "ticks": 36480,
                "time": 29.230739999999997,
                "velocity": 0.7874015748031497
              },
              {
                "duration": 0.19150621874999985,
                "durationTicks": 239,
                "midi": 37,
                "name": "C#2",
                "ticks": 36721,
                "time": 29.423848781249998,
                "velocity": 0.7874015748031497
              },
              {
                "duration": 0.19230750000000185,
                "durationTicks": 240,
                "midi": 38,
                "name": "D2",
                "ticks": 36960,
                "time": 29.615354999999997,
                "velocity": 0.7874015748031497
              },
              {
                "duration": 0.1931087812500003,
                "durationTicks": 241,
                "midi": 38,
                "name": "D2",
                "ticks": 37200,
                "time": 29.8076625,
                "velocity": 0.7874015748031497
              },
              {
                "duration": 0.19150621874999985,
                "durationTicks": 239,
                "midi": 38,
                "name": "D2",
                "ticks": 37441,
                "time": 30.00077128125,
                "velocity": 0.7874015748031497
              },
              {
                "duration": 0.1923074999999983,
                "durationTicks": 240,
                "midi": 38,
                "name": "D2",
                "ticks": 37680,
                "time": 30.1922775,
                "velocity": 0.7874015748031497
              },
              {
                "duration": 0.1931087812500003,
                "durationTicks": 241,
                "midi": 30,
                "name": "F#1",
                "ticks": 37920,
                "time": 30.384584999999998,
                "velocity": 0.7874015748031497
              },
              {
                "duration": 0.19150621874999985,
                "durationTicks": 239,
                "midi": 31,
                "name": "G1",
                "ticks": 38161,
                "time": 30.577693781249998,
                "velocity": 0.7874015748031497
              },
              {
                "duration": 0.19230750000000185,
                "durationTicks": 240,
                "midi": 32,
                "name": "G#1",
                "ticks": 38400,
                "time": 30.769199999999998,
                "velocity": 0.7874015748031497
              },
              {
                "duration": 0.3854162812499986,
                "durationTicks": 481,
                "midi": 33,
                "name": "A1",
                "ticks": 38640,
                "time": 30.9615075,
                "velocity": 0.7874015748031497
              },
              {
                "duration": 0.19150621874999985,
                "durationTicks": 239,
                "midi": 33,
                "name": "A1",
                "ticks": 39121,
                "time": 31.34692378125,
                "velocity": 0.7874015748031497
              },
              {
                "duration": 0.19230750000000185,
                "durationTicks": 240,
                "midi": 35,
                "name": "B1",
                "ticks": 39360,
                "time": 31.538429999999998,
                "velocity": 0.7874015748031497
              },
              {
                "duration": 0.19310878124999675,
                "durationTicks": 241,
                "midi": 35,
                "name": "B1",
                "ticks": 39600,
                "time": 31.7307375,
                "velocity": 0.7874015748031497
              },
              {
                "duration": 0.1915062187500034,
                "durationTicks": 239,
                "midi": 36,
                "name": "C2",
                "ticks": 39841,
                "time": 31.923846281249997,
                "velocity": 0.7874015748031497
              },
              {
                "duration": 0.1923074999999983,
                "durationTicks": 240,
                "midi": 36,
                "name": "C2",
                "ticks": 40080,
                "time": 32.1153525,
                "velocity": 0.7874015748031497
              },
              {
                "duration": 0.19310878124999675,
                "durationTicks": 241,
                "midi": 37,
                "name": "C#2",
                "ticks": 40320,
                "time": 32.30766,
                "velocity": 0.7874015748031497
              },
              {
                "duration": 0.19150621875000695,
                "durationTicks": 239,
                "midi": 37,
                "name": "C#2",
                "ticks": 40561,
                "time": 32.500768781249995,
                "velocity": 0.7874015748031497
              },
              {
                "duration": 0.1923074999999983,
                "durationTicks": 240,
                "midi": 38,
                "name": "D2",
                "ticks": 40800,
                "time": 32.692275,
                "velocity": 0.7874015748031497
              },
              {
                "duration": 0.19310878124999675,
                "durationTicks": 241,
                "midi": 38,
                "name": "D2",
                "ticks": 41040,
                "time": 32.8845825,
                "velocity": 0.7874015748031497
              },
              {
                "duration": 0.19150621874999985,
                "durationTicks": 239,
                "midi": 38,
                "name": "D2",
                "ticks": 41281,
                "time": 33.07769128125,
                "velocity": 0.7874015748031497
              },
              {
                "duration": 0.1923074999999983,
                "durationTicks": 240,
                "midi": 38,
                "name": "D2",
                "ticks": 41520,
                "time": 33.2691975,
                "velocity": 0.7874015748031497
              },
              {
                "duration": 0.1923075000000054,
                "durationTicks": 240,
                "midi": 30,
                "name": "F#1",
                "ticks": 41760,
                "time": 33.461504999999995,
                "velocity": 0.7874015748031497
              },
              {
                "duration": 0.19310878124999675,
                "durationTicks": 241,
                "midi": 31,
                "name": "G1",
                "ticks": 42000,
                "time": 33.6538125,
                "velocity": 0.7874015748031497
              },
              {
                "duration": 0.19150621874999985,
                "durationTicks": 239,
                "midi": 32,
                "name": "G#1",
                "ticks": 42241,
                "time": 33.84692128125,
                "velocity": 0.7874015748031497
              },
              {
                "duration": 0.38541628125000216,
                "durationTicks": 481,
                "midi": 33,
                "name": "A1",
                "ticks": 42480,
                "time": 34.0384275,
                "velocity": 0.7874015748031497
              },
              {
                "duration": 0.19150621874999985,
                "durationTicks": 239,
                "midi": 33,
                "name": "A1",
                "ticks": 42961,
                "time": 34.42384378125,
                "velocity": 0.7874015748031497
              },
              {
                "duration": 0.1923074999999983,
                "durationTicks": 240,
                "midi": 35,
                "name": "B1",
                "ticks": 43200,
                "time": 34.61535,
                "velocity": 0.7874015748031497
              },
              {
                "duration": 0.19310878124999675,
                "durationTicks": 241,
                "midi": 35,
                "name": "B1",
                "ticks": 43440,
                "time": 34.8076575,
                "velocity": 0.7874015748031497
              },
              {
                "duration": 0.19150621875000695,
                "durationTicks": 239,
                "midi": 36,
                "name": "C2",
                "ticks": 43681,
                "time": 35.000766281249994,
                "velocity": 0.7874015748031497
              },
              {
                "duration": 0.1923074999999983,
                "durationTicks": 240,
                "midi": 36,
                "name": "C2",
                "ticks": 43920,
                "time": 35.1922725,
                "velocity": 0.7874015748031497
              },
              {
                "duration": 0.19310878124999675,
                "durationTicks": 241,
                "midi": 37,
                "name": "C#2",
                "ticks": 44160,
                "time": 35.38458,
                "velocity": 0.7874015748031497
              },
              {
                "duration": 0.19150621874999985,
                "durationTicks": 239,
                "midi": 37,
                "name": "C#2",
                "ticks": 44401,
                "time": 35.57768878125,
                "velocity": 0.7874015748031497
              },
              {
                "duration": 0.1923075000000054,
                "durationTicks": 240,
                "midi": 38,
                "name": "D2",
                "ticks": 44640,
                "time": 35.769194999999996,
                "velocity": 0.7874015748031497
              },
              {
                "duration": 0.1923074999999983,
                "durationTicks": 240,
                "midi": 38,
                "name": "D2",
                "ticks": 44880,
                "time": 35.9615025,
                "velocity": 0.7874015748031497
              },
              {
                "duration": 0.19310878124999675,
                "durationTicks": 241,
                "midi": 38,
                "name": "D2",
                "ticks": 45120,
                "time": 36.15381,
                "velocity": 0.7874015748031497
              },
              {
                "duration": 0.19150621874999985,
                "durationTicks": 239,
                "midi": 38,
                "name": "D2",
                "ticks": 45361,
                "time": 36.34691878125,
                "velocity": 0.7874015748031497
              },
              {
                "duration": 0.1923075000000054,
                "durationTicks": 240,
                "midi": 30,
                "name": "F#1",
                "ticks": 45600,
                "time": 36.538425,
                "velocity": 0.7874015748031497
              },
              {
                "duration": 0.19310878124999675,
                "durationTicks": 241,
                "midi": 31,
                "name": "G1",
                "ticks": 45840,
                "time": 36.7307325,
                "velocity": 0.7874015748031497
              },
              {
                "duration": 0.19150621874999985,
                "durationTicks": 239,
                "midi": 32,
                "name": "G#1",
                "ticks": 46081,
                "time": 36.92384128125,
                "velocity": 0.7874015748031497
              },
              {
                "duration": 0.38541628125000216,
                "durationTicks": 481,
                "midi": 33,
                "name": "A1",
                "ticks": 46320,
                "time": 37.1153475,
                "velocity": 0.7874015748031497
              },
              {
                "duration": 0.19150621874999985,
                "durationTicks": 239,
                "midi": 33,
                "name": "A1",
                "ticks": 46801,
                "time": 37.50076378125,
                "velocity": 0.7874015748031497
              },
              {
                "duration": 0.1923074999999983,
                "durationTicks": 240,
                "midi": 35,
                "name": "B1",
                "ticks": 47040,
                "time": 37.69227,
                "velocity": 0.7874015748031497
              },
              {
                "duration": 0.19310878124999675,
                "durationTicks": 241,
                "midi": 35,
                "name": "B1",
                "ticks": 47280,
                "time": 37.8845775,
                "velocity": 0.7874015748031497
              },
              {
                "duration": 0.19150621874999985,
                "durationTicks": 239,
                "midi": 36,
                "name": "C2",
                "ticks": 47521,
                "time": 38.077686281249996,
                "velocity": 0.7874015748031497
              },
              {
                "duration": 0.1923075000000054,
                "durationTicks": 240,
                "midi": 36,
                "name": "C2",
                "ticks": 47760,
                "time": 38.269192499999996,
                "velocity": 0.7874015748031497
              },
              {
                "duration": 0.1923074999999983,
                "durationTicks": 240,
                "midi": 37,
                "name": "C#2",
                "ticks": 48000,
                "time": 38.4615,
                "velocity": 0.7874015748031497
              },
              {
                "duration": 0.19310878124999675,
                "durationTicks": 241,
                "midi": 37,
                "name": "C#2",
                "ticks": 48240,
                "time": 38.6538075,
                "velocity": 0.7874015748031497
              },
              {
                "duration": 0.19150621874999985,
                "durationTicks": 239,
                "midi": 38,
                "name": "D2",
                "ticks": 48481,
                "time": 38.846916281249996,
                "velocity": 0.7874015748031497
              },
              {
                "duration": 0.19150621874999985,
                "durationTicks": 239,
                "midi": 33,
                "name": "A1",
                "ticks": 51601,
                "time": 41.346913781249995,
                "velocity": 0.7874015748031497
              },
              {
                "duration": 0.1923075000000054,
                "durationTicks": 240,
                "midi": 36,
                "name": "C2",
                "ticks": 51840,
                "time": 41.538419999999995,
                "velocity": 0.7874015748031497
              },
              {
                "duration": 0.19310878124999675,
                "durationTicks": 241,
                "midi": 38,
                "name": "D2",
                "ticks": 52080,
                "time": 41.7307275,
                "velocity": 0.7874015748031497
              },
              {
                "duration": 0.19150621874999985,
                "durationTicks": 239,
                "midi": 38,
                "name": "D2",
                "ticks": 52321,
                "time": 41.92383628125,
                "velocity": 0.7874015748031497
              },
              {
                "duration": 0.19150621874999985,
                "durationTicks": 239,
                "midi": 33,
                "name": "A1",
                "ticks": 55441,
                "time": 44.423833781249996,
                "velocity": 0.7874015748031497
              },
              {
                "duration": 0.1923075000000054,
                "durationTicks": 240,
                "midi": 36,
                "name": "C2",
                "ticks": 55680,
                "time": 44.615339999999996,
                "velocity": 0.7874015748031497
              },
              {
                "duration": 0.19310878124999675,
                "durationTicks": 241,
                "midi": 38,
                "name": "D2",
                "ticks": 55920,
                "time": 44.8076475,
                "velocity": 0.7874015748031497
              },
              {
                "duration": 0.19150621874999985,
                "durationTicks": 239,
                "midi": 38,
                "name": "D2",
                "ticks": 56161,
                "time": 45.00075628125,
                "velocity": 0.7874015748031497
              },
              {
                "duration": 0.19150621874999985,
                "durationTicks": 239,
                "midi": 33,
                "name": "A1",
                "ticks": 59281,
                "time": 47.50075378125,
                "velocity": 0.7874015748031497
              },
              {
                "duration": 0.1923074999999983,
                "durationTicks": 240,
                "midi": 36,
                "name": "C2",
                "ticks": 59520,
                "time": 47.69226,
                "velocity": 0.7874015748031497
              },
              {
                "duration": 0.19310878125000386,
                "durationTicks": 241,
                "midi": 38,
                "name": "D2",
                "ticks": 59760,
                "time": 47.884567499999996,
                "velocity": 0.7874015748031497
              },
              {
                "duration": 0.19150621874999985,
                "durationTicks": 239,
                "midi": 38,
                "name": "D2",
                "ticks": 60001,
                "time": 48.07767628125,
                "velocity": 0.7874015748031497
              },
              {
                "duration": 0.19150621874999985,
                "durationTicks": 239,
                "midi": 33,
                "name": "A1",
                "ticks": 63121,
                "time": 50.57767378125,
                "velocity": 0.7874015748031497
              },
              {
                "duration": 0.1923074999999983,
                "durationTicks": 240,
                "midi": 36,
                "name": "C2",
                "ticks": 63360,
                "time": 50.76918,
                "velocity": 0.7874015748031497
              },
              {
                "duration": 0.1923074999999983,
                "durationTicks": 240,
                "midi": 38,
                "name": "D2",
                "ticks": 63600,
                "time": 50.9614875,
                "velocity": 0.7874015748031497
              },
              {
                "duration": 0.19310878125000386,
                "durationTicks": 241,
                "midi": 38,
                "name": "D2",
                "ticks": 63840,
                "time": 51.153794999999995,
                "velocity": 0.7874015748031497
              },
              {
                "duration": 0.19310878125000386,
                "durationTicks": 241,
                "midi": 33,
                "name": "A1",
                "ticks": 66960,
                "time": 53.653792499999994,
                "velocity": 0.7874015748031497
              },
              {
                "duration": 0.19150621874999985,
                "durationTicks": 239,
                "midi": 36,
                "name": "C2",
                "ticks": 67201,
                "time": 53.84690128125,
                "velocity": 0.7874015748031497
              },
              {
                "duration": 0.1923074999999983,
                "durationTicks": 240,
                "midi": 38,
                "name": "D2",
                "ticks": 67440,
                "time": 54.0384075,
                "velocity": 0.7874015748031497
              },
              {
                "duration": 0.19310878125000386,
                "durationTicks": 241,
                "midi": 38,
                "name": "D2",
                "ticks": 67680,
                "time": 54.230715,
                "velocity": 0.7874015748031497
              },
              {
                "duration": 0.3846149999999966,
                "durationTicks": 480,
                "midi": 38,
                "name": "D2",
                "ticks": 71520,
                "time": 57.307635,
                "velocity": 0.7874015748031497
              },
              {
                "duration": 0.38541628125000216,
                "durationTicks": 481,
                "midi": 38,
                "name": "D2",
                "ticks": 72000,
                "time": 57.692249999999994,
                "velocity": 0.7874015748031497
              },
              {
                "duration": 0.19150621874999985,
                "durationTicks": 239,
                "midi": 30,
                "name": "F#1",
                "ticks": 72481,
                "time": 58.077666281249996,
                "velocity": 0.7874015748031497
              },
              {
                "duration": 0.1923074999999983,
                "durationTicks": 240,
                "midi": 31,
                "name": "G1",
                "ticks": 72720,
                "time": 58.269172499999996,
                "velocity": 0.7874015748031497
              },
              {
                "duration": 0.1923075000000054,
                "durationTicks": 240,
                "midi": 32,
                "name": "G#1",
                "ticks": 72960,
                "time": 58.461479999999995,
                "velocity": 0.7874015748031497
              },
              {
                "duration": 0.3846149999999966,
                "durationTicks": 480,
                "midi": 33,
                "name": "A1",
                "ticks": 73200,
                "time": 58.6537875,
                "velocity": 0.7874015748031497
              },
              {
                "duration": 0.1923074999999983,
                "durationTicks": 240,
                "midi": 33,
                "name": "A1",
                "ticks": 73680,
                "time": 59.0384025,
                "velocity": 0.7874015748031497
              },
              {
                "duration": 0.19310878125000386,
                "durationTicks": 241,
                "midi": 35,
                "name": "B1",
                "ticks": 73920,
                "time": 59.230709999999995,
                "velocity": 0.7874015748031497
              },
              {
                "duration": 0.19150621874999985,
                "durationTicks": 239,
                "midi": 35,
                "name": "B1",
                "ticks": 74161,
                "time": 59.42381878125,
                "velocity": 0.7874015748031497
              },
              {
                "duration": 0.1923074999999983,
                "durationTicks": 240,
                "midi": 36,
                "name": "C2",
                "ticks": 74400,
                "time": 59.615325,
                "velocity": 0.7874015748031497
              },
              {
                "duration": 0.19310878124999675,
                "durationTicks": 241,
                "midi": 36,
                "name": "C2",
                "ticks": 74640,
                "time": 59.8076325,
                "velocity": 0.7874015748031497
              },
              {
                "duration": 0.19150621875000695,
                "durationTicks": 239,
                "midi": 37,
                "name": "C#2",
                "ticks": 74881,
                "time": 60.000741281249994,
                "velocity": 0.7874015748031497
              },
              {
                "duration": 0.1923074999999983,
                "durationTicks": 240,
                "midi": 37,
                "name": "C#2",
                "ticks": 75120,
                "time": 60.1922475,
                "velocity": 0.7874015748031497
              },
              {
                "duration": 0.19310878124999675,
                "durationTicks": 241,
                "midi": 38,
                "name": "D2",
                "ticks": 75360,
                "time": 60.384555,
                "velocity": 0.7874015748031497
              },
              {
                "duration": 0.19150621874999985,
                "durationTicks": 239,
                "midi": 38,
                "name": "D2",
                "ticks": 75601,
                "time": 60.577663781249996,
                "velocity": 0.7874015748031497
              },
              {
                "duration": 0.1923075000000054,
                "durationTicks": 240,
                "midi": 38,
                "name": "D2",
                "ticks": 75840,
                "time": 60.769169999999995,
                "velocity": 0.7874015748031497
              },
              {
                "duration": 0.1923074999999983,
                "durationTicks": 240,
                "midi": 38,
                "name": "D2",
                "ticks": 76080,
                "time": 60.9614775,
                "velocity": 0.7874015748031497
              },
              {
                "duration": 0.19310878124999675,
                "durationTicks": 241,
                "midi": 30,
                "name": "F#1",
                "ticks": 76320,
                "time": 61.153785,
                "velocity": 0.7874015748031497
              },
              {
                "duration": 0.19150621874999985,
                "durationTicks": 239,
                "midi": 31,
                "name": "G1",
                "ticks": 76561,
                "time": 61.346893781249996,
                "velocity": 0.7874015748031497
              },
              {
                "duration": 0.1923074999999983,
                "durationTicks": 240,
                "midi": 32,
                "name": "G#1",
                "ticks": 76800,
                "time": 61.538399999999996,
                "velocity": 0.7874015748031497
              },
              {
                "duration": 0.3846150000000037,
                "durationTicks": 480,
                "midi": 33,
                "name": "A1",
                "ticks": 77040,
                "time": 61.730707499999994,
                "velocity": 0.7874015748031497
              },
              {
                "duration": 0.1923074999999983,
                "durationTicks": 240,
                "midi": 33,
                "name": "A1",
                "ticks": 77520,
                "time": 62.1153225,
                "velocity": 0.7874015748031497
              },
              {
                "duration": 0.19310878125000386,
                "durationTicks": 241,
                "midi": 35,
                "name": "B1",
                "ticks": 77760,
                "time": 62.307629999999996,
                "velocity": 0.7874015748031497
              },
              {
                "duration": 0.19150621874999985,
                "durationTicks": 239,
                "midi": 35,
                "name": "B1",
                "ticks": 78001,
                "time": 62.50073878125,
                "velocity": 0.7874015748031497
              },
              {
                "duration": 0.1923074999999983,
                "durationTicks": 240,
                "midi": 36,
                "name": "C2",
                "ticks": 78240,
                "time": 62.692245,
                "velocity": 0.7874015748031497
              },
              {
                "duration": 0.19310878124999675,
                "durationTicks": 241,
                "midi": 36,
                "name": "C2",
                "ticks": 78480,
                "time": 62.8845525,
                "velocity": 0.7874015748031497
              },
              {
                "duration": 0.19150621874999985,
                "durationTicks": 239,
                "midi": 37,
                "name": "C#2",
                "ticks": 78721,
                "time": 63.077661281249995,
                "velocity": 0.7874015748031497
              },
              {
                "duration": 0.1923075000000054,
                "durationTicks": 240,
                "midi": 37,
                "name": "C#2",
                "ticks": 78960,
                "time": 63.269167499999995,
                "velocity": 0.7874015748031497
              },
              {
                "duration": 0.1923074999999983,
                "durationTicks": 240,
                "midi": 38,
                "name": "D2",
                "ticks": 79200,
                "time": 63.461475,
                "velocity": 0.7874015748031497
              },
              {
                "duration": 0.19310878124999675,
                "durationTicks": 241,
                "midi": 38,
                "name": "D2",
                "ticks": 79440,
                "time": 63.6537825,
                "velocity": 0.7874015748031497
              },
              {
                "duration": 0.19150621875000695,
                "durationTicks": 239,
                "midi": 38,
                "name": "D2",
                "ticks": 79681,
                "time": 63.846891281249995,
                "velocity": 0.7874015748031497
              },
              {
                "duration": 0.1923074999999983,
                "durationTicks": 240,
                "midi": 38,
                "name": "D2",
                "ticks": 79920,
                "time": 64.0383975,
                "velocity": 0.7874015748031497
              },
              {
                "duration": 0.19310878124998965,
                "durationTicks": 241,
                "midi": 30,
                "name": "F#1",
                "ticks": 80160,
                "time": 64.230705,
                "velocity": 0.7874015748031497
              },
              {
                "duration": 0.19150621875000695,
                "durationTicks": 239,
                "midi": 31,
                "name": "G1",
                "ticks": 80401,
                "time": 64.42381378124999,
                "velocity": 0.7874015748031497
              },
              {
                "duration": 0.1923074999999983,
                "durationTicks": 240,
                "midi": 32,
                "name": "G#1",
                "ticks": 80640,
                "time": 64.61532,
                "velocity": 0.7874015748031497
              },
              {
                "duration": 0.3846149999999966,
                "durationTicks": 480,
                "midi": 33,
                "name": "A1",
                "ticks": 80880,
                "time": 64.8076275,
                "velocity": 0.7874015748031497
              },
              {
                "duration": 0.1923075000000125,
                "durationTicks": 240,
                "midi": 33,
                "name": "A1",
                "ticks": 81360,
                "time": 65.19224249999999,
                "velocity": 0.7874015748031497
              },
              {
                "duration": 0.19310878124998965,
                "durationTicks": 241,
                "midi": 35,
                "name": "B1",
                "ticks": 81600,
                "time": 65.38455,
                "velocity": 0.7874015748031497
              },
              {
                "duration": 0.19150621875000695,
                "durationTicks": 239,
                "midi": 35,
                "name": "B1",
                "ticks": 81841,
                "time": 65.57765878125,
                "velocity": 0.7874015748031497
              },
              {
                "duration": 0.1923074999999983,
                "durationTicks": 240,
                "midi": 36,
                "name": "C2",
                "ticks": 82080,
                "time": 65.769165,
                "velocity": 0.7874015748031497
              },
              {
                "duration": 0.1923074999999983,
                "durationTicks": 240,
                "midi": 36,
                "name": "C2",
                "ticks": 82320,
                "time": 65.9614725,
                "velocity": 0.7874015748031497
              },
              {
                "duration": 0.19310878125000386,
                "durationTicks": 241,
                "midi": 37,
                "name": "C#2",
                "ticks": 82560,
                "time": 66.15378,
                "velocity": 0.7874015748031497
              },
              {
                "duration": 0.19150621874999274,
                "durationTicks": 239,
                "midi": 37,
                "name": "C#2",
                "ticks": 82801,
                "time": 66.34688878125,
                "velocity": 0.7874015748031497
              },
              {
                "duration": 0.1923074999999983,
                "durationTicks": 240,
                "midi": 38,
                "name": "D2",
                "ticks": 83040,
                "time": 66.538395,
                "velocity": 0.7874015748031497
              },
              {
                "duration": 0.19310878125000386,
                "durationTicks": 241,
                "midi": 38,
                "name": "D2",
                "ticks": 83280,
                "time": 66.73070249999999,
                "velocity": 0.7874015748031497
              },
              {
                "duration": 0.19150621875000695,
                "durationTicks": 239,
                "midi": 38,
                "name": "D2",
                "ticks": 83521,
                "time": 66.92381128125,
                "velocity": 0.7874015748031497
              },
              {
                "duration": 0.1923074999999983,
                "durationTicks": 240,
                "midi": 38,
                "name": "D2",
                "ticks": 83760,
                "time": 67.1153175,
                "velocity": 0.7874015748031497
              },
              {
                "duration": 0.19310878124998965,
                "durationTicks": 241,
                "midi": 30,
                "name": "F#1",
                "ticks": 84000,
                "time": 67.307625,
                "velocity": 0.7874015748031497
              },
              {
                "duration": 0.19150621875000695,
                "durationTicks": 239,
                "midi": 31,
                "name": "G1",
                "ticks": 84241,
                "time": 67.50073378124999,
                "velocity": 0.7874015748031497
              },
              {
                "duration": 0.1923074999999983,
                "durationTicks": 240,
                "midi": 32,
                "name": "G#1",
                "ticks": 84480,
                "time": 67.69224,
                "velocity": 0.7874015748031497
              },
              {
                "duration": 0.3846149999999966,
                "durationTicks": 480,
                "midi": 33,
                "name": "A1",
                "ticks": 84720,
                "time": 67.8845475,
                "velocity": 0.7874015748031497
              },
              {
                "duration": 0.1923074999999983,
                "durationTicks": 240,
                "midi": 33,
                "name": "A1",
                "ticks": 85200,
                "time": 68.2691625,
                "velocity": 0.7874015748031497
              },
              {
                "duration": 0.1923075000000125,
                "durationTicks": 240,
                "midi": 35,
                "name": "B1",
                "ticks": 85440,
                "time": 68.46146999999999,
                "velocity": 0.7874015748031497
              },
              {
                "duration": 0.19310878124998965,
                "durationTicks": 241,
                "midi": 35,
                "name": "B1",
                "ticks": 85680,
                "time": 68.6537775,
                "velocity": 0.7874015748031497
              },
              {
                "duration": 0.19150621875000695,
                "durationTicks": 239,
                "midi": 36,
                "name": "C2",
                "ticks": 85921,
                "time": 68.84688628125,
                "velocity": 0.7874015748031497
              },
              {
                "duration": 0.1923074999999983,
                "durationTicks": 240,
                "midi": 36,
                "name": "C2",
                "ticks": 86160,
                "time": 69.0383925,
                "velocity": 0.7874015748031497
              },
              {
                "duration": 0.19310878125000386,
                "durationTicks": 241,
                "midi": 37,
                "name": "C#2",
                "ticks": 86400,
                "time": 69.2307,
                "velocity": 0.7874015748031497
              },
              {
                "duration": 0.19150621874999274,
                "durationTicks": 239,
                "midi": 37,
                "name": "C#2",
                "ticks": 86641,
                "time": 69.42380878125,
                "velocity": 0.7874015748031497
              },
              {
                "duration": 0.38541628125000216,
                "durationTicks": 481,
                "midi": 38,
                "name": "D2",
                "ticks": 86880,
                "time": 69.615315,
                "velocity": 0.7874015748031497
              },
              {
                "duration": 0.38381371875000525,
                "durationTicks": 479,
                "midi": 38,
                "name": "D2",
                "ticks": 87361,
                "time": 70.00073128125,
                "velocity": 0.7874015748031497
              },
              {
                "duration": 0.3846149999999966,
                "durationTicks": 480,
                "midi": 38,
                "name": "D2",
                "ticks": 87840,
                "time": 70.384545,
                "velocity": 0.7874015748031497
              },
              {
                "duration": 0.3846149999999966,
                "durationTicks": 480,
                "midi": 38,
                "name": "D2",
                "ticks": 88320,
                "time": 70.76916,
                "velocity": 0.7874015748031497
              },
              {
                "duration": 0.3846149999999966,
                "durationTicks": 480,
                "midi": 38,
                "name": "D2",
                "ticks": 88800,
                "time": 71.153775,
                "velocity": 0.7874015748031497
              },
              {
                "duration": 0.38541628125000216,
                "durationTicks": 481,
                "midi": 38,
                "name": "D2",
                "ticks": 89280,
                "time": 71.53838999999999,
                "velocity": 0.7874015748031497
              },
              {
                "duration": 0.38381371875000525,
                "durationTicks": 479,
                "midi": 38,
                "name": "D2",
                "ticks": 89761,
                "time": 71.92380628125,
                "velocity": 0.7874015748031497
              },
              {
                "duration": 0.3846149999999966,
                "durationTicks": 480,
                "midi": 38,
                "name": "D2",
                "ticks": 90240,
                "time": 72.30762,
                "velocity": 0.7874015748031497
              },
              {
                "duration": 0.38541628125000216,
                "durationTicks": 481,
                "midi": 36,
                "name": "C2",
                "ticks": 90720,
                "time": 72.692235,
                "velocity": 0.7874015748031497
              },
              {
                "duration": 0.38381371875000525,
                "durationTicks": 479,
                "midi": 36,
                "name": "C2",
                "ticks": 91201,
                "time": 73.07765128125,
                "velocity": 0.7874015748031497
              },
              {
                "duration": 0.38541628124998795,
                "durationTicks": 481,
                "midi": 36,
                "name": "C2",
                "ticks": 91680,
                "time": 73.461465,
                "velocity": 0.7874015748031497
              },
              {
                "duration": 0.38381371875000525,
                "durationTicks": 479,
                "midi": 36,
                "name": "C2",
                "ticks": 92161,
                "time": 73.84688128124999,
                "velocity": 0.7874015748031497
              },
              {
                "duration": 0.3846149999999966,
                "durationTicks": 480,
                "midi": 36,
                "name": "C2",
                "ticks": 92640,
                "time": 74.230695,
                "velocity": 0.7874015748031497
              },
              {
                "duration": 0.38541628125000216,
                "durationTicks": 481,
                "midi": 36,
                "name": "C2",
                "ticks": 93120,
                "time": 74.61531,
                "velocity": 0.7874015748031497
              },
              {
                "duration": 0.38381371875000525,
                "durationTicks": 479,
                "midi": 36,
                "name": "C2",
                "ticks": 93601,
                "time": 75.00072628125,
                "velocity": 0.7874015748031497
              },
              {
                "duration": 0.3846149999999966,
                "durationTicks": 480,
                "midi": 36,
                "name": "C2",
                "ticks": 94080,
                "time": 75.38454,
                "velocity": 0.7874015748031497
              }
            ]
          } 
          
      