let chapman_fast_L_notes = { 
     
            "notes": [
              {
                "duration": 0.20132208854166667,
                "durationTicks": 67,
                "midi": 55,
                "name": "G3",
                "ticks": 2228,
                "time": 6.694710645833334,
                "velocity": 0.8818897637795275
              },
              {
                "duration": 0.04507210937499995,
                "durationTicks": 15,
                "midi": 55,
                "name": "G3",
                "ticks": 2324,
                "time": 6.983172145833334,
                "velocity": 0.5826771653543307
              },
              {
                "duration": 0.04206730208333376,
                "durationTicks": 14,
                "midi": 55,
                "name": "G3",
                "ticks": 2372,
                "time": 7.127402895833334,
                "velocity": 0.84251968503937
              },
              {
                "duration": 0.2614182343750002,
                "durationTicks": 87,
                "midi": 55,
                "name": "G3",
                "ticks": 2420,
                "time": 7.271633645833334,
                "velocity": 0.905511811023622
              },
              {
                "duration": 0.1772836302083336,
                "durationTicks": 59,
                "midi": 53,
                "name": "F3",
                "ticks": 2516,
                "time": 7.560095145833334,
                "velocity": 0.8582677165354331
              },
              {
                "duration": 0.36358168229166665,
                "durationTicks": 121,
                "midi": 53,
                "name": "F3",
                "ticks": 2612,
                "time": 7.848556645833334,
                "velocity": 0.8976377952755905
              },
              {
                "duration": 0.20132208854166755,
                "durationTicks": 67,
                "midi": 58,
                "name": "A#3",
                "ticks": 2996,
                "time": 9.002402645833333,
                "velocity": 0.905511811023622
              },
              {
                "duration": 0.04206730208333198,
                "durationTicks": 14,
                "midi": 58,
                "name": "A#3",
                "ticks": 3092,
                "time": 9.290864145833336,
                "velocity": 0.7086614173228346
              },
              {
                "duration": 0.04507210937499906,
                "durationTicks": 15,
                "midi": 60,
                "name": "C4",
                "ticks": 3140,
                "time": 9.435094895833336,
                "velocity": 0.889763779527559
              },
              {
                "duration": 0.34555283854166596,
                "durationTicks": 115,
                "midi": 60,
                "name": "C4",
                "ticks": 3188,
                "time": 9.579325645833336,
                "velocity": 0.8818897637795275
              },
              {
                "duration": 0.051081723958333214,
                "durationTicks": 17,
                "midi": 57,
                "name": "A3",
                "ticks": 3332,
                "time": 10.012017895833335,
                "velocity": 0.6220472440944882
              },
              {
                "duration": 0.05408653125000029,
                "durationTicks": 18,
                "midi": 57,
                "name": "A3",
                "ticks": 3380,
                "time": 10.156248645833335,
                "velocity": 0.937007874015748
              },
              {
                "duration": 0.048076916666666136,
                "durationTicks": 16,
                "midi": 57,
                "name": "A3",
                "ticks": 3428,
                "time": 10.300479395833335,
                "velocity": 0.6456692913385826
              },
              {
                "duration": 0.11718748437500004,
                "durationTicks": 39,
                "midi": 57,
                "name": "A3",
                "ticks": 3476,
                "time": 10.444710145833335,
                "velocity": 0.7480314960629921
              },
              {
                "duration": 0.05408653125000029,
                "durationTicks": 18,
                "midi": 58,
                "name": "A#3",
                "ticks": 3524,
                "time": 10.588940895833336,
                "velocity": 0.8188976377952756
              },
              {
                "duration": 0.19531247395833162,
                "durationTicks": 65,
                "midi": 58,
                "name": "A#3",
                "ticks": 3572,
                "time": 10.733171645833336,
                "velocity": 0.889763779527559
              },
              {
                "duration": 0.16826920833333148,
                "durationTicks": 56,
                "midi": 58,
                "name": "A#3",
                "ticks": 3668,
                "time": 11.021633145833336,
                "velocity": 0.8582677165354331
              },
              {
                "duration": 0.07211537500000098,
                "durationTicks": 24,
                "midi": 55,
                "name": "G3",
                "ticks": 3764,
                "time": 11.310094645833335,
                "velocity": 0.8031496062992126
              },
              {
                "duration": 0.045072109375000835,
                "durationTicks": 15,
                "midi": 55,
                "name": "G3",
                "ticks": 3812,
                "time": 11.454325395833335,
                "velocity": 0.7401574803149606
              },
              {
                "duration": 0.024038458333333068,
                "durationTicks": 8,
                "midi": 55,
                "name": "G3",
                "ticks": 3860,
                "time": 11.598556145833335,
                "velocity": 0.5196850393700787
              },
              {
                "duration": 0.09314902604166697,
                "durationTicks": 31,
                "midi": 58,
                "name": "A#3",
                "ticks": 3908,
                "time": 11.742786895833335,
                "velocity": 0.9133858267716536
              },
              {
                "duration": 0.18329324479166687,
                "durationTicks": 61,
                "midi": 55,
                "name": "G3",
                "ticks": 3956,
                "time": 11.887017645833335,
                "velocity": 0.8976377952755905
              },
              {
                "duration": 0.5018028177083327,
                "durationTicks": 167,
                "midi": 55,
                "name": "G3",
                "ticks": 4052,
                "time": 12.175479145833336,
                "velocity": 0.889763779527559
              },
              {
                "duration": 0.33353360937499943,
                "durationTicks": 111,
                "midi": 53,
                "name": "F3",
                "ticks": 4244,
                "time": 12.752402145833337,
                "velocity": 0.7637795275590551
              },
              {
                "duration": 0.06310095312499975,
                "durationTicks": 21,
                "midi": 58,
                "name": "A#3",
                "ticks": 4532,
                "time": 13.617786645833336,
                "velocity": 0.84251968503937
              },
              {
                "duration": 0.06610576041666505,
                "durationTicks": 22,
                "midi": 58,
                "name": "A#3",
                "ticks": 4580,
                "time": 13.762017395833336,
                "velocity": 0.6771653543307087
              },
              {
                "duration": 0.048076916666666136,
                "durationTicks": 16,
                "midi": 60,
                "name": "C4",
                "ticks": 4628,
                "time": 13.906248145833336,
                "velocity": 0.84251968503937
              },
              {
                "duration": 0.1622595937499991,
                "durationTicks": 54,
                "midi": 60,
                "name": "C4",
                "ticks": 4676,
                "time": 14.050478895833336,
                "velocity": 0.8818897637795275
              },
              {
                "duration": 0.03906249479166668,
                "durationTicks": 13,
                "midi": 60,
                "name": "C4",
                "ticks": 4772,
                "time": 14.338940395833335,
                "velocity": 0.6299212598425197
              },
              {
                "duration": 0.027043265625000146,
                "durationTicks": 9,
                "midi": 57,
                "name": "A3",
                "ticks": 4820,
                "time": 14.483171145833335,
                "velocity": 0.7244094488188977
              },
              {
                "duration": 0.024038458333333068,
                "durationTicks": 8,
                "midi": 57,
                "name": "A3",
                "ticks": 4868,
                "time": 14.627401895833335,
                "velocity": 0.7244094488188977
              },
              {
                "duration": 0.051081723958333214,
                "durationTicks": 17,
                "midi": 57,
                "name": "A3",
                "ticks": 4916,
                "time": 14.771632645833336,
                "velocity": 0.8740157480314961
              },
              {
                "duration": 0.045072109375000835,
                "durationTicks": 15,
                "midi": 57,
                "name": "A3",
                "ticks": 4964,
                "time": 14.915863395833336,
                "velocity": 0.8740157480314961
              },
              {
                "duration": 0.07512018229166628,
                "durationTicks": 25,
                "midi": 57,
                "name": "A3",
                "ticks": 5012,
                "time": 15.060094145833336,
                "velocity": 0.8818897637795275
              },
              {
                "duration": 0.0721153749999992,
                "durationTicks": 24,
                "midi": 58,
                "name": "A#3",
                "ticks": 5060,
                "time": 15.204324895833336,
                "velocity": 0.7716535433070866
              },
              {
                "duration": 0.13521632812499895,
                "durationTicks": 45,
                "midi": 58,
                "name": "A#3",
                "ticks": 5108,
                "time": 15.348555645833336,
                "velocity": 0.6299212598425197
              },
              {
                "duration": 0.027043265625000146,
                "durationTicks": 9,
                "midi": 58,
                "name": "A#3",
                "ticks": 5156,
                "time": 15.492786395833336,
                "velocity": 0.8503937007874016
              },
              {
                "duration": 0.20432689583333108,
                "durationTicks": 68,
                "midi": 62,
                "name": "D4",
                "ticks": 5300,
                "time": 15.925478645833335,
                "velocity": 0.9133858267716536
              },
              {
                "duration": 0.04206730208333198,
                "durationTicks": 14,
                "midi": 62,
                "name": "D4",
                "ticks": 5396,
                "time": 16.213940145833337,
                "velocity": 0.7480314960629921
              },
              {
                "duration": 0.09915864062499935,
                "durationTicks": 33,
                "midi": 62,
                "name": "D4",
                "ticks": 5444,
                "time": 16.358170895833336,
                "velocity": 0.8582677165354331
              },
              {
                "duration": 0.19230766666666455,
                "durationTicks": 64,
                "midi": 60,
                "name": "C4",
                "ticks": 5492,
                "time": 16.502401645833338,
                "velocity": 0.9291338582677166
              },
              {
                "duration": 0.16826920833333503,
                "durationTicks": 56,
                "midi": 58,
                "name": "A#3",
                "ticks": 5588,
                "time": 16.790863145833335,
                "velocity": 0.8110236220472441
              },
              {
                "duration": 0.28846150000000037,
                "durationTicks": 96,
                "midi": 58,
                "name": "A#3",
                "ticks": 5684,
                "time": 17.079324645833335,
                "velocity": 0.889763779527559
              },
              {
                "duration": 0.0390624947916649,
                "durationTicks": 13,
                "midi": 53,
                "name": "F3",
                "ticks": 6020,
                "time": 18.088939895833338,
                "velocity": 0.3937007874015748
              },
              {
                "duration": 0.210336510416667,
                "durationTicks": 70,
                "midi": 58,
                "name": "A#3",
                "ticks": 6068,
                "time": 18.233170645833336,
                "velocity": 0.8267716535433071
              },
              {
                "duration": 0.04807691666666969,
                "durationTicks": 16,
                "midi": 60,
                "name": "C4",
                "ticks": 6164,
                "time": 18.521632145833333,
                "velocity": 0.8188976377952756
              },
              {
                "duration": 0.36658648958333373,
                "durationTicks": 122,
                "midi": 60,
                "name": "C4",
                "ticks": 6212,
                "time": 18.665862895833335,
                "velocity": 0.8976377952755905
              },
              {
                "duration": 0.04507210937499906,
                "durationTicks": 15,
                "midi": 57,
                "name": "A3",
                "ticks": 6356,
                "time": 19.098555145833334,
                "velocity": 0.6535433070866141
              },
              {
                "duration": 0.0390624947916649,
                "durationTicks": 13,
                "midi": 57,
                "name": "A3",
                "ticks": 6404,
                "time": 19.242785895833336,
                "velocity": 0.7401574803149606
              },
              {
                "duration": 0.21634612500000117,
                "durationTicks": 72,
                "midi": 57,
                "name": "A3",
                "ticks": 6452,
                "time": 19.387016645833334,
                "velocity": 0.905511811023622
              },
              {
                "duration": 0.06310095312500152,
                "durationTicks": 21,
                "midi": 57,
                "name": "A3",
                "ticks": 6548,
                "time": 19.675478145833335,
                "velocity": 0.7007874015748031
              },
              {
                "duration": 0.060096145833338,
                "durationTicks": 20,
                "midi": 58,
                "name": "A#3",
                "ticks": 6596,
                "time": 19.819708895833333,
                "velocity": 0.7086614173228346
              },
              {
                "duration": 0.07512018229166628,
                "durationTicks": 25,
                "midi": 58,
                "name": "A#3",
                "ticks": 6644,
                "time": 19.963939645833335,
                "velocity": 0.7952755905511811
              },
              {
                "duration": 0.08713941145833815,
                "durationTicks": 29,
                "midi": 58,
                "name": "A#3",
                "ticks": 6692,
                "time": 20.108170395833334,
                "velocity": 0.8740157480314961
              },
              {
                "duration": 0.17427882291666563,
                "durationTicks": 58,
                "midi": 62,
                "name": "D4",
                "ticks": 6836,
                "time": 20.540862645833336,
                "velocity": 0.8818897637795275
              },
              {
                "duration": 0.027043265625000146,
                "durationTicks": 9,
                "midi": 62,
                "name": "D4",
                "ticks": 6932,
                "time": 20.829324145833336,
                "velocity": 0.5433070866141733
              },
              {
                "duration": 0.3275239947916688,
                "durationTicks": 109,
                "midi": 60,
                "name": "C4",
                "ticks": 6980,
                "time": 20.973554895833335,
                "velocity": 0.9212598425196851
              },
              {
                "duration": 0.1382211354166678,
                "durationTicks": 46,
                "midi": 60,
                "name": "C4",
                "ticks": 7124,
                "time": 21.406247145833333,
                "velocity": 0.8267716535433071
              },
              {
                "duration": 0.1862980520833375,
                "durationTicks": 62,
                "midi": 60,
                "name": "C4",
                "ticks": 7220,
                "time": 21.694708645833334,
                "velocity": 0.8582677165354331
              },
              {
                "duration": 0.1712740156250021,
                "durationTicks": 57,
                "midi": 58,
                "name": "A#3",
                "ticks": 7316,
                "time": 21.983170145833334,
                "velocity": 0.7322834645669292
              },
              {
                "duration": 0.27343746354166854,
                "durationTicks": 91,
                "midi": 58,
                "name": "A#3",
                "ticks": 7412,
                "time": 22.271631645833335,
                "velocity": 0.9133858267716536
              },
              {
                "duration": 0.16526440104166795,
                "durationTicks": 55,
                "midi": 62,
                "name": "D4",
                "ticks": 7604,
                "time": 22.848554645833335,
                "velocity": 0.889763779527559
              },
              {
                "duration": 0.02403845833333662,
                "durationTicks": 8,
                "midi": 62,
                "name": "D4",
                "ticks": 7700,
                "time": 23.137016145833336,
                "velocity": 0.5039370078740157
              },
              {
                "duration": 0.13521632812500073,
                "durationTicks": 45,
                "midi": 65,
                "name": "F4",
                "ticks": 7748,
                "time": 23.281246895833334,
                "velocity": 0.9606299212598425
              },
              {
                "duration": 0.17427882291666563,
                "durationTicks": 58,
                "midi": 62,
                "name": "D4",
                "ticks": 7796,
                "time": 23.425477645833336,
                "velocity": 0.7322834645669292
              },
              {
                "duration": 0.02103365104166599,
                "durationTicks": 7,
                "midi": 62,
                "name": "D4",
                "ticks": 7892,
                "time": 23.713939145833336,
                "velocity": 0.5984251968503937
              },
              {
                "duration": 0.0661057604166686,
                "durationTicks": 22,
                "midi": 62,
                "name": "D4",
                "ticks": 7940,
                "time": 23.858169895833335,
                "velocity": 0.905511811023622
              },
              {
                "duration": 0.13521632812499718,
                "durationTicks": 45,
                "midi": 65,
                "name": "F4",
                "ticks": 7988,
                "time": 24.002400645833337,
                "velocity": 0.889763779527559
              },
              {
                "duration": 0.042067302083335534,
                "durationTicks": 14,
                "midi": 62,
                "name": "D4",
                "ticks": 8036,
                "time": 24.146631395833335,
                "velocity": 0.7086614173228346
              },
              {
                "duration": 0.14122594270833844,
                "durationTicks": 47,
                "midi": 62,
                "name": "D4",
                "ticks": 8084,
                "time": 24.290862145833334,
                "velocity": 0.8818897637795275
              },
              {
                "duration": 0.12920671354167013,
                "durationTicks": 43,
                "midi": 62,
                "name": "D4",
                "ticks": 8180,
                "time": 24.579323645833334,
                "velocity": 0.8818897637795275
              },
              {
                "duration": 0.0661057604166686,
                "durationTicks": 22,
                "midi": 60,
                "name": "C4",
                "ticks": 8228,
                "time": 24.723554395833336,
                "velocity": 0.7637795275590551
              },
              {
                "duration": 0.15624997916667027,
                "durationTicks": 52,
                "midi": 58,
                "name": "A#3",
                "ticks": 8276,
                "time": 24.867785145833334,
                "velocity": 0.7165354330708661
              },
              {
                "duration": 0.20132208854166578,
                "durationTicks": 67,
                "midi": 55,
                "name": "G3",
                "ticks": 11444,
                "time": 34.38701464583334,
                "velocity": 0.9133858267716536
              },
              {
                "duration": 0.04507210937499906,
                "durationTicks": 15,
                "midi": 55,
                "name": "G3",
                "ticks": 11540,
                "time": 34.675476145833336,
                "velocity": 0.5669291338582677
              },
              {
                "duration": 0.042067302083339086,
                "durationTicks": 14,
                "midi": 55,
                "name": "G3",
                "ticks": 11588,
                "time": 34.819706895833335,
                "velocity": 0.8110236220472441
              },
              {
                "duration": 0.2614182343750002,
                "durationTicks": 87,
                "midi": 55,
                "name": "G3",
                "ticks": 11636,
                "time": 34.96393764583333,
                "velocity": 0.9448818897637795
              },
              {
                "duration": 0.17728363020833626,
                "durationTicks": 59,
                "midi": 53,
                "name": "F3",
                "ticks": 11732,
                "time": 35.25239914583334,
                "velocity": 0.7874015748031497
              },
              {
                "duration": 0.36358168229167376,
                "durationTicks": 121,
                "midi": 53,
                "name": "F3",
                "ticks": 11828,
                "time": 35.540860645833334,
                "velocity": 0.9448818897637795
              },
              {
                "duration": 0.20132208854167288,
                "durationTicks": 67,
                "midi": 58,
                "name": "A#3",
                "ticks": 12212,
                "time": 36.694706645833335,
                "velocity": 0.9291338582677166
              },
              {
                "duration": 0.04206730208333198,
                "durationTicks": 14,
                "midi": 58,
                "name": "A#3",
                "ticks": 12308,
                "time": 36.98316814583334,
                "velocity": 0.6850393700787402
              },
              {
                "duration": 0.045072109375006164,
                "durationTicks": 15,
                "midi": 60,
                "name": "C4",
                "ticks": 12356,
                "time": 37.12739889583334,
                "velocity": 0.889763779527559
              },
              {
                "duration": 0.3455528385416642,
                "durationTicks": 115,
                "midi": 60,
                "name": "C4",
                "ticks": 12404,
                "time": 37.27162964583334,
                "velocity": 0.905511811023622
              },
              {
                "duration": 0.051081723958333214,
                "durationTicks": 17,
                "midi": 57,
                "name": "A3",
                "ticks": 12548,
                "time": 37.70432189583334,
                "velocity": 0.6377952755905512
              },
              {
                "duration": 0.05408653125000029,
                "durationTicks": 18,
                "midi": 57,
                "name": "A3",
                "ticks": 12596,
                "time": 37.848552645833344,
                "velocity": 0.905511811023622
              },
              {
                "duration": 0.048076916666666136,
                "durationTicks": 16,
                "midi": 57,
                "name": "A3",
                "ticks": 12644,
                "time": 37.99278339583334,
                "velocity": 0.6377952755905512
              },
              {
                "duration": 0.11718748437500182,
                "durationTicks": 39,
                "midi": 57,
                "name": "A3",
                "ticks": 12692,
                "time": 38.13701414583334,
                "velocity": 0.7795275590551181
              },
              {
                "duration": 0.05408653125000029,
                "durationTicks": 18,
                "midi": 58,
                "name": "A#3",
                "ticks": 12740,
                "time": 38.28124489583334,
                "velocity": 0.8346456692913385
              },
              {
                "duration": 0.1983172812500058,
                "durationTicks": 66,
                "midi": 58,
                "name": "A#3",
                "ticks": 12788,
                "time": 38.42547564583334,
                "velocity": 0.937007874015748
              },
              {
                "duration": 0.16826920833332792,
                "durationTicks": 56,
                "midi": 58,
                "name": "A#3",
                "ticks": 12884,
                "time": 38.71393714583334,
                "velocity": 0.889763779527559
              },
              {
                "duration": 0.07211537500000276,
                "durationTicks": 24,
                "midi": 55,
                "name": "G3",
                "ticks": 12980,
                "time": 39.00239864583334,
                "velocity": 0.84251968503937
              },
              {
                "duration": 0.04507210937499906,
                "durationTicks": 15,
                "midi": 55,
                "name": "G3",
                "ticks": 13028,
                "time": 39.146629395833344,
                "velocity": 0.7165354330708661
              },
              {
                "duration": 0.024038458333329515,
                "durationTicks": 8,
                "midi": 55,
                "name": "G3",
                "ticks": 13076,
                "time": 39.29086014583334,
                "velocity": 0.5669291338582677
              },
              {
                "duration": 0.0931490260416652,
                "durationTicks": 31,
                "midi": 58,
                "name": "A#3",
                "ticks": 13124,
                "time": 39.43509089583334,
                "velocity": 0.905511811023622
              },
              {
                "duration": 0.1832932447916633,
                "durationTicks": 61,
                "midi": 55,
                "name": "G3",
                "ticks": 13172,
                "time": 39.57932164583334,
                "velocity": 0.905511811023622
              },
              {
                "duration": 0.5018028177083238,
                "durationTicks": 167,
                "midi": 55,
                "name": "G3",
                "ticks": 13268,
                "time": 39.86778314583334,
                "velocity": 0.84251968503937
              },
              {
                "duration": 0.3335336093749959,
                "durationTicks": 111,
                "midi": 53,
                "name": "F3",
                "ticks": 13460,
                "time": 40.444706145833344,
                "velocity": 0.7480314960629921
              },
              {
                "duration": 0.06310095312500152,
                "durationTicks": 21,
                "midi": 58,
                "name": "A#3",
                "ticks": 13748,
                "time": 41.31009064583334,
                "velocity": 0.8740157480314961
              },
              {
                "duration": 0.0661057604166686,
                "durationTicks": 22,
                "midi": 58,
                "name": "A#3",
                "ticks": 13796,
                "time": 41.45432139583334,
                "velocity": 0.6929133858267716
              },
              {
                "duration": 0.048076916666666136,
                "durationTicks": 16,
                "midi": 60,
                "name": "C4",
                "ticks": 13844,
                "time": 41.59855214583334,
                "velocity": 0.8503937007874016
              },
              {
                "duration": 0.16225959375000087,
                "durationTicks": 54,
                "midi": 60,
                "name": "C4",
                "ticks": 13892,
                "time": 41.742782895833344,
                "velocity": 0.8976377952755905
              },
              {
                "duration": 0.0390624947916649,
                "durationTicks": 13,
                "midi": 60,
                "name": "C4",
                "ticks": 13988,
                "time": 42.03124439583334,
                "velocity": 0.5590551181102362
              },
              {
                "duration": 0.0270432656250037,
                "durationTicks": 9,
                "midi": 57,
                "name": "A3",
                "ticks": 14036,
                "time": 42.17547514583334,
                "velocity": 0.7165354330708661
              },
              {
                "duration": 0.02403845833332241,
                "durationTicks": 8,
                "midi": 57,
                "name": "A3",
                "ticks": 14084,
                "time": 42.319705895833344,
                "velocity": 0.7480314960629921
              },
              {
                "duration": 0.05108172395832611,
                "durationTicks": 17,
                "midi": 57,
                "name": "A3",
                "ticks": 14132,
                "time": 42.46393664583334,
                "velocity": 0.8976377952755905
              },
              {
                "duration": 0.04507210937499906,
                "durationTicks": 15,
                "midi": 57,
                "name": "A3",
                "ticks": 14180,
                "time": 42.60816739583334,
                "velocity": 0.8740157480314961
              },
              {
                "duration": 0.07512018229166273,
                "durationTicks": 25,
                "midi": 57,
                "name": "A3",
                "ticks": 14228,
                "time": 42.75239814583334,
                "velocity": 0.9133858267716536
              },
              {
                "duration": 0.07211537499999565,
                "durationTicks": 24,
                "midi": 58,
                "name": "A#3",
                "ticks": 14276,
                "time": 42.896628895833345,
                "velocity": 0.8110236220472441
              },
              {
                "duration": 0.13521632812499718,
                "durationTicks": 45,
                "midi": 58,
                "name": "A#3",
                "ticks": 14324,
                "time": 43.04085964583334,
                "velocity": 0.6141732283464567
              },
              {
                "duration": 0.027043265624996593,
                "durationTicks": 9,
                "midi": 58,
                "name": "A#3",
                "ticks": 14372,
                "time": 43.18509039583334,
                "velocity": 0.8110236220472441
              },
              {
                "duration": 0.20132208854165867,
                "durationTicks": 67,
                "midi": 62,
                "name": "D4",
                "ticks": 14516,
                "time": 43.617782645833344,
                "velocity": 0.8976377952755905
              },
              {
                "duration": 0.04206730208333198,
                "durationTicks": 14,
                "midi": 62,
                "name": "D4",
                "ticks": 14612,
                "time": 43.90624414583334,
                "velocity": 0.7007874015748031
              },
              {
                "duration": 0.09915864062499935,
                "durationTicks": 33,
                "midi": 62,
                "name": "D4",
                "ticks": 14660,
                "time": 44.05047489583334,
                "velocity": 0.8582677165354331
              },
              {
                "duration": 0.19230766666665744,
                "durationTicks": 64,
                "midi": 60,
                "name": "C4",
                "ticks": 14708,
                "time": 44.194705645833345,
                "velocity": 0.8661417322834646
              },
              {
                "duration": 0.16826920833332792,
                "durationTicks": 56,
                "midi": 58,
                "name": "A#3",
                "ticks": 14804,
                "time": 44.48316714583334,
                "velocity": 0.8188976377952756
              },
              {
                "duration": 0.2884615000000039,
                "durationTicks": 96,
                "midi": 58,
                "name": "A#3",
                "ticks": 14900,
                "time": 44.77162864583334,
                "velocity": 0.8661417322834646
              },
              {
                "duration": 0.0390624947916649,
                "durationTicks": 13,
                "midi": 53,
                "name": "F3",
                "ticks": 15236,
                "time": 45.78124389583334,
                "velocity": 0.3937007874015748
              },
              {
                "duration": 0.21334131770832698,
                "durationTicks": 71,
                "midi": 58,
                "name": "A#3",
                "ticks": 15284,
                "time": 45.92547464583334,
                "velocity": 0.8267716535433071
              },
              {
                "duration": 0.04807691666665903,
                "durationTicks": 16,
                "midi": 60,
                "name": "C4",
                "ticks": 15380,
                "time": 46.213936145833344,
                "velocity": 0.8661417322834646
              },
              {
                "duration": 0.3665864895833266,
                "durationTicks": 122,
                "midi": 60,
                "name": "C4",
                "ticks": 15428,
                "time": 46.35816689583334,
                "velocity": 0.8976377952755905
              },
              {
                "duration": 0.04507210937499906,
                "durationTicks": 15,
                "midi": 57,
                "name": "A3",
                "ticks": 15572,
                "time": 46.790859145833345,
                "velocity": 0.6535433070866141
              },
              {
                "duration": 0.0390624947916649,
                "durationTicks": 13,
                "midi": 57,
                "name": "A3",
                "ticks": 15620,
                "time": 46.93508989583334,
                "velocity": 0.7559055118110236
              },
              {
                "duration": 0.21634612500000117,
                "durationTicks": 72,
                "midi": 57,
                "name": "A3",
                "ticks": 15668,
                "time": 47.07932064583334,
                "velocity": 0.937007874015748
              },
              {
                "duration": 0.06310095312499442,
                "durationTicks": 21,
                "midi": 57,
                "name": "A3",
                "ticks": 15764,
                "time": 47.367782145833345,
                "velocity": 0.7637795275590551
              },
              {
                "duration": 0.057091338541660264,
                "durationTicks": 19,
                "midi": 58,
                "name": "A#3",
                "ticks": 15812,
                "time": 47.512012895833344,
                "velocity": 0.7165354330708661
              },
              {
                "duration": 0.07512018229166273,
                "durationTicks": 25,
                "midi": 58,
                "name": "A#3",
                "ticks": 15860,
                "time": 47.65624364583334,
                "velocity": 0.84251968503937
              },
              {
                "duration": 0.08713941145833104,
                "durationTicks": 29,
                "midi": 58,
                "name": "A#3",
                "ticks": 15908,
                "time": 47.80047439583334,
                "velocity": 0.9133858267716536
              },
              {
                "duration": 0.17427882291666208,
                "durationTicks": 58,
                "midi": 62,
                "name": "D4",
                "ticks": 16052,
                "time": 48.23316664583334,
                "velocity": 0.8740157480314961
              },
              {
                "duration": 0.0270432656250037,
                "durationTicks": 9,
                "midi": 62,
                "name": "D4",
                "ticks": 16148,
                "time": 48.52162814583334,
                "velocity": 0.49606299212598426
              },
              {
                "duration": 0.3275239947916617,
                "durationTicks": 109,
                "midi": 60,
                "name": "C4",
                "ticks": 16196,
                "time": 48.665858895833345,
                "velocity": 0.905511811023622
              },
              {
                "duration": 0.13822113541666425,
                "durationTicks": 46,
                "midi": 60,
                "name": "C4",
                "ticks": 16340,
                "time": 49.09855114583334,
                "velocity": 0.8346456692913385
              },
              {
                "duration": 0.18629805208332328,
                "durationTicks": 62,
                "midi": 60,
                "name": "C4",
                "ticks": 16436,
                "time": 49.387012645833344,
                "velocity": 0.8503937007874016
              },
              {
                "duration": 0.1712740156250021,
                "durationTicks": 57,
                "midi": 58,
                "name": "A#3",
                "ticks": 16532,
                "time": 49.67547414583334,
                "velocity": 0.7244094488188977
              },
              {
                "duration": 0.27343746354166143,
                "durationTicks": 91,
                "midi": 58,
                "name": "A#3",
                "ticks": 16628,
                "time": 49.963935645833345,
                "velocity": 0.8661417322834646
              },
              {
                "duration": 0.16225959374999377,
                "durationTicks": 54,
                "midi": 62,
                "name": "D4",
                "ticks": 16820,
                "time": 50.540858645833346,
                "velocity": 0.9212598425196851
              },
              {
                "duration": 0.024038458333329515,
                "durationTicks": 8,
                "midi": 62,
                "name": "D4",
                "ticks": 16916,
                "time": 50.82932014583334,
                "velocity": 0.5354330708661418
              },
              {
                "duration": 0.13521632812500428,
                "durationTicks": 45,
                "midi": 65,
                "name": "F4",
                "ticks": 16964,
                "time": 50.97355089583334,
                "velocity": 0.952755905511811
              },
              {
                "duration": 0.17427882291666918,
                "durationTicks": 58,
                "midi": 62,
                "name": "D4",
                "ticks": 17012,
                "time": 51.11778164583334,
                "velocity": 0.7401574803149606
              },
              {
                "duration": 0.021033651041662438,
                "durationTicks": 7,
                "midi": 62,
                "name": "D4",
                "ticks": 17108,
                "time": 51.40624314583334,
                "velocity": 0.6377952755905512
              },
              {
                "duration": 0.0661057604166615,
                "durationTicks": 22,
                "midi": 62,
                "name": "D4",
                "ticks": 17156,
                "time": 51.55047389583334,
                "velocity": 0.8976377952755905
              },
              {
                "duration": 0.13521632812500428,
                "durationTicks": 45,
                "midi": 65,
                "name": "F4",
                "ticks": 17204,
                "time": 51.69470464583334,
                "velocity": 0.8503937007874016
              },
              {
                "duration": 0.042067302083324876,
                "durationTicks": 14,
                "midi": 62,
                "name": "D4",
                "ticks": 17252,
                "time": 51.838935395833346,
                "velocity": 0.6614173228346457
              },
              {
                "duration": 0.14122594270832423,
                "durationTicks": 47,
                "midi": 62,
                "name": "D4",
                "ticks": 17300,
                "time": 51.983166145833344,
                "velocity": 0.9133858267716536
              },
              {
                "duration": 0.12920671354166302,
                "durationTicks": 43,
                "midi": 62,
                "name": "D4",
                "ticks": 17396,
                "time": 52.27162764583334,
                "velocity": 0.889763779527559
              },
              {
                "duration": 0.0661057604166686,
                "durationTicks": 22,
                "midi": 60,
                "name": "C4",
                "ticks": 17444,
                "time": 52.41585839583334,
                "velocity": 0.7480314960629921
              },
              {
                "duration": 0.1562499791666596,
                "durationTicks": 52,
                "midi": 58,
                "name": "A#3",
                "ticks": 17492,
                "time": 52.560089145833345,
                "velocity": 0.7165354330708661
              },
              {
                "duration": 0.20132208854165867,
                "durationTicks": 67,
                "midi": 55,
                "name": "G3",
                "ticks": 20660,
                "time": 62.07931864583335,
                "velocity": 0.937007874015748
              },
              {
                "duration": 0.04507210937499906,
                "durationTicks": 15,
                "midi": 55,
                "name": "G3",
                "ticks": 20756,
                "time": 62.36778014583334,
                "velocity": 0.6220472440944882
              },
              {
                "duration": 0.04206730208333198,
                "durationTicks": 14,
                "midi": 55,
                "name": "G3",
                "ticks": 20804,
                "time": 62.51201089583334,
                "velocity": 0.8031496062992126
              },
              {
                "duration": 0.2614182343750002,
                "durationTicks": 87,
                "midi": 55,
                "name": "G3",
                "ticks": 20852,
                "time": 62.65624164583335,
                "velocity": 0.905511811023622
              },
              {
                "duration": 0.17728363020832916,
                "durationTicks": 59,
                "midi": 53,
                "name": "F3",
                "ticks": 20948,
                "time": 62.944703145833344,
                "velocity": 0.8188976377952756
              },
              {
                "duration": 0.36358168229166665,
                "durationTicks": 121,
                "midi": 53,
                "name": "F3",
                "ticks": 21044,
                "time": 63.23316464583334,
                "velocity": 0.889763779527559
              },
              {
                "duration": 0.20132208854167288,
                "durationTicks": 67,
                "midi": 58,
                "name": "A#3",
                "ticks": 21428,
                "time": 64.38701064583334,
                "velocity": 0.9212598425196851
              },
              {
                "duration": 0.042067302083339086,
                "durationTicks": 14,
                "midi": 58,
                "name": "A#3",
                "ticks": 21524,
                "time": 64.67547214583334,
                "velocity": 0.6535433070866141
              },
              {
                "duration": 0.04507210937499906,
                "durationTicks": 15,
                "midi": 60,
                "name": "C4",
                "ticks": 21572,
                "time": 64.81970289583334,
                "velocity": 0.9448818897637795
              },
              {
                "duration": 0.3455528385416642,
                "durationTicks": 115,
                "midi": 60,
                "name": "C4",
                "ticks": 21620,
                "time": 64.96393364583335,
                "velocity": 0.9448818897637795
              },
              {
                "duration": 0.051081723958333214,
                "durationTicks": 17,
                "midi": 57,
                "name": "A3",
                "ticks": 21764,
                "time": 65.39662589583334,
                "velocity": 0.6456692913385826
              },
              {
                "duration": 0.0540865312500074,
                "durationTicks": 18,
                "midi": 57,
                "name": "A3",
                "ticks": 21812,
                "time": 65.54085664583334,
                "velocity": 0.889763779527559
              },
              {
                "duration": 0.04807691666665903,
                "durationTicks": 16,
                "midi": 57,
                "name": "A3",
                "ticks": 21860,
                "time": 65.68508739583335,
                "velocity": 0.5905511811023622
              },
              {
                "duration": 0.11718748437500892,
                "durationTicks": 39,
                "midi": 57,
                "name": "A3",
                "ticks": 21908,
                "time": 65.82931814583334,
                "velocity": 0.7716535433070866
              },
              {
                "duration": 0.054086531249993186,
                "durationTicks": 18,
                "midi": 58,
                "name": "A#3",
                "ticks": 21956,
                "time": 65.97354889583335,
                "velocity": 0.7795275590551181
              },
              {
                "duration": 0.19531247395833873,
                "durationTicks": 65,
                "midi": 58,
                "name": "A#3",
                "ticks": 22004,
                "time": 66.11777964583334,
                "velocity": 0.9212598425196851
              },
              {
                "duration": 0.16826920833332792,
                "durationTicks": 56,
                "midi": 58,
                "name": "A#3",
                "ticks": 22100,
                "time": 66.40624114583335,
                "velocity": 0.8582677165354331
              },
              {
                "duration": 0.07512018229166983,
                "durationTicks": 25,
                "midi": 55,
                "name": "G3",
                "ticks": 22196,
                "time": 66.69470264583335,
                "velocity": 0.8582677165354331
              },
              {
                "duration": 0.04507210937499906,
                "durationTicks": 15,
                "midi": 55,
                "name": "G3",
                "ticks": 22244,
                "time": 66.83893339583335,
                "velocity": 0.7165354330708661
              },
              {
                "duration": 0.02403845833333662,
                "durationTicks": 8,
                "midi": 55,
                "name": "G3",
                "ticks": 22292,
                "time": 66.98316414583334,
                "velocity": 0.5039370078740157
              },
              {
                "duration": 0.09314902604165809,
                "durationTicks": 31,
                "midi": 58,
                "name": "A#3",
                "ticks": 22340,
                "time": 67.12739489583335,
                "velocity": 0.8661417322834646
              },
              {
                "duration": 0.18329324479167042,
                "durationTicks": 61,
                "midi": 55,
                "name": "G3",
                "ticks": 22388,
                "time": 67.27162564583334,
                "velocity": 0.8976377952755905
              },
              {
                "duration": 0.5018028177083238,
                "durationTicks": 167,
                "midi": 55,
                "name": "G3",
                "ticks": 22484,
                "time": 67.56008714583335,
                "velocity": 0.8503937007874016
              },
              {
                "duration": 0.3335336093749959,
                "durationTicks": 111,
                "midi": 53,
                "name": "F3",
                "ticks": 22676,
                "time": 68.13701014583334,
                "velocity": 0.7244094488188977
              },
              {
                "duration": 0.06310095312500152,
                "durationTicks": 21,
                "midi": 58,
                "name": "A#3",
                "ticks": 22964,
                "time": 69.00239464583335,
                "velocity": 0.8818897637795275
              },
              {
                "duration": 0.06610576041667571,
                "durationTicks": 22,
                "midi": 58,
                "name": "A#3",
                "ticks": 23012,
                "time": 69.14662539583334,
                "velocity": 0.6771653543307087
              },
              {
                "duration": 0.04807691666665903,
                "durationTicks": 16,
                "midi": 60,
                "name": "C4",
                "ticks": 23060,
                "time": 69.29085614583335,
                "velocity": 0.8267716535433071
              },
              {
                "duration": 0.16225959374999377,
                "durationTicks": 54,
                "midi": 60,
                "name": "C4",
                "ticks": 23108,
                "time": 69.43508689583335,
                "velocity": 0.889763779527559
              },
              {
                "duration": 0.0390624947916649,
                "durationTicks": 13,
                "midi": 60,
                "name": "C4",
                "ticks": 23204,
                "time": 69.72354839583335,
                "velocity": 0.6062992125984252
              },
              {
                "duration": 0.027043265625010804,
                "durationTicks": 9,
                "midi": 57,
                "name": "A3",
                "ticks": 23252,
                "time": 69.86777914583334,
                "velocity": 0.6614173228346457
              },
              {
                "duration": 0.02403845833332241,
                "durationTicks": 8,
                "midi": 57,
                "name": "A3",
                "ticks": 23300,
                "time": 70.01200989583334,
                "velocity": 0.7559055118110236
              },
              {
                "duration": 0.051081723958319,
                "durationTicks": 17,
                "midi": 57,
                "name": "A3",
                "ticks": 23348,
                "time": 70.15624064583335,
                "velocity": 0.9133858267716536
              },
              {
                "duration": 0.04507210937499906,
                "durationTicks": 15,
                "midi": 57,
                "name": "A3",
                "ticks": 23396,
                "time": 70.30047139583334,
                "velocity": 0.8740157480314961
              },
              {
                "duration": 0.07512018229165562,
                "durationTicks": 25,
                "midi": 57,
                "name": "A3",
                "ticks": 23444,
                "time": 70.44470214583335,
                "velocity": 0.9291338582677166
              },
              {
                "duration": 0.07211537499999565,
                "durationTicks": 24,
                "midi": 58,
                "name": "A#3",
                "ticks": 23492,
                "time": 70.58893289583335,
                "velocity": 0.7480314960629921
              },
              {
                "duration": 0.13521632812499718,
                "durationTicks": 45,
                "midi": 58,
                "name": "A#3",
                "ticks": 23540,
                "time": 70.73316364583334,
                "velocity": 0.6614173228346457
              },
              {
                "duration": 0.027043265624996593,
                "durationTicks": 9,
                "midi": 58,
                "name": "A#3",
                "ticks": 23588,
                "time": 70.87739439583335,
                "velocity": 0.7874015748031497
              },
              {
                "duration": 0.20132208854165867,
                "durationTicks": 67,
                "midi": 62,
                "name": "D4",
                "ticks": 23732,
                "time": 71.31008664583335,
                "velocity": 0.905511811023622
              },
              {
                "duration": 0.042067302083324876,
                "durationTicks": 14,
                "midi": 62,
                "name": "D4",
                "ticks": 23828,
                "time": 71.59854814583335,
                "velocity": 0.7322834645669292
              },
              {
                "duration": 0.09915864062500646,
                "durationTicks": 33,
                "midi": 62,
                "name": "D4",
                "ticks": 23876,
                "time": 71.74277889583334,
                "velocity": 0.889763779527559
              },
              {
                "duration": 0.19230766666666455,
                "durationTicks": 64,
                "midi": 60,
                "name": "C4",
                "ticks": 23924,
                "time": 71.88700964583334,
                "velocity": 0.9133858267716536
              },
              {
                "duration": 0.16826920833332792,
                "durationTicks": 56,
                "midi": 58,
                "name": "A#3",
                "ticks": 24020,
                "time": 72.17547114583334,
                "velocity": 0.7874015748031497
              },
              {
                "duration": 0.28846150000001103,
                "durationTicks": 96,
                "midi": 58,
                "name": "A#3",
                "ticks": 24116,
                "time": 72.46393264583334,
                "velocity": 0.905511811023622
              },
              {
                "duration": 0.0390624947916649,
                "durationTicks": 13,
                "midi": 53,
                "name": "F3",
                "ticks": 24452,
                "time": 73.47354789583335,
                "velocity": 0.4330708661417323
              },
              {
                "duration": 0.210336510416667,
                "durationTicks": 70,
                "midi": 58,
                "name": "A#3",
                "ticks": 24500,
                "time": 73.61777864583334,
                "velocity": 0.8110236220472441
              },
              {
                "duration": 0.04807691666667324,
                "durationTicks": 16,
                "midi": 60,
                "name": "C4",
                "ticks": 24596,
                "time": 73.90624014583334,
                "velocity": 0.8188976377952756
              },
              {
                "duration": 0.36658648958334084,
                "durationTicks": 122,
                "midi": 60,
                "name": "C4",
                "ticks": 24644,
                "time": 74.05047089583334,
                "velocity": 0.8976377952755905
              },
              {
                "duration": 0.04507210937501327,
                "durationTicks": 15,
                "midi": 57,
                "name": "A3",
                "ticks": 24788,
                "time": 74.48316314583333,
                "velocity": 0.5984251968503937
              },
              {
                "duration": 0.039062494791679114,
                "durationTicks": 13,
                "midi": 57,
                "name": "A3",
                "ticks": 24836,
                "time": 74.62739389583334,
                "velocity": 0.7244094488188977
              },
              {
                "duration": 0.21634612500000117,
                "durationTicks": 72,
                "midi": 57,
                "name": "A3",
                "ticks": 24884,
                "time": 74.77162464583334,
                "velocity": 0.937007874015748
              },
              {
                "duration": 0.06310095312500152,
                "durationTicks": 21,
                "midi": 57,
                "name": "A3",
                "ticks": 24980,
                "time": 75.06008614583334,
                "velocity": 0.7401574803149606
              },
              {
                "duration": 0.05709133854166737,
                "durationTicks": 19,
                "midi": 58,
                "name": "A#3",
                "ticks": 25028,
                "time": 75.20431689583334,
                "velocity": 0.6771653543307087
              },
              {
                "duration": 0.07512018229166983,
                "durationTicks": 25,
                "midi": 58,
                "name": "A#3",
                "ticks": 25076,
                "time": 75.34854764583334,
                "velocity": 0.84251968503937
              },
              {
                "duration": 0.08713941145833815,
                "durationTicks": 29,
                "midi": 58,
                "name": "A#3",
                "ticks": 25124,
                "time": 75.49277839583334,
                "velocity": 0.9133858267716536
              },
              {
                "duration": 0.17427882291666208,
                "durationTicks": 58,
                "midi": 62,
                "name": "D4",
                "ticks": 25268,
                "time": 75.92547064583334,
                "velocity": 0.8582677165354331
              },
              {
                "duration": 0.027043265624996593,
                "durationTicks": 9,
                "midi": 62,
                "name": "D4",
                "ticks": 25364,
                "time": 76.21393214583334,
                "velocity": 0.5590551181102362
              },
              {
                "duration": 0.32752399479167593,
                "durationTicks": 109,
                "midi": 60,
                "name": "C4",
                "ticks": 25412,
                "time": 76.35816289583333,
                "velocity": 0.9212598425196851
              },
              {
                "duration": 0.13822113541667136,
                "durationTicks": 46,
                "midi": 60,
                "name": "C4",
                "ticks": 25556,
                "time": 76.79085514583333,
                "velocity": 0.8503937007874016
              },
              {
                "duration": 0.1862980520833446,
                "durationTicks": 62,
                "midi": 60,
                "name": "C4",
                "ticks": 25652,
                "time": 77.07931664583334,
                "velocity": 0.889763779527559
              },
              {
                "duration": 0.1712740156250021,
                "durationTicks": 57,
                "midi": 58,
                "name": "A#3",
                "ticks": 25748,
                "time": 77.36777814583334,
                "velocity": 0.7007874015748031
              },
              {
                "duration": 0.27343746354166854,
                "durationTicks": 91,
                "midi": 58,
                "name": "A#3",
                "ticks": 25844,
                "time": 77.65623964583334,
                "velocity": 0.8818897637795275
              },
              {
                "duration": 0.16225959375000798,
                "durationTicks": 54,
                "midi": 62,
                "name": "D4",
                "ticks": 26036,
                "time": 78.23316264583333,
                "velocity": 0.9212598425196851
              },
              {
                "duration": 0.02403845833333662,
                "durationTicks": 8,
                "midi": 62,
                "name": "D4",
                "ticks": 26132,
                "time": 78.52162414583334,
                "velocity": 0.5275590551181102
              },
              {
                "duration": 0.13521632812499718,
                "durationTicks": 45,
                "midi": 65,
                "name": "F4",
                "ticks": 26180,
                "time": 78.66585489583333,
                "velocity": 0.9448818897637795
              },
              {
                "duration": 0.1742788229166763,
                "durationTicks": 58,
                "midi": 62,
                "name": "D4",
                "ticks": 26228,
                "time": 78.81008564583334,
                "velocity": 0.7637795275590551
              },
              {
                "duration": 0.02103365104167665,
                "durationTicks": 7,
                "midi": 62,
                "name": "D4",
                "ticks": 26324,
                "time": 79.09854714583334,
                "velocity": 0.6614173228346457
              },
              {
                "duration": 0.0661057604166615,
                "durationTicks": 22,
                "midi": 62,
                "name": "D4",
                "ticks": 26372,
                "time": 79.24277789583334,
                "velocity": 0.905511811023622
              },
              {
                "duration": 0.1352163281250114,
                "durationTicks": 45,
                "midi": 65,
                "name": "F4",
                "ticks": 26420,
                "time": 79.38700864583333,
                "velocity": 0.8661417322834646
              },
              {
                "duration": 0.042067302083339086,
                "durationTicks": 14,
                "midi": 62,
                "name": "D4",
                "ticks": 26468,
                "time": 79.53123939583334,
                "velocity": 0.7007874015748031
              },
              {
                "duration": 0.14122594270833133,
                "durationTicks": 47,
                "midi": 62,
                "name": "D4",
                "ticks": 26516,
                "time": 79.67547014583334,
                "velocity": 0.952755905511811
              },
              {
                "duration": 0.12920671354166302,
                "durationTicks": 43,
                "midi": 62,
                "name": "D4",
                "ticks": 26612,
                "time": 79.96393164583334,
                "velocity": 0.8346456692913385
              },
              {
                "duration": 0.06610576041667571,
                "durationTicks": 22,
                "midi": 60,
                "name": "C4",
                "ticks": 26660,
                "time": 80.10816239583333,
                "velocity": 0.7322834645669292
              },
              {
                "duration": 0.15624997916667382,
                "durationTicks": 52,
                "midi": 58,
                "name": "A#3",
                "ticks": 26708,
                "time": 80.25239314583334,
                "velocity": 0.7086614173228346
              }
        
        ]
      

}


let chapman_fast_R_notes = {
    
            "notes": [
              {
                "duration": 0.7812498958333336,
                "durationTicks": 260,
                "midi": 51,
                "name": "D#3",
                "ticks": 690,
                "time": 2.07331703125,
                "velocity": 0.7401574803149606
              },
              {
                "duration": 0.7812498958333336,
                "durationTicks": 260,
                "midi": 58,
                "name": "A#3",
                "ticks": 690,
                "time": 2.07331703125,
                "velocity": 1
              },
              {
                "duration": 0.5649037708333333,
                "durationTicks": 188,
                "midi": 50,
                "name": "D3",
                "ticks": 978,
                "time": 2.9387015312500004,
                "velocity": 0.7480314960629921
              },
              {
                "duration": 0.7812498958333336,
                "durationTicks": 260,
                "midi": 58,
                "name": "A#3",
                "ticks": 978,
                "time": 2.9387015312500004,
                "velocity": 1
              },
              {
                "duration": 0.7812498958333336,
                "durationTicks": 260,
                "midi": 50,
                "name": "D3",
                "ticks": 1170,
                "time": 3.5156245312500003,
                "velocity": 0.7244094488188977
              },
              {
                "duration": 0.4927883958333332,
                "durationTicks": 164,
                "midi": 58,
                "name": "A#3",
                "ticks": 1266,
                "time": 3.8040860312500007,
                "velocity": 1
              },
              {
                "duration": 0.7812498958333327,
                "durationTicks": 260,
                "midi": 55,
                "name": "G3",
                "ticks": 1458,
                "time": 4.3810090312500005,
                "velocity": 0.7716535433070866
              },
              {
                "duration": 0.7812498958333327,
                "durationTicks": 260,
                "midi": 58,
                "name": "A#3",
                "ticks": 1458,
                "time": 4.3810090312500005,
                "velocity": 0.9606299212598425
              },
              {
                "duration": 0.5649037708333333,
                "durationTicks": 188,
                "midi": 53,
                "name": "F3",
                "ticks": 1746,
                "time": 5.246393531250001,
                "velocity": 0.7716535433070866
              },
              {
                "duration": 0.7812498958333327,
                "durationTicks": 260,
                "midi": 58,
                "name": "A#3",
                "ticks": 1746,
                "time": 5.246393531250001,
                "velocity": 1
              },
              {
                "duration": 0.7812498958333336,
                "durationTicks": 260,
                "midi": 53,
                "name": "F3",
                "ticks": 1938,
                "time": 5.823316531250001,
                "velocity": 0.7480314960629921
              },
              {
                "duration": 0.4927883958333332,
                "durationTicks": 164,
                "midi": 58,
                "name": "A#3",
                "ticks": 2034,
                "time": 6.111778031250001,
                "velocity": 1
              },
              {
                "duration": 0.7812498958333327,
                "durationTicks": 260,
                "midi": 51,
                "name": "D#3",
                "ticks": 2226,
                "time": 6.688701031250001,
                "velocity": 0.7401574803149606
              },
              {
                "duration": 0.7812498958333327,
                "durationTicks": 260,
                "midi": 58,
                "name": "A#3",
                "ticks": 2226,
                "time": 6.688701031250001,
                "velocity": 0.968503937007874
              },
              {
                "duration": 0.5649037708333324,
                "durationTicks": 188,
                "midi": 50,
                "name": "D3",
                "ticks": 2514,
                "time": 7.554085531250001,
                "velocity": 0.7322834645669292
              },
              {
                "duration": 0.7812498958333336,
                "durationTicks": 260,
                "midi": 58,
                "name": "A#3",
                "ticks": 2514,
                "time": 7.554085531250001,
                "velocity": 0.9921259842519685
              },
              {
                "duration": 0.7812498958333318,
                "durationTicks": 260,
                "midi": 50,
                "name": "D3",
                "ticks": 2706,
                "time": 8.131008531250002,
                "velocity": 0.7480314960629921
              },
              {
                "duration": 0.4927883958333332,
                "durationTicks": 164,
                "midi": 58,
                "name": "A#3",
                "ticks": 2802,
                "time": 8.41947003125,
                "velocity": 0.984251968503937
              },
              {
                "duration": 0.7812498958333336,
                "durationTicks": 260,
                "midi": 55,
                "name": "G3",
                "ticks": 2994,
                "time": 8.996393031250001,
                "velocity": 0.7401574803149606
              },
              {
                "duration": 0.7812498958333336,
                "durationTicks": 260,
                "midi": 58,
                "name": "A#3",
                "ticks": 2994,
                "time": 8.996393031250001,
                "velocity": 1
              },
              {
                "duration": 0.5649037708333342,
                "durationTicks": 188,
                "midi": 53,
                "name": "F3",
                "ticks": 3282,
                "time": 9.86177753125,
                "velocity": 0.7716535433070866
              },
              {
                "duration": 0.7812498958333354,
                "durationTicks": 260,
                "midi": 58,
                "name": "A#3",
                "ticks": 3282,
                "time": 9.86177753125,
                "velocity": 1
              },
              {
                "duration": 0.7812498958333336,
                "durationTicks": 260,
                "midi": 53,
                "name": "F3",
                "ticks": 3474,
                "time": 10.438700531250001,
                "velocity": 0.7401574803149606
              },
              {
                "duration": 0.4927883958333332,
                "durationTicks": 164,
                "midi": 58,
                "name": "A#3",
                "ticks": 3570,
                "time": 10.727162031250002,
                "velocity": 0.968503937007874
              },
              {
                "duration": 0.7812498958333336,
                "durationTicks": 260,
                "midi": 51,
                "name": "D#3",
                "ticks": 3762,
                "time": 11.304085031250002,
                "velocity": 0.7874015748031497
              },
              {
                "duration": 0.7812498958333336,
                "durationTicks": 260,
                "midi": 58,
                "name": "A#3",
                "ticks": 3762,
                "time": 11.304085031250002,
                "velocity": 1
              },
              {
                "duration": 0.5649037708333342,
                "durationTicks": 188,
                "midi": 50,
                "name": "D3",
                "ticks": 4050,
                "time": 12.169469531250002,
                "velocity": 0.7165354330708661
              },
              {
                "duration": 0.7812498958333336,
                "durationTicks": 260,
                "midi": 58,
                "name": "A#3",
                "ticks": 4050,
                "time": 12.169469531250002,
                "velocity": 1
              },
              {
                "duration": 0.7812498958333336,
                "durationTicks": 260,
                "midi": 50,
                "name": "D3",
                "ticks": 4242,
                "time": 12.746392531250002,
                "velocity": 0.7244094488188977
              },
              {
                "duration": 0.492788395833335,
                "durationTicks": 164,
                "midi": 58,
                "name": "A#3",
                "ticks": 4338,
                "time": 13.034854031250001,
                "velocity": 0.984251968503937
              },
              {
                "duration": 0.7812498958333336,
                "durationTicks": 260,
                "midi": 55,
                "name": "G3",
                "ticks": 4530,
                "time": 13.611777031250002,
                "velocity": 0.7244094488188977
              },
              {
                "duration": 0.7812498958333336,
                "durationTicks": 260,
                "midi": 58,
                "name": "A#3",
                "ticks": 4530,
                "time": 13.611777031250002,
                "velocity": 1
              },
              {
                "duration": 0.5649037708333342,
                "durationTicks": 188,
                "midi": 53,
                "name": "F3",
                "ticks": 4818,
                "time": 14.477161531250001,
                "velocity": 0.7716535433070866
              },
              {
                "duration": 0.7812498958333354,
                "durationTicks": 260,
                "midi": 58,
                "name": "A#3",
                "ticks": 4818,
                "time": 14.477161531250001,
                "velocity": 1
              },
              {
                "duration": 0.7812498958333336,
                "durationTicks": 260,
                "midi": 53,
                "name": "F3",
                "ticks": 5010,
                "time": 15.054084531250002,
                "velocity": 0.7874015748031497
              },
              {
                "duration": 0.4927883958333332,
                "durationTicks": 164,
                "midi": 58,
                "name": "A#3",
                "ticks": 5106,
                "time": 15.342546031250002,
                "velocity": 0.968503937007874
              },
              {
                "duration": 0.7812498958333336,
                "durationTicks": 260,
                "midi": 51,
                "name": "D#3",
                "ticks": 5298,
                "time": 15.919469031250003,
                "velocity": 0.7086614173228346
              },
              {
                "duration": 0.7812498958333336,
                "durationTicks": 260,
                "midi": 58,
                "name": "A#3",
                "ticks": 5298,
                "time": 15.919469031250003,
                "velocity": 1
              },
              {
                "duration": 0.564903770833336,
                "durationTicks": 188,
                "midi": 50,
                "name": "D3",
                "ticks": 5586,
                "time": 16.78485353125,
                "velocity": 0.7637795275590551
              },
              {
                "duration": 0.7812498958333371,
                "durationTicks": 260,
                "midi": 58,
                "name": "A#3",
                "ticks": 5586,
                "time": 16.78485353125,
                "velocity": 1
              },
              {
                "duration": 0.7812498958333336,
                "durationTicks": 260,
                "midi": 50,
                "name": "D3",
                "ticks": 5778,
                "time": 17.36177653125,
                "velocity": 0.7637795275590551
              },
              {
                "duration": 0.4927883958333332,
                "durationTicks": 164,
                "midi": 58,
                "name": "A#3",
                "ticks": 5874,
                "time": 17.65023803125,
                "velocity": 0.9606299212598425
              },
              {
                "duration": 0.7812498958333336,
                "durationTicks": 260,
                "midi": 55,
                "name": "G3",
                "ticks": 6066,
                "time": 18.227161031250002,
                "velocity": 0.7322834645669292
              },
              {
                "duration": 0.7812498958333336,
                "durationTicks": 260,
                "midi": 58,
                "name": "A#3",
                "ticks": 6066,
                "time": 18.227161031250002,
                "velocity": 1
              },
              {
                "duration": 0.5649037708333324,
                "durationTicks": 188,
                "midi": 53,
                "name": "F3",
                "ticks": 6354,
                "time": 19.092545531250003,
                "velocity": 0.7244094488188977
              },
              {
                "duration": 0.7842547031250007,
                "durationTicks": 261,
                "midi": 58,
                "name": "A#3",
                "ticks": 6354,
                "time": 19.092545531250003,
                "velocity": 0.9606299212598425
              },
              {
                "duration": 0.78124989583333,
                "durationTicks": 260,
                "midi": 53,
                "name": "F3",
                "ticks": 6546,
                "time": 19.669468531250004,
                "velocity": 0.7244094488188977
              },
              {
                "duration": 0.4927883958333332,
                "durationTicks": 164,
                "midi": 58,
                "name": "A#3",
                "ticks": 6642,
                "time": 19.95793003125,
                "velocity": 0.9763779527559056
              },
              {
                "duration": 0.7812498958333336,
                "durationTicks": 260,
                "midi": 51,
                "name": "D#3",
                "ticks": 6834,
                "time": 20.53485303125,
                "velocity": 0.7795275590551181
              },
              {
                "duration": 0.7812498958333336,
                "durationTicks": 260,
                "midi": 58,
                "name": "A#3",
                "ticks": 6834,
                "time": 20.53485303125,
                "velocity": 0.968503937007874
              },
              {
                "duration": 0.5649037708333324,
                "durationTicks": 188,
                "midi": 50,
                "name": "D3",
                "ticks": 7122,
                "time": 21.400237531250003,
                "velocity": 0.7244094488188977
              },
              {
                "duration": 0.7812498958333336,
                "durationTicks": 260,
                "midi": 58,
                "name": "A#3",
                "ticks": 7122,
                "time": 21.400237531250003,
                "velocity": 1
              },
              {
                "duration": 0.78124989583333,
                "durationTicks": 260,
                "midi": 50,
                "name": "D3",
                "ticks": 7314,
                "time": 21.977160531250004,
                "velocity": 0.7716535433070866
              },
              {
                "duration": 0.4927883958333297,
                "durationTicks": 164,
                "midi": 58,
                "name": "A#3",
                "ticks": 7410,
                "time": 22.265622031250004,
                "velocity": 1
              },
              {
                "duration": 0.7842547031249971,
                "durationTicks": 261,
                "midi": 55,
                "name": "G3",
                "ticks": 7602,
                "time": 22.842545031250005,
                "velocity": 0.7322834645669292
              },
              {
                "duration": 0.7842547031249971,
                "durationTicks": 261,
                "midi": 58,
                "name": "A#3",
                "ticks": 7602,
                "time": 22.842545031250005,
                "velocity": 0.984251968503937
              },
              {
                "duration": 0.5649037708333324,
                "durationTicks": 188,
                "midi": 53,
                "name": "F3",
                "ticks": 7890,
                "time": 23.707929531250002,
                "velocity": 0.7637795275590551
              },
              {
                "duration": 0.7812498958333336,
                "durationTicks": 260,
                "midi": 58,
                "name": "A#3",
                "ticks": 7890,
                "time": 23.707929531250002,
                "velocity": 1
              },
              {
                "duration": 0.7812498958333336,
                "durationTicks": 260,
                "midi": 53,
                "name": "F3",
                "ticks": 8082,
                "time": 24.284852531250003,
                "velocity": 0.7244094488188977
              },
              {
                "duration": 0.4927883958333332,
                "durationTicks": 164,
                "midi": 58,
                "name": "A#3",
                "ticks": 8178,
                "time": 24.573314031250003,
                "velocity": 0.9606299212598425
              },
              {
                "duration": 0.78124989583333,
                "durationTicks": 260,
                "midi": 51,
                "name": "D#3",
                "ticks": 8370,
                "time": 25.150237031250004,
                "velocity": 0.7322834645669292
              },
              {
                "duration": 0.78124989583333,
                "durationTicks": 260,
                "midi": 58,
                "name": "A#3",
                "ticks": 8370,
                "time": 25.150237031250004,
                "velocity": 0.9606299212598425
              },
              {
                "duration": 0.5649037708333324,
                "durationTicks": 188,
                "midi": 50,
                "name": "D3",
                "ticks": 8658,
                "time": 26.01562153125,
                "velocity": 0.7401574803149606
              },
              {
                "duration": 0.7812498958333336,
                "durationTicks": 260,
                "midi": 58,
                "name": "A#3",
                "ticks": 8658,
                "time": 26.01562153125,
                "velocity": 0.984251968503937
              },
              {
                "duration": 0.7842547031250007,
                "durationTicks": 261,
                "midi": 50,
                "name": "D3",
                "ticks": 8850,
                "time": 26.592544531250002,
                "velocity": 0.7795275590551181
              },
              {
                "duration": 0.4957932031250003,
                "durationTicks": 165,
                "midi": 58,
                "name": "A#3",
                "ticks": 8946,
                "time": 26.881006031250003,
                "velocity": 0.9921259842519685
              },
              {
                "duration": 0.7812498958333336,
                "durationTicks": 260,
                "midi": 55,
                "name": "G3",
                "ticks": 9138,
                "time": 27.457929031250004,
                "velocity": 0.7480314960629921
              },
              {
                "duration": 0.7812498958333336,
                "durationTicks": 260,
                "midi": 58,
                "name": "A#3",
                "ticks": 9138,
                "time": 27.457929031250004,
                "velocity": 1
              },
              {
                "duration": 0.5649037708333324,
                "durationTicks": 188,
                "midi": 53,
                "name": "F3",
                "ticks": 9426,
                "time": 28.323313531250005,
                "velocity": 0.7637795275590551
              },
              {
                "duration": 0.78124989583333,
                "durationTicks": 260,
                "midi": 58,
                "name": "A#3",
                "ticks": 9426,
                "time": 28.323313531250005,
                "velocity": 0.9763779527559056
              },
              {
                "duration": 0.78124989583333,
                "durationTicks": 260,
                "midi": 53,
                "name": "F3",
                "ticks": 9618,
                "time": 28.900236531250005,
                "velocity": 0.7401574803149606
              },
              {
                "duration": 0.4927883958333332,
                "durationTicks": 164,
                "midi": 58,
                "name": "A#3",
                "ticks": 9714,
                "time": 29.188698031250002,
                "velocity": 0.9606299212598425
              },
              {
                "duration": 0.7812498958333336,
                "durationTicks": 260,
                "midi": 51,
                "name": "D#3",
                "ticks": 9906,
                "time": 29.765621031250003,
                "velocity": 0.7716535433070866
              },
              {
                "duration": 0.7812498958333336,
                "durationTicks": 260,
                "midi": 58,
                "name": "A#3",
                "ticks": 9906,
                "time": 29.765621031250003,
                "velocity": 1
              },
              {
                "duration": 0.5649037708333324,
                "durationTicks": 188,
                "midi": 50,
                "name": "D3",
                "ticks": 10194,
                "time": 30.631005531250004,
                "velocity": 0.7795275590551181
              },
              {
                "duration": 0.7812498958333336,
                "durationTicks": 260,
                "midi": 58,
                "name": "A#3",
                "ticks": 10194,
                "time": 30.631005531250004,
                "velocity": 1
              },
              {
                "duration": 0.78124989583333,
                "durationTicks": 260,
                "midi": 50,
                "name": "D3",
                "ticks": 10386,
                "time": 31.207928531250005,
                "velocity": 0.7480314960629921
              },
              {
                "duration": 0.4927883958333297,
                "durationTicks": 164,
                "midi": 58,
                "name": "A#3",
                "ticks": 10482,
                "time": 31.496390031250005,
                "velocity": 0.968503937007874
              },
              {
                "duration": 0.7812498958333336,
                "durationTicks": 260,
                "midi": 55,
                "name": "G3",
                "ticks": 10674,
                "time": 32.07331303125,
                "velocity": 0.7244094488188977
              },
              {
                "duration": 0.7812498958333336,
                "durationTicks": 260,
                "midi": 58,
                "name": "A#3",
                "ticks": 10674,
                "time": 32.07331303125,
                "velocity": 1
              },
              {
                "duration": 0.5649037708333324,
                "durationTicks": 188,
                "midi": 53,
                "name": "F3",
                "ticks": 10962,
                "time": 32.93869753125001,
                "velocity": 0.7795275590551181
              },
              {
                "duration": 0.7812498958333265,
                "durationTicks": 260,
                "midi": 58,
                "name": "A#3",
                "ticks": 10962,
                "time": 32.93869753125001,
                "velocity": 1
              },
              {
                "duration": 0.7812498958333265,
                "durationTicks": 260,
                "midi": 53,
                "name": "F3",
                "ticks": 11154,
                "time": 33.51562053125001,
                "velocity": 0.7795275590551181
              },
              {
                "duration": 0.4927883958333297,
                "durationTicks": 164,
                "midi": 58,
                "name": "A#3",
                "ticks": 11250,
                "time": 33.804082031250005,
                "velocity": 0.9921259842519685
              },
              {
                "duration": 0.7812498958333336,
                "durationTicks": 260,
                "midi": 51,
                "name": "D#3",
                "ticks": 11442,
                "time": 34.381005031250005,
                "velocity": 0.7086614173228346
              },
              {
                "duration": 0.7812498958333336,
                "durationTicks": 260,
                "midi": 58,
                "name": "A#3",
                "ticks": 11442,
                "time": 34.381005031250005,
                "velocity": 1
              },
              {
                "duration": 0.5649037708333324,
                "durationTicks": 188,
                "midi": 50,
                "name": "D3",
                "ticks": 11730,
                "time": 35.24638953125,
                "velocity": 0.7086614173228346
              },
              {
                "duration": 0.7812498958333336,
                "durationTicks": 260,
                "midi": 58,
                "name": "A#3",
                "ticks": 11730,
                "time": 35.24638953125,
                "velocity": 1
              },
              {
                "duration": 0.7812498958333336,
                "durationTicks": 260,
                "midi": 50,
                "name": "D3",
                "ticks": 11922,
                "time": 35.823312531250004,
                "velocity": 0.7952755905511811
              },
              {
                "duration": 0.4927883958333297,
                "durationTicks": 164,
                "midi": 58,
                "name": "A#3",
                "ticks": 12018,
                "time": 36.11177403125001,
                "velocity": 1
              },
              {
                "duration": 0.7812498958333336,
                "durationTicks": 260,
                "midi": 55,
                "name": "G3",
                "ticks": 12210,
                "time": 36.68869703125001,
                "velocity": 0.7952755905511811
              },
              {
                "duration": 0.7812498958333336,
                "durationTicks": 260,
                "midi": 58,
                "name": "A#3",
                "ticks": 12210,
                "time": 36.68869703125001,
                "velocity": 0.9921259842519685
              },
              {
                "duration": 0.5649037708333324,
                "durationTicks": 188,
                "midi": 53,
                "name": "F3",
                "ticks": 12498,
                "time": 37.554081531250006,
                "velocity": 0.7637795275590551
              },
              {
                "duration": 0.7812498958333336,
                "durationTicks": 260,
                "midi": 58,
                "name": "A#3",
                "ticks": 12498,
                "time": 37.554081531250006,
                "velocity": 1
              },
              {
                "duration": 0.7812498958333336,
                "durationTicks": 260,
                "midi": 53,
                "name": "F3",
                "ticks": 12690,
                "time": 38.13100453125001,
                "velocity": 0.7480314960629921
              },
              {
                "duration": 0.4927883958333368,
                "durationTicks": 164,
                "midi": 58,
                "name": "A#3",
                "ticks": 12786,
                "time": 38.41946603125,
                "velocity": 1
              },
              {
                "duration": 0.7812498958333336,
                "durationTicks": 260,
                "midi": 51,
                "name": "D#3",
                "ticks": 12978,
                "time": 38.996389031250004,
                "velocity": 0.7165354330708661
              },
              {
                "duration": 0.7812498958333336,
                "durationTicks": 260,
                "midi": 58,
                "name": "A#3",
                "ticks": 12978,
                "time": 38.996389031250004,
                "velocity": 0.9606299212598425
              },
              {
                "duration": 0.5649037708333395,
                "durationTicks": 188,
                "midi": 50,
                "name": "D3",
                "ticks": 13266,
                "time": 39.86177353125,
                "velocity": 0.7086614173228346
              },
              {
                "duration": 0.7812498958333407,
                "durationTicks": 260,
                "midi": 58,
                "name": "A#3",
                "ticks": 13266,
                "time": 39.86177353125,
                "velocity": 1
              },
              {
                "duration": 0.7812498958333407,
                "durationTicks": 260,
                "midi": 50,
                "name": "D3",
                "ticks": 13458,
                "time": 40.43869653125,
                "velocity": 0.7559055118110236
              },
              {
                "duration": 0.4927883958333368,
                "durationTicks": 164,
                "midi": 58,
                "name": "A#3",
                "ticks": 13554,
                "time": 40.727158031250006,
                "velocity": 1
              },
              {
                "duration": 0.7812498958333336,
                "durationTicks": 260,
                "midi": 55,
                "name": "G3",
                "ticks": 13746,
                "time": 41.30408103125001,
                "velocity": 0.7952755905511811
              },
              {
                "duration": 0.7812498958333336,
                "durationTicks": 260,
                "midi": 58,
                "name": "A#3",
                "ticks": 13746,
                "time": 41.30408103125001,
                "velocity": 1
              },
              {
                "duration": 0.5649037708333395,
                "durationTicks": 188,
                "midi": 53,
                "name": "F3",
                "ticks": 14034,
                "time": 42.169465531250005,
                "velocity": 0.7244094488188977
              },
              {
                "duration": 0.7812498958333336,
                "durationTicks": 260,
                "midi": 58,
                "name": "A#3",
                "ticks": 14034,
                "time": 42.169465531250005,
                "velocity": 0.9921259842519685
              },
              {
                "duration": 0.7812498958333336,
                "durationTicks": 260,
                "midi": 53,
                "name": "F3",
                "ticks": 14226,
                "time": 42.746388531250005,
                "velocity": 0.7244094488188977
              },
              {
                "duration": 0.4927883958333368,
                "durationTicks": 164,
                "midi": 58,
                "name": "A#3",
                "ticks": 14322,
                "time": 43.03485003125,
                "velocity": 0.968503937007874
              },
              {
                "duration": 0.7812498958333407,
                "durationTicks": 260,
                "midi": 51,
                "name": "D#3",
                "ticks": 14514,
                "time": 43.61177303125,
                "velocity": 0.7637795275590551
              },
              {
                "duration": 0.7812498958333407,
                "durationTicks": 260,
                "midi": 58,
                "name": "A#3",
                "ticks": 14514,
                "time": 43.61177303125,
                "velocity": 0.9606299212598425
              },
              {
                "duration": 0.5649037708333324,
                "durationTicks": 188,
                "midi": 50,
                "name": "D3",
                "ticks": 14802,
                "time": 44.47715753125001,
                "velocity": 0.7559055118110236
              },
              {
                "duration": 0.7812498958333336,
                "durationTicks": 260,
                "midi": 58,
                "name": "A#3",
                "ticks": 14802,
                "time": 44.47715753125001,
                "velocity": 1
              },
              {
                "duration": 0.7812498958333336,
                "durationTicks": 260,
                "midi": 50,
                "name": "D3",
                "ticks": 14994,
                "time": 45.05408053125001,
                "velocity": 0.7401574803149606
              },
              {
                "duration": 0.4927883958333368,
                "durationTicks": 164,
                "midi": 58,
                "name": "A#3",
                "ticks": 15090,
                "time": 45.342542031250005,
                "velocity": 1
              },
              {
                "duration": 0.7812498958333336,
                "durationTicks": 260,
                "midi": 55,
                "name": "G3",
                "ticks": 15282,
                "time": 45.919465031250006,
                "velocity": 0.8031496062992126
              },
              {
                "duration": 0.7812498958333336,
                "durationTicks": 260,
                "midi": 58,
                "name": "A#3",
                "ticks": 15282,
                "time": 45.919465031250006,
                "velocity": 0.9921259842519685
              },
              {
                "duration": 0.5649037708333395,
                "durationTicks": 188,
                "midi": 53,
                "name": "F3",
                "ticks": 15570,
                "time": 46.78484953125,
                "velocity": 0.7952755905511811
              },
              {
                "duration": 0.7812498958333407,
                "durationTicks": 260,
                "midi": 58,
                "name": "A#3",
                "ticks": 15570,
                "time": 46.78484953125,
                "velocity": 1
              },
              {
                "duration": 0.7812498958333407,
                "durationTicks": 260,
                "midi": 53,
                "name": "F3",
                "ticks": 15762,
                "time": 47.361772531250004,
                "velocity": 0.7559055118110236
              },
              {
                "duration": 0.4927883958333368,
                "durationTicks": 164,
                "midi": 58,
                "name": "A#3",
                "ticks": 15858,
                "time": 47.65023403125001,
                "velocity": 1
              },
              {
                "duration": 0.7812498958333336,
                "durationTicks": 260,
                "midi": 51,
                "name": "D#3",
                "ticks": 16050,
                "time": 48.22715703125001,
                "velocity": 0.7637795275590551
              },
              {
                "duration": 0.7812498958333336,
                "durationTicks": 260,
                "midi": 58,
                "name": "A#3",
                "ticks": 16050,
                "time": 48.22715703125001,
                "velocity": 0.9763779527559056
              },
              {
                "duration": 0.5649037708333395,
                "durationTicks": 188,
                "midi": 50,
                "name": "D3",
                "ticks": 16338,
                "time": 49.092541531250006,
                "velocity": 0.7086614173228346
              },
              {
                "duration": 0.7842547031250007,
                "durationTicks": 261,
                "midi": 58,
                "name": "A#3",
                "ticks": 16338,
                "time": 49.092541531250006,
                "velocity": 1
              },
              {
                "duration": 0.7812498958333336,
                "durationTicks": 260,
                "midi": 50,
                "name": "D3",
                "ticks": 16530,
                "time": 49.66946453125001,
                "velocity": 0.7637795275590551
              },
              {
                "duration": 0.4927883958333368,
                "durationTicks": 164,
                "midi": 58,
                "name": "A#3",
                "ticks": 16626,
                "time": 49.957926031250004,
                "velocity": 0.9921259842519685
              },
              {
                "duration": 0.7812498958333407,
                "durationTicks": 260,
                "midi": 55,
                "name": "G3",
                "ticks": 16818,
                "time": 50.534849031250005,
                "velocity": 0.7322834645669292
              },
              {
                "duration": 0.7812498958333407,
                "durationTicks": 260,
                "midi": 58,
                "name": "A#3",
                "ticks": 16818,
                "time": 50.534849031250005,
                "velocity": 1
              },
              {
                "duration": 0.5649037708333324,
                "durationTicks": 188,
                "midi": 53,
                "name": "F3",
                "ticks": 17106,
                "time": 51.40023353125001,
                "velocity": 0.7244094488188977
              },
              {
                "duration": 0.7812498958333336,
                "durationTicks": 260,
                "midi": 58,
                "name": "A#3",
                "ticks": 17106,
                "time": 51.40023353125001,
                "velocity": 1
              },
              {
                "duration": 0.7812498958333336,
                "durationTicks": 260,
                "midi": 53,
                "name": "F3",
                "ticks": 17298,
                "time": 51.97715653125001,
                "velocity": 0.7559055118110236
              },
              {
                "duration": 0.4927883958333368,
                "durationTicks": 164,
                "midi": 58,
                "name": "A#3",
                "ticks": 17394,
                "time": 52.26561803125001,
                "velocity": 0.984251968503937
              },
              {
                "duration": 0.7842547031250007,
                "durationTicks": 261,
                "midi": 51,
                "name": "D#3",
                "ticks": 17586,
                "time": 52.84254103125001,
                "velocity": 0.7637795275590551
              },
              {
                "duration": 0.7842547031250007,
                "durationTicks": 261,
                "midi": 58,
                "name": "A#3",
                "ticks": 17586,
                "time": 52.84254103125001,
                "velocity": 1
              },
              {
                "duration": 0.5649037708333395,
                "durationTicks": 188,
                "midi": 50,
                "name": "D3",
                "ticks": 17874,
                "time": 53.707925531250005,
                "velocity": 0.7559055118110236
              },
              {
                "duration": 0.7812498958333407,
                "durationTicks": 260,
                "midi": 58,
                "name": "A#3",
                "ticks": 17874,
                "time": 53.707925531250005,
                "velocity": 1
              },
              {
                "duration": 0.7812498958333407,
                "durationTicks": 260,
                "midi": 50,
                "name": "D3",
                "ticks": 18066,
                "time": 54.284848531250006,
                "velocity": 0.7322834645669292
              },
              {
                "duration": 0.4927883958333368,
                "durationTicks": 164,
                "midi": 58,
                "name": "A#3",
                "ticks": 18162,
                "time": 54.57331003125001,
                "velocity": 0.9606299212598425
              },
              {
                "duration": 0.7812498958333336,
                "durationTicks": 260,
                "midi": 55,
                "name": "G3",
                "ticks": 18354,
                "time": 55.15023303125001,
                "velocity": 0.7716535433070866
              },
              {
                "duration": 0.7812498958333336,
                "durationTicks": 260,
                "midi": 58,
                "name": "A#3",
                "ticks": 18354,
                "time": 55.15023303125001,
                "velocity": 1
              },
              {
                "duration": 0.5649037708333324,
                "durationTicks": 188,
                "midi": 53,
                "name": "F3",
                "ticks": 18642,
                "time": 56.01561753125001,
                "velocity": 0.7559055118110236
              },
              {
                "duration": 0.7812498958333336,
                "durationTicks": 260,
                "midi": 58,
                "name": "A#3",
                "ticks": 18642,
                "time": 56.01561753125001,
                "velocity": 0.9921259842519685
              },
              {
                "duration": 0.7842547031250007,
                "durationTicks": 261,
                "midi": 53,
                "name": "F3",
                "ticks": 18834,
                "time": 56.59254053125001,
                "velocity": 0.7952755905511811
              },
              {
                "duration": 0.49579320312500386,
                "durationTicks": 165,
                "midi": 58,
                "name": "A#3",
                "ticks": 18930,
                "time": 56.881002031250006,
                "velocity": 0.968503937007874
              },
              {
                "duration": 0.7812498958333336,
                "durationTicks": 260,
                "midi": 51,
                "name": "D#3",
                "ticks": 19122,
                "time": 57.45792503125001,
                "velocity": 0.7480314960629921
              },
              {
                "duration": 0.7812498958333336,
                "durationTicks": 260,
                "midi": 58,
                "name": "A#3",
                "ticks": 19122,
                "time": 57.45792503125001,
                "velocity": 1
              },
              {
                "duration": 0.5649037708333395,
                "durationTicks": 188,
                "midi": 50,
                "name": "D3",
                "ticks": 19410,
                "time": 58.323309531250004,
                "velocity": 0.7716535433070866
              },
              {
                "duration": 0.7812498958333407,
                "durationTicks": 260,
                "midi": 58,
                "name": "A#3",
                "ticks": 19410,
                "time": 58.323309531250004,
                "velocity": 1
              },
              {
                "duration": 0.7812498958333407,
                "durationTicks": 260,
                "midi": 50,
                "name": "D3",
                "ticks": 19602,
                "time": 58.900232531250005,
                "velocity": 0.7795275590551181
              },
              {
                "duration": 0.4927883958333368,
                "durationTicks": 164,
                "midi": 58,
                "name": "A#3",
                "ticks": 19698,
                "time": 59.18869403125001,
                "velocity": 0.9606299212598425
              },
              {
                "duration": 0.7812498958333336,
                "durationTicks": 260,
                "midi": 55,
                "name": "G3",
                "ticks": 19890,
                "time": 59.76561703125001,
                "velocity": 0.7401574803149606
              },
              {
                "duration": 0.7812498958333336,
                "durationTicks": 260,
                "midi": 58,
                "name": "A#3",
                "ticks": 19890,
                "time": 59.76561703125001,
                "velocity": 0.984251968503937
              },
              {
                "duration": 0.5649037708333395,
                "durationTicks": 188,
                "midi": 53,
                "name": "F3",
                "ticks": 20178,
                "time": 60.63100153125001,
                "velocity": 0.7952755905511811
              },
              {
                "duration": 0.7812498958333336,
                "durationTicks": 260,
                "midi": 58,
                "name": "A#3",
                "ticks": 20178,
                "time": 60.63100153125001,
                "velocity": 0.9763779527559056
              },
              {
                "duration": 0.7812498958333336,
                "durationTicks": 260,
                "midi": 53,
                "name": "F3",
                "ticks": 20370,
                "time": 61.20792453125001,
                "velocity": 0.7480314960629921
              },
              {
                "duration": 0.4927883958333368,
                "durationTicks": 164,
                "midi": 58,
                "name": "A#3",
                "ticks": 20466,
                "time": 61.496386031250005,
                "velocity": 1
              },
              {
                "duration": 0.7812498958333407,
                "durationTicks": 260,
                "midi": 51,
                "name": "D#3",
                "ticks": 20658,
                "time": 62.073309031250005,
                "velocity": 0.7480314960629921
              },
              {
                "duration": 0.7812498958333407,
                "durationTicks": 260,
                "midi": 58,
                "name": "A#3",
                "ticks": 20658,
                "time": 62.073309031250005,
                "velocity": 1
              },
              {
                "duration": 0.5649037708333324,
                "durationTicks": 188,
                "midi": 50,
                "name": "D3",
                "ticks": 20946,
                "time": 62.93869353125001,
                "velocity": 0.7165354330708661
              },
              {
                "duration": 0.7812498958333336,
                "durationTicks": 260,
                "midi": 58,
                "name": "A#3",
                "ticks": 20946,
                "time": 62.93869353125001,
                "velocity": 0.968503937007874
              },
              {
                "duration": 0.7812498958333336,
                "durationTicks": 260,
                "midi": 50,
                "name": "D3",
                "ticks": 21138,
                "time": 63.51561653125001,
                "velocity": 0.7874015748031497
              },
              {
                "duration": 0.4927883958333368,
                "durationTicks": 164,
                "midi": 58,
                "name": "A#3",
                "ticks": 21234,
                "time": 63.80407803125001,
                "velocity": 0.984251968503937
              },
              {
                "duration": 0.7812498958333407,
                "durationTicks": 260,
                "midi": 55,
                "name": "G3",
                "ticks": 21426,
                "time": 64.38100103125001,
                "velocity": 0.7637795275590551
              },
              {
                "duration": 0.7812498958333407,
                "durationTicks": 260,
                "midi": 58,
                "name": "A#3",
                "ticks": 21426,
                "time": 64.38100103125001,
                "velocity": 0.9606299212598425
              },
              {
                "duration": 0.5649037708333253,
                "durationTicks": 188,
                "midi": 53,
                "name": "F3",
                "ticks": 21714,
                "time": 65.24638553125001,
                "velocity": 0.7795275590551181
              },
              {
                "duration": 0.7812498958333265,
                "durationTicks": 260,
                "midi": 58,
                "name": "A#3",
                "ticks": 21714,
                "time": 65.24638553125001,
                "velocity": 0.9606299212598425
              },
              {
                "duration": 0.7812498958333407,
                "durationTicks": 260,
                "midi": 53,
                "name": "F3",
                "ticks": 21906,
                "time": 65.82330853125,
                "velocity": 0.7559055118110236
              },
              {
                "duration": 0.4927883958333439,
                "durationTicks": 164,
                "midi": 58,
                "name": "A#3",
                "ticks": 22002,
                "time": 66.11177003125,
                "velocity": 0.9606299212598425
              },
              {
                "duration": 0.7812498958333265,
                "durationTicks": 260,
                "midi": 51,
                "name": "D#3",
                "ticks": 22194,
                "time": 66.68869303125001,
                "velocity": 0.7637795275590551
              },
              {
                "duration": 0.7812498958333265,
                "durationTicks": 260,
                "midi": 58,
                "name": "A#3",
                "ticks": 22194,
                "time": 66.68869303125001,
                "velocity": 0.9763779527559056
              },
              {
                "duration": 0.5649037708333395,
                "durationTicks": 188,
                "midi": 50,
                "name": "D3",
                "ticks": 22482,
                "time": 67.55407753125,
                "velocity": 0.7322834645669292
              },
              {
                "duration": 0.7812498958333407,
                "durationTicks": 260,
                "midi": 58,
                "name": "A#3",
                "ticks": 22482,
                "time": 67.55407753125,
                "velocity": 1
              },
              {
                "duration": 0.7812498958333407,
                "durationTicks": 260,
                "midi": 50,
                "name": "D3",
                "ticks": 22674,
                "time": 68.13100053125001,
                "velocity": 0.7952755905511811
              },
              {
                "duration": 0.4927883958333439,
                "durationTicks": 164,
                "midi": 58,
                "name": "A#3",
                "ticks": 22770,
                "time": 68.41946203125,
                "velocity": 1
              },
              {
                "duration": 0.7812498958333265,
                "durationTicks": 260,
                "midi": 55,
                "name": "G3",
                "ticks": 22962,
                "time": 68.99638503125001,
                "velocity": 0.7559055118110236
              },
              {
                "duration": 0.7812498958333265,
                "durationTicks": 260,
                "midi": 58,
                "name": "A#3",
                "ticks": 22962,
                "time": 68.99638503125001,
                "velocity": 0.9763779527559056
              },
              {
                "duration": 0.5649037708333395,
                "durationTicks": 188,
                "midi": 53,
                "name": "F3",
                "ticks": 23250,
                "time": 69.86176953125,
                "velocity": 0.7322834645669292
              },
              {
                "duration": 0.7812498958333407,
                "durationTicks": 260,
                "midi": 58,
                "name": "A#3",
                "ticks": 23250,
                "time": 69.86176953125,
                "velocity": 1
              },
              {
                "duration": 0.7812498958333265,
                "durationTicks": 260,
                "midi": 53,
                "name": "F3",
                "ticks": 23442,
                "time": 70.43869253125001,
                "velocity": 0.7874015748031497
              },
              {
                "duration": 0.4927883958333297,
                "durationTicks": 164,
                "midi": 58,
                "name": "A#3",
                "ticks": 23538,
                "time": 70.72715403125001,
                "velocity": 0.9921259842519685
              },
              {
                "duration": 0.7812498958333407,
                "durationTicks": 260,
                "midi": 51,
                "name": "D#3",
                "ticks": 23730,
                "time": 71.30407703125,
                "velocity": 0.7716535433070866
              },
              {
                "duration": 0.7812498958333407,
                "durationTicks": 260,
                "midi": 58,
                "name": "A#3",
                "ticks": 23730,
                "time": 71.30407703125,
                "velocity": 0.9921259842519685
              },
              {
                "duration": 0.5649037708333395,
                "durationTicks": 188,
                "midi": 50,
                "name": "D3",
                "ticks": 24018,
                "time": 72.16946153125001,
                "velocity": 0.7322834645669292
              },
              {
                "duration": 0.7812498958333407,
                "durationTicks": 260,
                "midi": 58,
                "name": "A#3",
                "ticks": 24018,
                "time": 72.16946153125001,
                "velocity": 1
              },
              {
                "duration": 0.7812498958333265,
                "durationTicks": 260,
                "midi": 50,
                "name": "D3",
                "ticks": 24210,
                "time": 72.74638453125002,
                "velocity": 0.7322834645669292
              },
              {
                "duration": 0.4927883958333297,
                "durationTicks": 164,
                "midi": 58,
                "name": "A#3",
                "ticks": 24306,
                "time": 73.03484603125001,
                "velocity": 0.9921259842519685
              },
              {
                "duration": 0.7812498958333265,
                "durationTicks": 260,
                "midi": 55,
                "name": "G3",
                "ticks": 24498,
                "time": 73.61176903125,
                "velocity": 0.7401574803149606
              },
              {
                "duration": 0.7812498958333265,
                "durationTicks": 260,
                "midi": 58,
                "name": "A#3",
                "ticks": 24498,
                "time": 73.61176903125,
                "velocity": 1
              },
              {
                "duration": 0.5649037708333253,
                "durationTicks": 188,
                "midi": 53,
                "name": "F3",
                "ticks": 24786,
                "time": 74.47715353125001,
                "velocity": 0.7637795275590551
              },
              {
                "duration": 0.7812498958333265,
                "durationTicks": 260,
                "midi": 58,
                "name": "A#3",
                "ticks": 24786,
                "time": 74.47715353125001,
                "velocity": 0.9606299212598425
              },
              {
                "duration": 0.7812498958333265,
                "durationTicks": 260,
                "midi": 53,
                "name": "F3",
                "ticks": 24978,
                "time": 75.05407653125,
                "velocity": 0.7559055118110236
              },
              {
                "duration": 0.49278839583331546,
                "durationTicks": 164,
                "midi": 58,
                "name": "A#3",
                "ticks": 25074,
                "time": 75.34253803125002,
                "velocity": 1
              },
              {
                "duration": 0.7812498958333265,
                "durationTicks": 260,
                "midi": 51,
                "name": "D#3",
                "ticks": 25266,
                "time": 75.91946103125001,
                "velocity": 0.7795275590551181
              },
              {
                "duration": 0.7812498958333265,
                "durationTicks": 260,
                "midi": 58,
                "name": "A#3",
                "ticks": 25266,
                "time": 75.91946103125001,
                "velocity": 1
              },
              {
                "duration": 0.5649037708333253,
                "durationTicks": 188,
                "midi": 50,
                "name": "D3",
                "ticks": 25554,
                "time": 76.78484553125001,
                "velocity": 0.7165354330708661
              },
              {
                "duration": 0.7812498958333265,
                "durationTicks": 260,
                "midi": 58,
                "name": "A#3",
                "ticks": 25554,
                "time": 76.78484553125001,
                "velocity": 0.968503937007874
              },
              {
                "duration": 0.7812498958333265,
                "durationTicks": 260,
                "midi": 50,
                "name": "D3",
                "ticks": 25746,
                "time": 77.36176853125001,
                "velocity": 0.7716535433070866
              },
              {
                "duration": 0.4927883958333297,
                "durationTicks": 164,
                "midi": 58,
                "name": "A#3",
                "ticks": 25842,
                "time": 77.65023003125,
                "velocity": 1
              },
              {
                "duration": 0.7812498958333265,
                "durationTicks": 260,
                "midi": 55,
                "name": "G3",
                "ticks": 26034,
                "time": 78.22715303125001,
                "velocity": 0.7795275590551181
              },
              {
                "duration": 0.7812498958333265,
                "durationTicks": 260,
                "midi": 58,
                "name": "A#3",
                "ticks": 26034,
                "time": 78.22715303125001,
                "velocity": 0.9763779527559056
              },
              {
                "duration": 0.5649037708333253,
                "durationTicks": 188,
                "midi": 53,
                "name": "F3",
                "ticks": 26322,
                "time": 79.09253753125002,
                "velocity": 0.7480314960629921
              },
              {
                "duration": 0.7842547031250007,
                "durationTicks": 261,
                "midi": 58,
                "name": "A#3",
                "ticks": 26322,
                "time": 79.09253753125002,
                "velocity": 1
              },
              {
                "duration": 0.7812498958333265,
                "durationTicks": 260,
                "midi": 53,
                "name": "F3",
                "ticks": 26514,
                "time": 79.66946053125001,
                "velocity": 0.7637795275590551
              },
              {
                "duration": 0.4927883958333297,
                "durationTicks": 164,
                "midi": 58,
                "name": "A#3",
                "ticks": 26610,
                "time": 79.95792203125,
                "velocity": 0.968503937007874
              },
              {
                "duration": 0.7812498958333265,
                "durationTicks": 260,
                "midi": 51,
                "name": "D#3",
                "ticks": 26802,
                "time": 80.53484503125001,
                "velocity": 0.7244094488188977
              },
              {
                "duration": 0.7812498958333265,
                "durationTicks": 260,
                "midi": 58,
                "name": "A#3",
                "ticks": 26802,
                "time": 80.53484503125001,
                "velocity": 1
              },
              {
                "duration": 0.5649037708333395,
                "durationTicks": 188,
                "midi": 50,
                "name": "D3",
                "ticks": 27090,
                "time": 81.40022953125,
                "velocity": 0.7480314960629921
              },
              {
                "duration": 0.7812498958333265,
                "durationTicks": 260,
                "midi": 58,
                "name": "A#3",
                "ticks": 27090,
                "time": 81.40022953125,
                "velocity": 0.968503937007874
              },
              {
                "duration": 0.7812498958333265,
                "durationTicks": 260,
                "midi": 50,
                "name": "D3",
                "ticks": 27282,
                "time": 81.97715253125001,
                "velocity": 0.7244094488188977
              },
              {
                "duration": 0.4927883958333297,
                "durationTicks": 164,
                "midi": 58,
                "name": "A#3",
                "ticks": 27378,
                "time": 82.26561403125001,
                "velocity": 0.9606299212598425
              },
              {
                "duration": 0.7842547031249865,
                "durationTicks": 261,
                "midi": 55,
                "name": "G3",
                "ticks": 27570,
                "time": 82.84253703125002,
                "velocity": 0.7952755905511811
              },
              {
                "duration": 0.7842547031249865,
                "durationTicks": 261,
                "midi": 58,
                "name": "A#3",
                "ticks": 27570,
                "time": 82.84253703125002,
                "velocity": 0.984251968503937
              },
              {
                "duration": 0.5649037708333253,
                "durationTicks": 188,
                "midi": 53,
                "name": "F3",
                "ticks": 27858,
                "time": 83.70792153125001,
                "velocity": 0.7322834645669292
              },
              {
                "duration": 0.7812498958333265,
                "durationTicks": 260,
                "midi": 58,
                "name": "A#3",
                "ticks": 27858,
                "time": 83.70792153125001,
                "velocity": 1
              },
              {
                "duration": 0.7812498958333265,
                "durationTicks": 260,
                "midi": 53,
                "name": "F3",
                "ticks": 28050,
                "time": 84.28484453125002,
                "velocity": 0.7716535433070866
              },
              {
                "duration": 0.4927883958333297,
                "durationTicks": 164,
                "midi": 58,
                "name": "A#3",
                "ticks": 28146,
                "time": 84.57330603125001,
                "velocity": 1
              },
              {
                "duration": 0.7812498958333265,
                "durationTicks": 260,
                "midi": 51,
                "name": "D#3",
                "ticks": 28338,
                "time": 85.15022903125,
                "velocity": 0.7401574803149606
              },
              {
                "duration": 0.7812498958333265,
                "durationTicks": 260,
                "midi": 58,
                "name": "A#3",
                "ticks": 28338,
                "time": 85.15022903125,
                "velocity": 0.9606299212598425
              },
              {
                "duration": 0.5649037708333253,
                "durationTicks": 188,
                "midi": 50,
                "name": "D3",
                "ticks": 28626,
                "time": 86.01561353125001,
                "velocity": 0.7716535433070866
              },
              {
                "duration": 0.7812498958333265,
                "durationTicks": 260,
                "midi": 58,
                "name": "A#3",
                "ticks": 28626,
                "time": 86.01561353125001,
                "velocity": 0.968503937007874
              },
              {
                "duration": 0.7842547031250007,
                "durationTicks": 261,
                "midi": 50,
                "name": "D3",
                "ticks": 28818,
                "time": 86.59253653125,
                "velocity": 0.7952755905511811
              },
              {
                "duration": 0.49579320312498965,
                "durationTicks": 165,
                "midi": 58,
                "name": "A#3",
                "ticks": 28914,
                "time": 86.88099803125002,
                "velocity": 1
              },
              {
                "duration": 0.7812498958333265,
                "durationTicks": 260,
                "midi": 55,
                "name": "G3",
                "ticks": 29106,
                "time": 87.45792103125001,
                "velocity": 0.7480314960629921
              },
              {
                "duration": 0.7812498958333265,
                "durationTicks": 260,
                "midi": 58,
                "name": "A#3",
                "ticks": 29106,
                "time": 87.45792103125001,
                "velocity": 1
              },
              {
                "duration": 0.5649037708333253,
                "durationTicks": 188,
                "midi": 53,
                "name": "F3",
                "ticks": 29394,
                "time": 88.32330553125001,
                "velocity": 0.7952755905511811
              },
              {
                "duration": 0.7812498958333265,
                "durationTicks": 260,
                "midi": 58,
                "name": "A#3",
                "ticks": 29394,
                "time": 88.32330553125001,
                "velocity": 0.984251968503937
              },
              {
                "duration": 0.7812498958333265,
                "durationTicks": 260,
                "midi": 53,
                "name": "F3",
                "ticks": 29586,
                "time": 88.90022853125001,
                "velocity": 0.7401574803149606
              },
              {
                "duration": 0.4927883958333297,
                "durationTicks": 164,
                "midi": 58,
                "name": "A#3",
                "ticks": 29682,
                "time": 89.18869003125,
                "velocity": 1
              },
              {
                "duration": 0.7812498958333265,
                "durationTicks": 260,
                "midi": 51,
                "name": "D#3",
                "ticks": 29874,
                "time": 89.76561303125001,
                "velocity": 0.7637795275590551
              },
              {
                "duration": 0.7812498958333265,
                "durationTicks": 260,
                "midi": 58,
                "name": "A#3",
                "ticks": 29874,
                "time": 89.76561303125001,
                "velocity": 1
              },
              {
                "duration": 0.5649037708333253,
                "durationTicks": 188,
                "midi": 50,
                "name": "D3",
                "ticks": 30162,
                "time": 90.63099753125002,
                "velocity": 0.7401574803149606
              },
              {
                "duration": 0.7812498958333265,
                "durationTicks": 260,
                "midi": 58,
                "name": "A#3",
                "ticks": 30162,
                "time": 90.63099753125002,
                "velocity": 0.9921259842519685
              },
              {
                "duration": 0.7812498958333265,
                "durationTicks": 260,
                "midi": 50,
                "name": "D3",
                "ticks": 30354,
                "time": 91.20792053125001,
                "velocity": 0.7952755905511811
              },
              {
                "duration": 0.4927883958333297,
                "durationTicks": 164,
                "midi": 58,
                "name": "A#3",
                "ticks": 30450,
                "time": 91.49638203125001,
                "velocity": 0.9606299212598425
              },
              {
                "duration": 0.7812498958333265,
                "durationTicks": 260,
                "midi": 55,
                "name": "G3",
                "ticks": 30642,
                "time": 92.07330503125002,
                "velocity": 0.7401574803149606
              },
              {
                "duration": 0.7812498958333265,
                "durationTicks": 260,
                "midi": 58,
                "name": "A#3",
                "ticks": 30642,
                "time": 92.07330503125002,
                "velocity": 1
              },
              {
                "duration": 0.5649037708333395,
                "durationTicks": 188,
                "midi": 53,
                "name": "F3",
                "ticks": 30930,
                "time": 92.93868953125,
                "velocity": 0.7795275590551181
              },
              {
                "duration": 0.7812498958333407,
                "durationTicks": 260,
                "midi": 58,
                "name": "A#3",
                "ticks": 30930,
                "time": 92.93868953125,
                "velocity": 1
              },
              {
                "duration": 0.7812498958333265,
                "durationTicks": 260,
                "midi": 53,
                "name": "F3",
                "ticks": 31122,
                "time": 93.51561253125001,
                "velocity": 0.7716535433070866
              },
              {
                "duration": 0.4927883958333297,
                "durationTicks": 164,
                "midi": 58,
                "name": "A#3",
                "ticks": 31218,
                "time": 93.80407403125001,
                "velocity": 0.9763779527559056
              },
              {
                "duration": 0.7812498958333265,
                "durationTicks": 260,
                "midi": 51,
                "name": "D#3",
                "ticks": 31410,
                "time": 94.38099703125002,
                "velocity": 0.7637795275590551
              },
              {
                "duration": 0.7812498958333265,
                "durationTicks": 260,
                "midi": 58,
                "name": "A#3",
                "ticks": 31410,
                "time": 94.38099703125002,
                "velocity": 1
              },
              {
                "duration": 0.5649037708333253,
                "durationTicks": 188,
                "midi": 50,
                "name": "D3",
                "ticks": 31698,
                "time": 95.24638153125001,
                "velocity": 0.7795275590551181
              },
              {
                "duration": 0.7812498958333265,
                "durationTicks": 260,
                "midi": 58,
                "name": "A#3",
                "ticks": 31698,
                "time": 95.24638153125001,
                "velocity": 0.968503937007874
              },
              {
                "duration": 0.7812498958333265,
                "durationTicks": 260,
                "midi": 50,
                "name": "D3",
                "ticks": 31890,
                "time": 95.82330453125002,
                "velocity": 0.7401574803149606
              },
              {
                "duration": 0.4927883958333297,
                "durationTicks": 164,
                "midi": 58,
                "name": "A#3",
                "ticks": 31986,
                "time": 96.11176603125001,
                "velocity": 0.9606299212598425
              },
              {
                "duration": 0.7812498958333265,
                "durationTicks": 260,
                "midi": 55,
                "name": "G3",
                "ticks": 32178,
                "time": 96.68868903125001,
                "velocity": 0.7795275590551181
              },
              {
                "duration": 0.7812498958333265,
                "durationTicks": 260,
                "midi": 58,
                "name": "A#3",
                "ticks": 32178,
                "time": 96.68868903125001,
                "velocity": 0.984251968503937
              },
              {
                "duration": 0.5649037708333253,
                "durationTicks": 188,
                "midi": 53,
                "name": "F3",
                "ticks": 32466,
                "time": 97.55407353125001,
                "velocity": 0.7244094488188977
              },
              {
                "duration": 0.7812498958333265,
                "durationTicks": 260,
                "midi": 58,
                "name": "A#3",
                "ticks": 32466,
                "time": 97.55407353125001,
                "velocity": 1
              },
              {
                "duration": 0.7812498958333265,
                "durationTicks": 260,
                "midi": 53,
                "name": "F3",
                "ticks": 32658,
                "time": 98.13099653125002,
                "velocity": 0.7795275590551181
              },
              {
                "duration": 0.4927883958333297,
                "durationTicks": 164,
                "midi": 58,
                "name": "A#3",
                "ticks": 32754,
                "time": 98.41945803125002,
                "velocity": 0.9763779527559056
              },
              {
                "duration": 0.7812498958333265,
                "durationTicks": 260,
                "midi": 51,
                "name": "D#3",
                "ticks": 32946,
                "time": 98.99638103125001,
                "velocity": 0.7637795275590551
              },
              {
                "duration": 0.7812498958333265,
                "durationTicks": 260,
                "midi": 58,
                "name": "A#3",
                "ticks": 32946,
                "time": 98.99638103125001,
                "velocity": 1
              },
              {
                "duration": 0.5649037708333253,
                "durationTicks": 188,
                "midi": 50,
                "name": "D3",
                "ticks": 33234,
                "time": 99.86176553125001,
                "velocity": 0.7716535433070866
              },
              {
                "duration": 0.7812498958333265,
                "durationTicks": 260,
                "midi": 58,
                "name": "A#3",
                "ticks": 33234,
                "time": 99.86176553125001,
                "velocity": 1
              },
              {
                "duration": 0.7812498958333265,
                "durationTicks": 260,
                "midi": 50,
                "name": "D3",
                "ticks": 33426,
                "time": 100.43868853125001,
                "velocity": 0.7795275590551181
              },
              {
                "duration": 0.49278839583331546,
                "durationTicks": 164,
                "midi": 58,
                "name": "A#3",
                "ticks": 33522,
                "time": 100.72715003125002,
                "velocity": 0.9921259842519685
              },
              {
                "duration": 0.7812498958333265,
                "durationTicks": 260,
                "midi": 55,
                "name": "G3",
                "ticks": 33714,
                "time": 101.30407303125001,
                "velocity": 0.7480314960629921
              },
              {
                "duration": 0.7812498958333265,
                "durationTicks": 260,
                "midi": 58,
                "name": "A#3",
                "ticks": 33714,
                "time": 101.30407303125001,
                "velocity": 1
              },
              {
                "duration": 0.5649037708333253,
                "durationTicks": 188,
                "midi": 53,
                "name": "F3",
                "ticks": 34002,
                "time": 102.16945753125002,
                "velocity": 0.7401574803149606
              },
              {
                "duration": 0.7812498958333265,
                "durationTicks": 260,
                "midi": 58,
                "name": "A#3",
                "ticks": 34002,
                "time": 102.16945753125002,
                "velocity": 0.984251968503937
              },
              {
                "duration": 0.7812498958333265,
                "durationTicks": 260,
                "midi": 53,
                "name": "F3",
                "ticks": 34194,
                "time": 102.74638053125001,
                "velocity": 0.7795275590551181
              },
              {
                "duration": 0.4927883958333297,
                "durationTicks": 164,
                "midi": 58,
                "name": "A#3",
                "ticks": 34290,
                "time": 103.03484203125001,
                "velocity": 0.9606299212598425
              },
              {
                "duration": 0.7812498958333265,
                "durationTicks": 260,
                "midi": 51,
                "name": "D#3",
                "ticks": 34482,
                "time": 103.61176503125002,
                "velocity": 0.7086614173228346
              },
              {
                "duration": 0.7812498958333265,
                "durationTicks": 260,
                "midi": 58,
                "name": "A#3",
                "ticks": 34482,
                "time": 103.61176503125002,
                "velocity": 0.968503937007874
              },
              {
                "duration": 0.5649037708333395,
                "durationTicks": 188,
                "midi": 50,
                "name": "D3",
                "ticks": 34770,
                "time": 104.47714953125,
                "velocity": 0.7322834645669292
              },
              {
                "duration": 0.7812498958333407,
                "durationTicks": 260,
                "midi": 58,
                "name": "A#3",
                "ticks": 34770,
                "time": 104.47714953125,
                "velocity": 1
              },
              {
                "duration": 0.7812498958333265,
                "durationTicks": 260,
                "midi": 50,
                "name": "D3",
                "ticks": 34962,
                "time": 105.05407253125001,
                "velocity": 0.7795275590551181
              },
              {
                "duration": 0.4927883958333297,
                "durationTicks": 164,
                "midi": 58,
                "name": "A#3",
                "ticks": 35058,
                "time": 105.34253403125001,
                "velocity": 0.9921259842519685
              },
              {
                "duration": 0.7812498958333265,
                "durationTicks": 260,
                "midi": 55,
                "name": "G3",
                "ticks": 35250,
                "time": 105.91945703125002,
                "velocity": 0.7874015748031497
              },
              {
                "duration": 0.7812498958333265,
                "durationTicks": 260,
                "midi": 58,
                "name": "A#3",
                "ticks": 35250,
                "time": 105.91945703125002,
                "velocity": 1
              },
              {
                "duration": 0.5649037708333253,
                "durationTicks": 188,
                "midi": 53,
                "name": "F3",
                "ticks": 35538,
                "time": 106.78484153125001,
                "velocity": 0.7952755905511811
              },
              {
                "duration": 0.7812498958333265,
                "durationTicks": 260,
                "midi": 58,
                "name": "A#3",
                "ticks": 35538,
                "time": 106.78484153125001,
                "velocity": 1
              },
              {
                "duration": 0.7812498958333265,
                "durationTicks": 260,
                "midi": 53,
                "name": "F3",
                "ticks": 35730,
                "time": 107.36176453125002,
                "velocity": 0.7637795275590551
              },
              {
                "duration": 0.4927883958333297,
                "durationTicks": 164,
                "midi": 58,
                "name": "A#3",
                "ticks": 35826,
                "time": 107.65022603125001,
                "velocity": 0.984251968503937
              },
              {
                "duration": 0.2554086197916803,
                "durationTicks": 85,
                "midi": 51,
                "name": "D#3",
                "ticks": 36030,
                "time": 108.26320671875001,
                "velocity": 1
              },
              {
                "duration": 0.2614182343750002,
                "durationTicks": 87,
                "midi": 58,
                "name": "A#3",
                "ticks": 36032,
                "time": 108.26921633333335,
                "velocity": 1
              },
              {
                "duration": 0.28846150000001103,
                "durationTicks": 96,
                "midi": 51,
                "name": "D#3",
                "ticks": 36121,
                "time": 108.53664418229168,
                "velocity": 0.9763779527559056
              },
              {
                "duration": 0.28545669270835106,
                "durationTicks": 95,
                "midi": 58,
                "name": "A#3",
                "ticks": 36125,
                "time": 108.54866341145834,
                "velocity": 0.9291338582677166
              },
              {
                "duration": 0.2524038125000061,
                "durationTicks": 84,
                "midi": 51,
                "name": "D#3",
                "ticks": 36223,
                "time": 108.84313452604168,
                "velocity": 1
              },
              {
                "duration": 0.24939900520833191,
                "durationTicks": 83,
                "midi": 58,
                "name": "A#3",
                "ticks": 36225,
                "time": 108.84914414062501,
                "velocity": 0.8661417322834646
              },
              {
                "duration": 0.5378605052083429,
                "durationTicks": 179,
                "midi": 51,
                "name": "D#3",
                "ticks": 36311,
                "time": 109.10755756770834,
                "velocity": 1
              },
              {
                "duration": 0.5438701197916487,
                "durationTicks": 181,
                "midi": 58,
                "name": "A#3",
                "ticks": 36313,
                "time": 109.11356718229169,
                "velocity": 1
              },
              {
                "duration": 0.27343746354166854,
                "durationTicks": 91,
                "midi": 51,
                "name": "D#3",
                "ticks": 36497,
                "time": 109.66645172395835,
                "velocity": 1
              },
              {
                "duration": 0.2674278489583344,
                "durationTicks": 89,
                "midi": 58,
                "name": "A#3",
                "ticks": 36501,
                "time": 109.67847095312501,
                "velocity": 1
              },
              {
                "duration": 0.2614182343750002,
                "durationTicks": 87,
                "midi": 51,
                "name": "D#3",
                "ticks": 36593,
                "time": 109.95491322395834,
                "velocity": 1
              },
              {
                "duration": 0.264423041666646,
                "durationTicks": 88,
                "midi": 58,
                "name": "A#3",
                "ticks": 36595,
                "time": 109.96092283854169,
                "velocity": 0.9606299212598425
              },
              {
                "duration": 0.15024036458333967,
                "durationTicks": 50,
                "midi": 51,
                "name": "D#3",
                "ticks": 36686,
                "time": 110.23436030208335,
                "velocity": 0.905511811023622
              },
              {
                "duration": 0.13221152083335141,
                "durationTicks": 44,
                "midi": 58,
                "name": "A#3",
                "ticks": 36689,
                "time": 110.24337472395834,
                "velocity": 0.9921259842519685
              },
              {
                "duration": 0.12620190625000305,
                "durationTicks": 42,
                "midi": 58,
                "name": "A#3",
                "ticks": 36739,
                "time": 110.39361508854168,
                "velocity": 0.9763779527559056
              },
              {
                "duration": 0.10817306250000058,
                "durationTicks": 36,
                "midi": 51,
                "name": "D#3",
                "ticks": 36743,
                "time": 110.40563431770835,
                "velocity": 1
              }
            ]
     


}