 var ledZep_blackDog_90secs_L_notes = {
      "notes": [
        {
          "duration": 0.2,
          "durationTicks": 192,
          "midi": 69,
          "name": "A4",
          "ticks": 5,
          "time": 0.005208333333333334,
          "velocity": 0.9448818897637795
        },
        {
          "duration": 0.39479166666666676,
          "durationTicks": 379,
          "midi": 69,
          "name": "A4",
          "ticks": 197,
          "time": 0.20520833333333335,
          "velocity": 0.9448818897637795
        },
        {
          "duration": 0.39479166666666665,
          "durationTicks": 379,
          "midi": 69,
          "name": "A4",
          "ticks": 581,
          "time": 0.6052083333333333,
          "velocity": 0.9448818897637795
        },
        {
          "duration": 0.19999999999999996,
          "durationTicks": 192,
          "midi": 67,
          "name": "G4",
          "ticks": 965,
          "time": 1.0052083333333335,
          "velocity": 0.9448818897637795
        },
        {
          "duration": 0.19999999999999996,
          "durationTicks": 192,
          "midi": 69,
          "name": "A4",
          "ticks": 1157,
          "time": 1.2052083333333334,
          "velocity": 0.9448818897637795
        },
        {
          "duration": 0.19999999999999996,
          "durationTicks": 192,
          "midi": 67,
          "name": "G4",
          "ticks": 1349,
          "time": 1.4052083333333334,
          "velocity": 0.9448818897637795
        },
        {
          "duration": 0.19999999999999996,
          "durationTicks": 192,
          "midi": 69,
          "name": "A4",
          "ticks": 1541,
          "time": 1.6052083333333333,
          "velocity": 0.9448818897637795
        },
        {
          "duration": 0.3947916666666669,
          "durationTicks": 379,
          "midi": 69,
          "name": "A4",
          "ticks": 1733,
          "time": 1.8052083333333333,
          "velocity": 0.9448818897637795
        },
        {
          "duration": 0.594791666666667,
          "durationTicks": 571,
          "midi": 72,
          "name": "C5",
          "ticks": 2117,
          "time": 2.205208333333333,
          "velocity": 0.9448818897637795
        },
        {
          "duration": 0.20000000000000018,
          "durationTicks": 192,
          "midi": 69,
          "name": "A4",
          "ticks": 2693,
          "time": 2.8052083333333333,
          "velocity": 0.9448818897637795
        },
        {
          "duration": 0.20000000000000018,
          "durationTicks": 192,
          "midi": 69,
          "name": "A4",
          "ticks": 2885,
          "time": 3.0052083333333335,
          "velocity": 0.9448818897637795
        },
        {
          "duration": 0.20000000000000018,
          "durationTicks": 192,
          "midi": 76,
          "name": "E5",
          "ticks": 3077,
          "time": 3.2052083333333337,
          "velocity": 0.9448818897637795
        },
        {
          "duration": 0.3999999999999999,
          "durationTicks": 384,
          "midi": 74,
          "name": "D5",
          "ticks": 3269,
          "time": 3.405208333333334,
          "velocity": 0.9448818897637795
        },
        {
          "duration": 0.5947916666666666,
          "durationTicks": 571,
          "midi": 72,
          "name": "C5",
          "ticks": 3653,
          "time": 3.8052083333333337,
          "velocity": 0.9448818897637795
        },
        {
          "duration": 0.20000000000000018,
          "durationTicks": 192,
          "midi": 69,
          "name": "A4",
          "ticks": 4229,
          "time": 4.405208333333333,
          "velocity": 0.9448818897637795
        },
        {
          "duration": 0.20000000000000018,
          "durationTicks": 192,
          "midi": 69,
          "name": "A4",
          "ticks": 4421,
          "time": 4.605208333333334,
          "velocity": 0.9448818897637795
        },
        {
          "duration": 0.20000000000000018,
          "durationTicks": 192,
          "midi": 72,
          "name": "C5",
          "ticks": 4613,
          "time": 4.805208333333334,
          "velocity": 0.9448818897637795
        },
        {
          "duration": 0.40000000000000036,
          "durationTicks": 384,
          "midi": 72,
          "name": "C5",
          "ticks": 4805,
          "time": 5.005208333333334,
          "velocity": 0.9448818897637795
        },
        {
          "duration": 0.39999999999999947,
          "durationTicks": 384,
          "midi": 69,
          "name": "A4",
          "ticks": 5189,
          "time": 5.405208333333334,
          "velocity": 0.9448818897637795
        },
        {
          "duration": 0.5947916666666666,
          "durationTicks": 571,
          "midi": 67,
          "name": "G4",
          "ticks": 5573,
          "time": 5.805208333333334,
          "velocity": 0.9448818897637795
        },
        {
          "duration": 0.20000000000000107,
          "durationTicks": 192,
          "midi": 69,
          "name": "A4",
          "ticks": 12293,
          "time": 12.805208333333335,
          "velocity": 0.9448818897637795
        },
        {
          "duration": 0.39479166666666465,
          "durationTicks": 379,
          "midi": 69,
          "name": "A4",
          "ticks": 12485,
          "time": 13.005208333333336,
          "velocity": 0.9448818897637795
        },
        {
          "duration": 0.5947916666666657,
          "durationTicks": 571,
          "midi": 69,
          "name": "A4",
          "ticks": 12869,
          "time": 13.405208333333334,
          "velocity": 0.9448818897637795
        },
        {
          "duration": 0.1999999999999993,
          "durationTicks": 192,
          "midi": 69,
          "name": "A4",
          "ticks": 13445,
          "time": 14.005208333333336,
          "velocity": 0.9448818897637795
        },
        {
          "duration": 0.1999999999999993,
          "durationTicks": 192,
          "midi": 67,
          "name": "G4",
          "ticks": 13637,
          "time": 14.205208333333335,
          "velocity": 0.9448818897637795
        },
        {
          "duration": 0.20000000000000107,
          "durationTicks": 192,
          "midi": 69,
          "name": "A4",
          "ticks": 13829,
          "time": 14.405208333333334,
          "velocity": 0.9448818897637795
        },
        {
          "duration": 0.40000000000000036,
          "durationTicks": 384,
          "midi": 69,
          "name": "A4",
          "ticks": 14021,
          "time": 14.605208333333335,
          "velocity": 0.9448818897637795
        },
        {
          "duration": 0.5947916666666657,
          "durationTicks": 571,
          "midi": 72,
          "name": "C5",
          "ticks": 14405,
          "time": 15.005208333333336,
          "velocity": 0.9448818897637795
        },
        {
          "duration": 0.1999999999999993,
          "durationTicks": 192,
          "midi": 69,
          "name": "A4",
          "ticks": 14981,
          "time": 15.605208333333335,
          "velocity": 0.9448818897637795
        },
        {
          "duration": 0.20000000000000107,
          "durationTicks": 192,
          "midi": 69,
          "name": "A4",
          "ticks": 15173,
          "time": 15.805208333333335,
          "velocity": 0.9448818897637795
        },
        {
          "duration": 0.1999999999999993,
          "durationTicks": 192,
          "midi": 76,
          "name": "E5",
          "ticks": 15365,
          "time": 16.005208333333336,
          "velocity": 0.9448818897637795
        },
        {
          "duration": 0.39479166666666643,
          "durationTicks": 379,
          "midi": 74,
          "name": "D5",
          "ticks": 15557,
          "time": 16.205208333333335,
          "velocity": 0.9448818897637795
        },
        {
          "duration": 0.5947916666666657,
          "durationTicks": 571,
          "midi": 72,
          "name": "C5",
          "ticks": 15941,
          "time": 16.605208333333334,
          "velocity": 0.9448818897637795
        },
        {
          "duration": 0.1999999999999993,
          "durationTicks": 192,
          "midi": 69,
          "name": "A4",
          "ticks": 16517,
          "time": 17.205208333333335,
          "velocity": 0.9448818897637795
        },
        {
          "duration": 0.1999999999999993,
          "durationTicks": 192,
          "midi": 69,
          "name": "A4",
          "ticks": 16709,
          "time": 17.405208333333334,
          "velocity": 0.9448818897637795
        },
        {
          "duration": 0.20000000000000284,
          "durationTicks": 192,
          "midi": 72,
          "name": "C5",
          "ticks": 16901,
          "time": 17.605208333333334,
          "velocity": 0.9448818897637795
        },
        {
          "duration": 0.3999999999999986,
          "durationTicks": 384,
          "midi": 72,
          "name": "C5",
          "ticks": 17093,
          "time": 17.805208333333336,
          "velocity": 0.9448818897637795
        },
        {
          "duration": 0.39479166666666643,
          "durationTicks": 379,
          "midi": 69,
          "name": "A4",
          "ticks": 17477,
          "time": 18.205208333333335,
          "velocity": 0.9448818897637795
        },
        {
          "duration": 0.5947916666666693,
          "durationTicks": 571,
          "midi": 67,
          "name": "G4",
          "ticks": 17861,
          "time": 18.605208333333334,
          "velocity": 0.9448818897637795
        },
        {
          "duration": 0.1999999999999993,
          "durationTicks": 192,
          "midi": 69,
          "name": "A4",
          "ticks": 24197,
          "time": 25.205208333333335,
          "velocity": 0.9448818897637795
        },
        {
          "duration": 0.39479166666666643,
          "durationTicks": 379,
          "midi": 69,
          "name": "A4",
          "ticks": 24389,
          "time": 25.405208333333334,
          "velocity": 0.9448818897637795
        },
        {
          "duration": 0.39479166666667,
          "durationTicks": 379,
          "midi": 69,
          "name": "A4",
          "ticks": 24773,
          "time": 25.805208333333333,
          "velocity": 0.9448818897637795
        },
        {
          "duration": 0.20000000000000284,
          "durationTicks": 192,
          "midi": 69,
          "name": "A4",
          "ticks": 25157,
          "time": 26.20520833333333,
          "velocity": 0.9448818897637795
        },
        {
          "duration": 0.1999999999999993,
          "durationTicks": 192,
          "midi": 69,
          "name": "A4",
          "ticks": 25349,
          "time": 26.405208333333334,
          "velocity": 0.9448818897637795
        },
        {
          "duration": 0.1999999999999993,
          "durationTicks": 192,
          "midi": 69,
          "name": "A4",
          "ticks": 25541,
          "time": 26.605208333333334,
          "velocity": 0.9448818897637795
        },
        {
          "duration": 0.1999999999999993,
          "durationTicks": 192,
          "midi": 69,
          "name": "A4",
          "ticks": 25733,
          "time": 26.805208333333333,
          "velocity": 0.9448818897637795
        },
        {
          "duration": 0.39479166666667,
          "durationTicks": 379,
          "midi": 69,
          "name": "A4",
          "ticks": 25925,
          "time": 27.005208333333332,
          "velocity": 0.9448818897637795
        },
        {
          "duration": 0.5947916666666657,
          "durationTicks": 571,
          "midi": 72,
          "name": "C5",
          "ticks": 26309,
          "time": 27.405208333333334,
          "velocity": 0.9448818897637795
        },
        {
          "duration": 0.1999999999999993,
          "durationTicks": 192,
          "midi": 69,
          "name": "A4",
          "ticks": 26885,
          "time": 28.005208333333332,
          "velocity": 0.9448818897637795
        },
        {
          "duration": 0.20000000000000284,
          "durationTicks": 192,
          "midi": 69,
          "name": "A4",
          "ticks": 27077,
          "time": 28.20520833333333,
          "velocity": 0.9448818897637795
        },
        {
          "duration": 0.1999999999999993,
          "durationTicks": 192,
          "midi": 76,
          "name": "E5",
          "ticks": 27269,
          "time": 28.405208333333334,
          "velocity": 0.9448818897637795
        },
        {
          "duration": 0.3999999999999986,
          "durationTicks": 384,
          "midi": 74,
          "name": "D5",
          "ticks": 27461,
          "time": 28.605208333333334,
          "velocity": 0.9448818897637795
        },
        {
          "duration": 0.5947916666666693,
          "durationTicks": 571,
          "midi": 72,
          "name": "C5",
          "ticks": 27845,
          "time": 29.005208333333332,
          "velocity": 0.9448818897637795
        },
        {
          "duration": 0.39479166666666643,
          "durationTicks": 379,
          "midi": 69,
          "name": "A4",
          "ticks": 28421,
          "time": 29.605208333333334,
          "velocity": 0.9448818897637795
        },
        {
          "duration": 0.1999999999999993,
          "durationTicks": 192,
          "midi": 72,
          "name": "C5",
          "ticks": 28805,
          "time": 30.005208333333332,
          "velocity": 0.9448818897637795
        },
        {
          "duration": 0.40000000000000213,
          "durationTicks": 384,
          "midi": 72,
          "name": "C5",
          "ticks": 28997,
          "time": 30.20520833333333,
          "velocity": 0.9448818897637795
        },
        {
          "duration": 0.3999999999999986,
          "durationTicks": 384,
          "midi": 69,
          "name": "A4",
          "ticks": 29381,
          "time": 30.605208333333334,
          "velocity": 0.9448818897637795
        },
        {
          "duration": 0.5947916666666693,
          "durationTicks": 571,
          "midi": 67,
          "name": "G4",
          "ticks": 29765,
          "time": 31.005208333333332,
          "velocity": 0.9448818897637795
        },
        {
          "duration": 0.6000000000000014,
          "durationTicks": 576,
          "midi": 69,
          "name": "A4",
          "ticks": 48965,
          "time": 51.005208333333336,
          "velocity": 0.9448818897637795
        },
        {
          "duration": 0.4000000000000057,
          "durationTicks": 384,
          "midi": 66,
          "name": "F#4",
          "ticks": 49541,
          "time": 51.60520833333334,
          "velocity": 0.9448818897637795
        },
        {
          "duration": 0.6000000000000014,
          "durationTicks": 576,
          "midi": 76,
          "name": "E5",
          "ticks": 50501,
          "time": 52.60520833333334,
          "velocity": 0.9448818897637795
        },
        {
          "duration": 0.6000000000000014,
          "durationTicks": 576,
          "midi": 69,
          "name": "A4",
          "ticks": 50501,
          "time": 52.60520833333334,
          "velocity": 0.9448818897637795
        },
        {
          "duration": 0.3999999999999986,
          "durationTicks": 384,
          "midi": 73,
          "name": "C#5",
          "ticks": 51077,
          "time": 53.20520833333334,
          "velocity": 0.9448818897637795
        },
        {
          "duration": 0.3999999999999986,
          "durationTicks": 384,
          "midi": 66,
          "name": "F#4",
          "ticks": 51077,
          "time": 53.20520833333334,
          "velocity": 0.9448818897637795
        },
        {
          "duration": 0.7947916666666615,
          "durationTicks": 763,
          "midi": 76,
          "name": "E5",
          "ticks": 52037,
          "time": 54.20520833333334,
          "velocity": 0.9448818897637795
        },
        {
          "duration": 0.7947916666666615,
          "durationTicks": 763,
          "midi": 69,
          "name": "A4",
          "ticks": 52037,
          "time": 54.20520833333334,
          "velocity": 0.9448818897637795
        },
        {
          "duration": 0.7947916666666615,
          "durationTicks": 763,
          "midi": 74,
          "name": "D5",
          "ticks": 52805,
          "time": 55.00520833333334,
          "velocity": 0.9448818897637795
        },
        {
          "duration": 0.9947916666666643,
          "durationTicks": 955,
          "midi": 72,
          "name": "C5",
          "ticks": 53573,
          "time": 55.80520833333334,
          "velocity": 0.9448818897637795
        },
        {
          "duration": 0.7947916666666615,
          "durationTicks": 763,
          "midi": 69,
          "name": "A4",
          "ticks": 53765,
          "time": 56.00520833333334,
          "velocity": 0.9448818897637795
        },
        {
          "duration": 0.5947916666666586,
          "durationTicks": 571,
          "midi": 76,
          "name": "E5",
          "ticks": 55109,
          "time": 57.40520833333334,
          "velocity": 0.9448818897637795
        },
        {
          "duration": 0.5947916666666586,
          "durationTicks": 571,
          "midi": 69,
          "name": "A4",
          "ticks": 55109,
          "time": 57.40520833333334,
          "velocity": 0.9448818897637795
        },
        {
          "duration": 0.3947916666666629,
          "durationTicks": 379,
          "midi": 66,
          "name": "F#4",
          "ticks": 55685,
          "time": 58.00520833333334,
          "velocity": 0.9448818897637795
        },
        {
          "duration": 0.19999999999999574,
          "durationTicks": 192,
          "midi": 74,
          "name": "D5",
          "ticks": 55685,
          "time": 58.00520833333334,
          "velocity": 0.9448818897637795
        },
        {
          "duration": 0.20000000000000284,
          "durationTicks": 192,
          "midi": 72,
          "name": "C5",
          "ticks": 55877,
          "time": 58.20520833333334,
          "velocity": 0.9448818897637795
        },
        {
          "duration": 0.5999999999999943,
          "durationTicks": 576,
          "midi": 69,
          "name": "A4",
          "ticks": 56645,
          "time": 59.00520833333334,
          "velocity": 0.9448818897637795
        },
        {
          "duration": 0.5999999999999943,
          "durationTicks": 576,
          "midi": 76,
          "name": "E5",
          "ticks": 56645,
          "time": 59.00520833333334,
          "velocity": 0.9448818897637795
        },
        {
          "duration": 0.3947916666666629,
          "durationTicks": 379,
          "midi": 66,
          "name": "F#4",
          "ticks": 57221,
          "time": 59.60520833333334,
          "velocity": 0.9448818897637795
        },
        {
          "duration": 0.20000000000000284,
          "durationTicks": 192,
          "midi": 74,
          "name": "D5",
          "ticks": 57221,
          "time": 59.60520833333334,
          "velocity": 0.9448818897637795
        },
        {
          "duration": 0.20000000000000284,
          "durationTicks": 192,
          "midi": 72,
          "name": "C5",
          "ticks": 57413,
          "time": 59.80520833333334,
          "velocity": 0.9448818897637795
        },
        {
          "duration": 0.8000000000000043,
          "durationTicks": 768,
          "midi": 69,
          "name": "A4",
          "ticks": 58181,
          "time": 60.60520833333334,
          "velocity": 0.9448818897637795
        },
        {
          "duration": 0.8000000000000043,
          "durationTicks": 768,
          "midi": 76,
          "name": "E5",
          "ticks": 58181,
          "time": 60.60520833333334,
          "velocity": 0.9448818897637795
        },
        {
          "duration": 0.7999999999999972,
          "durationTicks": 768,
          "midi": 74,
          "name": "D5",
          "ticks": 58949,
          "time": 61.40520833333334,
          "velocity": 0.9448818897637795
        },
        {
          "duration": 0.5947916666666657,
          "durationTicks": 571,
          "midi": 72,
          "name": "C5",
          "ticks": 59717,
          "time": 62.20520833333334,
          "velocity": 0.9448818897637795
        },
        {
          "duration": 0.3947916666666629,
          "durationTicks": 379,
          "midi": 69,
          "name": "A4",
          "ticks": 59909,
          "time": 62.40520833333334,
          "velocity": 0.9448818897637795
        },
        {
          "duration": 0.3999999999999986,
          "durationTicks": 384,
          "midi": 76,
          "name": "E5",
          "ticks": 60293,
          "time": 62.80520833333334,
          "velocity": 0.9448818897637795
        },
        {
          "duration": 0.20000000000000284,
          "durationTicks": 192,
          "midi": 74,
          "name": "D5",
          "ticks": 60677,
          "time": 63.20520833333334,
          "velocity": 0.9448818897637795
        },
        {
          "duration": 0.19999999999999574,
          "durationTicks": 192,
          "midi": 74,
          "name": "D5",
          "ticks": 60869,
          "time": 63.40520833333334,
          "velocity": 0.9448818897637795
        },
        {
          "duration": 0.7947916666666686,
          "durationTicks": 763,
          "midi": 72,
          "name": "C5",
          "ticks": 61061,
          "time": 63.60520833333334,
          "velocity": 0.9448818897637795
        },
        {
          "duration": 0.4000000000000057,
          "durationTicks": 384,
          "midi": 69,
          "name": "A4",
          "ticks": 61829,
          "time": 64.40520833333333,
          "velocity": 0.9448818897637795
        },
        {
          "duration": 0.4000000000000057,
          "durationTicks": 384,
          "midi": 69,
          "name": "A4",
          "ticks": 62213,
          "time": 64.80520833333334,
          "velocity": 0.9448818897637795
        },
        {
          "duration": 0.3999999999999915,
          "durationTicks": 384,
          "midi": 72,
          "name": "C5",
          "ticks": 62597,
          "time": 65.20520833333335,
          "velocity": 0.9448818897637795
        },
        {
          "duration": 0.20000000000000284,
          "durationTicks": 192,
          "midi": 69,
          "name": "A4",
          "ticks": 62981,
          "time": 65.60520833333334,
          "velocity": 0.9448818897637795
        },
        {
          "duration": 0.20000000000000284,
          "durationTicks": 192,
          "midi": 69,
          "name": "A4",
          "ticks": 63173,
          "time": 65.80520833333334,
          "velocity": 0.9448818897637795
        },
        {
          "duration": 0.3999999999999915,
          "durationTicks": 384,
          "midi": 76,
          "name": "E5",
          "ticks": 63365,
          "time": 66.00520833333334,
          "velocity": 0.9448818897637795
        },
        {
          "duration": 0.20000000000000284,
          "durationTicks": 192,
          "midi": 74,
          "name": "D5",
          "ticks": 63749,
          "time": 66.40520833333333,
          "velocity": 0.9448818897637795
        },
        {
          "duration": 0.20000000000000284,
          "durationTicks": 192,
          "midi": 74,
          "name": "D5",
          "ticks": 63941,
          "time": 66.60520833333334,
          "velocity": 0.9448818897637795
        },
        {
          "duration": 0.4000000000000057,
          "durationTicks": 384,
          "midi": 72,
          "name": "C5",
          "ticks": 64133,
          "time": 66.80520833333334,
          "velocity": 0.9448818897637795
        },
        {
          "duration": 0.3999999999999915,
          "durationTicks": 384,
          "midi": 67,
          "name": "G4",
          "ticks": 64517,
          "time": 67.20520833333335,
          "velocity": 0.9448818897637795
        },
        {
          "duration": 0.20000000000000284,
          "durationTicks": 192,
          "midi": 72,
          "name": "C5",
          "ticks": 64901,
          "time": 67.60520833333334,
          "velocity": 0.9448818897637795
        },
        {
          "duration": 0.3947916666666629,
          "durationTicks": 379,
          "midi": 72,
          "name": "C5",
          "ticks": 65093,
          "time": 67.80520833333334,
          "velocity": 0.9448818897637795
        },
        {
          "duration": 0.3999999999999915,
          "durationTicks": 384,
          "midi": 69,
          "name": "A4",
          "ticks": 65477,
          "time": 68.20520833333335,
          "velocity": 0.9448818897637795
        },
        {
          "duration": 0.5947916666666657,
          "durationTicks": 571,
          "midi": 67,
          "name": "G4",
          "ticks": 65861,
          "time": 68.60520833333334,
          "velocity": 0.9448818897637795
        },
        {
          "duration": 0.4000000000000057,
          "durationTicks": 384,
          "midi": 76,
          "name": "E5",
          "ticks": 71813,
          "time": 74.80520833333334,
          "velocity": 0.9448818897637795
        },
        {
          "duration": 0.19999999999998863,
          "durationTicks": 192,
          "midi": 74,
          "name": "D5",
          "ticks": 72197,
          "time": 75.20520833333335,
          "velocity": 0.9448818897637795
        },
        {
          "duration": 0.9947916666666714,
          "durationTicks": 955,
          "midi": 72,
          "name": "C5",
          "ticks": 72389,
          "time": 75.40520833333333,
          "velocity": 0.9448818897637795
        },
        {
          "duration": 0.20000000000000284,
          "durationTicks": 192,
          "midi": 69,
          "name": "A4",
          "ticks": 73349,
          "time": 76.40520833333333,
          "velocity": 0.9448818897637795
        },
        {
          "duration": 0.4000000000000057,
          "durationTicks": 384,
          "midi": 69,
          "name": "A4",
          "ticks": 73541,
          "time": 76.60520833333334,
          "velocity": 0.9448818897637795
        },
        {
          "duration": 0.5947916666666657,
          "durationTicks": 571,
          "midi": 69,
          "name": "A4",
          "ticks": 73925,
          "time": 77.00520833333334,
          "velocity": 0.9448818897637795
        },
        {
          "duration": 0.4000000000000057,
          "durationTicks": 384,
          "midi": 74,
          "name": "D5",
          "ticks": 74885,
          "time": 78.00520833333334,
          "velocity": 0.9448818897637795
        },
        {
          "duration": 0.19999999999998863,
          "durationTicks": 192,
          "midi": 74,
          "name": "D5",
          "ticks": 75269,
          "time": 78.40520833333335,
          "velocity": 0.9448818897637795
        },
        {
          "duration": 0.3947916666666629,
          "durationTicks": 379,
          "midi": 72,
          "name": "C5",
          "ticks": 75461,
          "time": 78.60520833333334,
          "velocity": 0.9448818897637795
        },
        {
          "duration": 0.5947916666666657,
          "durationTicks": 571,
          "midi": 69,
          "name": "A4",
          "ticks": 75845,
          "time": 79.00520833333334,
          "velocity": 0.9448818897637795
        },
        {
          "duration": 0.20000000000000284,
          "durationTicks": 192,
          "midi": 72,
          "name": "C5",
          "ticks": 76421,
          "time": 79.60520833333334,
          "velocity": 0.9448818897637795
        },
        {
          "duration": 0.3947916666666629,
          "durationTicks": 379,
          "midi": 72,
          "name": "C5",
          "ticks": 76613,
          "time": 79.80520833333334,
          "velocity": 0.9448818897637795
        },
        {
          "duration": 0.3947916666666629,
          "durationTicks": 379,
          "midi": 69,
          "name": "A4",
          "ticks": 76997,
          "time": 80.20520833333335,
          "velocity": 0.9448818897637795
        },
        {
          "duration": 0.6000000000000085,
          "durationTicks": 576,
          "midi": 67,
          "name": "G4",
          "ticks": 77381,
          "time": 80.60520833333334,
          "velocity": 0.9448818897637795
        }
      ] 
}

var ledZep_blackDog_90secs_R_notes = { 
        "notes": [
          {
            "duration": 0.18645833333333334,
            "durationTicks": 179,
            "midi": 40,
            "name": "E2",
            "ticks": 115,
            "time": 0.11979166666666669,
            "velocity": 0.7874015748031497
          },
          {
            "duration": 0.18645833333333328,
            "durationTicks": 179,
            "midi": 43,
            "name": "G2",
            "ticks": 307,
            "time": 0.3197916666666667,
            "velocity": 0.7874015748031497
          },
          {
            "duration": 0.18645833333333328,
            "durationTicks": 179,
            "midi": 44,
            "name": "G#2",
            "ticks": 499,
            "time": 0.5197916666666668,
            "velocity": 0.7874015748031497
          },
          {
            "duration": 0.18645833333333328,
            "durationTicks": 179,
            "midi": 45,
            "name": "A2",
            "ticks": 691,
            "time": 0.7197916666666667,
            "velocity": 0.7874015748031497
          },
          {
            "duration": 0.18645833333333328,
            "durationTicks": 179,
            "midi": 40,
            "name": "E2",
            "ticks": 883,
            "time": 0.9197916666666667,
            "velocity": 0.7874015748031497
          },
          {
            "duration": 0.37916666666666665,
            "durationTicks": 364,
            "midi": 48,
            "name": "C3",
            "ticks": 1075,
            "time": 1.1197916666666667,
            "velocity": 0.7874015748031497
          },
          {
            "duration": 0.37916666666666665,
            "durationTicks": 364,
            "midi": 45,
            "name": "A2",
            "ticks": 1459,
            "time": 1.5197916666666667,
            "velocity": 0.7874015748031497
          },
          {
            "duration": 0.1864583333333334,
            "durationTicks": 179,
            "midi": 50,
            "name": "D3",
            "ticks": 1843,
            "time": 1.9197916666666668,
            "velocity": 0.7874015748031497
          },
          {
            "duration": 0.18645833333333295,
            "durationTicks": 179,
            "midi": 52,
            "name": "E3",
            "ticks": 2035,
            "time": 2.119791666666667,
            "velocity": 0.7874015748031497
          },
          {
            "duration": 0.12500000000000044,
            "durationTicks": 120,
            "midi": 48,
            "name": "C3",
            "ticks": 2227,
            "time": 2.3197916666666667,
            "velocity": 0.7874015748031497
          },
          {
            "duration": 0.125,
            "durationTicks": 120,
            "midi": 50,
            "name": "D3",
            "ticks": 2354,
            "time": 2.4520833333333334,
            "velocity": 0.7874015748031497
          },
          {
            "duration": 0.125,
            "durationTicks": 120,
            "midi": 48,
            "name": "C3",
            "ticks": 2482,
            "time": 2.585416666666667,
            "velocity": 0.7874015748031497
          },
          {
            "duration": 0.18645833333333295,
            "durationTicks": 179,
            "midi": 45,
            "name": "A2",
            "ticks": 2611,
            "time": 2.719791666666667,
            "velocity": 0.7874015748031497
          },
          {
            "duration": 0.1864583333333334,
            "durationTicks": 179,
            "midi": 45,
            "name": "A2",
            "ticks": 2803,
            "time": 2.919791666666667,
            "velocity": 0.7874015748031497
          },
          {
            "duration": 0.3791666666666669,
            "durationTicks": 364,
            "midi": 48,
            "name": "C3",
            "ticks": 2995,
            "time": 3.119791666666667,
            "velocity": 0.7874015748031497
          },
          {
            "duration": 0.3791666666666673,
            "durationTicks": 364,
            "midi": 45,
            "name": "A2",
            "ticks": 3379,
            "time": 3.5197916666666664,
            "velocity": 0.7874015748031497
          },
          {
            "duration": 0.1864583333333334,
            "durationTicks": 179,
            "midi": 43,
            "name": "G2",
            "ticks": 3763,
            "time": 3.919791666666667,
            "velocity": 0.7874015748031497
          },
          {
            "duration": 0.1864583333333334,
            "durationTicks": 179,
            "midi": 45,
            "name": "A2",
            "ticks": 3955,
            "time": 4.119791666666667,
            "velocity": 0.7874015748031497
          },
          {
            "duration": 0.18645833333333428,
            "durationTicks": 179,
            "midi": 45,
            "name": "A2",
            "ticks": 4147,
            "time": 4.319791666666666,
            "velocity": 0.7874015748031497
          },
          {
            "duration": 0.1864583333333334,
            "durationTicks": 179,
            "midi": 38,
            "name": "D2",
            "ticks": 4339,
            "time": 4.519791666666666,
            "velocity": 0.7874015748031497
          },
          {
            "duration": 0.1864583333333334,
            "durationTicks": 179,
            "midi": 40,
            "name": "E2",
            "ticks": 4531,
            "time": 4.719791666666667,
            "velocity": 0.7874015748031497
          },
          {
            "duration": 0.1864583333333334,
            "durationTicks": 179,
            "midi": 36,
            "name": "C2",
            "ticks": 4723,
            "time": 4.919791666666667,
            "velocity": 0.7874015748031497
          },
          {
            "duration": 0.1864583333333334,
            "durationTicks": 179,
            "midi": 38,
            "name": "D2",
            "ticks": 4915,
            "time": 5.119791666666667,
            "velocity": 0.7874015748031497
          },
          {
            "duration": 0.5656249999999998,
            "durationTicks": 543,
            "midi": 33,
            "name": "A1",
            "ticks": 5107,
            "time": 5.319791666666667,
            "velocity": 0.7874015748031497
          },
          {
            "duration": 6.075000000000001,
            "durationTicks": 5832,
            "midi": 33,
            "name": "A1",
            "ticks": 5683,
            "time": 5.919791666666667,
            "velocity": 0.7874015748031497
          },
          {
            "duration": 0.1864583333333325,
            "durationTicks": 179,
            "midi": 40,
            "name": "E2",
            "ticks": 12019,
            "time": 12.519791666666668,
            "velocity": 0.7874015748031497
          },
          {
            "duration": 0.1864583333333325,
            "durationTicks": 179,
            "midi": 43,
            "name": "G2",
            "ticks": 12211,
            "time": 12.719791666666667,
            "velocity": 0.7874015748031497
          },
          {
            "duration": 0.18645833333333428,
            "durationTicks": 179,
            "midi": 44,
            "name": "G#2",
            "ticks": 12403,
            "time": 12.919791666666667,
            "velocity": 0.7874015748031497
          },
          {
            "duration": 0.18645833333333428,
            "durationTicks": 179,
            "midi": 45,
            "name": "A2",
            "ticks": 12595,
            "time": 13.119791666666666,
            "velocity": 0.7874015748031497
          },
          {
            "duration": 0.18645833333333428,
            "durationTicks": 179,
            "midi": 40,
            "name": "E2",
            "ticks": 12787,
            "time": 13.319791666666667,
            "velocity": 0.7874015748031497
          },
          {
            "duration": 0.3791666666666682,
            "durationTicks": 364,
            "midi": 48,
            "name": "C3",
            "ticks": 12979,
            "time": 13.519791666666666,
            "velocity": 0.7874015748031497
          },
          {
            "duration": 0.3791666666666682,
            "durationTicks": 364,
            "midi": 45,
            "name": "A2",
            "ticks": 13363,
            "time": 13.919791666666667,
            "velocity": 0.7874015748031497
          },
          {
            "duration": 0.18645833333333428,
            "durationTicks": 179,
            "midi": 50,
            "name": "D3",
            "ticks": 13747,
            "time": 14.319791666666667,
            "velocity": 0.7874015748031497
          },
          {
            "duration": 0.18645833333333428,
            "durationTicks": 179,
            "midi": 52,
            "name": "E3",
            "ticks": 13939,
            "time": 14.519791666666666,
            "velocity": 0.7874015748031497
          },
          {
            "duration": 0.125,
            "durationTicks": 120,
            "midi": 48,
            "name": "C3",
            "ticks": 14131,
            "time": 14.719791666666666,
            "velocity": 0.7874015748031497
          },
          {
            "duration": 0.125,
            "durationTicks": 120,
            "midi": 50,
            "name": "D3",
            "ticks": 14258,
            "time": 14.852083333333335,
            "velocity": 0.7874015748031497
          },
          {
            "duration": 0.125,
            "durationTicks": 120,
            "midi": 48,
            "name": "C3",
            "ticks": 14386,
            "time": 14.985416666666666,
            "velocity": 0.7874015748031497
          },
          {
            "duration": 0.18645833333333428,
            "durationTicks": 179,
            "midi": 45,
            "name": "A2",
            "ticks": 14515,
            "time": 15.119791666666666,
            "velocity": 0.7874015748031497
          },
          {
            "duration": 0.18645833333333428,
            "durationTicks": 179,
            "midi": 45,
            "name": "A2",
            "ticks": 14707,
            "time": 15.319791666666667,
            "velocity": 0.7874015748031497
          },
          {
            "duration": 0.3791666666666682,
            "durationTicks": 364,
            "midi": 48,
            "name": "C3",
            "ticks": 14899,
            "time": 15.519791666666666,
            "velocity": 0.7874015748031497
          },
          {
            "duration": 0.3791666666666682,
            "durationTicks": 364,
            "midi": 45,
            "name": "A2",
            "ticks": 15283,
            "time": 15.919791666666667,
            "velocity": 0.7874015748031497
          },
          {
            "duration": 0.18645833333333428,
            "durationTicks": 179,
            "midi": 43,
            "name": "G2",
            "ticks": 15667,
            "time": 16.319791666666667,
            "velocity": 0.7874015748031497
          },
          {
            "duration": 0.18645833333333428,
            "durationTicks": 179,
            "midi": 45,
            "name": "A2",
            "ticks": 15859,
            "time": 16.519791666666666,
            "velocity": 0.7874015748031497
          },
          {
            "duration": 0.18645833333333428,
            "durationTicks": 179,
            "midi": 45,
            "name": "A2",
            "ticks": 16051,
            "time": 16.719791666666666,
            "velocity": 0.7874015748031497
          },
          {
            "duration": 0.18645833333333428,
            "durationTicks": 179,
            "midi": 38,
            "name": "D2",
            "ticks": 16243,
            "time": 16.919791666666665,
            "velocity": 0.7874015748031497
          },
          {
            "duration": 0.18645833333333428,
            "durationTicks": 179,
            "midi": 40,
            "name": "E2",
            "ticks": 16435,
            "time": 17.119791666666668,
            "velocity": 0.7874015748031497
          },
          {
            "duration": 0.18645833333333428,
            "durationTicks": 179,
            "midi": 36,
            "name": "C2",
            "ticks": 16627,
            "time": 17.319791666666667,
            "velocity": 0.7874015748031497
          },
          {
            "duration": 0.18645833333333428,
            "durationTicks": 179,
            "midi": 38,
            "name": "D2",
            "ticks": 16819,
            "time": 17.519791666666666,
            "velocity": 0.7874015748031497
          },
          {
            "duration": 0.5656250000000007,
            "durationTicks": 543,
            "midi": 33,
            "name": "A1",
            "ticks": 17011,
            "time": 17.719791666666666,
            "velocity": 0.7874015748031497
          },
          {
            "duration": 6.074999999999999,
            "durationTicks": 5832,
            "midi": 33,
            "name": "A1",
            "ticks": 17587,
            "time": 18.319791666666667,
            "velocity": 0.7874015748031497
          },
          {
            "duration": 0.18645833333333428,
            "durationTicks": 179,
            "midi": 40,
            "name": "E2",
            "ticks": 23923,
            "time": 24.91979166666667,
            "velocity": 0.7874015748031497
          },
          {
            "duration": 0.18645833333333428,
            "durationTicks": 179,
            "midi": 43,
            "name": "G2",
            "ticks": 24115,
            "time": 25.119791666666668,
            "velocity": 0.7874015748031497
          },
          {
            "duration": 0.18645833333333428,
            "durationTicks": 179,
            "midi": 44,
            "name": "G#2",
            "ticks": 24307,
            "time": 25.319791666666667,
            "velocity": 0.7874015748031497
          },
          {
            "duration": 0.18645833333333428,
            "durationTicks": 179,
            "midi": 45,
            "name": "A2",
            "ticks": 24499,
            "time": 25.519791666666666,
            "velocity": 0.7874015748031497
          },
          {
            "duration": 0.18645833333333073,
            "durationTicks": 179,
            "midi": 40,
            "name": "E2",
            "ticks": 24691,
            "time": 25.71979166666667,
            "velocity": 0.7874015748031497
          },
          {
            "duration": 0.3791666666666629,
            "durationTicks": 364,
            "midi": 48,
            "name": "C3",
            "ticks": 24883,
            "time": 25.91979166666667,
            "velocity": 0.7874015748031497
          },
          {
            "duration": 0.3791666666666629,
            "durationTicks": 364,
            "midi": 45,
            "name": "A2",
            "ticks": 25267,
            "time": 26.31979166666667,
            "velocity": 0.7874015748031497
          },
          {
            "duration": 0.18645833333333073,
            "durationTicks": 179,
            "midi": 50,
            "name": "D3",
            "ticks": 25651,
            "time": 26.71979166666667,
            "velocity": 0.7874015748031497
          },
          {
            "duration": 0.18645833333333428,
            "durationTicks": 179,
            "midi": 52,
            "name": "E3",
            "ticks": 25843,
            "time": 26.91979166666667,
            "velocity": 0.7874015748031497
          },
          {
            "duration": 0.125,
            "durationTicks": 120,
            "midi": 48,
            "name": "C3",
            "ticks": 26035,
            "time": 27.11979166666667,
            "velocity": 0.7874015748031497
          },
          {
            "duration": 0.125,
            "durationTicks": 120,
            "midi": 50,
            "name": "D3",
            "ticks": 26162,
            "time": 27.25208333333333,
            "velocity": 0.7874015748031497
          },
          {
            "duration": 0.125,
            "durationTicks": 120,
            "midi": 48,
            "name": "C3",
            "ticks": 26290,
            "time": 27.38541666666667,
            "velocity": 0.7874015748031497
          },
          {
            "duration": 0.18645833333333073,
            "durationTicks": 179,
            "midi": 45,
            "name": "A2",
            "ticks": 26419,
            "time": 27.51979166666667,
            "velocity": 0.7874015748031497
          },
          {
            "duration": 0.18645833333333073,
            "durationTicks": 179,
            "midi": 45,
            "name": "A2",
            "ticks": 26611,
            "time": 27.71979166666667,
            "velocity": 0.7874015748031497
          },
          {
            "duration": 0.3791666666666629,
            "durationTicks": 364,
            "midi": 48,
            "name": "C3",
            "ticks": 26803,
            "time": 27.91979166666667,
            "velocity": 0.7874015748031497
          },
          {
            "duration": 0.3791666666666629,
            "durationTicks": 364,
            "midi": 45,
            "name": "A2",
            "ticks": 27187,
            "time": 28.31979166666667,
            "velocity": 0.7874015748031497
          },
          {
            "duration": 0.18645833333333073,
            "durationTicks": 179,
            "midi": 43,
            "name": "G2",
            "ticks": 27571,
            "time": 28.71979166666667,
            "velocity": 0.7874015748031497
          },
          {
            "duration": 0.18645833333333428,
            "durationTicks": 179,
            "midi": 45,
            "name": "A2",
            "ticks": 27763,
            "time": 28.91979166666667,
            "velocity": 0.7874015748031497
          },
          {
            "duration": 0.18645833333333073,
            "durationTicks": 179,
            "midi": 45,
            "name": "A2",
            "ticks": 27955,
            "time": 29.11979166666667,
            "velocity": 0.7874015748031497
          },
          {
            "duration": 0.18645833333333073,
            "durationTicks": 179,
            "midi": 38,
            "name": "D2",
            "ticks": 28147,
            "time": 29.31979166666667,
            "velocity": 0.7874015748031497
          },
          {
            "duration": 0.18645833333333073,
            "durationTicks": 179,
            "midi": 40,
            "name": "E2",
            "ticks": 28339,
            "time": 29.51979166666667,
            "velocity": 0.7874015748031497
          },
          {
            "duration": 0.18645833333333073,
            "durationTicks": 179,
            "midi": 36,
            "name": "C2",
            "ticks": 28531,
            "time": 29.71979166666667,
            "velocity": 0.7874015748031497
          },
          {
            "duration": 0.18645833333333428,
            "durationTicks": 179,
            "midi": 38,
            "name": "D2",
            "ticks": 28723,
            "time": 29.91979166666667,
            "velocity": 0.7874015748031497
          },
          {
            "duration": 0.5656249999999972,
            "durationTicks": 543,
            "midi": 33,
            "name": "A1",
            "ticks": 28915,
            "time": 30.11979166666667,
            "velocity": 0.7874015748031497
          },
          {
            "duration": 0.5656250000000007,
            "durationTicks": 543,
            "midi": 33,
            "name": "A1",
            "ticks": 29491,
            "time": 30.71979166666667,
            "velocity": 0.7874015748031497
          },
          {
            "duration": 0.18645833333333073,
            "durationTicks": 179,
            "midi": 35,
            "name": "B1",
            "ticks": 30067,
            "time": 31.31979166666667,
            "velocity": 0.7874015748031497
          },
          {
            "duration": 0.18645833333333073,
            "durationTicks": 179,
            "midi": 38,
            "name": "D2",
            "ticks": 30259,
            "time": 31.51979166666667,
            "velocity": 0.7874015748031497
          },
          {
            "duration": 0.18645833333333073,
            "durationTicks": 179,
            "midi": 39,
            "name": "D#2",
            "ticks": 30451,
            "time": 31.71979166666667,
            "velocity": 0.7874015748031497
          },
          {
            "duration": 0.18645833333333428,
            "durationTicks": 179,
            "midi": 40,
            "name": "E2",
            "ticks": 30643,
            "time": 31.91979166666667,
            "velocity": 0.7874015748031497
          },
          {
            "duration": 0.18645833333332718,
            "durationTicks": 179,
            "midi": 35,
            "name": "B1",
            "ticks": 30835,
            "time": 32.11979166666667,
            "velocity": 0.7874015748031497
          },
          {
            "duration": 0.3791666666666629,
            "durationTicks": 364,
            "midi": 43,
            "name": "G2",
            "ticks": 31027,
            "time": 32.31979166666667,
            "velocity": 0.7874015748031497
          },
          {
            "duration": 0.3791666666666629,
            "durationTicks": 364,
            "midi": 40,
            "name": "E2",
            "ticks": 31411,
            "time": 32.71979166666667,
            "velocity": 0.7874015748031497
          },
          {
            "duration": 0.18645833333332718,
            "durationTicks": 179,
            "midi": 35,
            "name": "B1",
            "ticks": 31795,
            "time": 33.11979166666667,
            "velocity": 0.7874015748031497
          },
          {
            "duration": 0.18645833333333428,
            "durationTicks": 179,
            "midi": 38,
            "name": "D2",
            "ticks": 31987,
            "time": 33.31979166666667,
            "velocity": 0.7874015748031497
          },
          {
            "duration": 0.18645833333333428,
            "durationTicks": 179,
            "midi": 39,
            "name": "D#2",
            "ticks": 32179,
            "time": 33.51979166666667,
            "velocity": 0.7874015748031497
          },
          {
            "duration": 0.18645833333332718,
            "durationTicks": 179,
            "midi": 40,
            "name": "E2",
            "ticks": 32371,
            "time": 33.71979166666667,
            "velocity": 0.7874015748031497
          },
          {
            "duration": 0.18645833333333428,
            "durationTicks": 179,
            "midi": 35,
            "name": "B1",
            "ticks": 32563,
            "time": 33.91979166666667,
            "velocity": 0.7874015748031497
          },
          {
            "duration": 0.375,
            "durationTicks": 360,
            "midi": 43,
            "name": "G2",
            "ticks": 32755,
            "time": 34.11979166666667,
            "velocity": 0.7874015748031497
          },
          {
            "duration": 0.3791666666666629,
            "durationTicks": 364,
            "midi": 40,
            "name": "E2",
            "ticks": 33139,
            "time": 34.51979166666667,
            "velocity": 0.7874015748031497
          },
          {
            "duration": 0.18645833333333428,
            "durationTicks": 179,
            "midi": 35,
            "name": "B1",
            "ticks": 33523,
            "time": 34.91979166666667,
            "velocity": 0.7874015748031497
          },
          {
            "duration": 0.18645833333332718,
            "durationTicks": 179,
            "midi": 38,
            "name": "D2",
            "ticks": 33715,
            "time": 35.11979166666667,
            "velocity": 0.7874015748031497
          },
          {
            "duration": 0.18645833333333428,
            "durationTicks": 179,
            "midi": 39,
            "name": "D#2",
            "ticks": 33907,
            "time": 35.31979166666667,
            "velocity": 0.7874015748031497
          },
          {
            "duration": 0.18645833333333428,
            "durationTicks": 179,
            "midi": 40,
            "name": "E2",
            "ticks": 34099,
            "time": 35.51979166666667,
            "velocity": 0.7874015748031497
          },
          {
            "duration": 0.18645833333332718,
            "durationTicks": 179,
            "midi": 35,
            "name": "B1",
            "ticks": 34291,
            "time": 35.71979166666667,
            "velocity": 0.7874015748031497
          },
          {
            "duration": 0.3791666666666629,
            "durationTicks": 364,
            "midi": 43,
            "name": "G2",
            "ticks": 34483,
            "time": 35.91979166666667,
            "velocity": 0.7874015748031497
          },
          {
            "duration": 0.3791666666666629,
            "durationTicks": 364,
            "midi": 40,
            "name": "E2",
            "ticks": 34867,
            "time": 36.31979166666667,
            "velocity": 0.7874015748031497
          },
          {
            "duration": 0.18645833333332718,
            "durationTicks": 179,
            "midi": 35,
            "name": "B1",
            "ticks": 35251,
            "time": 36.71979166666667,
            "velocity": 0.7874015748031497
          },
          {
            "duration": 0.18645833333333428,
            "durationTicks": 179,
            "midi": 38,
            "name": "D2",
            "ticks": 35443,
            "time": 36.91979166666667,
            "velocity": 0.7874015748031497
          },
          {
            "duration": 0.18645833333332718,
            "durationTicks": 179,
            "midi": 39,
            "name": "D#2",
            "ticks": 35635,
            "time": 37.11979166666667,
            "velocity": 0.7874015748031497
          },
          {
            "duration": 0.18645833333333428,
            "durationTicks": 179,
            "midi": 40,
            "name": "E2",
            "ticks": 35827,
            "time": 37.31979166666667,
            "velocity": 0.7874015748031497
          },
          {
            "duration": 0.18645833333332718,
            "durationTicks": 179,
            "midi": 40,
            "name": "E2",
            "ticks": 36211,
            "time": 37.71979166666667,
            "velocity": 0.7874015748031497
          },
          {
            "duration": 0.18645833333333428,
            "durationTicks": 179,
            "midi": 43,
            "name": "G2",
            "ticks": 36403,
            "time": 37.91979166666667,
            "velocity": 0.7874015748031497
          },
          {
            "duration": 0.18645833333332718,
            "durationTicks": 179,
            "midi": 44,
            "name": "G#2",
            "ticks": 36595,
            "time": 38.11979166666667,
            "velocity": 0.7874015748031497
          },
          {
            "duration": 0.18645833333333428,
            "durationTicks": 179,
            "midi": 45,
            "name": "A2",
            "ticks": 36787,
            "time": 38.31979166666667,
            "velocity": 0.7874015748031497
          },
          {
            "duration": 0.18645833333333428,
            "durationTicks": 179,
            "midi": 40,
            "name": "E2",
            "ticks": 36979,
            "time": 38.51979166666667,
            "velocity": 0.7874015748031497
          },
          {
            "duration": 0.3791666666666629,
            "durationTicks": 364,
            "midi": 48,
            "name": "C3",
            "ticks": 37171,
            "time": 38.71979166666667,
            "velocity": 0.7874015748031497
          },
          {
            "duration": 0.3791666666666629,
            "durationTicks": 364,
            "midi": 45,
            "name": "A2",
            "ticks": 37555,
            "time": 39.11979166666667,
            "velocity": 0.7874015748031497
          },
          {
            "duration": 0.18645833333333428,
            "durationTicks": 179,
            "midi": 50,
            "name": "D3",
            "ticks": 37939,
            "time": 39.51979166666667,
            "velocity": 0.7874015748031497
          },
          {
            "duration": 0.18645833333332718,
            "durationTicks": 179,
            "midi": 52,
            "name": "E3",
            "ticks": 38131,
            "time": 39.71979166666667,
            "velocity": 0.7874015748031497
          },
          {
            "duration": 0.125,
            "durationTicks": 120,
            "midi": 48,
            "name": "C3",
            "ticks": 38323,
            "time": 39.91979166666667,
            "velocity": 0.7874015748031497
          },
          {
            "duration": 0.125,
            "durationTicks": 120,
            "midi": 50,
            "name": "D3",
            "ticks": 38450,
            "time": 40.052083333333336,
            "velocity": 0.7874015748031497
          },
          {
            "duration": 0.125,
            "durationTicks": 120,
            "midi": 48,
            "name": "C3",
            "ticks": 38578,
            "time": 40.18541666666667,
            "velocity": 0.7874015748031497
          },
          {
            "duration": 0.18645833333332718,
            "durationTicks": 179,
            "midi": 45,
            "name": "A2",
            "ticks": 38707,
            "time": 40.319791666666674,
            "velocity": 0.7874015748031497
          },
          {
            "duration": 0.18645833333333428,
            "durationTicks": 179,
            "midi": 45,
            "name": "A2",
            "ticks": 38899,
            "time": 40.51979166666667,
            "velocity": 0.7874015748031497
          },
          {
            "duration": 0.3791666666666629,
            "durationTicks": 364,
            "midi": 48,
            "name": "C3",
            "ticks": 39091,
            "time": 40.71979166666667,
            "velocity": 0.7874015748031497
          },
          {
            "duration": 0.3791666666666629,
            "durationTicks": 364,
            "midi": 45,
            "name": "A2",
            "ticks": 39475,
            "time": 41.11979166666667,
            "velocity": 0.7874015748031497
          },
          {
            "duration": 0.18645833333333428,
            "durationTicks": 179,
            "midi": 43,
            "name": "G2",
            "ticks": 39859,
            "time": 41.51979166666667,
            "velocity": 0.7874015748031497
          },
          {
            "duration": 0.18645833333332718,
            "durationTicks": 179,
            "midi": 45,
            "name": "A2",
            "ticks": 40051,
            "time": 41.71979166666667,
            "velocity": 0.7874015748031497
          },
          {
            "duration": 0.18645833333333428,
            "durationTicks": 179,
            "midi": 45,
            "name": "A2",
            "ticks": 40243,
            "time": 41.91979166666667,
            "velocity": 0.7874015748031497
          },
          {
            "duration": 0.18645833333333428,
            "durationTicks": 179,
            "midi": 38,
            "name": "D2",
            "ticks": 40435,
            "time": 42.11979166666667,
            "velocity": 0.7874015748031497
          },
          {
            "duration": 0.18645833333332718,
            "durationTicks": 179,
            "midi": 40,
            "name": "E2",
            "ticks": 40627,
            "time": 42.319791666666674,
            "velocity": 0.7874015748031497
          },
          {
            "duration": 0.18645833333333428,
            "durationTicks": 179,
            "midi": 36,
            "name": "C2",
            "ticks": 40819,
            "time": 42.51979166666667,
            "velocity": 0.7874015748031497
          },
          {
            "duration": 0.18645833333332718,
            "durationTicks": 179,
            "midi": 38,
            "name": "D2",
            "ticks": 41011,
            "time": 42.71979166666667,
            "velocity": 0.7874015748031497
          },
          {
            "duration": 0.5656250000000043,
            "durationTicks": 543,
            "midi": 33,
            "name": "A1",
            "ticks": 41203,
            "time": 42.91979166666667,
            "velocity": 0.7874015748031497
          },
          {
            "duration": 0.3791666666666629,
            "durationTicks": 364,
            "midi": 33,
            "name": "A1",
            "ticks": 41779,
            "time": 43.51979166666667,
            "velocity": 0.7874015748031497
          },
          {
            "duration": 0.5656250000000043,
            "durationTicks": 543,
            "midi": 33,
            "name": "A1",
            "ticks": 42739,
            "time": 44.51979166666667,
            "velocity": 0.7874015748031497
          },
          {
            "duration": 0.3791666666666629,
            "durationTicks": 364,
            "midi": 33,
            "name": "A1",
            "ticks": 43315,
            "time": 45.11979166666667,
            "velocity": 0.7874015748031497
          },
          {
            "duration": 0.5656249999999972,
            "durationTicks": 543,
            "midi": 33,
            "name": "A1",
            "ticks": 44275,
            "time": 46.11979166666667,
            "velocity": 0.7874015748031497
          },
          {
            "duration": 0.3791666666666629,
            "durationTicks": 364,
            "midi": 33,
            "name": "A1",
            "ticks": 44851,
            "time": 46.71979166666667,
            "velocity": 0.7874015748031497
          },
          {
            "duration": 0.7541666666666629,
            "durationTicks": 724,
            "midi": 33,
            "name": "A1",
            "ticks": 45811,
            "time": 47.71979166666667,
            "velocity": 0.7874015748031497
          },
          {
            "duration": 0.7541666666666629,
            "durationTicks": 724,
            "midi": 36,
            "name": "C2",
            "ticks": 46579,
            "time": 48.51979166666667,
            "velocity": 0.7874015748031497
          },
          {
            "duration": 0.7541666666666629,
            "durationTicks": 724,
            "midi": 33,
            "name": "A1",
            "ticks": 47347,
            "time": 49.319791666666674,
            "velocity": 0.7874015748031497
          },
          {
            "duration": 0.7541666666666629,
            "durationTicks": 724,
            "midi": 36,
            "name": "C2",
            "ticks": 48115,
            "time": 50.11979166666667,
            "velocity": 0.7874015748031497
          },
          {
            "duration": 0.75416666666667,
            "durationTicks": 724,
            "midi": 33,
            "name": "A1",
            "ticks": 48883,
            "time": 50.91979166666667,
            "velocity": 0.7874015748031497
          },
          {
            "duration": 0.7541666666666771,
            "durationTicks": 724,
            "midi": 36,
            "name": "C2",
            "ticks": 49651,
            "time": 51.719791666666666,
            "velocity": 0.7874015748031497
          },
          {
            "duration": 0.7541666666666771,
            "durationTicks": 724,
            "midi": 33,
            "name": "A1",
            "ticks": 50419,
            "time": 52.51979166666666,
            "velocity": 0.7874015748031497
          },
          {
            "duration": 0.75416666666667,
            "durationTicks": 724,
            "midi": 36,
            "name": "C2",
            "ticks": 51187,
            "time": 53.31979166666667,
            "velocity": 0.7874015748031497
          },
          {
            "duration": 0.7541666666666771,
            "durationTicks": 724,
            "midi": 33,
            "name": "A1",
            "ticks": 51955,
            "time": 54.119791666666664,
            "velocity": 0.7874015748031497
          },
          {
            "duration": 0.75416666666667,
            "durationTicks": 724,
            "midi": 36,
            "name": "C2",
            "ticks": 52723,
            "time": 54.91979166666667,
            "velocity": 0.7874015748031497
          },
          {
            "duration": 0.5656249999999972,
            "durationTicks": 543,
            "midi": 33,
            "name": "A1",
            "ticks": 53491,
            "time": 55.719791666666666,
            "velocity": 0.7874015748031497
          },
          {
            "duration": 5.694791666666674,
            "durationTicks": 5467,
            "midi": 33,
            "name": "A1",
            "ticks": 54067,
            "time": 56.31979166666667,
            "velocity": 0.7874015748031497
          },
          {
            "duration": 0.1864583333333414,
            "durationTicks": 179,
            "midi": 40,
            "name": "E2",
            "ticks": 60019,
            "time": 62.51979166666666,
            "velocity": 0.7874015748031497
          },
          {
            "duration": 0.18645833333333428,
            "durationTicks": 179,
            "midi": 43,
            "name": "G2",
            "ticks": 60211,
            "time": 62.719791666666666,
            "velocity": 0.7874015748031497
          },
          {
            "duration": 0.18645833333333428,
            "durationTicks": 179,
            "midi": 44,
            "name": "G#2",
            "ticks": 60403,
            "time": 62.91979166666667,
            "velocity": 0.7874015748031497
          },
          {
            "duration": 0.1864583333333414,
            "durationTicks": 179,
            "midi": 45,
            "name": "A2",
            "ticks": 60595,
            "time": 63.119791666666664,
            "velocity": 0.7874015748031497
          },
          {
            "duration": 0.18645833333333428,
            "durationTicks": 179,
            "midi": 40,
            "name": "E2",
            "ticks": 60787,
            "time": 63.31979166666667,
            "velocity": 0.7874015748031497
          },
          {
            "duration": 0.3791666666666771,
            "durationTicks": 364,
            "midi": 48,
            "name": "C3",
            "ticks": 60979,
            "time": 63.51979166666666,
            "velocity": 0.7874015748031497
          },
          {
            "duration": 0.3791666666666771,
            "durationTicks": 364,
            "midi": 45,
            "name": "A2",
            "ticks": 61363,
            "time": 63.91979166666667,
            "velocity": 0.7874015748031497
          },
          {
            "duration": 0.1864583333333485,
            "durationTicks": 179,
            "midi": 50,
            "name": "D3",
            "ticks": 61747,
            "time": 64.31979166666666,
            "velocity": 0.7874015748031497
          },
          {
            "duration": 0.18645833333333428,
            "durationTicks": 179,
            "midi": 52,
            "name": "E3",
            "ticks": 61939,
            "time": 64.51979166666666,
            "velocity": 0.7874015748031497
          },
          {
            "duration": 0.125,
            "durationTicks": 120,
            "midi": 48,
            "name": "C3",
            "ticks": 62131,
            "time": 64.71979166666667,
            "velocity": 0.7874015748031497
          },
          {
            "duration": 0.125,
            "durationTicks": 120,
            "midi": 50,
            "name": "D3",
            "ticks": 62258,
            "time": 64.85208333333334,
            "velocity": 0.7874015748031497
          },
          {
            "duration": 0.125,
            "durationTicks": 120,
            "midi": 48,
            "name": "C3",
            "ticks": 62386,
            "time": 64.98541666666667,
            "velocity": 0.7874015748031497
          },
          {
            "duration": 0.18645833333333428,
            "durationTicks": 179,
            "midi": 45,
            "name": "A2",
            "ticks": 62515,
            "time": 65.11979166666667,
            "velocity": 0.7874015748031497
          },
          {
            "duration": 0.1864583333333485,
            "durationTicks": 179,
            "midi": 45,
            "name": "A2",
            "ticks": 62707,
            "time": 65.31979166666666,
            "velocity": 0.7874015748031497
          },
          {
            "duration": 0.3791666666666771,
            "durationTicks": 364,
            "midi": 48,
            "name": "C3",
            "ticks": 62899,
            "time": 65.51979166666666,
            "velocity": 0.7874015748031497
          },
          {
            "duration": 0.3791666666666771,
            "durationTicks": 364,
            "midi": 45,
            "name": "A2",
            "ticks": 63283,
            "time": 65.91979166666667,
            "velocity": 0.7874015748031497
          },
          {
            "duration": 0.1864583333333485,
            "durationTicks": 179,
            "midi": 43,
            "name": "G2",
            "ticks": 63667,
            "time": 66.31979166666666,
            "velocity": 0.7874015748031497
          },
          {
            "duration": 0.18645833333333428,
            "durationTicks": 179,
            "midi": 45,
            "name": "A2",
            "ticks": 63859,
            "time": 66.51979166666666,
            "velocity": 0.7874015748031497
          },
          {
            "duration": 0.18645833333333428,
            "durationTicks": 179,
            "midi": 45,
            "name": "A2",
            "ticks": 64051,
            "time": 66.71979166666667,
            "velocity": 0.7874015748031497
          },
          {
            "duration": 0.18645833333333428,
            "durationTicks": 179,
            "midi": 38,
            "name": "D2",
            "ticks": 64243,
            "time": 66.91979166666667,
            "velocity": 0.7874015748031497
          },
          {
            "duration": 0.18645833333333428,
            "durationTicks": 179,
            "midi": 40,
            "name": "E2",
            "ticks": 64435,
            "time": 67.11979166666667,
            "velocity": 0.7874015748031497
          },
          {
            "duration": 0.1864583333333485,
            "durationTicks": 179,
            "midi": 36,
            "name": "C2",
            "ticks": 64627,
            "time": 67.31979166666666,
            "velocity": 0.7874015748031497
          },
          {
            "duration": 0.18645833333333428,
            "durationTicks": 179,
            "midi": 38,
            "name": "D2",
            "ticks": 64819,
            "time": 67.51979166666666,
            "velocity": 0.7874015748031497
          },
          {
            "duration": 0.5656249999999972,
            "durationTicks": 543,
            "midi": 33,
            "name": "A1",
            "ticks": 65011,
            "time": 67.71979166666667,
            "velocity": 0.7874015748031497
          },
          {
            "duration": 6.075000000000003,
            "durationTicks": 5832,
            "midi": 33,
            "name": "A1",
            "ticks": 65587,
            "time": 68.31979166666666,
            "velocity": 0.7874015748031497
          },
          {
            "duration": 0.18645833333333428,
            "durationTicks": 179,
            "midi": 40,
            "name": "E2",
            "ticks": 71923,
            "time": 74.91979166666667,
            "velocity": 0.7874015748031497
          },
          {
            "duration": 0.18645833333333428,
            "durationTicks": 179,
            "midi": 43,
            "name": "G2",
            "ticks": 72115,
            "time": 75.11979166666667,
            "velocity": 0.7874015748031497
          },
          {
            "duration": 0.1864583333333485,
            "durationTicks": 179,
            "midi": 44,
            "name": "G#2",
            "ticks": 72307,
            "time": 75.31979166666666,
            "velocity": 0.7874015748031497
          },
          {
            "duration": 0.18645833333333428,
            "durationTicks": 179,
            "midi": 45,
            "name": "A2",
            "ticks": 72499,
            "time": 75.51979166666666,
            "velocity": 0.7874015748031497
          },
          {
            "duration": 0.18645833333333428,
            "durationTicks": 179,
            "midi": 40,
            "name": "E2",
            "ticks": 72691,
            "time": 75.71979166666667,
            "velocity": 0.7874015748031497
          },
          {
            "duration": 0.3791666666666771,
            "durationTicks": 364,
            "midi": 48,
            "name": "C3",
            "ticks": 72883,
            "time": 75.91979166666667,
            "velocity": 0.7874015748031497
          },
          {
            "duration": 0.3791666666666771,
            "durationTicks": 364,
            "midi": 45,
            "name": "A2",
            "ticks": 73267,
            "time": 76.31979166666666,
            "velocity": 0.7874015748031497
          },
          {
            "duration": 0.18645833333333428,
            "durationTicks": 179,
            "midi": 50,
            "name": "D3",
            "ticks": 73651,
            "time": 76.71979166666667,
            "velocity": 0.7874015748031497
          },
          {
            "duration": 0.18645833333333428,
            "durationTicks": 179,
            "midi": 52,
            "name": "E3",
            "ticks": 73843,
            "time": 76.91979166666667,
            "velocity": 0.7874015748031497
          },
          {
            "duration": 0.125,
            "durationTicks": 120,
            "midi": 48,
            "name": "C3",
            "ticks": 74035,
            "time": 77.11979166666667,
            "velocity": 0.7874015748031497
          },
          {
            "duration": 0.125,
            "durationTicks": 120,
            "midi": 50,
            "name": "D3",
            "ticks": 74162,
            "time": 77.25208333333335,
            "velocity": 0.7874015748031497
          },
          {
            "duration": 0.125,
            "durationTicks": 120,
            "midi": 48,
            "name": "C3",
            "ticks": 74290,
            "time": 77.38541666666667,
            "velocity": 0.7874015748031497
          },
          {
            "duration": 0.1864583333333485,
            "durationTicks": 179,
            "midi": 45,
            "name": "A2",
            "ticks": 74419,
            "time": 77.51979166666666,
            "velocity": 0.7874015748031497
          },
          {
            "duration": 0.18645833333333428,
            "durationTicks": 179,
            "midi": 45,
            "name": "A2",
            "ticks": 74611,
            "time": 77.71979166666667,
            "velocity": 0.7874015748031497
          },
          {
            "duration": 0.3791666666666771,
            "durationTicks": 364,
            "midi": 48,
            "name": "C3",
            "ticks": 74803,
            "time": 77.91979166666667,
            "velocity": 0.7874015748031497
          },
          {
            "duration": 0.3791666666666629,
            "durationTicks": 364,
            "midi": 45,
            "name": "A2",
            "ticks": 75187,
            "time": 78.31979166666667,
            "velocity": 0.7874015748031497
          },
          {
            "duration": 0.18645833333333428,
            "durationTicks": 179,
            "midi": 43,
            "name": "G2",
            "ticks": 75571,
            "time": 78.71979166666667,
            "velocity": 0.7874015748031497
          },
          {
            "duration": 0.18645833333333428,
            "durationTicks": 179,
            "midi": 45,
            "name": "A2",
            "ticks": 75763,
            "time": 78.91979166666667,
            "velocity": 0.7874015748031497
          },
          {
            "duration": 0.18645833333333428,
            "durationTicks": 179,
            "midi": 45,
            "name": "A2",
            "ticks": 75955,
            "time": 79.11979166666667,
            "velocity": 0.7874015748031497
          },
          {
            "duration": 0.18645833333333428,
            "durationTicks": 179,
            "midi": 38,
            "name": "D2",
            "ticks": 76147,
            "time": 79.31979166666667,
            "velocity": 0.7874015748031497
          },
          {
            "duration": 0.1864583333333485,
            "durationTicks": 179,
            "midi": 40,
            "name": "E2",
            "ticks": 76339,
            "time": 79.51979166666666,
            "velocity": 0.7874015748031497
          },
          {
            "duration": 0.18645833333333428,
            "durationTicks": 179,
            "midi": 36,
            "name": "C2",
            "ticks": 76531,
            "time": 79.71979166666667,
            "velocity": 0.7874015748031497
          },
          {
            "duration": 0.18645833333333428,
            "durationTicks": 179,
            "midi": 38,
            "name": "D2",
            "ticks": 76723,
            "time": 79.91979166666667,
            "velocity": 0.7874015748031497
          },
          {
            "duration": 0.5656249999999972,
            "durationTicks": 543,
            "midi": 33,
            "name": "A1",
            "ticks": 76915,
            "time": 80.11979166666667,
            "velocity": 0.7874015748031497
          },
          {
            "duration": 0.5656249999999972,
            "durationTicks": 543,
            "midi": 40,
            "name": "E2",
            "ticks": 107251,
            "time": 111.71979166666668,
            "velocity": 0.7874015748031497
          },
          {
            "duration": 0.5656249999999972,
            "durationTicks": 543,
            "midi": 38,
            "name": "D2",
            "ticks": 108019,
            "time": 112.51979166666668,
            "velocity": 0.7874015748031497
          },
          {
            "duration": 0.18645833333333428,
            "durationTicks": 179,
            "midi": 33,
            "name": "A1",
            "ticks": 108787,
            "time": 113.31979166666667,
            "velocity": 0.7874015748031497
          },
          {
            "duration": 0.37916666666664867,
            "durationTicks": 364,
            "midi": 31,
            "name": "G1",
            "ticks": 108979,
            "time": 113.51979166666668,
            "velocity": 0.7874015748031497
          },
          {
            "duration": 0.37916666666664867,
            "durationTicks": 364,
            "midi": 33,
            "name": "A1",
            "ticks": 109363,
            "time": 113.91979166666668,
            "velocity": 0.7874015748031497
          },
          {
            "duration": 0.18645833333333428,
            "durationTicks": 179,
            "midi": 31,
            "name": "G1",
            "ticks": 109747,
            "time": 114.31979166666667,
            "velocity": 0.7874015748031497
          },
          {
            "duration": 0.18645833333333428,
            "durationTicks": 179,
            "midi": 30,
            "name": "F#1",
            "ticks": 109939,
            "time": 114.51979166666668,
            "velocity": 0.7874015748031497
          },
          {
            "duration": 0.18645833333332007,
            "durationTicks": 179,
            "midi": 33,
            "name": "A1",
            "ticks": 110323,
            "time": 114.91979166666668,
            "velocity": 0.7874015748031497
          },
          {
            "duration": 0.18645833333332007,
            "durationTicks": 179,
            "midi": 31,
            "name": "G1",
            "ticks": 110515,
            "time": 115.11979166666669,
            "velocity": 0.7874015748031497
          },
          {
            "duration": 0.18645833333333428,
            "durationTicks": 179,
            "midi": 33,
            "name": "A1",
            "ticks": 110707,
            "time": 115.31979166666667,
            "velocity": 0.7874015748031497
          },
          {
            "duration": 0.37916666666664867,
            "durationTicks": 364,
            "midi": 36,
            "name": "C2",
            "ticks": 110899,
            "time": 115.51979166666668,
            "velocity": 0.7874015748031497
          },
          {
            "duration": 0.18645833333332007,
            "durationTicks": 179,
            "midi": 33,
            "name": "A1",
            "ticks": 111283,
            "time": 115.91979166666668,
            "velocity": 0.7874015748031497
          },
          {
            "duration": 0.18645833333332007,
            "durationTicks": 179,
            "midi": 31,
            "name": "G1",
            "ticks": 111475,
            "time": 116.11979166666669,
            "velocity": 0.7874015748031497
          },
          {
            "duration": 0.18645833333333428,
            "durationTicks": 179,
            "midi": 28,
            "name": "E1",
            "ticks": 111667,
            "time": 116.31979166666667,
            "velocity": 0.7874015748031497
          },
          {
            "duration": 0.18645833333333428,
            "durationTicks": 179,
            "midi": 33,
            "name": "A1",
            "ticks": 111859,
            "time": 116.51979166666668,
            "velocity": 0.7874015748031497
          },
          {
            "duration": 0.37916666666664867,
            "durationTicks": 364,
            "midi": 31,
            "name": "G1",
            "ticks": 112051,
            "time": 116.71979166666668,
            "velocity": 0.7874015748031497
          },
          {
            "duration": 0.37916666666664867,
            "durationTicks": 364,
            "midi": 33,
            "name": "A1",
            "ticks": 112435,
            "time": 117.11979166666669,
            "velocity": 0.7874015748031497
          },
          {
            "duration": 0.18645833333333428,
            "durationTicks": 179,
            "midi": 31,
            "name": "G1",
            "ticks": 112819,
            "time": 117.51979166666668,
            "velocity": 0.7874015748031497
          },
          {
            "duration": 0.18645833333332007,
            "durationTicks": 179,
            "midi": 30,
            "name": "F#1",
            "ticks": 113011,
            "time": 117.71979166666668,
            "velocity": 0.7874015748031497
          },
          {
            "duration": 0.5656249999999972,
            "durationTicks": 543,
            "midi": 40,
            "name": "E2",
            "ticks": 113395,
            "time": 118.11979166666669,
            "velocity": 0.7874015748031497
          },
          {
            "duration": 0.5656249999999972,
            "durationTicks": 543,
            "midi": 38,
            "name": "D2",
            "ticks": 114163,
            "time": 118.91979166666668,
            "velocity": 0.7874015748031497
          },
          {
            "duration": 6.075000000000003,
            "durationTicks": 5832,
            "midi": 33,
            "name": "A1",
            "ticks": 114739,
            "time": 119.51979166666668,
            "velocity": 0.7874015748031497
          },
          {
            "duration": 0.18645833333332007,
            "durationTicks": 179,
            "midi": 40,
            "name": "E2",
            "ticks": 121075,
            "time": 126.11979166666669,
            "velocity": 0.7874015748031497
          },
          {
            "duration": 0.18645833333333428,
            "durationTicks": 179,
            "midi": 43,
            "name": "G2",
            "ticks": 121267,
            "time": 126.31979166666667,
            "velocity": 0.7874015748031497
          },
          {
            "duration": 0.18645833333333428,
            "durationTicks": 179,
            "midi": 44,
            "name": "G#2",
            "ticks": 121459,
            "time": 126.51979166666668,
            "velocity": 0.7874015748031497
          },
          {
            "duration": 0.18645833333332007,
            "durationTicks": 179,
            "midi": 40,
            "name": "E2",
            "ticks": 121843,
            "time": 126.91979166666668,
            "velocity": 0.7874015748031497
          },
          {
            "duration": 0.1864583333333485,
            "durationTicks": 179,
            "midi": 43,
            "name": "G2",
            "ticks": 124723,
            "time": 129.91979166666667,
            "velocity": 0.7874015748031497
          },
          {
            "duration": 0.18645833333332007,
            "durationTicks": 179,
            "midi": 38,
            "name": "D2",
            "ticks": 125299,
            "time": 130.5197916666667,
            "velocity": 0.7874015748031497
          },
          {
            "duration": 0.18645833333332007,
            "durationTicks": 179,
            "midi": 40,
            "name": "E2",
            "ticks": 125491,
            "time": 130.71979166666668,
            "velocity": 0.7874015748031497
          },
          {
            "duration": 0.1864583333333485,
            "durationTicks": 179,
            "midi": 36,
            "name": "C2",
            "ticks": 125683,
            "time": 130.91979166666667,
            "velocity": 0.7874015748031497
          },
          {
            "duration": 0.18645833333332007,
            "durationTicks": 179,
            "midi": 38,
            "name": "D2",
            "ticks": 125875,
            "time": 131.11979166666669,
            "velocity": 0.7874015748031497
          },
          {
            "duration": 0.5656250000000114,
            "durationTicks": 543,
            "midi": 33,
            "name": "A1",
            "ticks": 126067,
            "time": 131.31979166666667,
            "velocity": 0.7874015748031497
          },
          {
            "duration": 6.075000000000017,
            "durationTicks": 5832,
            "midi": 33,
            "name": "A1",
            "ticks": 126643,
            "time": 131.91979166666667,
            "velocity": 0.7874015748031497
          },
          {
            "duration": 0.18645833333332007,
            "durationTicks": 179,
            "midi": 40,
            "name": "E2",
            "ticks": 132979,
            "time": 138.5197916666667,
            "velocity": 0.7874015748031497
          },
          {
            "duration": 0.18645833333332007,
            "durationTicks": 179,
            "midi": 43,
            "name": "G2",
            "ticks": 133171,
            "time": 138.71979166666668,
            "velocity": 0.7874015748031497
          },
          {
            "duration": 0.1864583333333485,
            "durationTicks": 179,
            "midi": 44,
            "name": "G#2",
            "ticks": 133363,
            "time": 138.91979166666667,
            "velocity": 0.7874015748031497
          },
          {
            "duration": 0.18645833333332007,
            "durationTicks": 179,
            "midi": 40,
            "name": "E2",
            "ticks": 133747,
            "time": 139.31979166666667,
            "velocity": 0.7874015748031497
          },
          {
            "duration": 0.18645833333332007,
            "durationTicks": 179,
            "midi": 43,
            "name": "G2",
            "ticks": 136627,
            "time": 142.31979166666667,
            "velocity": 0.7874015748031497
          },
          {
            "duration": 0.1864583333333485,
            "durationTicks": 179,
            "midi": 38,
            "name": "D2",
            "ticks": 137203,
            "time": 142.91979166666667,
            "velocity": 0.7874015748031497
          },
          {
            "duration": 0.18645833333332007,
            "durationTicks": 179,
            "midi": 40,
            "name": "E2",
            "ticks": 137395,
            "time": 143.11979166666669,
            "velocity": 0.7874015748031497
          },
          {
            "duration": 0.18645833333332007,
            "durationTicks": 179,
            "midi": 36,
            "name": "C2",
            "ticks": 137587,
            "time": 143.31979166666667,
            "velocity": 0.7874015748031497
          },
          {
            "duration": 0.18645833333332007,
            "durationTicks": 179,
            "midi": 38,
            "name": "D2",
            "ticks": 137779,
            "time": 143.5197916666667,
            "velocity": 0.7874015748031497
          },
          {
            "duration": 0.5656250000000114,
            "durationTicks": 543,
            "midi": 33,
            "name": "A1",
            "ticks": 137971,
            "time": 143.71979166666668,
            "velocity": 0.7874015748031497
          },
          {
            "duration": 6.075000000000017,
            "durationTicks": 5832,
            "midi": 33,
            "name": "A1",
            "ticks": 138547,
            "time": 144.31979166666667,
            "velocity": 0.7874015748031497
          },
          {
            "duration": 0.1864583333333485,
            "durationTicks": 179,
            "midi": 40,
            "name": "E2",
            "ticks": 144883,
            "time": 150.91979166666667,
            "velocity": 0.7874015748031497
          },
          {
            "duration": 0.18645833333332007,
            "durationTicks": 179,
            "midi": 43,
            "name": "G2",
            "ticks": 145075,
            "time": 151.11979166666669,
            "velocity": 0.7874015748031497
          },
          {
            "duration": 0.18645833333332007,
            "durationTicks": 179,
            "midi": 44,
            "name": "G#2",
            "ticks": 145267,
            "time": 151.31979166666667,
            "velocity": 0.7874015748031497
          },
          {
            "duration": 0.18645833333332007,
            "durationTicks": 179,
            "midi": 40,
            "name": "E2",
            "ticks": 145651,
            "time": 151.71979166666668,
            "velocity": 0.7874015748031497
          },
          {
            "duration": 0.18645833333332007,
            "durationTicks": 179,
            "midi": 43,
            "name": "G2",
            "ticks": 148531,
            "time": 154.71979166666668,
            "velocity": 0.7874015748031497
          },
          {
            "duration": 0.1864583333333485,
            "durationTicks": 179,
            "midi": 38,
            "name": "D2",
            "ticks": 149107,
            "time": 155.31979166666667,
            "velocity": 0.7874015748031497
          },
          {
            "duration": 0.18645833333332007,
            "durationTicks": 179,
            "midi": 40,
            "name": "E2",
            "ticks": 149299,
            "time": 155.5197916666667,
            "velocity": 0.7874015748031497
          },
          {
            "duration": 0.18645833333332007,
            "durationTicks": 179,
            "midi": 36,
            "name": "C2",
            "ticks": 149491,
            "time": 155.71979166666668,
            "velocity": 0.7874015748031497
          },
          {
            "duration": 0.18645833333332007,
            "durationTicks": 179,
            "midi": 38,
            "name": "D2",
            "ticks": 149683,
            "time": 155.9197916666667,
            "velocity": 0.7874015748031497
          },
          {
            "duration": 0.5656250000000114,
            "durationTicks": 543,
            "midi": 33,
            "name": "A1",
            "ticks": 149875,
            "time": 156.11979166666669,
            "velocity": 0.7874015748031497
          },
          {
            "duration": 0.5656250000000114,
            "durationTicks": 543,
            "midi": 33,
            "name": "A1",
            "ticks": 150451,
            "time": 156.71979166666668,
            "velocity": 0.7874015748031497
          },
          {
            "duration": 0.1864583333333485,
            "durationTicks": 179,
            "midi": 35,
            "name": "B1",
            "ticks": 151027,
            "time": 157.31979166666667,
            "velocity": 0.7874015748031497
          },
          {
            "duration": 0.18645833333332007,
            "durationTicks": 179,
            "midi": 38,
            "name": "D2",
            "ticks": 151219,
            "time": 157.5197916666667,
            "velocity": 0.7874015748031497
          },
          {
            "duration": 0.18645833333332007,
            "durationTicks": 179,
            "midi": 39,
            "name": "D#2",
            "ticks": 151411,
            "time": 157.71979166666668,
            "velocity": 0.7874015748031497
          },
          {
            "duration": 0.18645833333332007,
            "durationTicks": 179,
            "midi": 40,
            "name": "E2",
            "ticks": 151603,
            "time": 157.9197916666667,
            "velocity": 0.7874015748031497
          },
          {
            "duration": 0.18645833333332007,
            "durationTicks": 179,
            "midi": 35,
            "name": "B1",
            "ticks": 151795,
            "time": 158.11979166666669,
            "velocity": 0.7874015748031497
          },
          {
            "duration": 0.3791666666666629,
            "durationTicks": 364,
            "midi": 43,
            "name": "G2",
            "ticks": 151987,
            "time": 158.31979166666667,
            "velocity": 0.7874015748031497
          },
          {
            "duration": 0.3791666666666629,
            "durationTicks": 364,
            "midi": 40,
            "name": "E2",
            "ticks": 152371,
            "time": 158.71979166666668,
            "velocity": 0.7874015748031497
          },
          {
            "duration": 0.18645833333332007,
            "durationTicks": 179,
            "midi": 35,
            "name": "B1",
            "ticks": 152755,
            "time": 159.11979166666669,
            "velocity": 0.7874015748031497
          },
          {
            "duration": 0.1864583333333485,
            "durationTicks": 179,
            "midi": 38,
            "name": "D2",
            "ticks": 152947,
            "time": 159.31979166666667,
            "velocity": 0.7874015748031497
          },
          {
            "duration": 0.18645833333332007,
            "durationTicks": 179,
            "midi": 39,
            "name": "D#2",
            "ticks": 153139,
            "time": 159.5197916666667,
            "velocity": 0.7874015748031497
          },
          {
            "duration": 0.18645833333332007,
            "durationTicks": 179,
            "midi": 40,
            "name": "E2",
            "ticks": 153331,
            "time": 159.71979166666668,
            "velocity": 0.7874015748031497
          },
          {
            "duration": 0.18645833333332007,
            "durationTicks": 179,
            "midi": 35,
            "name": "B1",
            "ticks": 153523,
            "time": 159.9197916666667,
            "velocity": 0.7874015748031497
          },
          {
            "duration": 0.375,
            "durationTicks": 360,
            "midi": 43,
            "name": "G2",
            "ticks": 153715,
            "time": 160.11979166666669,
            "velocity": 0.7874015748031497
          },
          {
            "duration": 0.37916666666663446,
            "durationTicks": 364,
            "midi": 40,
            "name": "E2",
            "ticks": 154099,
            "time": 160.5197916666667,
            "velocity": 0.7874015748031497
          },
          {
            "duration": 0.18645833333332007,
            "durationTicks": 179,
            "midi": 35,
            "name": "B1",
            "ticks": 154483,
            "time": 160.9197916666667,
            "velocity": 0.7874015748031497
          },
          {
            "duration": 0.18645833333332007,
            "durationTicks": 179,
            "midi": 38,
            "name": "D2",
            "ticks": 154675,
            "time": 161.11979166666669,
            "velocity": 0.7874015748031497
          },
          {
            "duration": 0.1864583333333485,
            "durationTicks": 179,
            "midi": 39,
            "name": "D#2",
            "ticks": 154867,
            "time": 161.31979166666667,
            "velocity": 0.7874015748031497
          },
          {
            "duration": 0.18645833333332007,
            "durationTicks": 179,
            "midi": 40,
            "name": "E2",
            "ticks": 155059,
            "time": 161.5197916666667,
            "velocity": 0.7874015748031497
          },
          {
            "duration": 0.18645833333332007,
            "durationTicks": 179,
            "midi": 35,
            "name": "B1",
            "ticks": 155251,
            "time": 161.71979166666668,
            "velocity": 0.7874015748031497
          },
          {
            "duration": 0.37916666666663446,
            "durationTicks": 364,
            "midi": 43,
            "name": "G2",
            "ticks": 155443,
            "time": 161.9197916666667,
            "velocity": 0.7874015748031497
          },
          {
            "duration": 0.3791666666666629,
            "durationTicks": 364,
            "midi": 40,
            "name": "E2",
            "ticks": 155827,
            "time": 162.31979166666667,
            "velocity": 0.7874015748031497
          },
          {
            "duration": 0.18645833333332007,
            "durationTicks": 179,
            "midi": 35,
            "name": "B1",
            "ticks": 156211,
            "time": 162.71979166666668,
            "velocity": 0.7874015748031497
          },
          {
            "duration": 0.18645833333332007,
            "durationTicks": 179,
            "midi": 38,
            "name": "D2",
            "ticks": 156403,
            "time": 162.9197916666667,
            "velocity": 0.7874015748031497
          },
          {
            "duration": 0.18645833333332007,
            "durationTicks": 179,
            "midi": 39,
            "name": "D#2",
            "ticks": 156595,
            "time": 163.11979166666669,
            "velocity": 0.7874015748031497
          },
          {
            "duration": 0.1864583333333485,
            "durationTicks": 179,
            "midi": 40,
            "name": "E2",
            "ticks": 156787,
            "time": 163.31979166666667,
            "velocity": 0.7874015748031497
          },
          {
            "duration": 0.18645833333332007,
            "durationTicks": 179,
            "midi": 40,
            "name": "E2",
            "ticks": 157171,
            "time": 163.71979166666668,
            "velocity": 0.7874015748031497
          },
          {
            "duration": 0.18645833333332007,
            "durationTicks": 179,
            "midi": 43,
            "name": "G2",
            "ticks": 157363,
            "time": 163.9197916666667,
            "velocity": 0.7874015748031497
          },
          {
            "duration": 0.18645833333332007,
            "durationTicks": 179,
            "midi": 44,
            "name": "G#2",
            "ticks": 157555,
            "time": 164.11979166666669,
            "velocity": 0.7874015748031497
          },
          {
            "duration": 0.18645833333332007,
            "durationTicks": 179,
            "midi": 40,
            "name": "E2",
            "ticks": 157939,
            "time": 164.5197916666667,
            "velocity": 0.7874015748031497
          },
          {
            "duration": 0.18645833333332007,
            "durationTicks": 179,
            "midi": 43,
            "name": "G2",
            "ticks": 160819,
            "time": 167.5197916666667,
            "velocity": 0.7874015748031497
          },
          {
            "duration": 0.18645833333332007,
            "durationTicks": 179,
            "midi": 38,
            "name": "D2",
            "ticks": 161395,
            "time": 168.11979166666669,
            "velocity": 0.7874015748031497
          },
          {
            "duration": 0.1864583333333485,
            "durationTicks": 179,
            "midi": 40,
            "name": "E2",
            "ticks": 161587,
            "time": 168.31979166666667,
            "velocity": 0.7874015748031497
          },
          {
            "duration": 0.18645833333332007,
            "durationTicks": 179,
            "midi": 36,
            "name": "C2",
            "ticks": 161779,
            "time": 168.5197916666667,
            "velocity": 0.7874015748031497
          },
          {
            "duration": 0.18645833333332007,
            "durationTicks": 179,
            "midi": 38,
            "name": "D2",
            "ticks": 161971,
            "time": 168.71979166666668,
            "velocity": 0.7874015748031497
          },
          {
            "duration": 0.565624999999983,
            "durationTicks": 543,
            "midi": 33,
            "name": "A1",
            "ticks": 162163,
            "time": 168.9197916666667,
            "velocity": 0.7874015748031497
          },
          {
            "duration": 0.37916666666663446,
            "durationTicks": 364,
            "midi": 33,
            "name": "A1",
            "ticks": 162739,
            "time": 169.5197916666667,
            "velocity": 0.7874015748031497
          },
          {
            "duration": 0.565624999999983,
            "durationTicks": 543,
            "midi": 33,
            "name": "A1",
            "ticks": 163699,
            "time": 170.5197916666667,
            "velocity": 0.7874015748031497
          },
          {
            "duration": 0.3791666666666629,
            "durationTicks": 364,
            "midi": 33,
            "name": "A1",
            "ticks": 164275,
            "time": 171.11979166666669,
            "velocity": 0.7874015748031497
          },
          {
            "duration": 0.5656250000000114,
            "durationTicks": 543,
            "midi": 33,
            "name": "A1",
            "ticks": 165235,
            "time": 172.11979166666669,
            "velocity": 0.7874015748031497
          },
          {
            "duration": 0.3791666666666629,
            "durationTicks": 364,
            "midi": 33,
            "name": "A1",
            "ticks": 165811,
            "time": 172.71979166666668,
            "velocity": 0.7874015748031497
          },
          {
            "duration": 0.7541666666666629,
            "durationTicks": 724,
            "midi": 33,
            "name": "A1",
            "ticks": 166771,
            "time": 173.71979166666668,
            "velocity": 0.7874015748031497
          },
          {
            "duration": 0.7541666666666345,
            "durationTicks": 724,
            "midi": 36,
            "name": "C2",
            "ticks": 167539,
            "time": 174.5197916666667,
            "velocity": 0.7874015748031497
          },
          {
            "duration": 0.7541666666666629,
            "durationTicks": 724,
            "midi": 33,
            "name": "A1",
            "ticks": 168307,
            "time": 175.31979166666667,
            "velocity": 0.7874015748031497
          },
          {
            "duration": 0.7541666666666629,
            "durationTicks": 724,
            "midi": 36,
            "name": "C2",
            "ticks": 169075,
            "time": 176.11979166666669,
            "velocity": 0.7874015748031497
          },
          {
            "duration": 0.7541666666666345,
            "durationTicks": 724,
            "midi": 33,
            "name": "A1",
            "ticks": 169843,
            "time": 176.9197916666667,
            "velocity": 0.7874015748031497
          },
          {
            "duration": 0.7541666666666629,
            "durationTicks": 724,
            "midi": 36,
            "name": "C2",
            "ticks": 170611,
            "time": 177.71979166666668,
            "velocity": 0.7874015748031497
          },
          {
            "duration": 0.7541666666666345,
            "durationTicks": 724,
            "midi": 33,
            "name": "A1",
            "ticks": 171379,
            "time": 178.5197916666667,
            "velocity": 0.7874015748031497
          },
          {
            "duration": 0.7541666666666629,
            "durationTicks": 724,
            "midi": 36,
            "name": "C2",
            "ticks": 172147,
            "time": 179.31979166666667,
            "velocity": 0.7874015748031497
          },
          {
            "duration": 0.7541666666666629,
            "durationTicks": 724,
            "midi": 33,
            "name": "A1",
            "ticks": 172915,
            "time": 180.11979166666669,
            "velocity": 0.7874015748031497
          },
          {
            "duration": 0.7541666666666345,
            "durationTicks": 724,
            "midi": 36,
            "name": "C2",
            "ticks": 173683,
            "time": 180.9197916666667,
            "velocity": 0.7874015748031497
          },
          {
            "duration": 0.5656250000000114,
            "durationTicks": 543,
            "midi": 33,
            "name": "A1",
            "ticks": 174451,
            "time": 181.71979166666668,
            "velocity": 0.7874015748031497
          },
          {
            "duration": 4.175000000000011,
            "durationTicks": 4008,
            "midi": 33,
            "name": "A1",
            "ticks": 175027,
            "time": 182.31979166666667,
            "velocity": 0.7874015748031497
          },
          {
            "duration": 0.18645833333332007,
            "durationTicks": 179,
            "midi": 40,
            "name": "E2",
            "ticks": 180979,
            "time": 188.5197916666667,
            "velocity": 0.7874015748031497
          },
          {
            "duration": 0.18645833333332007,
            "durationTicks": 179,
            "midi": 43,
            "name": "G2",
            "ticks": 181171,
            "time": 188.71979166666668,
            "velocity": 0.7874015748031497
          },
          {
            "duration": 0.18645833333332007,
            "durationTicks": 179,
            "midi": 44,
            "name": "G#2",
            "ticks": 181363,
            "time": 188.9197916666667,
            "velocity": 0.7874015748031497
          },
          {
            "duration": 0.1864583333333485,
            "durationTicks": 179,
            "midi": 40,
            "name": "E2",
            "ticks": 181747,
            "time": 189.31979166666667,
            "velocity": 0.7874015748031497
          },
          {
            "duration": 0.1864583333333485,
            "durationTicks": 179,
            "midi": 43,
            "name": "G2",
            "ticks": 184627,
            "time": 192.31979166666667,
            "velocity": 0.7874015748031497
          },
          {
            "duration": 0.18645833333332007,
            "durationTicks": 179,
            "midi": 38,
            "name": "D2",
            "ticks": 185203,
            "time": 192.9197916666667,
            "velocity": 0.7874015748031497
          },
          {
            "duration": 0.18645833333332007,
            "durationTicks": 179,
            "midi": 40,
            "name": "E2",
            "ticks": 185395,
            "time": 193.11979166666669,
            "velocity": 0.7874015748031497
          },
          {
            "duration": 0.1864583333333485,
            "durationTicks": 179,
            "midi": 36,
            "name": "C2",
            "ticks": 185587,
            "time": 193.31979166666667,
            "velocity": 0.7874015748031497
          },
          {
            "duration": 0.18645833333332007,
            "durationTicks": 179,
            "midi": 38,
            "name": "D2",
            "ticks": 185779,
            "time": 193.5197916666667,
            "velocity": 0.7874015748031497
          },
          {
            "duration": 0.5656250000000114,
            "durationTicks": 543,
            "midi": 33,
            "name": "A1",
            "ticks": 185971,
            "time": 193.71979166666668,
            "velocity": 0.7874015748031497
          },
          {
            "duration": 6.075000000000017,
            "durationTicks": 5832,
            "midi": 33,
            "name": "A1",
            "ticks": 186547,
            "time": 194.31979166666667,
            "velocity": 0.7874015748031497
          },
          {
            "duration": 0.18645833333332007,
            "durationTicks": 179,
            "midi": 40,
            "name": "E2",
            "ticks": 192883,
            "time": 200.9197916666667,
            "velocity": 0.7874015748031497
          },
          {
            "duration": 0.18645833333332007,
            "durationTicks": 179,
            "midi": 43,
            "name": "G2",
            "ticks": 193075,
            "time": 201.11979166666669,
            "velocity": 0.7874015748031497
          },
          {
            "duration": 0.1864583333333485,
            "durationTicks": 179,
            "midi": 44,
            "name": "G#2",
            "ticks": 193267,
            "time": 201.31979166666667,
            "velocity": 0.7874015748031497
          },
          {
            "duration": 0.18645833333332007,
            "durationTicks": 179,
            "midi": 40,
            "name": "E2",
            "ticks": 193651,
            "time": 201.71979166666668,
            "velocity": 0.7874015748031497
          },
          {
            "duration": 0.18645833333332007,
            "durationTicks": 179,
            "midi": 43,
            "name": "G2",
            "ticks": 196531,
            "time": 204.71979166666668,
            "velocity": 0.7874015748031497
          },
          {
            "duration": 0.1864583333333485,
            "durationTicks": 179,
            "midi": 38,
            "name": "D2",
            "ticks": 197107,
            "time": 205.31979166666667,
            "velocity": 0.7874015748031497
          },
          {
            "duration": 0.1864583333333485,
            "durationTicks": 179,
            "midi": 40,
            "name": "E2",
            "ticks": 197299,
            "time": 205.51979166666666,
            "velocity": 0.7874015748031497
          },
          {
            "duration": 0.1864583333333485,
            "durationTicks": 179,
            "midi": 36,
            "name": "C2",
            "ticks": 197491,
            "time": 205.71979166666665,
            "velocity": 0.7874015748031497
          },
          {
            "duration": 0.1864583333333485,
            "durationTicks": 179,
            "midi": 38,
            "name": "D2",
            "ticks": 197683,
            "time": 205.91979166666667,
            "velocity": 0.7874015748031497
          },
          {
            "duration": 0.5656250000000114,
            "durationTicks": 543,
            "midi": 33,
            "name": "A1",
            "ticks": 197875,
            "time": 206.11979166666666,
            "velocity": 0.7874015748031497
          },
          {
            "duration": 12.154166666666697,
            "durationTicks": 11668,
            "midi": 33,
            "name": "A1",
            "ticks": 198451,
            "time": 206.71979166666665,
            "velocity": 0.7874015748031497
          },
          {
            "duration": 0.20000000000001705,
            "durationTicks": 192,
            "midi": 33,
            "name": "A1",
            "ticks": 210931,
            "time": 219.71979166666665,
            "velocity": 0.7874015748031497
          },
          {
            "duration": 0.4000000000000057,
            "durationTicks": 384,
            "midi": 31,
            "name": "G1",
            "ticks": 211123,
            "time": 219.91979166666667,
            "velocity": 0.7874015748031497
          },
          {
            "duration": 0.39999999999997726,
            "durationTicks": 384,
            "midi": 33,
            "name": "A1",
            "ticks": 211507,
            "time": 220.31979166666667,
            "velocity": 0.7874015748031497
          },
          {
            "duration": 0.4000000000000057,
            "durationTicks": 384,
            "midi": 31,
            "name": "G1",
            "ticks": 211891,
            "time": 220.71979166666665,
            "velocity": 0.7874015748031497
          },
          {
            "duration": 0.19999999999998863,
            "durationTicks": 192,
            "midi": 33,
            "name": "A1",
            "ticks": 212467,
            "time": 221.31979166666667,
            "velocity": 0.7874015748031497
          },
          {
            "duration": 0.19999999999998863,
            "durationTicks": 192,
            "midi": 31,
            "name": "G1",
            "ticks": 212659,
            "time": 221.51979166666666,
            "velocity": 0.7874015748031497
          },
          {
            "duration": 0.20000000000001705,
            "durationTicks": 192,
            "midi": 32,
            "name": "G#1",
            "ticks": 212851,
            "time": 221.71979166666665,
            "velocity": 0.7874015748031497
          },
          {
            "duration": 0.4000000000000057,
            "durationTicks": 384,
            "midi": 33,
            "name": "A1",
            "ticks": 213043,
            "time": 221.91979166666667,
            "velocity": 0.7874015748031497
          },
          {
            "duration": 0.19999999999998863,
            "durationTicks": 192,
            "midi": 33,
            "name": "A1",
            "ticks": 214003,
            "time": 222.91979166666667,
            "velocity": 0.7874015748031497
          },
          {
            "duration": 0.20000000000001705,
            "durationTicks": 192,
            "midi": 31,
            "name": "G1",
            "ticks": 214195,
            "time": 223.11979166666666,
            "velocity": 0.7874015748031497
          },
          {
            "duration": 0.19999999999998863,
            "durationTicks": 192,
            "midi": 32,
            "name": "G#1",
            "ticks": 214387,
            "time": 223.31979166666667,
            "velocity": 0.7874015748031497
          },
          {
            "duration": 0.4000000000000057,
            "durationTicks": 384,
            "midi": 33,
            "name": "A1",
            "ticks": 214579,
            "time": 223.51979166666666,
            "velocity": 0.7874015748031497
          },
          {
            "duration": 0.19999999999998863,
            "durationTicks": 192,
            "midi": 32,
            "name": "G#1",
            "ticks": 214963,
            "time": 223.91979166666667,
            "velocity": 0.7874015748031497
          },
          {
            "duration": 0.20000000000001705,
            "durationTicks": 192,
            "midi": 30,
            "name": "F#1",
            "ticks": 215155,
            "time": 224.11979166666666,
            "velocity": 0.7874015748031497
          },
          {
            "duration": 0.5999999999999943,
            "durationTicks": 576,
            "midi": 40,
            "name": "E2",
            "ticks": 215539,
            "time": 224.51979166666666,
            "velocity": 0.7874015748031497
          },
          {
            "duration": 0.5999999999999943,
            "durationTicks": 576,
            "midi": 38,
            "name": "D2",
            "ticks": 216307,
            "time": 225.31979166666667,
            "velocity": 0.7874015748031497
          },
          {
            "duration": 0.20000000000001705,
            "durationTicks": 192,
            "midi": 33,
            "name": "A1",
            "ticks": 217075,
            "time": 226.11979166666666,
            "velocity": 0.7874015748031497
          },
          {
            "duration": 0.39999999999997726,
            "durationTicks": 384,
            "midi": 31,
            "name": "G1",
            "ticks": 217267,
            "time": 226.31979166666667,
            "velocity": 0.7874015748031497
          },
          {
            "duration": 0.4000000000000057,
            "durationTicks": 384,
            "midi": 33,
            "name": "A1",
            "ticks": 217651,
            "time": 226.71979166666665,
            "velocity": 0.7874015748031497
          },
          {
            "duration": 0.4000000000000057,
            "durationTicks": 384,
            "midi": 31,
            "name": "G1",
            "ticks": 218035,
            "time": 227.11979166666666,
            "velocity": 0.7874015748031497
          },
          {
            "duration": 0.20000000000001705,
            "durationTicks": 192,
            "midi": 33,
            "name": "A1",
            "ticks": 218611,
            "time": 227.71979166666665,
            "velocity": 0.7874015748031497
          },
          {
            "duration": 0.19999999999998863,
            "durationTicks": 192,
            "midi": 31,
            "name": "G1",
            "ticks": 218803,
            "time": 227.91979166666667,
            "velocity": 0.7874015748031497
          },
          {
            "duration": 0.20000000000001705,
            "durationTicks": 192,
            "midi": 32,
            "name": "G#1",
            "ticks": 218995,
            "time": 228.11979166666666,
            "velocity": 0.7874015748031497
          },
          {
            "duration": 0.39999999999997726,
            "durationTicks": 384,
            "midi": 33,
            "name": "A1",
            "ticks": 219187,
            "time": 228.31979166666667,
            "velocity": 0.7874015748031497
          },
          {
            "duration": 0.19999999999998863,
            "durationTicks": 192,
            "midi": 33,
            "name": "A1",
            "ticks": 220147,
            "time": 229.31979166666667,
            "velocity": 0.7874015748031497
          },
          {
            "duration": 0.19999999999998863,
            "durationTicks": 192,
            "midi": 31,
            "name": "G1",
            "ticks": 220339,
            "time": 229.51979166666666,
            "velocity": 0.7874015748031497
          },
          {
            "duration": 0.20000000000001705,
            "durationTicks": 192,
            "midi": 32,
            "name": "G#1",
            "ticks": 220531,
            "time": 229.71979166666665,
            "velocity": 0.7874015748031497
          },
          {
            "duration": 0.4000000000000057,
            "durationTicks": 384,
            "midi": 33,
            "name": "A1",
            "ticks": 220723,
            "time": 229.91979166666667,
            "velocity": 0.7874015748031497
          },
          {
            "duration": 0.19999999999998863,
            "durationTicks": 192,
            "midi": 32,
            "name": "G#1",
            "ticks": 221107,
            "time": 230.31979166666667,
            "velocity": 0.7874015748031497
          },
          {
            "duration": 0.19999999999998863,
            "durationTicks": 192,
            "midi": 30,
            "name": "F#1",
            "ticks": 221299,
            "time": 230.51979166666666,
            "velocity": 0.7874015748031497
          },
          {
            "duration": 0.5999999999999943,
            "durationTicks": 576,
            "midi": 40,
            "name": "E2",
            "ticks": 221683,
            "time": 230.91979166666667,
            "velocity": 0.7874015748031497
          },
          {
            "duration": 0.6000000000000227,
            "durationTicks": 576,
            "midi": 38,
            "name": "D2",
            "ticks": 222451,
            "time": 231.71979166666665,
            "velocity": 0.7874015748031497
          },
          {
            "duration": 0.19999999999998863,
            "durationTicks": 192,
            "midi": 33,
            "name": "A1",
            "ticks": 223219,
            "time": 232.51979166666666,
            "velocity": 0.7874015748031497
          },
          {
            "duration": 0.4000000000000057,
            "durationTicks": 384,
            "midi": 31,
            "name": "G1",
            "ticks": 223411,
            "time": 232.71979166666665,
            "velocity": 0.7874015748031497
          },
          {
            "duration": 0.4000000000000057,
            "durationTicks": 384,
            "midi": 33,
            "name": "A1",
            "ticks": 223795,
            "time": 233.11979166666666,
            "velocity": 0.7874015748031497
          },
          {
            "duration": 0.4000000000000057,
            "durationTicks": 384,
            "midi": 31,
            "name": "G1",
            "ticks": 224179,
            "time": 233.51979166666666,
            "velocity": 0.7874015748031497
          },
          {
            "duration": 0.20000000000001705,
            "durationTicks": 192,
            "midi": 33,
            "name": "A1",
            "ticks": 224755,
            "time": 234.11979166666666,
            "velocity": 0.7874015748031497
          },
          {
            "duration": 0.19999999999998863,
            "durationTicks": 192,
            "midi": 31,
            "name": "G1",
            "ticks": 224947,
            "time": 234.31979166666667,
            "velocity": 0.7874015748031497
          },
          {
            "duration": 0.19999999999998863,
            "durationTicks": 192,
            "midi": 32,
            "name": "G#1",
            "ticks": 225139,
            "time": 234.51979166666666,
            "velocity": 0.7874015748031497
          },
          {
            "duration": 0.4000000000000057,
            "durationTicks": 384,
            "midi": 33,
            "name": "A1",
            "ticks": 225331,
            "time": 234.71979166666665,
            "velocity": 0.7874015748031497
          },
          {
            "duration": 0.20000000000001705,
            "durationTicks": 192,
            "midi": 33,
            "name": "A1",
            "ticks": 226291,
            "time": 235.71979166666665,
            "velocity": 0.7874015748031497
          },
          {
            "duration": 0.19999999999998863,
            "durationTicks": 192,
            "midi": 31,
            "name": "G1",
            "ticks": 226483,
            "time": 235.91979166666667,
            "velocity": 0.7874015748031497
          },
          {
            "duration": 0.20000000000001705,
            "durationTicks": 192,
            "midi": 32,
            "name": "G#1",
            "ticks": 226675,
            "time": 236.11979166666666,
            "velocity": 0.7874015748031497
          },
          {
            "duration": 0.39999999999997726,
            "durationTicks": 384,
            "midi": 33,
            "name": "A1",
            "ticks": 226867,
            "time": 236.31979166666667,
            "velocity": 0.7874015748031497
          },
          {
            "duration": 0.20000000000001705,
            "durationTicks": 192,
            "midi": 32,
            "name": "G#1",
            "ticks": 227251,
            "time": 236.71979166666665,
            "velocity": 0.7874015748031497
          },
          {
            "duration": 0.19999999999998863,
            "durationTicks": 192,
            "midi": 30,
            "name": "F#1",
            "ticks": 227443,
            "time": 236.91979166666667,
            "velocity": 0.7874015748031497
          },
          {
            "duration": 0.5999999999999943,
            "durationTicks": 576,
            "midi": 40,
            "name": "E2",
            "ticks": 227827,
            "time": 237.31979166666667,
            "velocity": 0.7874015748031497
          },
          {
            "duration": 0.5999999999999943,
            "durationTicks": 576,
            "midi": 38,
            "name": "D2",
            "ticks": 228595,
            "time": 238.11979166666666,
            "velocity": 0.7874015748031497
          },
          {
            "duration": 0.19999999999998863,
            "durationTicks": 192,
            "midi": 33,
            "name": "A1",
            "ticks": 229363,
            "time": 238.91979166666667,
            "velocity": 0.7874015748031497
          },
          {
            "duration": 0.4000000000000057,
            "durationTicks": 384,
            "midi": 31,
            "name": "G1",
            "ticks": 229555,
            "time": 239.11979166666666,
            "velocity": 0.7874015748031497
          },
          {
            "duration": 0.4000000000000057,
            "durationTicks": 384,
            "midi": 33,
            "name": "A1",
            "ticks": 229939,
            "time": 239.51979166666666,
            "velocity": 0.7874015748031497
          },
          {
            "duration": 0.4000000000000057,
            "durationTicks": 384,
            "midi": 31,
            "name": "G1",
            "ticks": 230323,
            "time": 239.91979166666667,
            "velocity": 0.7874015748031497
          },
          {
            "duration": 0.19999999999998863,
            "durationTicks": 192,
            "midi": 33,
            "name": "A1",
            "ticks": 230899,
            "time": 240.51979166666666,
            "velocity": 0.7874015748031497
          },
          {
            "duration": 0.20000000000001705,
            "durationTicks": 192,
            "midi": 31,
            "name": "G1",
            "ticks": 231091,
            "time": 240.71979166666665,
            "velocity": 0.7874015748031497
          },
          {
            "duration": 0.19999999999998863,
            "durationTicks": 192,
            "midi": 32,
            "name": "G#1",
            "ticks": 231283,
            "time": 240.91979166666667,
            "velocity": 0.7874015748031497
          },
          {
            "duration": 0.4000000000000057,
            "durationTicks": 384,
            "midi": 33,
            "name": "A1",
            "ticks": 231475,
            "time": 241.11979166666666,
            "velocity": 0.7874015748031497
          },
          {
            "duration": 0.20000000000001705,
            "durationTicks": 192,
            "midi": 33,
            "name": "A1",
            "ticks": 232435,
            "time": 242.11979166666666,
            "velocity": 0.7874015748031497
          },
          {
            "duration": 0.19999999999998863,
            "durationTicks": 192,
            "midi": 31,
            "name": "G1",
            "ticks": 232627,
            "time": 242.31979166666667,
            "velocity": 0.7874015748031497
          },
          {
            "duration": 0.19999999999998863,
            "durationTicks": 192,
            "midi": 32,
            "name": "G#1",
            "ticks": 232819,
            "time": 242.51979166666666,
            "velocity": 0.7874015748031497
          },
          {
            "duration": 0.4000000000000057,
            "durationTicks": 384,
            "midi": 33,
            "name": "A1",
            "ticks": 233011,
            "time": 242.71979166666665,
            "velocity": 0.7874015748031497
          },
          {
            "duration": 0.20000000000001705,
            "durationTicks": 192,
            "midi": 32,
            "name": "G#1",
            "ticks": 233395,
            "time": 243.11979166666666,
            "velocity": 0.7874015748031497
          },
          {
            "duration": 0.19999999999998863,
            "durationTicks": 192,
            "midi": 30,
            "name": "F#1",
            "ticks": 233587,
            "time": 243.31979166666667,
            "velocity": 0.7874015748031497
          },
          {
            "duration": 0.6000000000000227,
            "durationTicks": 576,
            "midi": 40,
            "name": "E2",
            "ticks": 233971,
            "time": 243.71979166666665,
            "velocity": 0.7874015748031497
          },
          {
            "duration": 0.5999999999999943,
            "durationTicks": 576,
            "midi": 38,
            "name": "D2",
            "ticks": 234739,
            "time": 244.51979166666666,
            "velocity": 0.7874015748031497
          },
          {
            "duration": 0.19999999999998863,
            "durationTicks": 192,
            "midi": 33,
            "name": "A1",
            "ticks": 235507,
            "time": 245.31979166666667,
            "velocity": 0.7874015748031497
          },
          {
            "duration": 0.4000000000000057,
            "durationTicks": 384,
            "midi": 31,
            "name": "G1",
            "ticks": 235699,
            "time": 245.51979166666666,
            "velocity": 0.7874015748031497
          },
          {
            "duration": 0.4000000000000057,
            "durationTicks": 384,
            "midi": 33,
            "name": "A1",
            "ticks": 236083,
            "time": 245.91979166666667,
            "velocity": 0.7874015748031497
          },
          {
            "duration": 0.39999999999997726,
            "durationTicks": 384,
            "midi": 31,
            "name": "G1",
            "ticks": 236467,
            "time": 246.31979166666667,
            "velocity": 0.7874015748031497
          },
          {
            "duration": 0.19999999999998863,
            "durationTicks": 192,
            "midi": 33,
            "name": "A1",
            "ticks": 237043,
            "time": 246.91979166666667,
            "velocity": 0.7874015748031497
          },
          {
            "duration": 0.20000000000001705,
            "durationTicks": 192,
            "midi": 31,
            "name": "G1",
            "ticks": 237235,
            "time": 247.11979166666666,
            "velocity": 0.7874015748031497
          },
          {
            "duration": 0.19999999999998863,
            "durationTicks": 192,
            "midi": 32,
            "name": "G#1",
            "ticks": 237427,
            "time": 247.31979166666667,
            "velocity": 0.7874015748031497
          },
          {
            "duration": 0.4000000000000057,
            "durationTicks": 384,
            "midi": 33,
            "name": "A1",
            "ticks": 237619,
            "time": 247.51979166666666,
            "velocity": 0.7874015748031497
          },
          {
            "duration": 0.19999999999998863,
            "durationTicks": 192,
            "midi": 33,
            "name": "A1",
            "ticks": 238579,
            "time": 248.51979166666666,
            "velocity": 0.7874015748031497
          },
          {
            "duration": 0.20000000000001705,
            "durationTicks": 192,
            "midi": 31,
            "name": "G1",
            "ticks": 238771,
            "time": 248.71979166666665,
            "velocity": 0.7874015748031497
          },
          {
            "duration": 0.19999999999998863,
            "durationTicks": 192,
            "midi": 32,
            "name": "G#1",
            "ticks": 238963,
            "time": 248.91979166666667,
            "velocity": 0.7874015748031497
          },
          {
            "duration": 0.4000000000000057,
            "durationTicks": 384,
            "midi": 33,
            "name": "A1",
            "ticks": 239155,
            "time": 249.11979166666666,
            "velocity": 0.7874015748031497
          },
          {
            "duration": 0.19999999999998863,
            "durationTicks": 192,
            "midi": 32,
            "name": "G#1",
            "ticks": 239539,
            "time": 249.51979166666666,
            "velocity": 0.7874015748031497
          },
          {
            "duration": 0.20000000000001705,
            "durationTicks": 192,
            "midi": 30,
            "name": "F#1",
            "ticks": 239731,
            "time": 249.71979166666665,
            "velocity": 0.7874015748031497
          },
          {
            "duration": 0.5999999999999943,
            "durationTicks": 576,
            "midi": 40,
            "name": "E2",
            "ticks": 240115,
            "time": 250.11979166666666,
            "velocity": 0.7874015748031497
          },
          {
            "duration": 0.5999999999999943,
            "durationTicks": 576,
            "midi": 38,
            "name": "D2",
            "ticks": 240883,
            "time": 250.91979166666667,
            "velocity": 0.7874015748031497
          },
          {
            "duration": 0.20000000000001705,
            "durationTicks": 192,
            "midi": 33,
            "name": "A1",
            "ticks": 241651,
            "time": 251.71979166666665,
            "velocity": 0.7874015748031497
          },
          {
            "duration": 0.4000000000000057,
            "durationTicks": 384,
            "midi": 31,
            "name": "G1",
            "ticks": 241843,
            "time": 251.91979166666667,
            "velocity": 0.7874015748031497
          },
          {
            "duration": 0.39999999999997726,
            "durationTicks": 384,
            "midi": 33,
            "name": "A1",
            "ticks": 242227,
            "time": 252.31979166666667,
            "velocity": 0.7874015748031497
          },
          {
            "duration": 0.4000000000000057,
            "durationTicks": 384,
            "midi": 31,
            "name": "G1",
            "ticks": 242611,
            "time": 252.71979166666665,
            "velocity": 0.7874015748031497
          },
          {
            "duration": 0.19999999999998863,
            "durationTicks": 192,
            "midi": 33,
            "name": "A1",
            "ticks": 243187,
            "time": 253.31979166666667,
            "velocity": 0.7874015748031497
          },
          {
            "duration": 0.19999999999998863,
            "durationTicks": 192,
            "midi": 31,
            "name": "G1",
            "ticks": 243379,
            "time": 253.51979166666666,
            "velocity": 0.7874015748031497
          },
          {
            "duration": 0.20000000000001705,
            "durationTicks": 192,
            "midi": 32,
            "name": "G#1",
            "ticks": 243571,
            "time": 253.71979166666665,
            "velocity": 0.7874015748031497
          },
          {
            "duration": 0.4000000000000057,
            "durationTicks": 384,
            "midi": 33,
            "name": "A1",
            "ticks": 243763,
            "time": 253.91979166666667,
            "velocity": 0.7874015748031497
          },
          {
            "duration": 0.19999999999998863,
            "durationTicks": 192,
            "midi": 33,
            "name": "A1",
            "ticks": 244723,
            "time": 254.91979166666667,
            "velocity": 0.7874015748031497
          },
          {
            "duration": 0.20000000000001705,
            "durationTicks": 192,
            "midi": 31,
            "name": "G1",
            "ticks": 244915,
            "time": 255.11979166666666,
            "velocity": 0.7874015748031497
          },
          {
            "duration": 0.19999999999998863,
            "durationTicks": 192,
            "midi": 32,
            "name": "G#1",
            "ticks": 245107,
            "time": 255.31979166666667,
            "velocity": 0.7874015748031497
          },
          {
            "duration": 0.4000000000000057,
            "durationTicks": 384,
            "midi": 33,
            "name": "A1",
            "ticks": 245299,
            "time": 255.51979166666666,
            "velocity": 0.7874015748031497
          },
          {
            "duration": 0.20000000000001705,
            "durationTicks": 192,
            "midi": 32,
            "name": "G#1",
            "ticks": 245683,
            "time": 255.91979166666667,
            "velocity": 0.7874015748031497
          },
          {
            "duration": 0.19999999999998863,
            "durationTicks": 192,
            "midi": 30,
            "name": "F#1",
            "ticks": 245875,
            "time": 256.1197916666667,
            "velocity": 0.7874015748031497
          },
          {
            "duration": 0.6000000000000227,
            "durationTicks": 576,
            "midi": 40,
            "name": "E2",
            "ticks": 246259,
            "time": 256.51979166666666,
            "velocity": 0.7874015748031497
          },
          {
            "duration": 0.5999999999999659,
            "durationTicks": 576,
            "midi": 38,
            "name": "D2",
            "ticks": 247027,
            "time": 257.3197916666667,
            "velocity": 0.7874015748031497
          },
          {
            "duration": 0.19999999999998863,
            "durationTicks": 192,
            "midi": 33,
            "name": "A1",
            "ticks": 247795,
            "time": 258.1197916666667,
            "velocity": 0.7874015748031497
          },
          {
            "duration": 0.39999999999997726,
            "durationTicks": 384,
            "midi": 31,
            "name": "G1",
            "ticks": 247987,
            "time": 258.3197916666667,
            "velocity": 0.7874015748031497
          },
          {
            "duration": 0.4000000000000341,
            "durationTicks": 384,
            "midi": 33,
            "name": "A1",
            "ticks": 248371,
            "time": 258.71979166666665,
            "velocity": 0.7874015748031497
          },
          {
            "duration": 0.39999999999997726,
            "durationTicks": 384,
            "midi": 31,
            "name": "G1",
            "ticks": 248755,
            "time": 259.1197916666667,
            "velocity": 0.7874015748031497
          },
          {
            "duration": 0.19999999999998863,
            "durationTicks": 192,
            "midi": 33,
            "name": "A1",
            "ticks": 249331,
            "time": 259.71979166666665,
            "velocity": 0.7874015748031497
          },
          {
            "duration": 0.20000000000004547,
            "durationTicks": 192,
            "midi": 31,
            "name": "G1",
            "ticks": 249523,
            "time": 259.91979166666664,
            "velocity": 0.7874015748031497
          },
          {
            "duration": 0.19999999999998863,
            "durationTicks": 192,
            "midi": 32,
            "name": "G#1",
            "ticks": 249715,
            "time": 260.1197916666667,
            "velocity": 0.7874015748031497
          },
          {
            "duration": 0.39999999999997726,
            "durationTicks": 384,
            "midi": 33,
            "name": "A1",
            "ticks": 249907,
            "time": 260.3197916666667,
            "velocity": 0.7874015748031497
          },
          {
            "duration": 0.19999999999998863,
            "durationTicks": 192,
            "midi": 33,
            "name": "A1",
            "ticks": 250867,
            "time": 261.3197916666667,
            "velocity": 0.7874015748031497
          },
          {
            "duration": 0.19999999999998863,
            "durationTicks": 192,
            "midi": 31,
            "name": "G1",
            "ticks": 251059,
            "time": 261.51979166666666,
            "velocity": 0.7874015748031497
          },
          {
            "duration": 0.19999999999998863,
            "durationTicks": 192,
            "midi": 32,
            "name": "G#1",
            "ticks": 251251,
            "time": 261.71979166666665,
            "velocity": 0.7874015748031497
          },
          {
            "duration": 0.4000000000000341,
            "durationTicks": 384,
            "midi": 33,
            "name": "A1",
            "ticks": 251443,
            "time": 261.91979166666664,
            "velocity": 0.7874015748031497
          },
          {
            "duration": 0.19999999999998863,
            "durationTicks": 192,
            "midi": 32,
            "name": "G#1",
            "ticks": 251827,
            "time": 262.3197916666667,
            "velocity": 0.7874015748031497
          },
          {
            "duration": 0.19999999999998863,
            "durationTicks": 192,
            "midi": 30,
            "name": "F#1",
            "ticks": 252019,
            "time": 262.51979166666666,
            "velocity": 0.7874015748031497
          },
          {
            "duration": 0.6000000000000227,
            "durationTicks": 576,
            "midi": 40,
            "name": "E2",
            "ticks": 252403,
            "time": 262.91979166666664,
            "velocity": 0.7874015748031497
          },
          {
            "duration": 0.6000000000000227,
            "durationTicks": 576,
            "midi": 38,
            "name": "D2",
            "ticks": 253171,
            "time": 263.71979166666665,
            "velocity": 0.7874015748031497
          },
          {
            "duration": 0.19999999999998863,
            "durationTicks": 192,
            "midi": 33,
            "name": "A1",
            "ticks": 253939,
            "time": 264.51979166666666,
            "velocity": 0.7874015748031497
          },
          {
            "duration": 0.4000000000000341,
            "durationTicks": 384,
            "midi": 31,
            "name": "G1",
            "ticks": 254131,
            "time": 264.71979166666665,
            "velocity": 0.7874015748031497
          },
          {
            "duration": 0.39999999999997726,
            "durationTicks": 384,
            "midi": 33,
            "name": "A1",
            "ticks": 254515,
            "time": 265.1197916666667,
            "velocity": 0.7874015748031497
          },
          {
            "duration": 0.39999999999997726,
            "durationTicks": 384,
            "midi": 31,
            "name": "G1",
            "ticks": 254899,
            "time": 265.51979166666666,
            "velocity": 0.7874015748031497
          },
          {
            "duration": 0.19999999999998863,
            "durationTicks": 192,
            "midi": 33,
            "name": "A1",
            "ticks": 255475,
            "time": 266.1197916666667,
            "velocity": 0.7874015748031497
          },
          {
            "duration": 0.19999999999998863,
            "durationTicks": 192,
            "midi": 31,
            "name": "G1",
            "ticks": 255667,
            "time": 266.3197916666667,
            "velocity": 0.7874015748031497
          },
          {
            "duration": 0.19999999999998863,
            "durationTicks": 192,
            "midi": 32,
            "name": "G#1",
            "ticks": 255859,
            "time": 266.51979166666666,
            "velocity": 0.7874015748031497
          },
          {
            "duration": 0.4000000000000341,
            "durationTicks": 384,
            "midi": 33,
            "name": "A1",
            "ticks": 256051,
            "time": 266.71979166666665,
            "velocity": 0.7874015748031497
          },
          {
            "duration": 0.19999999999998863,
            "durationTicks": 192,
            "midi": 33,
            "name": "A1",
            "ticks": 257011,
            "time": 267.71979166666665,
            "velocity": 0.7874015748031497
          },
          {
            "duration": 0.20000000000004547,
            "durationTicks": 192,
            "midi": 31,
            "name": "G1",
            "ticks": 257203,
            "time": 267.91979166666664,
            "velocity": 0.7874015748031497
          },
          {
            "duration": 0.19999999999998863,
            "durationTicks": 192,
            "midi": 32,
            "name": "G#1",
            "ticks": 257395,
            "time": 268.1197916666667,
            "velocity": 0.7874015748031497
          },
          {
            "duration": 0.39999999999997726,
            "durationTicks": 384,
            "midi": 33,
            "name": "A1",
            "ticks": 257587,
            "time": 268.3197916666667,
            "velocity": 0.7874015748031497
          },
          {
            "duration": 0.19999999999998863,
            "durationTicks": 192,
            "midi": 32,
            "name": "G#1",
            "ticks": 257971,
            "time": 268.71979166666665,
            "velocity": 0.7874015748031497
          },
          {
            "duration": 0.20000000000004547,
            "durationTicks": 192,
            "midi": 30,
            "name": "F#1",
            "ticks": 258163,
            "time": 268.91979166666664,
            "velocity": 0.7874015748031497
          },
          {
            "duration": 0.5999999999999659,
            "durationTicks": 576,
            "midi": 40,
            "name": "E2",
            "ticks": 258547,
            "time": 269.3197916666667,
            "velocity": 0.7874015748031497
          },
          {
            "duration": 0.5999999999999659,
            "durationTicks": 576,
            "midi": 38,
            "name": "D2",
            "ticks": 259315,
            "time": 270.1197916666667,
            "velocity": 0.7874015748031497
          },
          {
            "duration": 0.20000000000004547,
            "durationTicks": 192,
            "midi": 33,
            "name": "A1",
            "ticks": 260083,
            "time": 270.91979166666664,
            "velocity": 0.7874015748031497
          },
          {
            "duration": 0.39999999999997726,
            "durationTicks": 384,
            "midi": 31,
            "name": "G1",
            "ticks": 260275,
            "time": 271.1197916666667,
            "velocity": 0.7874015748031497
          },
          {
            "duration": 0.39999999999997726,
            "durationTicks": 384,
            "midi": 33,
            "name": "A1",
            "ticks": 260659,
            "time": 271.51979166666666,
            "velocity": 0.7874015748031497
          },
          {
            "duration": 0.4000000000000341,
            "durationTicks": 384,
            "midi": 31,
            "name": "G1",
            "ticks": 261043,
            "time": 271.91979166666664,
            "velocity": 0.7874015748031497
          },
          {
            "duration": 0.19999999999998863,
            "durationTicks": 192,
            "midi": 33,
            "name": "A1",
            "ticks": 261619,
            "time": 272.51979166666666,
            "velocity": 0.7874015748031497
          },
          {
            "duration": 0.19999999999998863,
            "durationTicks": 192,
            "midi": 31,
            "name": "G1",
            "ticks": 261811,
            "time": 272.71979166666665,
            "velocity": 0.7874015748031497
          },
          {
            "duration": 0.20000000000004547,
            "durationTicks": 192,
            "midi": 32,
            "name": "G#1",
            "ticks": 262003,
            "time": 272.91979166666664,
            "velocity": 0.7874015748031497
          },
          {
            "duration": 0.39999999999997726,
            "durationTicks": 384,
            "midi": 33,
            "name": "A1",
            "ticks": 262195,
            "time": 273.1197916666667,
            "velocity": 0.7874015748031497
          },
          {
            "duration": 0.19999999999998863,
            "durationTicks": 192,
            "midi": 33,
            "name": "A1",
            "ticks": 263155,
            "time": 274.1197916666667,
            "velocity": 0.7874015748031497
          },
          {
            "duration": 0.19999999999998863,
            "durationTicks": 192,
            "midi": 31,
            "name": "G1",
            "ticks": 263347,
            "time": 274.3197916666667,
            "velocity": 0.7874015748031497
          },
          {
            "duration": 0.19999999999998863,
            "durationTicks": 192,
            "midi": 32,
            "name": "G#1",
            "ticks": 263539,
            "time": 274.51979166666666,
            "velocity": 0.7874015748031497
          },
          {
            "duration": 0.4000000000000341,
            "durationTicks": 384,
            "midi": 33,
            "name": "A1",
            "ticks": 263731,
            "time": 274.71979166666665,
            "velocity": 0.7874015748031497
          },
          {
            "duration": 0.19999999999998863,
            "durationTicks": 192,
            "midi": 32,
            "name": "G#1",
            "ticks": 264115,
            "time": 275.1197916666667,
            "velocity": 0.7874015748031497
          },
          {
            "duration": 0.19999999999998863,
            "durationTicks": 192,
            "midi": 30,
            "name": "F#1",
            "ticks": 264307,
            "time": 275.3197916666667,
            "velocity": 0.7874015748031497
          },
          {
            "duration": 0.6000000000000227,
            "durationTicks": 576,
            "midi": 40,
            "name": "E2",
            "ticks": 264691,
            "time": 275.71979166666665,
            "velocity": 0.7874015748031497
          },
          {
            "duration": 0.6000000000000227,
            "durationTicks": 576,
            "midi": 38,
            "name": "D2",
            "ticks": 265459,
            "time": 276.51979166666666,
            "velocity": 0.7874015748031497
          },
          {
            "duration": 0.19999999999998863,
            "durationTicks": 192,
            "midi": 33,
            "name": "A1",
            "ticks": 266227,
            "time": 277.3197916666667,
            "velocity": 0.7874015748031497
          },
          {
            "duration": 0.39999999999997726,
            "durationTicks": 384,
            "midi": 31,
            "name": "G1",
            "ticks": 266419,
            "time": 277.51979166666666,
            "velocity": 0.7874015748031497
          },
          {
            "duration": 0.4000000000000341,
            "durationTicks": 384,
            "midi": 33,
            "name": "A1",
            "ticks": 266803,
            "time": 277.91979166666664,
            "velocity": 0.7874015748031497
          },
          {
            "duration": 0.39999999999997726,
            "durationTicks": 384,
            "midi": 31,
            "name": "G1",
            "ticks": 267187,
            "time": 278.3197916666667,
            "velocity": 0.7874015748031497
          },
          {
            "duration": 0.20000000000004547,
            "durationTicks": 192,
            "midi": 33,
            "name": "A1",
            "ticks": 267763,
            "time": 278.91979166666664,
            "velocity": 0.7874015748031497
          },
          {
            "duration": 0.19999999999998863,
            "durationTicks": 192,
            "midi": 31,
            "name": "G1",
            "ticks": 267955,
            "time": 279.1197916666667,
            "velocity": 0.7874015748031497
          },
          {
            "duration": 0.19999999999998863,
            "durationTicks": 192,
            "midi": 32,
            "name": "G#1",
            "ticks": 268147,
            "time": 279.3197916666667,
            "velocity": 0.7874015748031497
          },
          {
            "duration": 0.39999999999997726,
            "durationTicks": 384,
            "midi": 33,
            "name": "A1",
            "ticks": 268339,
            "time": 279.51979166666666,
            "velocity": 0.7874015748031497
          },
          {
            "duration": 0.19999999999998863,
            "durationTicks": 192,
            "midi": 33,
            "name": "A1",
            "ticks": 269299,
            "time": 280.51979166666666,
            "velocity": 0.7874015748031497
          },
          {
            "duration": 0.19999999999998863,
            "durationTicks": 192,
            "midi": 31,
            "name": "G1",
            "ticks": 269491,
            "time": 280.71979166666665,
            "velocity": 0.7874015748031497
          },
          {
            "duration": 0.20000000000004547,
            "durationTicks": 192,
            "midi": 32,
            "name": "G#1",
            "ticks": 269683,
            "time": 280.91979166666664,
            "velocity": 0.7874015748031497
          },
          {
            "duration": 0.39999999999997726,
            "durationTicks": 384,
            "midi": 33,
            "name": "A1",
            "ticks": 269875,
            "time": 281.1197916666667,
            "velocity": 0.7874015748031497
          },
          {
            "duration": 0.19999999999998863,
            "durationTicks": 192,
            "midi": 32,
            "name": "G#1",
            "ticks": 270259,
            "time": 281.51979166666666,
            "velocity": 0.7874015748031497
          },
          {
            "duration": 0.19999999999998863,
            "durationTicks": 192,
            "midi": 30,
            "name": "F#1",
            "ticks": 270451,
            "time": 281.71979166666665,
            "velocity": 0.7874015748031497
          },
          {
            "duration": 0.5999999999999659,
            "durationTicks": 576,
            "midi": 40,
            "name": "E2",
            "ticks": 270835,
            "time": 282.1197916666667,
            "velocity": 0.7874015748031497
          },
          {
            "duration": 0.6000000000000227,
            "durationTicks": 576,
            "midi": 38,
            "name": "D2",
            "ticks": 271603,
            "time": 282.91979166666664,
            "velocity": 0.7874015748031497
          },
          {
            "duration": 0.19999999999998863,
            "durationTicks": 192,
            "midi": 33,
            "name": "A1",
            "ticks": 272371,
            "time": 283.71979166666665,
            "velocity": 0.7874015748031497
          },
          {
            "duration": 0.4000000000000341,
            "durationTicks": 384,
            "midi": 31,
            "name": "G1",
            "ticks": 272563,
            "time": 283.91979166666664,
            "velocity": 0.7874015748031497
          },
          {
            "duration": 0.39999999999997726,
            "durationTicks": 384,
            "midi": 33,
            "name": "A1",
            "ticks": 272947,
            "time": 284.3197916666667,
            "velocity": 0.7874015748031497
          },
          {
            "duration": 0.4000000000000341,
            "durationTicks": 384,
            "midi": 31,
            "name": "G1",
            "ticks": 273331,
            "time": 284.71979166666665,
            "velocity": 0.7874015748031497
          },
          {
            "duration": 0.19999999999998863,
            "durationTicks": 192,
            "midi": 33,
            "name": "A1",
            "ticks": 273907,
            "time": 285.3197916666667,
            "velocity": 0.7874015748031497
          },
          {
            "duration": 0.19999999999998863,
            "durationTicks": 192,
            "midi": 31,
            "name": "G1",
            "ticks": 274099,
            "time": 285.51979166666666,
            "velocity": 0.7874015748031497
          },
          {
            "duration": 0.19999999999998863,
            "durationTicks": 192,
            "midi": 32,
            "name": "G#1",
            "ticks": 274291,
            "time": 285.71979166666665,
            "velocity": 0.7874015748031497
          },
          {
            "duration": 0.4000000000000341,
            "durationTicks": 384,
            "midi": 33,
            "name": "A1",
            "ticks": 274483,
            "time": 285.91979166666664,
            "velocity": 0.7874015748031497
          },
          {
            "duration": 0.20000000000004547,
            "durationTicks": 192,
            "midi": 33,
            "name": "A1",
            "ticks": 275443,
            "time": 286.91979166666664,
            "velocity": 0.7874015748031497
          },
          {
            "duration": 0.19999999999998863,
            "durationTicks": 192,
            "midi": 31,
            "name": "G1",
            "ticks": 275635,
            "time": 287.1197916666667,
            "velocity": 0.7874015748031497
          },
          {
            "duration": 0.19999999999998863,
            "durationTicks": 192,
            "midi": 32,
            "name": "G#1",
            "ticks": 275827,
            "time": 287.3197916666667,
            "velocity": 0.7874015748031497
          },
          {
            "duration": 0.39999999999997726,
            "durationTicks": 384,
            "midi": 33,
            "name": "A1",
            "ticks": 276019,
            "time": 287.51979166666666,
            "velocity": 0.7874015748031497
          },
          {
            "duration": 0.20000000000004547,
            "durationTicks": 192,
            "midi": 32,
            "name": "G#1",
            "ticks": 276403,
            "time": 287.91979166666664,
            "velocity": 0.7874015748031497
          },
          {
            "duration": 0.19999999999998863,
            "durationTicks": 192,
            "midi": 30,
            "name": "F#1",
            "ticks": 276595,
            "time": 288.1197916666667,
            "velocity": 0.7874015748031497
          },
          {
            "duration": 0.6000000000000227,
            "durationTicks": 576,
            "midi": 40,
            "name": "E2",
            "ticks": 276979,
            "time": 288.51979166666666,
            "velocity": 0.7874015748031497
          },
          {
            "duration": 0.5999999999999659,
            "durationTicks": 576,
            "midi": 38,
            "name": "D2",
            "ticks": 277747,
            "time": 289.3197916666667,
            "velocity": 0.7874015748031497
          },
          {
            "duration": 0.19999999999998863,
            "durationTicks": 192,
            "midi": 33,
            "name": "A1",
            "ticks": 278515,
            "time": 290.1197916666667,
            "velocity": 0.7874015748031497
          },
          {
            "duration": 0.39999999999997726,
            "durationTicks": 384,
            "midi": 31,
            "name": "G1",
            "ticks": 278707,
            "time": 290.3197916666667,
            "velocity": 0.7874015748031497
          },
          {
            "duration": 0.4000000000000341,
            "durationTicks": 384,
            "midi": 33,
            "name": "A1",
            "ticks": 279091,
            "time": 290.71979166666665,
            "velocity": 0.7874015748031497
          },
          {
            "duration": 0.39999999999997726,
            "durationTicks": 384,
            "midi": 31,
            "name": "G1",
            "ticks": 279475,
            "time": 291.1197916666667,
            "velocity": 0.7874015748031497
          },
          {
            "duration": 0.19999999999998863,
            "durationTicks": 192,
            "midi": 33,
            "name": "A1",
            "ticks": 280051,
            "time": 291.71979166666665,
            "velocity": 0.7874015748031497
          },
          {
            "duration": 0.20000000000004547,
            "durationTicks": 192,
            "midi": 31,
            "name": "G1",
            "ticks": 280243,
            "time": 291.91979166666664,
            "velocity": 0.7874015748031497
          },
          {
            "duration": 0.19999999999998863,
            "durationTicks": 192,
            "midi": 32,
            "name": "G#1",
            "ticks": 280435,
            "time": 292.1197916666667,
            "velocity": 0.7874015748031497
          },
          {
            "duration": 0.39999999999997726,
            "durationTicks": 384,
            "midi": 33,
            "name": "A1",
            "ticks": 280627,
            "time": 292.3197916666667,
            "velocity": 0.7874015748031497
          },
          {
            "duration": 0.19999999999998863,
            "durationTicks": 192,
            "midi": 33,
            "name": "A1",
            "ticks": 281587,
            "time": 293.3197916666667,
            "velocity": 0.7874015748031497
          },
          {
            "duration": 0.19999999999998863,
            "durationTicks": 192,
            "midi": 31,
            "name": "G1",
            "ticks": 281779,
            "time": 293.51979166666666,
            "velocity": 0.7874015748031497
          },
          {
            "duration": 0.19999999999998863,
            "durationTicks": 192,
            "midi": 32,
            "name": "G#1",
            "ticks": 281971,
            "time": 293.71979166666665,
            "velocity": 0.7874015748031497
          },
          {
            "duration": 0.4000000000000341,
            "durationTicks": 384,
            "midi": 33,
            "name": "A1",
            "ticks": 282163,
            "time": 293.91979166666664,
            "velocity": 0.7874015748031497
          },
          {
            "duration": 0.19999999999998863,
            "durationTicks": 192,
            "midi": 32,
            "name": "G#1",
            "ticks": 282547,
            "time": 294.3197916666667,
            "velocity": 0.7874015748031497
          },
          {
            "duration": 0.19999999999998863,
            "durationTicks": 192,
            "midi": 30,
            "name": "F#1",
            "ticks": 282739,
            "time": 294.51979166666666,
            "velocity": 0.7874015748031497
          },
          {
            "duration": 0.6000000000000227,
            "durationTicks": 576,
            "midi": 40,
            "name": "E2",
            "ticks": 283123,
            "time": 294.91979166666664,
            "velocity": 0.7874015748031497
          },
          {
            "duration": 0.6000000000000227,
            "durationTicks": 576,
            "midi": 38,
            "name": "D2",
            "ticks": 283891,
            "time": 295.71979166666665,
            "velocity": 0.7874015748031497
          }
        ] 
  }