let ledZep_blackDog_60secs_L_notes = { 
    
            "notes": [
              {
                "duration": 0.2,
                "durationTicks": 192,
                "midi": 69,
                "name": "A4",
                "ticks": 15,
                "time": 0.015625,
                "velocity": 0.9448818897637795
              },
              {
                "duration": 0.3947916666666667,
                "durationTicks": 379,
                "midi": 69,
                "name": "A4",
                "ticks": 207,
                "time": 0.215625,
                "velocity": 0.9448818897637795
              },
              {
                "duration": 0.39479166666666665,
                "durationTicks": 379,
                "midi": 69,
                "name": "A4",
                "ticks": 591,
                "time": 0.6156250000000001,
                "velocity": 0.9448818897637795
              },
              {
                "duration": 0.20000000000000018,
                "durationTicks": 192,
                "midi": 67,
                "name": "G4",
                "ticks": 975,
                "time": 1.015625,
                "velocity": 0.9448818897637795
              },
              {
                "duration": 0.19999999999999996,
                "durationTicks": 192,
                "midi": 69,
                "name": "A4",
                "ticks": 1167,
                "time": 1.2156250000000002,
                "velocity": 0.9448818897637795
              },
              {
                "duration": 0.19999999999999996,
                "durationTicks": 192,
                "midi": 67,
                "name": "G4",
                "ticks": 1359,
                "time": 1.4156250000000001,
                "velocity": 0.9448818897637795
              },
              {
                "duration": 0.19999999999999996,
                "durationTicks": 192,
                "midi": 69,
                "name": "A4",
                "ticks": 1551,
                "time": 1.615625,
                "velocity": 0.9448818897637795
              },
              {
                "duration": 0.39479166666666665,
                "durationTicks": 379,
                "midi": 69,
                "name": "A4",
                "ticks": 1743,
                "time": 1.815625,
                "velocity": 0.9448818897637795
              },
              {
                "duration": 0.5947916666666666,
                "durationTicks": 571,
                "midi": 72,
                "name": "C5",
                "ticks": 2127,
                "time": 2.215625,
                "velocity": 0.9448818897637795
              },
              {
                "duration": 0.19999999999999973,
                "durationTicks": 192,
                "midi": 69,
                "name": "A4",
                "ticks": 2703,
                "time": 2.8156250000000003,
                "velocity": 0.9448818897637795
              },
              {
                "duration": 0.20000000000000018,
                "durationTicks": 192,
                "midi": 69,
                "name": "A4",
                "ticks": 2895,
                "time": 3.015625,
                "velocity": 0.9448818897637795
              },
              {
                "duration": 0.20000000000000018,
                "durationTicks": 192,
                "midi": 76,
                "name": "E5",
                "ticks": 3087,
                "time": 3.215625,
                "velocity": 0.9448818897637795
              },
              {
                "duration": 0.3999999999999999,
                "durationTicks": 384,
                "midi": 74,
                "name": "D5",
                "ticks": 3279,
                "time": 3.4156250000000004,
                "velocity": 0.9448818897637795
              },
              {
                "duration": 0.5947916666666662,
                "durationTicks": 571,
                "midi": 72,
                "name": "C5",
                "ticks": 3663,
                "time": 3.8156250000000003,
                "velocity": 0.9448818897637795
              },
              {
                "duration": 0.20000000000000018,
                "durationTicks": 192,
                "midi": 69,
                "name": "A4",
                "ticks": 4239,
                "time": 4.415625,
                "velocity": 0.9448818897637795
              },
              {
                "duration": 0.20000000000000018,
                "durationTicks": 192,
                "midi": 69,
                "name": "A4",
                "ticks": 4431,
                "time": 4.6156250000000005,
                "velocity": 0.9448818897637795
              },
              {
                "duration": 0.1999999999999993,
                "durationTicks": 192,
                "midi": 72,
                "name": "C5",
                "ticks": 4623,
                "time": 4.815625000000001,
                "velocity": 0.9448818897637795
              },
              {
                "duration": 0.40000000000000036,
                "durationTicks": 384,
                "midi": 72,
                "name": "C5",
                "ticks": 4815,
                "time": 5.015625,
                "velocity": 0.9448818897637795
              },
              {
                "duration": 0.40000000000000036,
                "durationTicks": 384,
                "midi": 69,
                "name": "A4",
                "ticks": 5199,
                "time": 5.415625,
                "velocity": 0.9448818897637795
              },
              {
                "duration": 0.5947916666666666,
                "durationTicks": 571,
                "midi": 67,
                "name": "G4",
                "ticks": 5583,
                "time": 5.815625000000001,
                "velocity": 0.9448818897637795
              },
              {
                "duration": 0.1999999999999993,
                "durationTicks": 192,
                "midi": 69,
                "name": "A4",
                "ticks": 12303,
                "time": 12.815625,
                "velocity": 0.9448818897637795
              },
              {
                "duration": 0.39479166666666643,
                "durationTicks": 379,
                "midi": 69,
                "name": "A4",
                "ticks": 12495,
                "time": 13.015625,
                "velocity": 0.9448818897637795
              },
              {
                "duration": 0.5947916666666657,
                "durationTicks": 571,
                "midi": 69,
                "name": "A4",
                "ticks": 12879,
                "time": 13.415625,
                "velocity": 0.9448818897637795
              },
              {
                "duration": 0.20000000000000107,
                "durationTicks": 192,
                "midi": 69,
                "name": "A4",
                "ticks": 13455,
                "time": 14.015625,
                "velocity": 0.9448818897637795
              },
              {
                "duration": 0.1999999999999993,
                "durationTicks": 192,
                "midi": 67,
                "name": "G4",
                "ticks": 13647,
                "time": 14.215625000000001,
                "velocity": 0.9448818897637795
              },
              {
                "duration": 0.20000000000000107,
                "durationTicks": 192,
                "midi": 69,
                "name": "A4",
                "ticks": 13839,
                "time": 14.415625,
                "velocity": 0.9448818897637795
              },
              {
                "duration": 0.3999999999999986,
                "durationTicks": 384,
                "midi": 69,
                "name": "A4",
                "ticks": 14031,
                "time": 14.615625000000001,
                "velocity": 0.9448818897637795
              },
              {
                "duration": 0.5947916666666657,
                "durationTicks": 571,
                "midi": 72,
                "name": "C5",
                "ticks": 14415,
                "time": 15.015625,
                "velocity": 0.9448818897637795
              },
              {
                "duration": 0.1999999999999993,
                "durationTicks": 192,
                "midi": 69,
                "name": "A4",
                "ticks": 14991,
                "time": 15.615625000000001,
                "velocity": 0.9448818897637795
              },
              {
                "duration": 0.1999999999999993,
                "durationTicks": 192,
                "midi": 69,
                "name": "A4",
                "ticks": 15183,
                "time": 15.815625,
                "velocity": 0.9448818897637795
              },
              {
                "duration": 0.1999999999999993,
                "durationTicks": 192,
                "midi": 76,
                "name": "E5",
                "ticks": 15375,
                "time": 16.015625,
                "velocity": 0.9448818897637795
              },
              {
                "duration": 0.39479166666666643,
                "durationTicks": 379,
                "midi": 74,
                "name": "D5",
                "ticks": 15567,
                "time": 16.215625,
                "velocity": 0.9448818897637795
              },
              {
                "duration": 0.5947916666666657,
                "durationTicks": 571,
                "midi": 72,
                "name": "C5",
                "ticks": 15951,
                "time": 16.615625,
                "velocity": 0.9448818897637795
              },
              {
                "duration": 0.20000000000000284,
                "durationTicks": 192,
                "midi": 69,
                "name": "A4",
                "ticks": 16527,
                "time": 17.215625,
                "velocity": 0.9448818897637795
              },
              {
                "duration": 0.1999999999999993,
                "durationTicks": 192,
                "midi": 69,
                "name": "A4",
                "ticks": 16719,
                "time": 17.415625000000002,
                "velocity": 0.9448818897637795
              },
              {
                "duration": 0.1999999999999993,
                "durationTicks": 192,
                "midi": 72,
                "name": "C5",
                "ticks": 16911,
                "time": 17.615625,
                "velocity": 0.9448818897637795
              },
              {
                "duration": 0.3999999999999986,
                "durationTicks": 384,
                "midi": 72,
                "name": "C5",
                "ticks": 17103,
                "time": 17.815625,
                "velocity": 0.9448818897637795
              },
              {
                "duration": 0.39479166666666643,
                "durationTicks": 379,
                "midi": 69,
                "name": "A4",
                "ticks": 17487,
                "time": 18.215625,
                "velocity": 0.9448818897637795
              },
              {
                "duration": 0.5947916666666657,
                "durationTicks": 571,
                "midi": 67,
                "name": "G4",
                "ticks": 17871,
                "time": 18.615625,
                "velocity": 0.9448818897637795
              },
              {
                "duration": 0.1999999999999993,
                "durationTicks": 192,
                "midi": 69,
                "name": "A4",
                "ticks": 24207,
                "time": 25.215625000000003,
                "velocity": 0.9448818897637795
              },
              {
                "duration": 0.39479166666666643,
                "durationTicks": 379,
                "midi": 69,
                "name": "A4",
                "ticks": 24399,
                "time": 25.415625000000002,
                "velocity": 0.9448818897637795
              },
              {
                "duration": 0.39479166666667,
                "durationTicks": 379,
                "midi": 69,
                "name": "A4",
                "ticks": 24783,
                "time": 25.815625,
                "velocity": 0.9448818897637795
              },
              {
                "duration": 0.1999999999999993,
                "durationTicks": 192,
                "midi": 69,
                "name": "A4",
                "ticks": 25167,
                "time": 26.215625000000003,
                "velocity": 0.9448818897637795
              },
              {
                "duration": 0.1999999999999993,
                "durationTicks": 192,
                "midi": 69,
                "name": "A4",
                "ticks": 25359,
                "time": 26.415625000000002,
                "velocity": 0.9448818897637795
              },
              {
                "duration": 0.1999999999999993,
                "durationTicks": 192,
                "midi": 69,
                "name": "A4",
                "ticks": 25551,
                "time": 26.615625,
                "velocity": 0.9448818897637795
              },
              {
                "duration": 0.1999999999999993,
                "durationTicks": 192,
                "midi": 69,
                "name": "A4",
                "ticks": 25743,
                "time": 26.815625,
                "velocity": 0.9448818897637795
              },
              {
                "duration": 0.39479166666667,
                "durationTicks": 379,
                "midi": 69,
                "name": "A4",
                "ticks": 25935,
                "time": 27.015625,
                "velocity": 0.9448818897637795
              },
              {
                "duration": 0.5947916666666693,
                "durationTicks": 571,
                "midi": 72,
                "name": "C5",
                "ticks": 26319,
                "time": 27.415625000000002,
                "velocity": 0.9448818897637795
              },
              {
                "duration": 0.20000000000000284,
                "durationTicks": 192,
                "midi": 69,
                "name": "A4",
                "ticks": 26895,
                "time": 28.015625,
                "velocity": 0.9448818897637795
              },
              {
                "duration": 0.1999999999999993,
                "durationTicks": 192,
                "midi": 69,
                "name": "A4",
                "ticks": 27087,
                "time": 28.215625000000003,
                "velocity": 0.9448818897637795
              },
              {
                "duration": 0.1999999999999993,
                "durationTicks": 192,
                "midi": 76,
                "name": "E5",
                "ticks": 27279,
                "time": 28.415625000000002,
                "velocity": 0.9448818897637795
              },
              {
                "duration": 0.3999999999999986,
                "durationTicks": 384,
                "midi": 74,
                "name": "D5",
                "ticks": 27471,
                "time": 28.615625,
                "velocity": 0.9448818897637795
              },
              {
                "duration": 0.5947916666666693,
                "durationTicks": 571,
                "midi": 72,
                "name": "C5",
                "ticks": 27855,
                "time": 29.015625,
                "velocity": 0.9448818897637795
              },
              {
                "duration": 0.39479166666667,
                "durationTicks": 379,
                "midi": 69,
                "name": "A4",
                "ticks": 28431,
                "time": 29.615625,
                "velocity": 0.9448818897637795
              },
              {
                "duration": 0.20000000000000284,
                "durationTicks": 192,
                "midi": 72,
                "name": "C5",
                "ticks": 28815,
                "time": 30.015625,
                "velocity": 0.9448818897637795
              },
              {
                "duration": 0.3999999999999986,
                "durationTicks": 384,
                "midi": 72,
                "name": "C5",
                "ticks": 29007,
                "time": 30.215625000000003,
                "velocity": 0.9448818897637795
              },
              {
                "duration": 0.3999999999999986,
                "durationTicks": 384,
                "midi": 69,
                "name": "A4",
                "ticks": 29391,
                "time": 30.615625,
                "velocity": 0.9448818897637795
              },
              {
                "duration": 0.5947916666666693,
                "durationTicks": 571,
                "midi": 67,
                "name": "G4",
                "ticks": 29775,
                "time": 31.015625,
                "velocity": 0.9448818897637795
              }
            ]
          }
     
      

      let ledZep_blackDog_60secs_R_notes = { 
                "notes": [
                  {
                    "duration": 0.18645833333333334,
                    "durationTicks": 179,
                    "midi": 40,
                    "name": "E2",
                    "ticks": 19,
                    "time": 0.019791666666666666,
                    "velocity": 0.7874015748031497
                  },
                  {
                    "duration": 0.18645833333333334,
                    "durationTicks": 179,
                    "midi": 43,
                    "name": "G2",
                    "ticks": 211,
                    "time": 0.21979166666666666,
                    "velocity": 0.7874015748031497
                  },
                  {
                    "duration": 0.18645833333333334,
                    "durationTicks": 179,
                    "midi": 44,
                    "name": "G#2",
                    "ticks": 403,
                    "time": 0.41979166666666673,
                    "velocity": 0.7874015748031497
                  },
                  {
                    "duration": 0.18645833333333328,
                    "durationTicks": 179,
                    "midi": 45,
                    "name": "A2",
                    "ticks": 595,
                    "time": 0.6197916666666667,
                    "velocity": 0.7874015748031497
                  },
                  {
                    "duration": 0.1864583333333334,
                    "durationTicks": 179,
                    "midi": 40,
                    "name": "E2",
                    "ticks": 787,
                    "time": 0.8197916666666667,
                    "velocity": 0.7874015748031497
                  },
                  {
                    "duration": 0.3791666666666669,
                    "durationTicks": 364,
                    "midi": 48,
                    "name": "C3",
                    "ticks": 979,
                    "time": 1.0197916666666667,
                    "velocity": 0.7874015748031497
                  },
                  {
                    "duration": 0.37916666666666643,
                    "durationTicks": 364,
                    "midi": 45,
                    "name": "A2",
                    "ticks": 1363,
                    "time": 1.4197916666666668,
                    "velocity": 0.7874015748031497
                  },
                  {
                    "duration": 0.18645833333333317,
                    "durationTicks": 179,
                    "midi": 50,
                    "name": "D3",
                    "ticks": 1747,
                    "time": 1.819791666666667,
                    "velocity": 0.7874015748031497
                  },
                  {
                    "duration": 0.1864583333333334,
                    "durationTicks": 179,
                    "midi": 52,
                    "name": "E3",
                    "ticks": 1939,
                    "time": 2.019791666666667,
                    "velocity": 0.7874015748031497
                  },
                  {
                    "duration": 0.125,
                    "durationTicks": 120,
                    "midi": 48,
                    "name": "C3",
                    "ticks": 2131,
                    "time": 2.219791666666667,
                    "velocity": 0.7874015748031497
                  },
                  {
                    "duration": 0.125,
                    "durationTicks": 120,
                    "midi": 50,
                    "name": "D3",
                    "ticks": 2258,
                    "time": 2.3520833333333333,
                    "velocity": 0.7874015748031497
                  },
                  {
                    "duration": 0.125,
                    "durationTicks": 120,
                    "midi": 48,
                    "name": "C3",
                    "ticks": 2386,
                    "time": 2.485416666666667,
                    "velocity": 0.7874015748031497
                  },
                  {
                    "duration": 0.1864583333333334,
                    "durationTicks": 179,
                    "midi": 45,
                    "name": "A2",
                    "ticks": 2515,
                    "time": 2.619791666666667,
                    "velocity": 0.7874015748031497
                  },
                  {
                    "duration": 0.18645833333333295,
                    "durationTicks": 179,
                    "midi": 45,
                    "name": "A2",
                    "ticks": 2707,
                    "time": 2.819791666666667,
                    "velocity": 0.7874015748031497
                  },
                  {
                    "duration": 0.3791666666666669,
                    "durationTicks": 364,
                    "midi": 48,
                    "name": "C3",
                    "ticks": 2899,
                    "time": 3.019791666666667,
                    "velocity": 0.7874015748031497
                  },
                  {
                    "duration": 0.3791666666666669,
                    "durationTicks": 364,
                    "midi": 45,
                    "name": "A2",
                    "ticks": 3283,
                    "time": 3.419791666666667,
                    "velocity": 0.7874015748031497
                  },
                  {
                    "duration": 0.18645833333333384,
                    "durationTicks": 179,
                    "midi": 43,
                    "name": "G2",
                    "ticks": 3667,
                    "time": 3.8197916666666667,
                    "velocity": 0.7874015748031497
                  },
                  {
                    "duration": 0.1864583333333334,
                    "durationTicks": 179,
                    "midi": 45,
                    "name": "A2",
                    "ticks": 3859,
                    "time": 4.019791666666666,
                    "velocity": 0.7874015748031497
                  },
                  {
                    "duration": 0.1864583333333334,
                    "durationTicks": 179,
                    "midi": 45,
                    "name": "A2",
                    "ticks": 4051,
                    "time": 4.219791666666667,
                    "velocity": 0.7874015748031497
                  },
                  {
                    "duration": 0.1864583333333334,
                    "durationTicks": 179,
                    "midi": 38,
                    "name": "D2",
                    "ticks": 4243,
                    "time": 4.419791666666667,
                    "velocity": 0.7874015748031497
                  },
                  {
                    "duration": 0.1864583333333334,
                    "durationTicks": 179,
                    "midi": 40,
                    "name": "E2",
                    "ticks": 4435,
                    "time": 4.619791666666667,
                    "velocity": 0.7874015748031497
                  },
                  {
                    "duration": 0.1864583333333334,
                    "durationTicks": 179,
                    "midi": 36,
                    "name": "C2",
                    "ticks": 4627,
                    "time": 4.819791666666667,
                    "velocity": 0.7874015748031497
                  },
                  {
                    "duration": 0.18645833333333428,
                    "durationTicks": 179,
                    "midi": 38,
                    "name": "D2",
                    "ticks": 4819,
                    "time": 5.019791666666666,
                    "velocity": 0.7874015748031497
                  },
                  {
                    "duration": 0.5656249999999998,
                    "durationTicks": 543,
                    "midi": 33,
                    "name": "A1",
                    "ticks": 5011,
                    "time": 5.219791666666667,
                    "velocity": 0.7874015748031497
                  },
                  {
                    "duration": 6.075000000000001,
                    "durationTicks": 5832,
                    "midi": 33,
                    "name": "A1",
                    "ticks": 5587,
                    "time": 5.819791666666667,
                    "velocity": 0.7874015748031497
                  },
                  {
                    "duration": 0.1864583333333325,
                    "durationTicks": 179,
                    "midi": 40,
                    "name": "E2",
                    "ticks": 11923,
                    "time": 12.419791666666669,
                    "velocity": 0.7874015748031497
                  },
                  {
                    "duration": 0.1864583333333325,
                    "durationTicks": 179,
                    "midi": 43,
                    "name": "G2",
                    "ticks": 12115,
                    "time": 12.619791666666668,
                    "velocity": 0.7874015748031497
                  },
                  {
                    "duration": 0.18645833333333428,
                    "durationTicks": 179,
                    "midi": 44,
                    "name": "G#2",
                    "ticks": 12307,
                    "time": 12.819791666666667,
                    "velocity": 0.7874015748031497
                  },
                  {
                    "duration": 0.18645833333333428,
                    "durationTicks": 179,
                    "midi": 45,
                    "name": "A2",
                    "ticks": 12499,
                    "time": 13.019791666666666,
                    "velocity": 0.7874015748031497
                  },
                  {
                    "duration": 0.18645833333333428,
                    "durationTicks": 179,
                    "midi": 40,
                    "name": "E2",
                    "ticks": 12691,
                    "time": 13.219791666666666,
                    "velocity": 0.7874015748031497
                  },
                  {
                    "duration": 0.3791666666666682,
                    "durationTicks": 364,
                    "midi": 48,
                    "name": "C3",
                    "ticks": 12883,
                    "time": 13.419791666666667,
                    "velocity": 0.7874015748031497
                  },
                  {
                    "duration": 0.3791666666666682,
                    "durationTicks": 364,
                    "midi": 45,
                    "name": "A2",
                    "ticks": 13267,
                    "time": 13.819791666666667,
                    "velocity": 0.7874015748031497
                  },
                  {
                    "duration": 0.18645833333333428,
                    "durationTicks": 179,
                    "midi": 50,
                    "name": "D3",
                    "ticks": 13651,
                    "time": 14.219791666666666,
                    "velocity": 0.7874015748031497
                  },
                  {
                    "duration": 0.18645833333333428,
                    "durationTicks": 179,
                    "midi": 52,
                    "name": "E3",
                    "ticks": 13843,
                    "time": 14.419791666666667,
                    "velocity": 0.7874015748031497
                  },
                  {
                    "duration": 0.125,
                    "durationTicks": 120,
                    "midi": 48,
                    "name": "C3",
                    "ticks": 14035,
                    "time": 14.619791666666666,
                    "velocity": 0.7874015748031497
                  },
                  {
                    "duration": 0.125,
                    "durationTicks": 120,
                    "midi": 50,
                    "name": "D3",
                    "ticks": 14162,
                    "time": 14.752083333333335,
                    "velocity": 0.7874015748031497
                  },
                  {
                    "duration": 0.125,
                    "durationTicks": 120,
                    "midi": 48,
                    "name": "C3",
                    "ticks": 14290,
                    "time": 14.885416666666666,
                    "velocity": 0.7874015748031497
                  },
                  {
                    "duration": 0.18645833333333428,
                    "durationTicks": 179,
                    "midi": 45,
                    "name": "A2",
                    "ticks": 14419,
                    "time": 15.019791666666666,
                    "velocity": 0.7874015748031497
                  },
                  {
                    "duration": 0.18645833333333428,
                    "durationTicks": 179,
                    "midi": 45,
                    "name": "A2",
                    "ticks": 14611,
                    "time": 15.219791666666666,
                    "velocity": 0.7874015748031497
                  },
                  {
                    "duration": 0.3791666666666682,
                    "durationTicks": 364,
                    "midi": 48,
                    "name": "C3",
                    "ticks": 14803,
                    "time": 15.419791666666667,
                    "velocity": 0.7874015748031497
                  },
                  {
                    "duration": 0.37916666666666643,
                    "durationTicks": 364,
                    "midi": 45,
                    "name": "A2",
                    "ticks": 15187,
                    "time": 15.819791666666667,
                    "velocity": 0.7874015748031497
                  },
                  {
                    "duration": 0.18645833333333428,
                    "durationTicks": 179,
                    "midi": 43,
                    "name": "G2",
                    "ticks": 15571,
                    "time": 16.219791666666666,
                    "velocity": 0.7874015748031497
                  },
                  {
                    "duration": 0.18645833333333428,
                    "durationTicks": 179,
                    "midi": 45,
                    "name": "A2",
                    "ticks": 15763,
                    "time": 16.419791666666665,
                    "velocity": 0.7874015748031497
                  },
                  {
                    "duration": 0.18645833333333428,
                    "durationTicks": 179,
                    "midi": 45,
                    "name": "A2",
                    "ticks": 15955,
                    "time": 16.619791666666668,
                    "velocity": 0.7874015748031497
                  },
                  {
                    "duration": 0.18645833333333428,
                    "durationTicks": 179,
                    "midi": 38,
                    "name": "D2",
                    "ticks": 16147,
                    "time": 16.819791666666667,
                    "velocity": 0.7874015748031497
                  },
                  {
                    "duration": 0.18645833333333428,
                    "durationTicks": 179,
                    "midi": 40,
                    "name": "E2",
                    "ticks": 16339,
                    "time": 17.019791666666666,
                    "velocity": 0.7874015748031497
                  },
                  {
                    "duration": 0.18645833333333428,
                    "durationTicks": 179,
                    "midi": 36,
                    "name": "C2",
                    "ticks": 16531,
                    "time": 17.219791666666666,
                    "velocity": 0.7874015748031497
                  },
                  {
                    "duration": 0.18645833333333428,
                    "durationTicks": 179,
                    "midi": 38,
                    "name": "D2",
                    "ticks": 16723,
                    "time": 17.419791666666665,
                    "velocity": 0.7874015748031497
                  },
                  {
                    "duration": 0.5656249999999972,
                    "durationTicks": 543,
                    "midi": 33,
                    "name": "A1",
                    "ticks": 16915,
                    "time": 17.619791666666668,
                    "velocity": 0.7874015748031497
                  },
                  {
                    "duration": 6.075000000000003,
                    "durationTicks": 5832,
                    "midi": 33,
                    "name": "A1",
                    "ticks": 17491,
                    "time": 18.219791666666666,
                    "velocity": 0.7874015748031497
                  },
                  {
                    "duration": 0.18645833333333428,
                    "durationTicks": 179,
                    "midi": 40,
                    "name": "E2",
                    "ticks": 23827,
                    "time": 24.819791666666667,
                    "velocity": 0.7874015748031497
                  },
                  {
                    "duration": 0.18645833333333428,
                    "durationTicks": 179,
                    "midi": 43,
                    "name": "G2",
                    "ticks": 24019,
                    "time": 25.019791666666666,
                    "velocity": 0.7874015748031497
                  },
                  {
                    "duration": 0.18645833333333428,
                    "durationTicks": 179,
                    "midi": 44,
                    "name": "G#2",
                    "ticks": 24211,
                    "time": 25.219791666666666,
                    "velocity": 0.7874015748031497
                  },
                  {
                    "duration": 0.18645833333333428,
                    "durationTicks": 179,
                    "midi": 45,
                    "name": "A2",
                    "ticks": 24403,
                    "time": 25.41979166666667,
                    "velocity": 0.7874015748031497
                  },
                  {
                    "duration": 0.18645833333333073,
                    "durationTicks": 179,
                    "midi": 40,
                    "name": "E2",
                    "ticks": 24595,
                    "time": 25.61979166666667,
                    "velocity": 0.7874015748031497
                  },
                  {
                    "duration": 0.3791666666666629,
                    "durationTicks": 364,
                    "midi": 48,
                    "name": "C3",
                    "ticks": 24787,
                    "time": 25.81979166666667,
                    "velocity": 0.7874015748031497
                  },
                  {
                    "duration": 0.3791666666666629,
                    "durationTicks": 364,
                    "midi": 45,
                    "name": "A2",
                    "ticks": 25171,
                    "time": 26.21979166666667,
                    "velocity": 0.7874015748031497
                  },
                  {
                    "duration": 0.18645833333333073,
                    "durationTicks": 179,
                    "midi": 50,
                    "name": "D3",
                    "ticks": 25555,
                    "time": 26.61979166666667,
                    "velocity": 0.7874015748031497
                  },
                  {
                    "duration": 0.18645833333333073,
                    "durationTicks": 179,
                    "midi": 52,
                    "name": "E3",
                    "ticks": 25747,
                    "time": 26.81979166666667,
                    "velocity": 0.7874015748031497
                  },
                  {
                    "duration": 0.125,
                    "durationTicks": 120,
                    "midi": 48,
                    "name": "C3",
                    "ticks": 25939,
                    "time": 27.01979166666667,
                    "velocity": 0.7874015748031497
                  },
                  {
                    "duration": 0.125,
                    "durationTicks": 120,
                    "midi": 50,
                    "name": "D3",
                    "ticks": 26066,
                    "time": 27.152083333333334,
                    "velocity": 0.7874015748031497
                  },
                  {
                    "duration": 0.125,
                    "durationTicks": 120,
                    "midi": 48,
                    "name": "C3",
                    "ticks": 26194,
                    "time": 27.28541666666667,
                    "velocity": 0.7874015748031497
                  },
                  {
                    "duration": 0.18645833333333428,
                    "durationTicks": 179,
                    "midi": 45,
                    "name": "A2",
                    "ticks": 26323,
                    "time": 27.41979166666667,
                    "velocity": 0.7874015748031497
                  },
                  {
                    "duration": 0.18645833333333073,
                    "durationTicks": 179,
                    "midi": 45,
                    "name": "A2",
                    "ticks": 26515,
                    "time": 27.61979166666667,
                    "velocity": 0.7874015748031497
                  },
                  {
                    "duration": 0.3791666666666629,
                    "durationTicks": 364,
                    "midi": 48,
                    "name": "C3",
                    "ticks": 26707,
                    "time": 27.81979166666667,
                    "velocity": 0.7874015748031497
                  },
                  {
                    "duration": 0.3791666666666629,
                    "durationTicks": 364,
                    "midi": 45,
                    "name": "A2",
                    "ticks": 27091,
                    "time": 28.21979166666667,
                    "velocity": 0.7874015748031497
                  },
                  {
                    "duration": 0.18645833333333073,
                    "durationTicks": 179,
                    "midi": 43,
                    "name": "G2",
                    "ticks": 27475,
                    "time": 28.61979166666667,
                    "velocity": 0.7874015748031497
                  },
                  {
                    "duration": 0.18645833333333073,
                    "durationTicks": 179,
                    "midi": 45,
                    "name": "A2",
                    "ticks": 27667,
                    "time": 28.81979166666667,
                    "velocity": 0.7874015748031497
                  },
                  {
                    "duration": 0.18645833333333073,
                    "durationTicks": 179,
                    "midi": 45,
                    "name": "A2",
                    "ticks": 27859,
                    "time": 29.01979166666667,
                    "velocity": 0.7874015748031497
                  },
                  {
                    "duration": 0.18645833333333073,
                    "durationTicks": 179,
                    "midi": 38,
                    "name": "D2",
                    "ticks": 28051,
                    "time": 29.21979166666667,
                    "velocity": 0.7874015748031497
                  },
                  {
                    "duration": 0.18645833333333428,
                    "durationTicks": 179,
                    "midi": 40,
                    "name": "E2",
                    "ticks": 28243,
                    "time": 29.41979166666667,
                    "velocity": 0.7874015748031497
                  },
                  {
                    "duration": 0.18645833333333073,
                    "durationTicks": 179,
                    "midi": 36,
                    "name": "C2",
                    "ticks": 28435,
                    "time": 29.61979166666667,
                    "velocity": 0.7874015748031497
                  },
                  {
                    "duration": 0.18645833333333073,
                    "durationTicks": 179,
                    "midi": 38,
                    "name": "D2",
                    "ticks": 28627,
                    "time": 29.81979166666667,
                    "velocity": 0.7874015748031497
                  },
                  {
                    "duration": 0.5656250000000007,
                    "durationTicks": 543,
                    "midi": 33,
                    "name": "A1",
                    "ticks": 28819,
                    "time": 30.01979166666667,
                    "velocity": 0.7874015748031497
                  },
                  {
                    "duration": 0.5656249999999972,
                    "durationTicks": 543,
                    "midi": 33,
                    "name": "A1",
                    "ticks": 29395,
                    "time": 30.61979166666667,
                    "velocity": 0.7874015748031497
                  },
                  {
                    "duration": 0.18645833333333073,
                    "durationTicks": 179,
                    "midi": 35,
                    "name": "B1",
                    "ticks": 29971,
                    "time": 31.21979166666667,
                    "velocity": 0.7874015748031497
                  },
                  {
                    "duration": 0.18645833333333428,
                    "durationTicks": 179,
                    "midi": 38,
                    "name": "D2",
                    "ticks": 30163,
                    "time": 31.41979166666667,
                    "velocity": 0.7874015748031497
                  },
                  {
                    "duration": 0.18645833333333073,
                    "durationTicks": 179,
                    "midi": 39,
                    "name": "D#2",
                    "ticks": 30355,
                    "time": 31.61979166666667,
                    "velocity": 0.7874015748031497
                  },
                  {
                    "duration": 0.18645833333333073,
                    "durationTicks": 179,
                    "midi": 40,
                    "name": "E2",
                    "ticks": 30547,
                    "time": 31.81979166666667,
                    "velocity": 0.7874015748031497
                  },
                  {
                    "duration": 0.18645833333333428,
                    "durationTicks": 179,
                    "midi": 35,
                    "name": "B1",
                    "ticks": 30739,
                    "time": 32.01979166666667,
                    "velocity": 0.7874015748031497
                  },
                  {
                    "duration": 0.3791666666666629,
                    "durationTicks": 364,
                    "midi": 43,
                    "name": "G2",
                    "ticks": 30931,
                    "time": 32.21979166666667,
                    "velocity": 0.7874015748031497
                  },
                  {
                    "duration": 0.3791666666666629,
                    "durationTicks": 364,
                    "midi": 40,
                    "name": "E2",
                    "ticks": 31315,
                    "time": 32.61979166666667,
                    "velocity": 0.7874015748031497
                  },
                  {
                    "duration": 0.18645833333333428,
                    "durationTicks": 179,
                    "midi": 35,
                    "name": "B1",
                    "ticks": 31699,
                    "time": 33.01979166666667,
                    "velocity": 0.7874015748031497
                  },
                  {
                    "duration": 0.18645833333332718,
                    "durationTicks": 179,
                    "midi": 38,
                    "name": "D2",
                    "ticks": 31891,
                    "time": 33.21979166666667,
                    "velocity": 0.7874015748031497
                  },
                  {
                    "duration": 0.18645833333333428,
                    "durationTicks": 179,
                    "midi": 39,
                    "name": "D#2",
                    "ticks": 32083,
                    "time": 33.41979166666667,
                    "velocity": 0.7874015748031497
                  },
                  {
                    "duration": 0.18645833333332718,
                    "durationTicks": 179,
                    "midi": 40,
                    "name": "E2",
                    "ticks": 32275,
                    "time": 33.61979166666667,
                    "velocity": 0.7874015748031497
                  },
                  {
                    "duration": 0.18645833333333428,
                    "durationTicks": 179,
                    "midi": 35,
                    "name": "B1",
                    "ticks": 32467,
                    "time": 33.81979166666667,
                    "velocity": 0.7874015748031497
                  },
                  {
                    "duration": 0.375,
                    "durationTicks": 360,
                    "midi": 43,
                    "name": "G2",
                    "ticks": 32659,
                    "time": 34.01979166666667,
                    "velocity": 0.7874015748031497
                  },
                  {
                    "duration": 0.3791666666666629,
                    "durationTicks": 364,
                    "midi": 40,
                    "name": "E2",
                    "ticks": 33043,
                    "time": 34.41979166666667,
                    "velocity": 0.7874015748031497
                  },
                  {
                    "duration": 0.18645833333333428,
                    "durationTicks": 179,
                    "midi": 35,
                    "name": "B1",
                    "ticks": 33427,
                    "time": 34.81979166666667,
                    "velocity": 0.7874015748031497
                  },
                  {
                    "duration": 0.18645833333333428,
                    "durationTicks": 179,
                    "midi": 38,
                    "name": "D2",
                    "ticks": 33619,
                    "time": 35.01979166666667,
                    "velocity": 0.7874015748031497
                  },
                  {
                    "duration": 0.18645833333332718,
                    "durationTicks": 179,
                    "midi": 39,
                    "name": "D#2",
                    "ticks": 33811,
                    "time": 35.21979166666667,
                    "velocity": 0.7874015748031497
                  },
                  {
                    "duration": 0.18645833333333428,
                    "durationTicks": 179,
                    "midi": 40,
                    "name": "E2",
                    "ticks": 34003,
                    "time": 35.41979166666667,
                    "velocity": 0.7874015748031497
                  },
                  {
                    "duration": 0.18645833333332718,
                    "durationTicks": 179,
                    "midi": 35,
                    "name": "B1",
                    "ticks": 34195,
                    "time": 35.61979166666667,
                    "velocity": 0.7874015748031497
                  },
                  {
                    "duration": 0.3791666666666629,
                    "durationTicks": 364,
                    "midi": 43,
                    "name": "G2",
                    "ticks": 34387,
                    "time": 35.81979166666667,
                    "velocity": 0.7874015748031497
                  },
                  {
                    "duration": 0.3791666666666629,
                    "durationTicks": 364,
                    "midi": 40,
                    "name": "E2",
                    "ticks": 34771,
                    "time": 36.21979166666667,
                    "velocity": 0.7874015748031497
                  },
                  {
                    "duration": 0.18645833333332718,
                    "durationTicks": 179,
                    "midi": 35,
                    "name": "B1",
                    "ticks": 35155,
                    "time": 36.61979166666667,
                    "velocity": 0.7874015748031497
                  },
                  {
                    "duration": 0.18645833333333428,
                    "durationTicks": 179,
                    "midi": 38,
                    "name": "D2",
                    "ticks": 35347,
                    "time": 36.81979166666667,
                    "velocity": 0.7874015748031497
                  },
                  {
                    "duration": 0.18645833333333428,
                    "durationTicks": 179,
                    "midi": 39,
                    "name": "D#2",
                    "ticks": 35539,
                    "time": 37.01979166666667,
                    "velocity": 0.7874015748031497
                  },
                  {
                    "duration": 0.18645833333332718,
                    "durationTicks": 179,
                    "midi": 40,
                    "name": "E2",
                    "ticks": 35731,
                    "time": 37.21979166666667,
                    "velocity": 0.7874015748031497
                  },
                  {
                    "duration": 0.18645833333332718,
                    "durationTicks": 179,
                    "midi": 40,
                    "name": "E2",
                    "ticks": 36115,
                    "time": 37.61979166666667,
                    "velocity": 0.7874015748031497
                  },
                  {
                    "duration": 0.18645833333333428,
                    "durationTicks": 179,
                    "midi": 43,
                    "name": "G2",
                    "ticks": 36307,
                    "time": 37.81979166666667,
                    "velocity": 0.7874015748031497
                  },
                  {
                    "duration": 0.18645833333333428,
                    "durationTicks": 179,
                    "midi": 44,
                    "name": "G#2",
                    "ticks": 36499,
                    "time": 38.01979166666667,
                    "velocity": 0.7874015748031497
                  },
                  {
                    "duration": 0.18645833333332718,
                    "durationTicks": 179,
                    "midi": 45,
                    "name": "A2",
                    "ticks": 36691,
                    "time": 38.21979166666667,
                    "velocity": 0.7874015748031497
                  },
                  {
                    "duration": 0.18645833333333428,
                    "durationTicks": 179,
                    "midi": 40,
                    "name": "E2",
                    "ticks": 36883,
                    "time": 38.41979166666667,
                    "velocity": 0.7874015748031497
                  },
                  {
                    "duration": 0.3791666666666629,
                    "durationTicks": 364,
                    "midi": 48,
                    "name": "C3",
                    "ticks": 37075,
                    "time": 38.61979166666667,
                    "velocity": 0.7874015748031497
                  },
                  {
                    "duration": 0.3791666666666629,
                    "durationTicks": 364,
                    "midi": 45,
                    "name": "A2",
                    "ticks": 37459,
                    "time": 39.01979166666667,
                    "velocity": 0.7874015748031497
                  },
                  {
                    "duration": 0.18645833333333428,
                    "durationTicks": 179,
                    "midi": 50,
                    "name": "D3",
                    "ticks": 37843,
                    "time": 39.41979166666667,
                    "velocity": 0.7874015748031497
                  },
                  {
                    "duration": 0.18645833333333428,
                    "durationTicks": 179,
                    "midi": 52,
                    "name": "E3",
                    "ticks": 38035,
                    "time": 39.61979166666667,
                    "velocity": 0.7874015748031497
                  },
                  {
                    "duration": 0.125,
                    "durationTicks": 120,
                    "midi": 48,
                    "name": "C3",
                    "ticks": 38227,
                    "time": 39.819791666666674,
                    "velocity": 0.7874015748031497
                  },
                  {
                    "duration": 0.125,
                    "durationTicks": 120,
                    "midi": 50,
                    "name": "D3",
                    "ticks": 38354,
                    "time": 39.952083333333334,
                    "velocity": 0.7874015748031497
                  },
                  {
                    "duration": 0.125,
                    "durationTicks": 120,
                    "midi": 48,
                    "name": "C3",
                    "ticks": 38482,
                    "time": 40.085416666666674,
                    "velocity": 0.7874015748031497
                  },
                  {
                    "duration": 0.18645833333332718,
                    "durationTicks": 179,
                    "midi": 45,
                    "name": "A2",
                    "ticks": 38611,
                    "time": 40.21979166666667,
                    "velocity": 0.7874015748031497
                  },
                  {
                    "duration": 0.18645833333333428,
                    "durationTicks": 179,
                    "midi": 45,
                    "name": "A2",
                    "ticks": 38803,
                    "time": 40.41979166666667,
                    "velocity": 0.7874015748031497
                  },
                  {
                    "duration": 0.3791666666666629,
                    "durationTicks": 364,
                    "midi": 48,
                    "name": "C3",
                    "ticks": 38995,
                    "time": 40.61979166666667,
                    "velocity": 0.7874015748031497
                  },
                  {
                    "duration": 0.3791666666666629,
                    "durationTicks": 364,
                    "midi": 45,
                    "name": "A2",
                    "ticks": 39379,
                    "time": 41.01979166666667,
                    "velocity": 0.7874015748031497
                  },
                  {
                    "duration": 0.18645833333333428,
                    "durationTicks": 179,
                    "midi": 43,
                    "name": "G2",
                    "ticks": 39763,
                    "time": 41.41979166666667,
                    "velocity": 0.7874015748031497
                  },
                  {
                    "duration": 0.18645833333333428,
                    "durationTicks": 179,
                    "midi": 45,
                    "name": "A2",
                    "ticks": 39955,
                    "time": 41.61979166666667,
                    "velocity": 0.7874015748031497
                  },
                  {
                    "duration": 0.18645833333332718,
                    "durationTicks": 179,
                    "midi": 45,
                    "name": "A2",
                    "ticks": 40147,
                    "time": 41.819791666666674,
                    "velocity": 0.7874015748031497
                  },
                  {
                    "duration": 0.18645833333333428,
                    "durationTicks": 179,
                    "midi": 38,
                    "name": "D2",
                    "ticks": 40339,
                    "time": 42.01979166666667,
                    "velocity": 0.7874015748031497
                  },
                  {
                    "duration": 0.18645833333332718,
                    "durationTicks": 179,
                    "midi": 40,
                    "name": "E2",
                    "ticks": 40531,
                    "time": 42.21979166666667,
                    "velocity": 0.7874015748031497
                  },
                  {
                    "duration": 0.18645833333333428,
                    "durationTicks": 179,
                    "midi": 36,
                    "name": "C2",
                    "ticks": 40723,
                    "time": 42.41979166666667,
                    "velocity": 0.7874015748031497
                  },
                  {
                    "duration": 0.18645833333333428,
                    "durationTicks": 179,
                    "midi": 38,
                    "name": "D2",
                    "ticks": 40915,
                    "time": 42.61979166666667,
                    "velocity": 0.7874015748031497
                  },
                  {
                    "duration": 0.5656249999999972,
                    "durationTicks": 543,
                    "midi": 33,
                    "name": "A1",
                    "ticks": 41107,
                    "time": 42.819791666666674,
                    "velocity": 0.7874015748031497
                  },
                  {
                    "duration": 0.3791666666666629,
                    "durationTicks": 364,
                    "midi": 33,
                    "name": "A1",
                    "ticks": 41683,
                    "time": 43.41979166666667,
                    "velocity": 0.7874015748031497
                  },
                  {
                    "duration": 0.5656250000000043,
                    "durationTicks": 543,
                    "midi": 33,
                    "name": "A1",
                    "ticks": 42643,
                    "time": 44.41979166666667,
                    "velocity": 0.7874015748031497
                  },
                  {
                    "duration": 0.3791666666666629,
                    "durationTicks": 364,
                    "midi": 33,
                    "name": "A1",
                    "ticks": 43219,
                    "time": 45.01979166666667,
                    "velocity": 0.7874015748031497
                  },
                  {
                    "duration": 0.5656250000000043,
                    "durationTicks": 543,
                    "midi": 33,
                    "name": "A1",
                    "ticks": 44179,
                    "time": 46.01979166666667,
                    "velocity": 0.7874015748031497
                  },
                  {
                    "duration": 0.3791666666666629,
                    "durationTicks": 364,
                    "midi": 33,
                    "name": "A1",
                    "ticks": 44755,
                    "time": 46.61979166666667,
                    "velocity": 0.7874015748031497
                  },
                  {
                    "duration": 0.7541666666666629,
                    "durationTicks": 724,
                    "midi": 33,
                    "name": "A1",
                    "ticks": 45715,
                    "time": 47.61979166666667,
                    "velocity": 0.7874015748031497
                  },
                  {
                    "duration": 0.7541666666666629,
                    "durationTicks": 724,
                    "midi": 36,
                    "name": "C2",
                    "ticks": 46483,
                    "time": 48.41979166666667,
                    "velocity": 0.7874015748031497
                  },
                  {
                    "duration": 0.7541666666666629,
                    "durationTicks": 724,
                    "midi": 33,
                    "name": "A1",
                    "ticks": 47251,
                    "time": 49.21979166666667,
                    "velocity": 0.7874015748031497
                  },
                  {
                    "duration": 0.7541666666666629,
                    "durationTicks": 724,
                    "midi": 36,
                    "name": "C2",
                    "ticks": 48019,
                    "time": 50.01979166666667,
                    "velocity": 0.7874015748031497
                  },
                  {
                    "duration": 0.7541666666666629,
                    "durationTicks": 724,
                    "midi": 33,
                    "name": "A1",
                    "ticks": 48787,
                    "time": 50.819791666666674,
                    "velocity": 0.7874015748031497
                  },
                  {
                    "duration": 0.7541666666666771,
                    "durationTicks": 724,
                    "midi": 36,
                    "name": "C2",
                    "ticks": 49555,
                    "time": 51.619791666666664,
                    "velocity": 0.7874015748031497
                  },
                  {
                    "duration": 0.75416666666667,
                    "durationTicks": 724,
                    "midi": 33,
                    "name": "A1",
                    "ticks": 50323,
                    "time": 52.41979166666667,
                    "velocity": 0.7874015748031497
                  },
                  {
                    "duration": 0.7541666666666771,
                    "durationTicks": 724,
                    "midi": 36,
                    "name": "C2",
                    "ticks": 51091,
                    "time": 53.219791666666666,
                    "velocity": 0.7874015748031497
                  },
                  {
                    "duration": 0.7541666666666771,
                    "durationTicks": 724,
                    "midi": 33,
                    "name": "A1",
                    "ticks": 51859,
                    "time": 54.01979166666666,
                    "velocity": 0.7874015748031497
                  },
                  {
                    "duration": 0.75416666666667,
                    "durationTicks": 724,
                    "midi": 36,
                    "name": "C2",
                    "ticks": 52627,
                    "time": 54.81979166666667,
                    "velocity": 0.7874015748031497
                  },
                  {
                    "duration": 0.5656250000000043,
                    "durationTicks": 543,
                    "midi": 33,
                    "name": "A1",
                    "ticks": 53395,
                    "time": 55.619791666666664,
                    "velocity": 0.7874015748031497
                  },
                  {
                    "duration": 5.694791666666674,
                    "durationTicks": 5467,
                    "midi": 33,
                    "name": "A1",
                    "ticks": 53971,
                    "time": 56.219791666666666,
                    "velocity": 0.7874015748031497
                  }/*,,
                  {
                    "duration": 0.1864583333333485,
                    "durationTicks": 179,
                    "midi": 38,
                    "name": "D2",
                    "ticks": 64147,
                    "time": 66.81979166666666,
                    "velocity": 0.7874015748031497
                  },
                  {
                    "duration": 0.18645833333333428,
                    "durationTicks": 179,
                    "midi": 36,
                    "name": "C2",
                    "ticks": 64531,
                    "time": 67.21979166666667,
                    "velocity": 0.7874015748031497
                  },
                  {
                    "duration": 0.18645833333333428,
                    "durationTicks": 179,
                    "midi": 38,
                    "name": "D2",
                    "ticks": 64723,
                    "time": 67.41979166666667,
                    "velocity": 0.7874015748031497
                  },
                  {
                    "duration": 0.5656249999999972,
                    "durationTicks": 543,
                    "midi": 33,
                    "name": "A1",
                    "ticks": 64915,
                    "time": 67.61979166666667,
                    "velocity": 0.7874015748031497
                  },
                  {
                    "duration": 6.075000000000003,
                    "durationTicks": 5832,
                    "midi": 33,
                    "name": "A1",
                    "ticks": 65491,
                    "time": 68.21979166666667,
                    "velocity": 0.7874015748031497
                  }
                  
                  {
                    "duration": 0.1864583333333485,
                    "durationTicks": 179,
                    "midi": 45,
                    "name": "A2",
                    "ticks": 75859,
                    "time": 79.01979166666666,
                    "velocity": 0.7874015748031497
                  },
                  {
                    "duration": 0.18645833333333428,
                    "durationTicks": 179,
                    "midi": 38,
                    "name": "D2",
                    "ticks": 76051,
                    "time": 79.21979166666667,
                    "velocity": 0.7874015748031497
                  },
                  {
                    "duration": 0.18645833333333428,
                    "durationTicks": 179,
                    "midi": 40,
                    "name": "E2",
                    "ticks": 76243,
                    "time": 79.41979166666667,
                    "velocity": 0.7874015748031497
                  },
                  {
                    "duration": 0.18645833333333428,
                    "durationTicks": 179,
                    "midi": 36,
                    "name": "C2",
                    "ticks": 76435,
                    "time": 79.61979166666667,
                    "velocity": 0.7874015748031497
                  },
                  {
                    "duration": 0.18645833333333428,
                    "durationTicks": 179,
                    "midi": 38,
                    "name": "D2",
                    "ticks": 76627,
                    "time": 79.81979166666667,
                    "velocity": 0.7874015748031497
                  },
                  {
                    "duration": 0.5656250000000114,
                    "durationTicks": 543,
                    "midi": 33,
                    "name": "A1",
                    "ticks": 76819,
                    "time": 80.01979166666666,
                    "velocity": 0.7874015748031497
                  },
                  {
                    "duration": 0.5656249999999972,
                    "durationTicks": 543,
                    "midi": 40,
                    "name": "E2",
                    "ticks": 107155,
                    "time": 111.61979166666669,
                    "velocity": 0.7874015748031497
                  },
                  {
                    "duration": 0.5656249999999972,
                    "durationTicks": 543,
                    "midi": 38,
                    "name": "D2",
                    "ticks": 107923,
                    "time": 112.41979166666668,
                    "velocity": 0.7874015748031497
                  },
                  {
                    "duration": 0.18645833333332007,
                    "durationTicks": 179,
                    "midi": 33,
                    "name": "A1",
                    "ticks": 108691,
                    "time": 113.21979166666668,
                    "velocity": 0.7874015748031497
                  },
                  {
                    "duration": 0.37916666666664867,
                    "durationTicks": 364,
                    "midi": 31,
                    "name": "G1",
                    "ticks": 108883,
                    "time": 113.41979166666668,
                    "velocity": 0.7874015748031497
                  },
                  {
                    "duration": 0.3791666666666629,
                    "durationTicks": 364,
                    "midi": 33,
                    "name": "A1",
                    "ticks": 109267,
                    "time": 113.81979166666667,
                    "velocity": 0.7874015748031497
                  } 
                  */
                ]
              }
              
           
          